<svg width="270" height="244" viewBox="0 0 270 244" fill="none" xmlns="http://www.w3.org/2000/svg">
<path d="M242.897 226.398H225.016V226.562H242.897V226.398Z" fill="#EBEBEB"/>
<path d="M178.824 228.191H174.133V228.355H178.824V228.191Z" fill="#EBEBEB"/>
<path d="M224.478 220.282H214.117V220.446H224.478V220.282Z" fill="#EBEBEB"/>
<path d="M51.6392 221.39H28.3213V221.554H51.6392V221.39Z" fill="#EBEBEB"/>
<path d="M59.8687 221.39H56.4512V221.554H59.8687V221.39Z" fill="#EBEBEB"/>
<path d="M121.558 224.17H70.9805V224.334H121.558V224.17Z" fill="#EBEBEB"/>
<path d="M127.954 186.397H23.7117C22.8941 186.397 22.11 186.001 21.5318 185.295C20.9537 184.589 20.6289 183.632 20.6289 182.634V3.73058C20.636 2.73815 20.964 1.78933 21.5413 1.09064C22.1187 0.39195 22.8987 -3.80479e-05 23.7117 2.76995e-09H127.954C128.772 2.76996e-09 129.556 0.396514 130.134 1.10231C130.712 1.80811 131.037 2.76538 131.037 3.76353V182.634C131.037 183.632 130.712 184.589 130.134 185.295C129.556 186.001 128.772 186.397 127.954 186.397ZM23.7117 0.131823C22.9303 0.133565 22.1814 0.513278 21.6289 1.1878C21.0763 1.86232 20.7653 2.77667 20.7639 3.73058V182.634C20.7653 183.588 21.0763 184.502 21.6289 185.176C22.1814 185.851 22.9303 186.231 23.7117 186.232H127.954C128.735 186.231 129.484 185.851 130.037 185.176C130.589 184.502 130.9 183.588 130.902 182.634V3.73058C130.9 2.77667 130.589 1.86232 130.037 1.1878C129.484 0.513278 128.735 0.133565 127.954 0.131823H23.7117Z" fill="#EBEBEB"/>
<path d="M244.739 186.397H140.486C139.669 186.395 138.886 185.998 138.308 185.293C137.73 184.588 137.405 183.631 137.403 182.634V3.73058C137.412 2.73869 137.74 1.79086 138.317 1.09254C138.894 0.394221 139.674 0.00167961 140.486 0H244.739C245.55 0.00343035 246.328 0.39695 246.903 1.09527C247.478 1.79358 247.804 2.74043 247.811 3.73058V182.634C247.811 183.63 247.488 184.585 246.912 185.29C246.336 185.996 245.555 186.394 244.739 186.397ZM140.486 0.131823C139.705 0.133565 138.956 0.513278 138.403 1.1878C137.851 1.86232 137.54 2.77667 137.538 3.73058V182.634C137.54 183.588 137.851 184.502 138.403 185.176C138.956 185.851 139.705 186.231 140.486 186.232H244.739C245.521 186.231 246.27 185.851 246.822 185.176C247.375 184.502 247.686 183.588 247.687 182.634V3.73058C247.686 2.77667 247.375 1.86232 246.822 1.1878C246.27 0.513278 245.521 0.133565 244.739 0.131823H140.486Z" fill="#EBEBEB"/>
<path d="M269.946 215.793H0V215.957H269.946V215.793Z" fill="#EBEBEB"/>
<path d="M190.722 49.4338C178.256 48.8208 143.028 48.3067 143.26 30.6359C143.492 12.965 159.575 29.6274 159.575 29.6274C159.575 29.6274 165.919 8.53581 175.173 11.2382C184.427 13.9405 186.629 32.0332 186.629 32.0332C186.629 32.0332 191.121 12.1741 202.016 20.1032C210.163 26.0353 207.21 40.8851 207.21 40.8851C207.21 40.8851 219.028 35.7242 219.838 43.6863C220.648 51.6484 198.086 49.7831 190.722 49.4338Z" fill="#F5F5F5"/>
<path d="M50.0169 91.9073C44.618 91.6436 29.2959 91.4195 29.393 83.7409C29.4902 76.0622 36.4872 83.3059 36.4872 83.3059C36.4872 83.3059 39.2407 74.131 43.2629 75.3108C47.2851 76.4906 48.2407 84.367 48.2407 84.367C48.2407 84.367 50.1843 75.7458 54.9245 79.193C58.4662 81.7635 57.1813 88.2228 57.1813 88.2228C57.1813 88.2228 62.3211 85.9753 62.672 89.4356C63.0229 92.896 53.2185 92.0655 50.0169 91.9073Z" fill="#F5F5F5"/>
<path d="M235.342 76.4085C224.587 82.9996 188.549 80.6861 190.234 67.728C191.918 54.7698 200.006 67.728 200.006 67.728C200.006 67.728 200.719 54.3018 208.25 53.8339C215.782 53.3659 217.088 66.1066 217.088 66.1066C217.088 66.1066 218.827 55.6135 223.459 58.2499C228.091 60.8864 227.665 69.356 227.665 69.356C227.665 69.356 231.374 66.1197 233.776 67.728C236.179 69.3362 236.972 75.4132 235.342 76.4085Z" fill="#F5F5F5"/>
<path d="M234.237 206.646C236.893 201.143 236.71 194.815 233.53 191.618C232.201 190.332 230.538 189.67 228.843 189.753C229.032 184.408 227.602 179.543 224.524 176.426C220.205 172.095 213.84 172.254 208.047 176.103C201.379 164.377 190.409 159.315 182.612 164.779C179.96 166.701 177.891 169.622 176.717 173.104C165.536 168.253 154.041 172.076 150.408 182.252C149.467 184.902 149.104 187.804 149.355 190.676C146.078 189.826 142.936 190.729 141.084 193.477C138.773 196.891 139.14 202.144 141.624 206.62L234.237 206.646Z" fill="#F0F0F0"/>
<path d="M201.337 182.759C201.337 182.759 199.129 188.915 206.088 190.009C206.088 189.996 208.852 184.433 201.337 182.759Z" fill="#E0E0E0"/>
<path d="M201.337 182.759C201.337 182.759 205.316 185.27 206.088 190.009C206.088 189.996 208.852 184.433 201.337 182.759Z" fill="#FAFAFA"/>
<path d="M211.417 188.332C211.417 188.332 209.403 193.934 215.736 194.923C215.747 194.917 218.262 189.828 211.417 188.332Z" fill="#E0E0E0"/>
<path d="M211.416 188.332C211.416 188.332 215.044 190.619 215.735 194.923C215.746 194.917 218.262 189.828 211.416 188.332Z" fill="#FAFAFA"/>
<path d="M211.682 182.035C211.682 182.035 208.183 183.703 211.115 188.33C211.099 188.33 214.646 187.269 211.682 182.035Z" fill="#E0E0E0"/>
<path d="M211.681 182.035C211.681 182.035 212.604 185.594 211.114 188.33C211.098 188.33 214.645 187.269 211.681 182.035Z" fill="#FAFAFA"/>
<path d="M217.69 184.327C217.69 184.327 214.251 182.488 213.651 188.282C213.651 188.288 216.756 190.589 217.69 184.327Z" fill="#E0E0E0"/>
<path d="M217.69 184.328C217.69 184.328 216.291 187.624 213.651 188.283C213.651 188.289 216.756 190.59 217.69 184.328Z" fill="#FAFAFA"/>
<path d="M162.639 190.093C162.639 190.093 164.853 196.249 157.888 197.343C157.888 197.33 155.124 191.8 162.639 190.093Z" fill="#E0E0E0"/>
<path d="M162.639 190.093C162.639 190.093 158.66 192.604 157.888 197.343C157.888 197.33 155.124 191.8 162.639 190.093Z" fill="#FAFAFA"/>
<path d="M172.392 187.098C172.392 187.098 167.355 184.402 166.453 192.898C166.469 192.898 171.021 196.273 172.392 187.098Z" fill="#E0E0E0"/>
<path d="M172.392 187.095C172.392 187.095 170.335 191.952 166.453 192.895C166.469 192.895 171.021 196.27 172.392 187.095Z" fill="#FAFAFA"/>
<path d="M168.473 183.285C168.473 183.285 166.923 189.112 161.648 184.696C161.648 184.696 162.507 178.869 168.473 183.285Z" fill="#E0E0E0"/>
<path d="M168.473 183.285C168.473 183.285 164.521 182.053 161.648 184.696C161.648 184.696 162.507 178.869 168.473 183.285Z" fill="#FAFAFA"/>
<path d="M173.991 185.724C173.991 185.724 177.43 183.885 178.035 189.678C178.035 189.685 174.925 191.985 173.991 185.724Z" fill="#E0E0E0"/>
<path d="M173.991 185.729C173.991 185.729 175.395 189.024 178.035 189.683C178.035 189.69 174.925 191.99 173.991 185.729Z" fill="#FAFAFA"/>
<path d="M168.905 178.62C168.905 178.62 172.344 176.774 172.949 182.575C172.949 182.575 169.839 184.862 168.905 178.62Z" fill="#E0E0E0"/>
<path d="M168.905 178.619C168.905 178.619 170.309 181.915 172.949 182.574C172.949 182.574 169.839 184.861 168.905 178.619Z" fill="#FAFAFA"/>
<path d="M186.105 165.711C186.105 165.711 183.891 171.867 190.856 172.961C190.856 172.948 193.62 167.418 186.105 165.711Z" fill="#E0E0E0"/>
<path d="M186.106 165.711C186.106 165.711 190.08 168.222 190.858 172.961C190.858 172.948 193.622 167.418 186.106 165.711Z" fill="#FAFAFA"/>
<path d="M191.66 174.428C191.66 174.428 189.646 180.037 195.979 181.019C195.979 181.019 198.5 175.983 191.66 174.428Z" fill="#E0E0E0"/>
<path d="M191.662 174.428C191.662 174.428 195.285 176.715 195.981 181.019C195.981 181.019 198.503 175.983 191.662 174.428Z" fill="#FAFAFA"/>
<path d="M192.326 172.621C192.326 172.621 195.328 177.525 199.156 171.303C199.156 171.27 196.786 166.096 192.326 172.621Z" fill="#E0E0E0"/>
<path d="M192.326 172.621C192.326 172.621 195.744 169.899 199.156 171.303C199.156 171.27 196.786 166.096 192.326 172.621Z" fill="#FAFAFA"/>
<path d="M189.814 173.677C189.814 173.677 186.375 171.838 185.771 177.631C185.771 177.638 188.88 179.938 189.814 173.677Z" fill="#E0E0E0"/>
<path d="M189.814 173.678C189.814 173.678 188.411 176.973 185.771 177.632C185.771 177.639 188.88 179.939 189.814 173.678Z" fill="#FAFAFA"/>
<path d="M108.519 204.536C111.818 196.982 110.921 188.15 106.052 183.708C105.358 183.079 104.604 182.556 103.806 182.152C104.011 178.639 103.147 175.475 101.106 173.636C99.8464 172.521 98.3084 171.973 96.7547 172.087C98.3744 161.983 95.4536 152.604 89.4715 150.119C82.7121 147.305 74.6299 154.351 71.4229 165.859C70.1078 165.153 68.6369 165.006 67.2452 165.441C65.8536 165.876 64.6214 166.868 63.7457 168.258C58.9136 163.829 53.153 162.926 49.5249 166.564C46.3287 169.774 45.6485 175.66 47.3329 181.565C45.691 181.999 44.1569 182.902 42.8572 184.202C38.2951 188.776 37.6365 197.279 40.8866 204.509L108.519 204.536Z" fill="#F0F0F0"/>
<path d="M50.4307 182.78C50.4307 182.78 52.2879 187.935 46.4517 188.844C46.4301 188.844 44.1356 184.184 50.4307 182.78Z" fill="#E0E0E0"/>
<path d="M50.4307 182.78C50.4307 182.78 47.0996 184.883 46.4517 188.844C46.4301 188.844 44.1356 184.184 50.4307 182.78Z" fill="#FAFAFA"/>
<path d="M79.6434 156.032C79.6434 156.032 77.7915 161.193 83.6278 162.096C83.6278 162.096 85.9439 157.436 79.6434 156.032Z" fill="#E0E0E0"/>
<path d="M79.6455 156.032C79.6455 156.032 82.982 158.135 83.6299 162.096C83.6299 162.096 85.9461 157.436 79.6455 156.032Z" fill="#FAFAFA"/>
<path d="M88.094 160.7C88.094 160.7 86.4042 165.4 91.7221 166.224C91.7221 166.224 93.8331 161.979 88.094 160.7Z" fill="#E0E0E0"/>
<path d="M88.0957 160.7C88.0957 160.7 91.1353 162.618 91.7238 166.224C91.7238 166.224 93.8348 161.979 88.0957 160.7Z" fill="#FAFAFA"/>
<path d="M88.3115 155.425C88.3115 155.425 85.3799 156.822 87.8418 160.698C87.8418 160.698 90.8004 159.814 88.3115 155.425Z" fill="#E0E0E0"/>
<path d="M88.3105 155.425C88.3105 155.425 89.088 158.404 87.8408 160.698C87.8408 160.698 90.7994 159.814 88.3105 155.425Z" fill="#FAFAFA"/>
<path d="M93.3515 157.348C93.3515 157.348 90.4684 155.806 89.9609 160.644C89.9609 160.663 92.5686 162.595 93.3515 157.348Z" fill="#E0E0E0"/>
<path d="M93.3515 157.354C93.3515 157.354 92.1745 160.128 89.9609 160.649C89.9609 160.669 92.5686 162.6 93.3515 157.354Z" fill="#FAFAFA"/>
<path d="M99.0438 185.811C99.0438 185.811 97.1919 190.965 103.028 191.874C103.028 191.874 105.344 187.188 99.0438 185.811Z" fill="#E0E0E0"/>
<path d="M99.042 185.811C99.042 185.811 102.379 187.913 103.026 191.874C103.026 191.874 105.343 187.188 99.042 185.811Z" fill="#FAFAFA"/>
<path d="M90.8691 183.294C90.8691 183.294 95.0965 181.033 95.8361 188.158C95.8361 188.158 92.0191 190.986 90.8691 183.294Z" fill="#E0E0E0"/>
<path d="M90.8691 183.291C90.8691 183.291 92.5914 187.364 95.8361 188.155C95.8361 188.155 92.0191 190.983 90.8691 183.291Z" fill="#FAFAFA"/>
<path d="M94.1572 180.104C94.1572 180.104 95.453 184.988 99.8747 181.284C99.8801 181.257 99.135 176.4 94.1572 180.104Z" fill="#E0E0E0"/>
<path d="M94.1572 180.104C94.1572 180.104 97.4668 179.069 99.8747 181.284C99.8801 181.257 99.135 176.4 94.1572 180.104Z" fill="#FAFAFA"/>
<path d="M89.5287 182.146C89.5287 182.146 86.6511 180.604 86.1436 185.441C86.1436 185.461 88.7458 187.392 89.5287 182.146Z" fill="#E0E0E0"/>
<path d="M89.5287 182.146C89.5287 182.146 88.3571 184.921 86.1436 185.442C86.1436 185.462 88.7458 187.393 89.5287 182.146Z" fill="#FAFAFA"/>
<path d="M93.7968 176.174C93.7968 176.174 90.9137 174.632 90.4062 179.47C90.4062 179.496 93.0139 181.427 93.7968 176.174Z" fill="#E0E0E0"/>
<path d="M93.7968 176.173C93.7968 176.173 92.6198 178.954 90.4062 179.468C90.4062 179.495 93.0139 181.426 93.7968 176.173Z" fill="#FAFAFA"/>
<path d="M51.7772 175.469C51.7772 175.469 49.9253 180.623 55.7616 181.526C55.7616 181.526 58.0723 176.866 51.7772 175.469Z" fill="#E0E0E0"/>
<path d="M51.7764 175.469C51.7764 175.469 55.1075 177.571 55.7608 181.526C55.7608 181.526 58.0715 176.866 51.7764 175.469Z" fill="#FAFAFA"/>
<path d="M56.43 182.771C56.43 182.771 54.7401 187.471 60.058 188.295C60.058 188.295 62.169 184.05 56.43 182.771Z" fill="#E0E0E0"/>
<path d="M56.4297 182.771C56.4297 182.771 59.4639 184.69 60.0578 188.295C60.0578 188.295 62.1687 184.05 56.4297 182.771Z" fill="#FAFAFA"/>
<path d="M56.9863 181.256C56.9863 181.256 59.5022 185.369 62.7146 180.129C62.7146 180.129 60.7278 175.792 56.9863 181.256Z" fill="#E0E0E0"/>
<path d="M56.9863 181.256C56.9863 181.256 59.8532 178.975 62.7146 180.129C62.7146 180.129 60.7278 175.792 56.9863 181.256Z" fill="#FAFAFA"/>
<path d="M54.8866 182.146C54.8866 182.146 52.0036 180.604 51.4961 185.441C51.4961 185.461 54.1038 187.392 54.8866 182.146Z" fill="#E0E0E0"/>
<path d="M54.8866 182.146C54.8866 182.146 53.7097 184.921 51.4961 185.442C51.4961 185.462 54.1038 187.393 54.8866 182.146Z" fill="#FAFAFA"/>
<path d="M190.381 215.682H213.381L213.759 210.238C213.836 209.149 213.719 208.053 213.418 207.025C213.116 205.996 212.637 205.059 212.011 204.278C211.386 203.496 210.63 202.889 209.795 202.496C208.96 202.104 208.065 201.937 207.172 202.005L195.651 202.882C194.791 202.947 193.951 203.23 193.185 203.712C192.419 204.194 191.744 204.865 191.201 205.682C190.659 206.499 190.261 207.445 190.034 208.459C189.806 209.474 189.753 210.535 189.879 211.576L190.381 215.682Z" fill="#F5F5F5"/>
<path d="M56.0461 215.68H27.6261L26.9945 209.181C26.9198 208.373 26.9821 207.555 27.1774 206.777C27.3727 206 27.6968 205.28 28.1297 204.662C28.5626 204.043 29.095 203.541 29.6938 203.184C30.2926 202.828 30.945 202.626 31.6106 202.59L52.0131 201.615C52.7259 201.586 53.4352 201.748 54.0907 202.091C54.7461 202.435 55.3317 202.95 55.8058 203.6C56.2798 204.251 56.6308 205.021 56.8338 205.855C57.0367 206.69 57.0867 207.569 56.9801 208.43L56.0461 215.68Z" fill="#E6E6E6"/>
<path d="M104.063 215.683H73.7859L73.3108 210.41C73.2155 209.37 73.303 208.316 73.5676 207.321C73.8321 206.325 74.2676 205.409 74.845 204.635C75.4224 203.861 76.1284 203.246 76.9158 202.831C77.7033 202.417 78.5542 202.212 79.4116 202.231L99.0583 202.666C99.9586 202.686 100.844 202.952 101.649 203.444C102.454 203.936 103.159 204.641 103.712 205.509C104.265 206.377 104.652 207.384 104.844 208.458C105.037 209.532 105.03 210.645 104.824 211.715L104.063 215.683Z" fill="#E6E6E6"/>
<path d="M76.6636 215.681H53.648L53.1621 210.263C53.0979 209.537 53.1606 208.802 53.3462 208.108C53.5317 207.414 53.8359 206.775 54.2385 206.235C54.6412 205.695 55.1331 205.265 55.6819 204.975C56.2306 204.684 56.8237 204.538 57.4219 204.548L73.2083 204.819C73.8178 204.829 74.4182 205 74.9683 205.321C75.5184 205.641 76.0053 206.103 76.3956 206.675C76.7858 207.246 77.0702 207.914 77.2292 208.632C77.3883 209.351 77.4182 210.102 77.3169 210.836L76.6636 215.681Z" fill="#F5F5F5"/>
<path d="M121.681 215.682H98.6867L98.3034 210.238C98.2263 209.149 98.3425 208.053 98.644 207.025C98.9455 205.996 99.4253 205.059 100.051 204.278C100.676 203.496 101.432 202.889 102.267 202.496C103.102 202.104 103.997 201.937 104.89 202.005L116.411 202.882C117.271 202.947 118.111 203.23 118.877 203.712C119.643 204.194 120.318 204.865 120.861 205.682C121.403 206.499 121.801 207.445 122.028 208.459C122.256 209.474 122.309 210.535 122.183 211.576L121.681 215.682Z" fill="#F5F5F5"/>
<path d="M236.774 215.68H208.354L207.728 209.181C207.653 208.373 207.715 207.555 207.911 206.778C208.106 206 208.43 205.28 208.863 204.662C209.296 204.044 209.828 203.541 210.427 203.184C211.026 202.828 211.678 202.626 212.344 202.59L232.741 201.615C233.454 201.585 234.164 201.747 234.82 202.09C235.477 202.432 236.063 202.947 236.537 203.598C237.012 204.248 237.364 205.019 237.567 205.854C237.77 206.689 237.82 207.569 237.713 208.43L236.774 215.68Z" fill="#E6E6E6"/>
<path d="M167.517 215.68H195.937L196.564 209.181C196.638 208.373 196.576 207.555 196.381 206.778C196.185 206 195.861 205.28 195.428 204.662C194.995 204.044 194.463 203.541 193.864 203.184C193.266 202.828 192.613 202.626 191.948 202.59L171.55 201.615C170.837 201.585 170.127 201.747 169.471 202.09C168.815 202.432 168.229 202.947 167.754 203.598C167.279 204.248 166.928 205.019 166.725 205.854C166.521 206.689 166.471 207.569 166.578 208.43L167.517 215.68Z" fill="#E6E6E6"/>
<path d="M119.498 215.683H149.775L150.25 210.41C150.344 209.37 150.255 208.318 149.99 207.324C149.724 206.33 149.289 205.416 148.711 204.643C148.134 203.871 147.429 203.257 146.642 202.843C145.855 202.429 145.006 202.225 144.149 202.243L124.503 202.678C123.602 202.698 122.717 202.964 121.912 203.456C121.107 203.948 120.402 204.654 119.849 205.522C119.296 206.389 118.909 207.397 118.717 208.471C118.524 209.545 118.531 210.658 118.736 211.728L119.498 215.683Z" fill="#E6E6E6"/>
<path d="M146.918 215.681H169.912L170.398 210.263C170.462 209.537 170.4 208.802 170.214 208.108C170.028 207.414 169.724 206.775 169.322 206.235C168.919 205.695 168.427 205.265 167.878 204.975C167.33 204.684 166.737 204.538 166.138 204.548L150.352 204.819C149.742 204.829 149.142 205 148.592 205.321C148.042 205.641 147.555 206.103 147.165 206.675C146.774 207.246 146.49 207.914 146.331 208.632C146.172 209.351 146.142 210.102 146.243 210.836L146.918 215.681Z" fill="#F5F5F5"/>
<path d="M94.1393 60.8893C83.3792 67.4804 47.3414 65.167 49.0259 52.2154C50.7103 39.2638 58.7979 52.2154 58.7979 52.2154C58.7979 52.2154 59.5106 38.7892 67.0421 38.3147C74.5736 37.8401 75.8801 50.5874 75.8801 50.5874C75.8801 50.5874 77.6186 40.1009 82.2563 42.7307C86.8939 45.3606 86.4566 53.8368 86.4566 53.8368C86.4566 53.8368 90.1657 50.6006 92.5682 52.2154C94.9707 53.8302 95.7644 59.9006 94.1393 60.8893Z" fill="#F5F5F5"/>
<path d="M139.266 243.024C200.09 243.024 249.398 239.683 249.398 235.563C249.398 231.442 200.09 228.102 139.266 228.102C78.4417 228.102 29.1338 231.442 29.1338 235.563C29.1338 239.683 78.4417 243.024 139.266 243.024Z" fill="#F5F5F5"/>
<path d="M59.7557 159.909C65.4495 159.909 70.0652 155.379 70.0652 149.791C70.0652 144.204 65.4495 139.674 59.7557 139.674C54.062 139.674 49.4463 144.204 49.4463 149.791C49.4463 155.379 54.062 159.909 59.7557 159.909Z" fill="#18191F"/>
<path d="M58.9613 140.347C58.9613 140.347 60.546 133.328 62.0342 134.02C63.5224 134.712 60.546 136.432 60.5006 140.347C60.5006 140.347 63.8178 136.893 65.999 138.963C65.999 138.963 62.8294 138.851 61.54 141.263C61.54 141.263 64.4142 143.333 66.9873 142.872C66.9873 142.872 65.4025 144.73 60.6483 142.944C60.6483 142.944 61.8354 148.052 58.9442 147.242C59.1732 147.014 59.3571 146.732 59.4832 146.415C59.6092 146.098 59.6745 145.752 59.6745 145.403C59.6745 145.053 59.6092 144.708 59.4832 144.39C59.3571 144.073 59.1732 143.791 58.9442 143.564C58.9442 143.564 52.9005 147.242 52.5029 142.872C53.3886 143.299 54.3601 143.429 55.3063 143.246C56.2525 143.063 57.1352 142.574 57.8536 141.837C57.8536 141.837 55.9735 138.047 53.4913 138.271C53.5083 138.271 55.9905 135.859 58.9613 140.347Z" fill="#263238"/>
<path opacity="0.2" d="M69.6822 146.751C70.0968 150.877 68.3587 157.178 60.3327 157.178C52.744 157.178 50.6082 154.706 50.3867 154.423C52.0112 158.022 55.5897 159.907 59.759 159.907C65.4391 159.907 70.0627 156.394 70.0627 149.789C70.0668 148.76 69.9385 147.736 69.6822 146.751Z" fill="black"/>
<path opacity="0.2" d="M55.2772 154.419C55.2772 154.419 50.0003 151.96 51.4147 147.979C52.829 143.998 52.7836 151.763 55.2772 154.419Z" fill="white"/>
<path d="M59.9325 83.108L59.0066 81.1307L55.9337 89.2443L53.0936 79.127L51.9178 83.0816H46.8057C47.0158 83.3651 47.243 83.6419 47.4816 83.9187L56.0757 93.845L64.664 83.9187C64.9083 83.6419 65.1355 83.3651 65.34 83.0816L59.9325 83.108Z" fill="#18191F"/>
<path d="M50.9789 81.6149L53.109 74.4437L56.1081 85.0752L58.8857 77.7788L60.6977 81.6412H66.2926C67.0721 80.2528 67.4992 78.638 67.5252 76.9813C67.5252 73.1782 65.3384 70.6406 62.0268 70.6406C58.9368 70.6406 57.8803 72.3016 56.074 74.7008C54.2621 72.3016 53.234 70.6406 50.1212 70.6406C46.804 70.6406 44.6172 73.1782 44.6172 76.9813C44.6424 78.6391 45.0718 80.2548 45.8555 81.6412L50.9789 81.6149Z" fill="#18191F"/>
<g opacity="0.3">
<path d="M59.9325 83.108L59.0066 81.1307L55.9337 89.2443L53.0936 79.127L51.9178 83.0816H46.8057C47.0158 83.3651 47.243 83.6419 47.4816 83.9187L56.0757 93.845L64.664 83.9187C64.9083 83.6419 65.1355 83.3651 65.34 83.0816L59.9325 83.108Z" fill="white"/>
<path d="M50.9789 81.6149L53.109 74.4437L56.1081 85.0752L58.8857 77.7788L60.6977 81.6412H66.2926C67.0721 80.2528 67.4992 78.638 67.5252 76.9813C67.5252 73.1782 65.3384 70.6406 62.0268 70.6406C58.9368 70.6406 57.8803 72.3016 56.074 74.7008C54.2621 72.3016 53.234 70.6406 50.1212 70.6406C46.804 70.6406 44.6172 73.1782 44.6172 76.9813C44.6424 78.6391 45.0718 80.2548 45.8555 81.6412L50.9789 81.6149Z" fill="white"/>
</g>
<path d="M86.9077 31.2475L88.1858 31.7747C88.1858 31.7747 98.6316 35.4526 104.573 28.8615C110.514 22.2703 112.258 14.4994 114.428 14.7235C116.598 14.9476 117.637 26.1921 107.754 35.5515C97.8704 44.9109 89.0094 39.7236 86.7714 33.5741L85.9023 32.4668L86.9077 31.2475Z" fill="#18191F"/>
<path opacity="0.6" d="M114.425 14.7225C112.255 14.5247 110.523 22.2693 104.587 28.8604C98.907 35.155 89.1201 32.0835 88.2681 31.8001L86.7686 33.5401C88.9781 39.7226 97.8676 44.9032 107.751 35.5175C117.634 26.1317 116.589 14.9268 114.425 14.7225Z" fill="white"/>
<path d="M107.758 33.9524C107.758 33.9524 111.609 35.9297 109.831 38.2695C108.053 40.6094 105.497 42.3956 105.974 43.3513C106.451 44.307 115.682 38.6189 109.059 33.6162L107.758 33.9524Z" fill="#18191F"/>
<path opacity="0.3" d="M107.758 33.9524C107.758 33.9524 111.609 35.9297 109.831 38.2695C108.053 40.6094 105.497 42.3956 105.974 43.3513C106.451 44.307 115.682 38.6189 109.059 33.6162L107.758 33.9524Z" fill="white"/>
<path d="M103.506 26.7996C99.2632 21.2894 92.1063 25.4418 92.2312 24.4861C92.3562 23.5304 100.473 21.1906 104.37 26.2987C108.266 31.4068 103.592 34.6431 98.0022 35.7042C92.413 36.7654 87.5508 32.6328 87.5508 32.6328L88.204 31.7759C88.204 31.7759 97.2922 34.9792 103.342 30.049C103.708 29.7547 103.964 29.308 104.055 28.8013C104.146 28.2946 104.065 27.7667 103.83 27.3269C103.733 27.1428 103.624 26.9666 103.506 26.7996Z" fill="#18191F"/>
<path opacity="0.3" d="M103.506 26.7996C99.2632 21.2894 92.1063 25.4418 92.2312 24.4861C92.3562 23.5304 100.473 21.1906 104.37 26.2987C108.266 31.4068 103.592 34.6431 98.0022 35.7042C92.413 36.7654 87.5508 32.6328 87.5508 32.6328L88.204 31.7759C88.204 31.7759 97.2922 34.9792 103.342 30.049C103.708 29.7547 103.964 29.308 104.055 28.8013C104.146 28.2946 104.065 27.7667 103.83 27.3269C103.733 27.1428 103.624 26.9666 103.506 26.7996Z" fill="white"/>
<path d="M100.611 40.0517C93.8403 42.2531 88.4272 38.1798 86.7686 33.5397L87.5467 32.6301C87.5467 32.6301 92.4033 36.7561 97.9982 35.7015C101.014 35.1281 103.764 33.9285 105.047 32.1357C106.24 32.2412 108.484 32.841 109.052 35.7477C109.694 39.0432 103.048 42.53 100.259 42.3915C99.7647 42.3915 97.788 41.8247 100.469 40.0978L100.611 40.0517Z" fill="#18191F"/>
<path opacity="0.3" d="M100.613 40.0517L100.364 40.1637C97.8472 41.8379 99.7955 42.3652 100.261 42.3915C103.05 42.53 109.696 39.096 109.054 35.7477C108.486 32.841 106.214 32.2412 105.05 32.1357C108.543 33.0387 100.613 40.0517 100.613 40.0517Z" fill="white"/>
<path d="M196.323 38.3726C198.445 38.3726 200.481 37.3942 201.982 35.6526C203.483 33.9109 204.326 31.5488 204.326 29.0857C204.326 26.6227 203.483 24.2605 201.982 22.5189C200.481 20.7773 198.445 19.7988 196.323 19.7988H193.914C191.792 19.7988 189.756 20.7773 188.255 22.5189C186.754 24.2605 185.911 26.6227 185.911 29.0857C185.911 31.5488 186.754 33.9109 188.255 35.6526C189.756 37.3942 191.792 38.3726 193.914 38.3726H196.323Z" fill="#18191F"/>
<path opacity="0.5" d="M196.323 38.3726C198.445 38.3726 200.481 37.3942 201.982 35.6526C203.483 33.9109 204.326 31.5488 204.326 29.0857C204.326 26.6227 203.483 24.2605 201.982 22.5189C200.481 20.7773 198.445 19.7988 196.323 19.7988H193.914C191.792 19.7988 189.756 20.7773 188.255 22.5189C186.754 24.2605 185.911 26.6227 185.911 29.0857C185.911 31.5488 186.754 33.9109 188.255 35.6526C189.756 37.3942 191.792 38.3726 193.914 38.3726H196.323Z" fill="white"/>
<path d="M201.819 30.5766C202.528 25.5139 199.565 20.7435 195.202 19.9217C190.839 19.0999 186.728 22.5379 186.02 27.6006C185.311 32.6634 188.274 37.4338 192.637 38.2556C197 39.0774 201.111 35.6394 201.819 30.5766Z" fill="#18191F"/>
<path d="M193.126 31.4351C193.663 31.4351 194.177 31.1879 194.556 30.7478C194.935 30.3078 195.148 29.7109 195.148 29.0886C195.148 28.4663 194.935 27.8695 194.556 27.4294C194.177 26.9894 193.663 26.7422 193.126 26.7422H182.777C182.241 26.7422 181.726 26.9894 181.347 27.4294C180.968 27.8695 180.755 28.4663 180.755 29.0886C180.755 29.7109 180.968 30.3078 181.347 30.7478C181.726 31.1879 182.241 31.4351 182.777 31.4351H193.126Z" fill="#263238"/>
<path d="M175.807 38.3726C177.93 38.3726 179.965 37.3942 181.466 35.6526C182.967 33.9109 183.81 31.5488 183.81 29.0857C183.81 26.6227 182.967 24.2605 181.466 22.5189C179.965 20.7773 177.93 19.7988 175.807 19.7988H173.393C171.27 19.7988 169.235 20.7773 167.734 22.5189C166.233 24.2605 165.39 26.6227 165.39 29.0857C165.39 31.5488 166.233 33.9109 167.734 35.6526C169.235 37.3942 171.27 38.3726 173.393 38.3726H175.807Z" fill="#18191F"/>
<path opacity="0.5" d="M175.807 38.3726C177.93 38.3726 179.965 37.3942 181.466 35.6526C182.967 33.9109 183.81 31.5488 183.81 29.0857C183.81 26.6227 182.967 24.2605 181.466 22.5189C179.965 20.7773 177.93 19.7988 175.807 19.7988H173.393C171.27 19.7988 169.235 20.7773 167.734 22.5189C166.233 24.2605 165.39 26.6227 165.39 29.0857C165.39 31.5488 166.233 33.9109 167.734 35.6526C169.235 37.3942 171.27 38.3726 173.393 38.3726H175.807Z" fill="white"/>
<path d="M179.05 35.6557C182.175 32.0289 182.175 26.1488 179.05 22.522C175.924 18.8953 170.857 18.8953 167.731 22.522C164.606 26.1488 164.606 32.0289 167.731 35.6557C170.857 39.2825 175.924 39.2825 179.05 35.6557Z" fill="#18191F"/>
<path opacity="0.3" d="M178.321 29.8785C178.382 29.3536 178.382 28.8216 178.321 28.2966L177.469 28.0066C177.415 27.7225 177.339 27.4445 177.242 27.1761L177.787 26.3654C177.569 25.8993 177.297 25.4692 176.98 25.0867L176.145 25.4295C175.948 25.2385 175.737 25.0665 175.515 24.9154L175.543 23.8872C175.132 23.6541 174.694 23.4898 174.243 23.3994L173.743 24.2431C173.618 24.2431 173.493 24.2431 173.368 24.2431C173.243 24.2431 173.118 24.2431 172.993 24.2431L172.493 23.3994C172.042 23.4889 171.604 23.6531 171.192 23.8872V24.9154C170.979 25.0672 170.776 25.2368 170.585 25.4229L169.75 25.0802C169.448 25.4678 169.192 25.9 168.988 26.3654L169.528 27.1827C169.427 27.4498 169.349 27.728 169.295 28.0132L168.449 28.3032C168.38 28.8275 168.38 29.3608 168.449 29.8851L169.295 30.1817C169.35 30.4663 169.428 30.7443 169.528 31.0122L168.988 31.8229C169.204 32.2897 169.473 32.72 169.789 33.1016L170.624 32.7588C170.813 32.9491 171.017 33.119 171.232 33.2663V34.3011C171.643 34.5352 172.081 34.6994 172.533 34.7889L173.033 33.9386C173.152 33.9386 173.277 33.9386 173.408 33.9386C173.538 33.9386 173.658 33.9386 173.783 33.9386L174.282 34.7889C174.734 34.6985 175.172 34.5342 175.583 34.3011L175.555 33.2663C175.771 33.1206 175.975 32.9506 176.163 32.7588L176.997 33.1016C177.315 32.7202 177.587 32.2899 177.804 31.8229L177.219 30.9792C177.314 30.7101 177.39 30.4324 177.446 30.1487L178.321 29.8785Z" fill="white"/>
<path d="M173.173 31.4351C173.709 31.4351 174.223 31.1879 174.603 30.7478C174.982 30.3078 175.195 29.7109 175.195 29.0886C175.195 28.4663 174.982 27.8695 174.603 27.4294C174.223 26.9894 173.709 26.7422 173.173 26.7422H171.543C171.006 26.7422 170.492 26.9894 170.113 27.4294C169.734 27.8695 169.521 28.4663 169.521 29.0886C169.521 29.7109 169.734 30.3078 170.113 30.7478C170.492 31.1879 171.006 31.4351 171.543 31.4351H173.173Z" fill="#263238"/>
<path opacity="0.4" d="M173.551 29.0867C173.551 29.5514 173.432 30.0055 173.21 30.3917C172.987 30.7778 172.67 31.0786 172.3 31.2558C171.93 31.433 171.523 31.4787 171.13 31.3871C170.738 31.2954 170.377 31.0707 170.095 30.7412C169.813 30.4117 169.621 29.9924 169.544 29.5363C169.468 29.0803 169.509 28.6081 169.664 28.1796C169.819 27.7511 170.08 27.3855 170.414 27.1293C170.748 26.8731 171.14 26.7377 171.54 26.7403C172.075 26.7438 172.586 26.9925 172.963 27.4322C173.34 27.8718 173.551 28.4667 173.551 29.0867Z" fill="white"/>
<path d="M228.19 72.4071C231.087 73.3101 235.961 73.5539 236.602 69.072C237.659 61.6899 227.179 65.2689 224.049 64.9789C223.892 64.9631 223.735 65.0206 223.615 65.1387C223.494 65.2567 223.418 65.4257 223.405 65.6083C223.391 65.791 223.441 65.9724 223.542 66.1127C223.644 66.253 223.79 66.3407 223.947 66.3564C226.56 66.5937 235.449 63.7727 235.472 68.3733C235.472 72.2884 230.797 71.8007 228.605 71.1152C227.872 70.8845 227.469 72.1764 228.19 72.4334V72.4071Z" fill="#263238"/>
<path d="M229.479 72.434L229.621 70.5555L216.783 69.2373L216.647 71.1158C216.327 71.2403 216.045 71.4707 215.836 71.7787C215.627 72.0866 215.5 72.4588 215.471 72.8493L213.199 103.168C213.179 103.433 213.204 103.7 213.273 103.954C213.341 104.208 213.452 104.443 213.6 104.647C213.747 104.851 213.927 105.019 214.13 105.142C214.334 105.265 214.556 105.34 214.784 105.363L226.212 106.523C226.672 106.567 227.128 106.399 227.482 106.054C227.835 105.71 228.056 105.218 228.098 104.684L230.37 74.3652C230.402 73.9772 230.335 73.5868 230.176 73.2432C230.017 72.8996 229.775 72.6181 229.479 72.434Z" fill="#18191F"/>
<path opacity="0.2" d="M229.479 72.434L229.621 70.5555L216.783 69.2373L216.647 71.1158C216.327 71.2403 216.045 71.4707 215.836 71.7787C215.627 72.0866 215.5 72.4588 215.471 72.8493L213.199 103.168C213.179 103.433 213.204 103.7 213.273 103.954C213.341 104.208 213.452 104.443 213.6 104.647C213.747 104.851 213.927 105.019 214.13 105.142C214.334 105.265 214.556 105.34 214.784 105.363L226.212 106.523C226.672 106.567 227.128 106.399 227.482 106.054C227.835 105.71 228.056 105.218 228.098 104.684L230.37 74.3652C230.402 73.9772 230.335 73.5868 230.176 73.2432C230.017 72.8996 229.775 72.6181 229.479 72.434Z" fill="white"/>
<path d="M229.783 66.8272L217.227 65.5525C216.58 65.4868 216.01 66.0421 215.953 66.7928L215.835 68.3555C215.779 69.1061 216.257 69.7679 216.904 69.8336L229.46 71.1083C230.107 71.174 230.678 70.6187 230.734 69.868L230.852 68.3053C230.909 67.5546 230.43 66.8929 229.783 66.8272Z" fill="#18191F"/>
<path opacity="0.3" d="M229.783 66.8272L217.227 65.5525C216.58 65.4868 216.01 66.0421 215.953 66.7928L215.835 68.3555C215.779 69.1061 216.257 69.7679 216.904 69.8336L229.46 71.1083C230.107 71.174 230.678 70.6187 230.734 69.868L230.852 68.3053C230.909 67.5546 230.43 66.8929 229.783 66.8272Z" fill="black"/>
<path opacity="0.9" d="M224.454 78.3582C221.904 77.5269 219.202 77.5566 216.666 78.4439L214.792 103.345C214.79 103.369 214.791 103.393 214.797 103.416C214.803 103.439 214.813 103.461 214.827 103.479C214.84 103.498 214.856 103.513 214.875 103.524C214.893 103.535 214.913 103.541 214.934 103.543L226.362 104.703C226.404 104.707 226.445 104.691 226.477 104.661C226.508 104.63 226.529 104.586 226.533 104.538L228.475 78.8328C227.121 78.9806 225.755 78.8194 224.454 78.3582Z" fill="white"/>
<path d="M224.368 84.6513C224.306 85.476 224.034 86.2607 223.587 86.9062C223.141 87.5518 222.539 88.0291 221.859 88.2779C221.178 88.5266 220.45 88.5357 219.765 88.3038C219.08 88.072 218.47 87.6097 218.011 86.9754C217.553 86.3411 217.267 85.5633 217.189 84.7404C217.112 83.9175 217.246 83.0864 217.576 82.3522C217.906 81.618 218.415 81.0138 219.041 80.6159C219.667 80.2179 220.38 80.0442 221.091 80.1166C222.043 80.2155 222.922 80.7482 223.537 81.5982C224.151 82.4482 224.45 83.5461 224.368 84.6513Z" fill="#18191F"/>
<path opacity="0.4" d="M224.368 84.6513C224.306 85.476 224.034 86.2607 223.587 86.9062C223.141 87.5518 222.539 88.0291 221.859 88.2779C221.178 88.5266 220.45 88.5357 219.765 88.3038C219.08 88.072 218.47 87.6097 218.011 86.9754C217.553 86.3411 217.267 85.5633 217.189 84.7404C217.112 83.9175 217.246 83.0864 217.576 82.3522C217.906 81.618 218.415 81.0138 219.041 80.6159C219.667 80.2179 220.38 80.0442 221.091 80.1166C222.043 80.2155 222.922 80.7482 223.537 81.5982C224.151 82.4482 224.45 83.5461 224.368 84.6513Z" fill="white"/>
<g opacity="0.9">
<path d="M220.392 81.1074C220.084 81.1537 219.786 81.2631 219.511 81.4304C219.468 81.4573 219.431 81.4949 219.403 81.5405C219.374 81.5861 219.354 81.6385 219.345 81.6939C219.336 81.7494 219.337 81.8065 219.349 81.8613C219.361 81.916 219.384 81.9669 219.415 82.0104L220.602 83.645L220.761 81.5161C220.765 81.4596 220.757 81.4028 220.74 81.3499C220.723 81.297 220.695 81.2493 220.66 81.2102C220.624 81.171 220.582 81.1415 220.536 81.1238C220.489 81.106 220.44 81.1004 220.392 81.1074Z" fill="white"/>
<path d="M220.25 83.9728L219.069 82.3382C219.038 82.2942 219 82.2587 218.956 82.2343C218.912 82.2099 218.864 82.1973 218.816 82.1973C218.767 82.1973 218.719 82.2099 218.676 82.2343C218.632 82.2587 218.593 82.2942 218.563 82.3382C218.375 82.6259 218.231 82.9492 218.137 83.2939C218.122 83.3479 218.118 83.405 218.125 83.461C218.132 83.517 218.15 83.5705 218.178 83.6174C218.205 83.6643 218.241 83.7034 218.283 83.7319C218.325 83.7603 218.372 83.7773 218.421 83.7816L220.25 83.9728Z" fill="white"/>
<path d="M220.215 84.495L218.38 84.3039C218.331 84.2995 218.282 84.3078 218.237 84.3281C218.191 84.3484 218.15 84.3802 218.116 84.4212C218.083 84.4622 218.057 84.5114 218.042 84.5652C218.027 84.619 218.022 84.6761 218.028 84.7323C218.068 85.0893 218.162 85.4352 218.306 85.7539C218.329 85.8034 218.361 85.8464 218.399 85.8798C218.438 85.9132 218.483 85.9361 218.53 85.9468C218.578 85.9576 218.627 85.9559 218.673 85.9419C218.72 85.9279 218.763 85.902 218.8 85.866L220.215 84.495Z" fill="white"/>
<path d="M221.198 81.5591L221.039 83.688L222.448 82.3104C222.486 82.2752 222.516 82.2306 222.537 82.1798C222.558 82.1291 222.569 82.0735 222.569 82.0171C222.569 81.9608 222.558 81.9052 222.537 81.8544C222.516 81.8037 222.486 81.759 222.448 81.7238C222.2 81.5053 221.921 81.338 221.624 81.2295C221.577 81.2112 221.527 81.2057 221.478 81.2132C221.429 81.2208 221.383 81.2412 221.341 81.2731C221.3 81.3049 221.266 81.3472 221.241 81.3968C221.216 81.4463 221.202 81.5019 221.198 81.5591Z" fill="white"/>
<path d="M221.287 84.5977L222.469 86.2323C222.499 86.2762 222.537 86.3117 222.581 86.3361C222.625 86.3605 222.673 86.3732 222.721 86.3732C222.77 86.3732 222.818 86.3605 222.862 86.3361C222.905 86.3117 222.944 86.2762 222.974 86.2323C223.161 85.9461 223.305 85.6252 223.4 85.2831C223.415 85.2288 223.419 85.1713 223.412 85.115C223.405 85.0586 223.387 85.0048 223.36 84.9574C223.332 84.91 223.297 84.8703 223.254 84.8411C223.212 84.8119 223.165 84.7941 223.116 84.7888L221.287 84.5977Z" fill="white"/>
<path d="M221.324 84.0826L223.159 84.2671C223.207 84.2725 223.256 84.2652 223.302 84.2457C223.347 84.2262 223.389 84.1951 223.422 84.1546C223.456 84.114 223.482 84.0652 223.497 84.0116C223.513 83.9581 223.517 83.9012 223.511 83.8453C223.471 83.4862 223.377 83.1381 223.233 82.8171C223.21 82.7676 223.178 82.7246 223.14 82.6912C223.101 82.6578 223.056 82.6349 223.009 82.6242C222.961 82.6134 222.912 82.6151 222.866 82.6291C222.819 82.6431 222.776 82.669 222.739 82.705L221.324 84.0826Z" fill="white"/>
<path d="M220.499 84.8887L219.09 86.2596C219.052 86.2948 219.022 86.3395 219.001 86.3902C218.98 86.441 218.969 86.4966 218.969 86.5529C218.969 86.6093 218.98 86.6649 219.001 86.7156C219.022 86.7664 219.052 86.811 219.09 86.8462C219.338 87.0648 219.617 87.2321 219.914 87.3406C219.96 87.3576 220.01 87.3623 220.058 87.3541C220.106 87.346 220.152 87.3253 220.193 87.2936C220.233 87.2619 220.267 87.2201 220.291 87.1711C220.316 87.1222 220.33 87.0675 220.334 87.011L220.499 84.8887Z" fill="white"/>
<path d="M220.959 84.9336L220.8 87.0559C220.796 87.1127 220.802 87.17 220.819 87.2236C220.836 87.2771 220.864 87.3253 220.899 87.3647C220.935 87.4041 220.978 87.4336 221.024 87.4509C221.071 87.4682 221.121 87.4729 221.17 87.4646C221.477 87.4183 221.775 87.3089 222.05 87.1416C222.093 87.1154 222.13 87.0785 222.159 87.0335C222.187 86.9885 222.207 86.9366 222.216 86.8817C222.226 86.8267 222.224 86.77 222.212 86.7158C222.2 86.6615 222.178 86.6111 222.147 86.5682L220.959 84.9336Z" fill="white"/>
</g>
<path d="M226.337 98.443C226.832 96.2038 225.668 93.9235 223.738 93.3498C221.809 92.7761 219.844 94.1263 219.349 96.3655C218.855 98.6047 220.018 100.885 221.948 101.459C223.878 102.032 225.843 100.682 226.337 98.443Z" fill="#18191F"/>
<path opacity="0.4" d="M226.337 98.443C226.832 96.2038 225.668 93.9235 223.738 93.3498C221.809 92.7761 219.844 94.1263 219.349 96.3655C218.855 98.6047 220.018 100.885 221.948 101.459C223.878 102.032 225.843 100.682 226.337 98.443Z" fill="white"/>
<g opacity="0.9">
<path d="M222.475 94.2541C222.169 94.3065 221.871 94.4155 221.595 94.5771C221.551 94.6031 221.513 94.6403 221.484 94.6858C221.454 94.7314 221.434 94.784 221.425 94.8399C221.416 94.8957 221.417 94.9533 221.43 95.0083C221.443 95.0632 221.466 95.1141 221.498 95.1571L222.679 96.7917L222.838 94.6694C222.844 94.6127 222.838 94.5553 222.822 94.5015C222.806 94.4477 222.779 94.399 222.744 94.3589C222.709 94.3189 222.666 94.2887 222.62 94.2705C222.573 94.2524 222.524 94.2468 222.475 94.2541Z" fill="white"/>
<path d="M222.338 97.1087L221.156 95.4741C221.126 95.43 221.087 95.3945 221.042 95.3701C220.998 95.3457 220.95 95.333 220.901 95.333C220.852 95.333 220.804 95.3457 220.759 95.3701C220.715 95.3945 220.676 95.43 220.645 95.4741C220.459 95.7611 220.315 96.0818 220.219 96.4232C220.206 96.4776 220.203 96.5347 220.21 96.5906C220.217 96.6465 220.235 96.6998 220.262 96.7469C220.289 96.794 220.325 96.8336 220.367 96.8631C220.408 96.8926 220.455 96.9112 220.503 96.9176L222.338 97.1087Z" fill="white"/>
<path d="M222.299 97.6228L220.464 97.4383C220.416 97.4328 220.367 97.4402 220.321 97.4596C220.276 97.4791 220.234 97.5103 220.201 97.5508C220.167 97.5913 220.141 97.6402 220.126 97.6937C220.111 97.7473 220.106 97.8041 220.112 97.8601C220.157 98.2114 220.251 98.552 220.39 98.8685C220.413 98.9191 220.445 98.9631 220.484 98.9972C220.523 99.0313 220.569 99.0547 220.617 99.0655C220.665 99.0763 220.715 99.0742 220.762 99.0595C220.809 99.0448 220.853 99.0178 220.89 98.9806L222.299 97.6228Z" fill="white"/>
<path d="M223.288 94.6882L223.123 96.8172L224.537 95.4462C224.575 95.411 224.606 95.3664 224.627 95.3156C224.648 95.2648 224.659 95.2092 224.659 95.1529C224.659 95.0966 224.648 95.041 224.627 94.9902C224.606 94.9394 224.575 94.8948 224.537 94.8596C224.292 94.639 224.015 94.4695 223.719 94.3587C223.672 94.3392 223.622 94.3327 223.572 94.3396C223.522 94.3466 223.475 94.3668 223.433 94.3987C223.391 94.4307 223.356 94.4734 223.331 94.5237C223.306 94.5739 223.291 94.6302 223.288 94.6882Z" fill="white"/>
<path d="M223.371 97.7334L224.553 99.368C224.583 99.4121 224.622 99.4476 224.667 99.472C224.711 99.4964 224.759 99.5091 224.808 99.5091C224.857 99.5091 224.905 99.4964 224.95 99.472C224.994 99.4476 225.033 99.4121 225.064 99.368C225.251 99.0819 225.395 98.761 225.49 98.4189C225.504 98.3649 225.508 98.3078 225.501 98.2518C225.494 98.1957 225.477 98.1423 225.449 98.0954C225.422 98.0485 225.386 98.0094 225.344 97.9809C225.302 97.9525 225.254 97.9355 225.206 97.9311L223.371 97.7334Z" fill="white"/>
<path d="M223.414 97.2138L225.249 97.405C225.297 97.4093 225.346 97.401 225.392 97.3807C225.438 97.3605 225.479 97.3287 225.512 97.2877C225.546 97.2467 225.572 97.1975 225.587 97.1437C225.602 97.0899 225.607 97.0328 225.601 96.9765C225.556 96.6209 225.462 96.276 225.323 95.9549C225.299 95.9053 225.267 95.8622 225.228 95.8288C225.188 95.7954 225.143 95.7725 225.095 95.7618C225.048 95.7511 224.998 95.7528 224.951 95.7668C224.904 95.7808 224.86 95.8068 224.823 95.8429L223.414 97.2138Z" fill="white"/>
<path d="M222.589 98.0205L221.174 99.3981C221.136 99.4333 221.106 99.4779 221.085 99.5287C221.064 99.5794 221.053 99.635 221.053 99.6914C221.053 99.7477 221.064 99.8033 221.085 99.8541C221.106 99.9048 221.136 99.9495 221.174 99.9847C221.421 100.201 221.698 100.368 221.992 100.479C222.039 100.496 222.088 100.501 222.136 100.493C222.184 100.484 222.23 100.464 222.271 100.432C222.311 100.4 222.345 100.358 222.37 100.31C222.394 100.261 222.409 100.206 222.412 100.149L222.589 98.0205Z" fill="white"/>
<path d="M223.031 98.0654L222.872 100.194C222.867 100.251 222.873 100.307 222.89 100.36C222.907 100.413 222.934 100.461 222.969 100.5C223.004 100.539 223.046 100.569 223.092 100.587C223.138 100.605 223.187 100.61 223.235 100.603C223.542 100.554 223.84 100.445 224.116 100.28C224.159 100.254 224.197 100.217 224.226 100.171C224.256 100.126 224.276 100.073 224.285 100.017C224.295 99.9614 224.293 99.9038 224.28 99.8489C224.267 99.7939 224.244 99.743 224.212 99.7L223.031 98.0654Z" fill="white"/>
</g>
<path d="M228.78 140.114L228.979 137.511C228.996 137.284 228.974 137.055 228.915 136.837C228.856 136.62 228.76 136.418 228.633 136.243C228.507 136.069 228.352 135.925 228.177 135.82C228.002 135.715 227.812 135.652 227.616 135.633L220.391 134.894C220.194 134.874 219.997 134.9 219.809 134.968C219.621 135.037 219.447 135.148 219.296 135.295C219.145 135.442 219.021 135.622 218.93 135.824C218.839 136.027 218.783 136.249 218.766 136.476L218.573 139.073C218.52 139.912 218.305 140.727 217.944 141.457C217.583 142.187 217.086 142.814 216.488 143.291C215.747 143.856 215.126 144.609 214.671 145.493C214.217 146.376 213.941 147.368 213.864 148.393L212.961 160.165C212.884 161.189 213.007 162.22 213.322 163.181C213.636 164.142 214.134 165.008 214.779 165.714C215.297 166.304 215.695 167.021 215.942 167.813C216.188 168.605 216.278 169.451 216.204 170.289L216.005 172.892C215.988 173.119 216.01 173.348 216.069 173.566C216.129 173.784 216.224 173.985 216.351 174.16C216.478 174.334 216.633 174.478 216.807 174.583C216.982 174.688 217.173 174.752 217.369 174.771L224.611 175.509C224.807 175.529 225.005 175.504 225.193 175.435C225.38 175.366 225.555 175.255 225.706 175.108C225.856 174.961 225.981 174.782 226.072 174.579C226.163 174.376 226.218 174.155 226.235 173.927L226.429 171.33C226.482 170.491 226.697 169.676 227.058 168.946C227.418 168.216 227.916 167.589 228.513 167.112C229.255 166.548 229.877 165.795 230.331 164.911C230.786 164.028 231.061 163.036 231.137 162.01L232.024 150.258C232.101 149.234 231.978 148.203 231.663 147.242C231.348 146.281 230.85 145.415 230.206 144.708C229.685 144.117 229.286 143.397 229.039 142.601C228.792 141.806 228.704 140.955 228.78 140.114Z" fill="#18191F"/>
<path opacity="0.4" d="M228.78 140.114L228.979 137.511C228.996 137.284 228.974 137.055 228.915 136.837C228.856 136.62 228.76 136.418 228.633 136.243C228.507 136.069 228.352 135.925 228.177 135.82C228.002 135.715 227.812 135.652 227.616 135.633L220.391 134.894C220.194 134.874 219.997 134.9 219.809 134.968C219.621 135.037 219.447 135.148 219.296 135.295C219.145 135.442 219.021 135.622 218.93 135.824C218.839 136.027 218.783 136.249 218.766 136.476L218.573 139.073C218.52 139.912 218.305 140.727 217.944 141.457C217.583 142.187 217.086 142.814 216.488 143.291C215.747 143.856 215.126 144.609 214.671 145.493C214.217 146.376 213.941 147.368 213.864 148.393L212.961 160.165C212.884 161.189 213.007 162.22 213.322 163.181C213.636 164.142 214.134 165.008 214.779 165.714C215.297 166.304 215.695 167.021 215.942 167.813C216.188 168.605 216.278 169.451 216.204 170.289L216.005 172.892C215.988 173.119 216.01 173.348 216.069 173.566C216.129 173.784 216.224 173.985 216.351 174.16C216.478 174.334 216.633 174.478 216.807 174.583C216.982 174.688 217.173 174.752 217.369 174.771L224.611 175.509C224.807 175.529 225.005 175.504 225.193 175.435C225.38 175.366 225.555 175.255 225.706 175.108C225.856 174.961 225.981 174.782 226.072 174.579C226.163 174.376 226.218 174.155 226.235 173.927L226.429 171.33C226.482 170.491 226.697 169.676 227.058 168.946C227.418 168.216 227.916 167.589 228.513 167.112C229.255 166.548 229.877 165.795 230.331 164.911C230.786 164.028 231.061 163.036 231.137 162.01L232.024 150.258C232.101 149.234 231.978 148.203 231.663 147.242C231.348 146.281 230.85 145.415 230.206 144.708C229.685 144.117 229.286 143.397 229.039 142.601C228.792 141.806 228.704 140.955 228.78 140.114Z" fill="white"/>
<path d="M226.192 145.861L220.251 145.257C218.32 145.061 216.617 146.719 216.448 148.96L215.607 160.116C215.438 162.357 216.867 164.333 218.798 164.529L224.739 165.132C226.671 165.328 228.373 163.67 228.542 161.429L229.383 150.273C229.552 148.032 228.124 146.057 226.192 145.861Z" fill="#263238"/>
<path d="M233.712 152.059L232.855 151.969C232.619 151.945 232.412 152.146 232.39 152.419L232.153 155.477C232.132 155.75 232.306 155.992 232.541 156.016L233.399 156.106C233.634 156.13 233.842 155.929 233.863 155.656L234.1 152.598C234.121 152.325 233.948 152.083 233.712 152.059Z" fill="#18191F"/>
<path d="M218.175 152.257C218.175 152.257 217.363 149.785 218.374 149.555C219.385 149.324 219.299 151.908 219.299 151.908L218.175 152.257Z" fill="white"/>
<path d="M218.389 152.605L219.383 152.44C219.383 152.44 219.61 153.317 219.008 153.403C218.406 153.488 218.389 152.605 218.389 152.605Z" fill="white"/>
<path d="M221.366 151.889C221.366 151.889 222.536 149.615 221.571 149.187C220.605 148.759 220.31 151.316 220.31 151.316L221.366 151.889Z" fill="white"/>
<path d="M221.167 152.21L220.212 151.841C220.212 151.841 219.786 152.652 220.371 152.856C220.956 153.06 221.167 152.21 221.167 152.21Z" fill="white"/>
<path d="M218.907 160.56C218.209 160.487 216.749 160.257 217.641 157.719C217.641 157.719 217.811 158.701 218.209 158.754C218.209 158.754 217.487 156.612 219.521 155.201C219.521 155.201 219.146 156.704 219.856 157.449C220.236 157.844 219.952 158.622 219.952 158.622C220.223 158.122 220.35 157.536 220.316 156.948C220.316 156.948 221.804 160.856 218.907 160.56Z" fill="white"/>
<path d="M227.03 152.914L222.946 152.498C222.865 152.493 222.785 152.469 222.711 152.427C222.638 152.386 222.573 152.327 222.519 152.255C222.466 152.182 222.426 152.098 222.402 152.008C222.378 151.917 222.37 151.822 222.378 151.727C222.384 151.633 222.406 151.541 222.443 151.457C222.479 151.372 222.53 151.297 222.592 151.236C222.654 151.175 222.725 151.128 222.803 151.099C222.88 151.071 222.962 151.06 223.043 151.068L227.127 151.483C227.209 151.488 227.289 151.512 227.362 151.554C227.435 151.596 227.501 151.655 227.554 151.727C227.607 151.799 227.647 151.883 227.671 151.974C227.695 152.065 227.704 152.16 227.695 152.254C227.689 152.349 227.667 152.441 227.631 152.525C227.594 152.609 227.543 152.684 227.482 152.745C227.42 152.807 227.348 152.853 227.271 152.882C227.193 152.911 227.111 152.922 227.03 152.914Z" fill="white"/>
<path d="M224.935 159.891L222.424 159.634C222.342 159.629 222.262 159.605 222.189 159.563C222.115 159.521 222.05 159.462 221.997 159.39C221.944 159.318 221.904 159.234 221.88 159.143C221.855 159.053 221.847 158.957 221.856 158.863C221.862 158.769 221.883 158.677 221.92 158.593C221.957 158.508 222.007 158.433 222.069 158.372C222.131 158.311 222.203 158.264 222.28 158.235C222.358 158.206 222.439 158.196 222.52 158.204L225.031 158.461C225.112 158.468 225.191 158.493 225.264 158.535C225.337 158.578 225.401 158.637 225.454 158.708C225.507 158.78 225.547 158.863 225.572 158.953C225.597 159.043 225.606 159.138 225.599 159.232C225.586 159.422 225.509 159.597 225.384 159.721C225.26 159.844 225.098 159.906 224.935 159.891Z" fill="white"/>
<path d="M180.062 112.874C180.062 112.874 184.828 121.614 188.674 123.387C192.519 125.16 201.494 117.725 201.494 117.725L205.049 116.578C205.274 116.479 205.474 116.316 205.631 116.104C205.788 115.893 205.896 115.639 205.947 115.366L206.458 112.657C206.495 112.46 206.496 112.256 206.461 112.058C206.425 111.861 206.355 111.674 206.254 111.51L205.845 110.851C205.739 110.678 205.602 110.534 205.443 110.429C205.284 110.324 205.107 110.261 204.925 110.245C204.743 110.229 204.56 110.259 204.389 110.334C204.218 110.409 204.063 110.527 203.936 110.679L200.67 114.581C200.67 114.581 192.263 119.195 190.571 117.178C188.878 115.161 188.895 115.168 185.339 109.618L180.062 112.874Z" fill="white"/>
<path d="M177.071 99.4C175.464 100.514 173.396 105.892 180.212 114.935L186.154 109.662C186.154 109.662 182.092 95.9002 177.071 99.4Z" fill="#18191F"/>
<path opacity="0.1" d="M184.413 111.22C183.101 105.182 181.255 102.882 181.255 102.882L180.062 104.8L177.909 108.32L178.477 112.38C178.983 113.197 179.562 114.047 180.227 114.93L184.413 111.22Z" fill="black"/>
<path d="M159.505 172.359C159.229 175.155 158.723 177.914 157.994 180.598C151.229 183.821 134.739 211.465 134.739 211.465L137.415 214.411C137.415 214.411 159.783 194.328 165.656 185.871C167.36 183.4 168.559 178.087 169.803 174.726C166.247 175.063 162.681 174.244 159.505 172.359Z" fill="white"/>
<path d="M138.027 213.586L134.949 210.29C134.885 210.22 134.802 210.177 134.714 210.17C134.625 210.163 134.538 210.191 134.466 210.251L131.166 212.887C131.095 212.942 131.035 213.013 130.988 213.095C130.941 213.178 130.909 213.27 130.893 213.367C130.877 213.464 130.878 213.563 130.896 213.66C130.913 213.756 130.947 213.848 130.995 213.929C131.021 213.973 131.052 214.013 131.086 214.047C132.381 215.366 133.586 216.526 135.176 218.233C137.056 220.243 136.369 219.993 138.55 222.392C139.868 223.835 141.504 222.339 141.01 221.647C138.737 218.509 138.737 216.796 138.561 214.66C138.498 214.24 138.309 213.86 138.027 213.586Z" fill="#263238"/>
<path opacity="0.1" d="M159.503 172.359C159.421 173.449 159.285 174.532 159.094 175.602C162.173 177.129 165.515 177.806 168.858 177.58C169.176 176.551 169.483 175.602 169.801 174.726C166.245 175.063 162.679 174.244 159.503 172.359Z" fill="black"/>
<path d="M160.055 151.649C160.146 158.181 159.141 167.145 158.76 172.688C160.68 173.782 165.383 176.096 170.24 175.634C172.63 169.25 174.622 162.675 176.198 155.96C178.306 147.101 177.902 134.466 177.902 134.466L158.703 133.075C157.937 146.666 160.055 151.649 160.055 151.649Z" fill="#263238"/>
<path opacity="0.5" d="M177.885 134.46L158.686 133.069C157.936 146.66 160.055 151.643 160.055 151.643C160.083 153.878 159.987 156.395 159.828 158.959C160.998 162.532 163.355 169.637 165.542 175.312C167.09 175.651 168.668 175.758 170.239 175.628C172.63 169.245 174.621 162.669 176.198 155.954C178.305 147.102 177.885 134.46 177.885 134.46Z" fill="black"/>
<path d="M180.658 182.089C180.329 179.373 177.977 169.513 177.977 169.513C173.274 172.426 170.025 173.362 168.241 173.626C169.093 175.946 170.769 180.671 171.553 182.708C171.553 182.708 170.82 192.391 180.817 230.303L184.833 229.564C184.833 229.564 182.089 193.88 180.658 182.089Z" fill="white"/>
<path d="M184.458 228.595L180.38 229.63C180.293 229.65 180.215 229.704 180.159 229.784C180.103 229.863 180.073 229.962 180.073 230.065V234.731C180.072 234.83 180.087 234.928 180.118 235.019C180.15 235.11 180.196 235.194 180.255 235.264C180.314 235.335 180.385 235.391 180.463 235.43C180.541 235.468 180.625 235.489 180.71 235.489H180.846C182.55 235.028 184.032 234.54 186.151 234.02C188.65 233.393 188.082 233.901 191.025 233.216C192.803 232.8 192.689 230.381 191.922 230.454C188.395 230.81 187.174 229.841 185.589 228.747C185.241 228.534 184.838 228.48 184.458 228.595Z" fill="#263238"/>
<path opacity="0.1" d="M177.977 169.513C173.274 172.426 170.025 173.362 168.241 173.626C168.474 174.285 168.775 175.089 169.099 175.992C172.449 175.291 175.637 173.789 178.46 171.582C178.176 170.337 177.977 169.513 177.977 169.513Z" fill="black"/>
<path d="M178.562 170.232C178.562 170.232 174.676 153.002 174.773 147.163C174.83 143.716 177.108 133.631 177.108 133.631L159.221 131.166C159.221 131.166 153.91 142.615 159.221 151.823C159.221 151.823 163.629 163.97 167.741 174.582C171.541 173.886 175.205 172.413 178.562 170.232Z" fill="#263238"/>
<path d="M168.825 83.6031C168.888 85.9298 168.445 88.876 166.712 90.2734C165.883 90.9325 164.872 91.295 164.19 92.198C163.509 93.1009 163.213 94.261 162.81 95.2826C162.674 95.6253 163.117 95.9417 163.259 95.5858C163.827 94.1687 164.202 92.745 165.36 91.8486C166.388 91.0577 167.411 90.6952 168.132 89.4495C169.033 87.6861 169.454 85.6487 169.342 83.6031C169.342 83.2208 168.814 83.2208 168.825 83.6031Z" fill="#1A2E35"/>
<path d="M169.093 80.6179C169.093 80.6179 169.547 75.78 163.526 78.4362C157.761 80.9804 159.954 84.6978 154.523 88.1054C149.093 91.513 157.619 94.0836 155.659 97.0825C153.7 100.081 160.283 100.378 162.089 94.9866C163.896 89.595 166.406 91.2296 168.093 88.547C169.087 86.9586 169.519 83.6037 169.519 83.6037L169.093 80.6179Z" fill="#1A2E35"/>
<path d="M172.444 88.1045C172.444 88.1045 172.012 90.1477 170.348 89.4227C168.683 88.6977 171.648 89.2118 172.444 88.1045Z" fill="#1A2E35"/>
<path d="M170.854 84.189C170.537 84.1055 170.211 84.081 169.888 84.1165C169.785 84.1806 169.693 84.2655 169.615 84.367C169.567 84.4258 169.507 84.4694 169.441 84.4936C169.374 84.5178 169.303 84.5219 169.235 84.5054C169.167 84.4888 169.103 84.4523 169.05 84.3993C168.998 84.3462 168.958 84.2784 168.934 84.2022C168.71 83.5089 168.616 82.7683 168.658 82.0296C168.7 81.2908 168.878 80.571 169.178 79.918C169.178 79.918 169.49 80.5771 169.684 80.6232C169.973 80.7023 170.757 80.063 170.757 80.063L170.854 84.189Z" fill="#18191F"/>
<path d="M157.709 131.875C157.709 131.875 172.006 134.512 179.203 134.709C179.054 130.78 179.394 126.846 180.214 123.03C181.549 117.526 185.326 112.88 180.731 101.503C178.231 95.2813 163.77 94.4245 161.571 100.231C159.294 106.242 165.389 109.637 157.709 131.875Z" fill="#18191F"/>
<path d="M177.356 94.591L173.488 89.417C173.539 90.7523 173.307 92.0819 172.812 93.2888C172.317 94.4956 171.573 95.5426 170.647 96.3377C170.647 96.3377 171.039 99.5871 177.021 105.473C180.741 102.329 178.1 98.4996 178.1 98.4996C178.1 98.4996 175.924 96.8913 177.356 94.591Z" fill="white"/>
<path opacity="0.1" d="M177.051 97.0825C176.896 96.6756 176.842 96.2262 176.896 95.7857C176.951 95.3451 177.11 94.9311 177.358 94.591L173.49 89.417C173.514 90.0505 173.476 90.6852 173.376 91.3086C173.623 92.5083 174.075 93.6379 174.707 94.6299C175.338 95.622 176.135 96.4561 177.051 97.0825Z" fill="black"/>
<path d="M172.314 81.9575C172.03 87.0393 171.82 89.2077 173.734 92.0881C176.609 96.4646 182.05 95.7527 183.641 90.8753C185.066 86.4856 185.293 78.886 181.249 76.2825C180.362 75.6997 179.36 75.3894 178.34 75.381C177.32 75.3727 176.316 75.6666 175.421 76.2348C174.526 76.8031 173.771 77.6269 173.228 78.6284C172.684 79.6298 172.37 80.7757 172.314 81.9575Z" fill="white"/>
<path d="M179.096 84.2897C179.056 84.705 179.21 85.0675 179.437 85.1005C179.664 85.1334 179.891 84.8236 179.942 84.4413C179.994 84.0591 179.829 83.6702 179.602 83.6372C179.374 83.6043 179.159 83.9075 179.096 84.2897Z" fill="#263238"/>
<path d="M183.093 84.8876C183.048 85.3028 183.201 85.6588 183.428 85.6983C183.655 85.7379 183.882 85.4215 183.934 85.0392C183.985 84.6569 183.82 84.268 183.593 84.2351C183.366 84.2021 183.138 84.4789 183.093 84.8876Z" fill="#263238"/>
<path d="M183.467 84.2158L184.347 84.0576C184.347 84.0576 183.847 84.7629 183.467 84.2158Z" fill="#263238"/>
<path d="M181.767 85.4473C181.982 86.431 182.312 87.3758 182.749 88.2551C182.551 88.3752 182.333 88.4455 182.11 88.4614C181.887 88.4773 181.663 88.4385 181.454 88.3474L181.767 85.4473Z" fill="#ED893E"/>
<path d="M179.361 89.6394C179.53 89.6976 179.703 89.7394 179.878 89.7647C179.905 89.7672 179.931 89.7586 179.953 89.7405C179.975 89.7225 179.991 89.696 179.997 89.6658C179.999 89.6336 179.99 89.602 179.972 89.5774C179.954 89.5529 179.928 89.5373 179.901 89.534C179.46 89.4782 179.037 89.3038 178.666 89.0245C178.294 88.7453 177.983 88.369 177.759 87.9257C177.745 87.9008 177.723 87.8827 177.698 87.8747C177.673 87.8667 177.647 87.8693 177.624 87.882C177.6 87.8948 177.581 87.9169 177.571 87.9442C177.56 87.9716 177.559 88.0025 177.566 88.0312C177.758 88.4244 178.016 88.7692 178.324 89.0454C178.632 89.3215 178.985 89.5235 179.361 89.6394Z" fill="#263238"/>
<path d="M177.591 83.1225C177.633 83.1386 177.678 83.1382 177.72 83.1216C177.762 83.1049 177.799 83.0729 177.824 83.0303C178.05 82.7328 178.326 82.4927 178.636 82.3248C178.946 82.157 179.282 82.0651 179.624 82.0548C179.654 82.0606 179.685 82.0587 179.715 82.0493C179.744 82.0399 179.771 82.0231 179.794 82.0002C179.818 81.9773 179.836 81.9488 179.849 81.9167C179.862 81.8846 179.869 81.8496 179.869 81.8142C179.869 81.7788 179.862 81.7438 179.849 81.7117C179.836 81.6795 179.818 81.651 179.794 81.6281C179.771 81.6053 179.744 81.5885 179.715 81.5791C179.685 81.5697 179.654 81.5678 179.624 81.5736C179.215 81.5805 178.811 81.6901 178.442 81.8949C178.072 82.0996 177.745 82.3948 177.483 82.76C177.468 82.786 177.457 82.8151 177.452 82.8457C177.447 82.8763 177.447 82.9079 177.452 82.9385C177.457 82.9691 177.468 82.9982 177.483 83.0241C177.498 83.0501 177.517 83.0723 177.54 83.0896C177.552 83.1077 177.571 83.1195 177.591 83.1225Z" fill="#263238"/>
<path d="M184.527 82.9222C184.572 82.9392 184.62 82.9383 184.664 82.9196C184.708 82.901 184.746 82.8657 184.771 82.8194C184.796 82.773 184.806 82.7184 184.801 82.6641C184.796 82.6099 184.776 82.5592 184.743 82.5201C184.519 82.227 184.237 82.0021 183.921 81.8653C183.605 81.7285 183.265 81.6841 182.931 81.7358C182.878 81.7455 182.831 81.7785 182.8 81.8277C182.768 81.8769 182.754 81.9384 182.76 81.9994C182.764 82.0308 182.774 82.0609 182.788 82.0879C182.803 82.1149 182.821 82.1383 182.844 82.1567C182.866 82.1752 182.891 82.1883 182.918 82.1952C182.944 82.2021 182.972 82.2028 182.999 82.1972C183.263 82.1721 183.528 82.2186 183.773 82.333C184.019 82.4474 184.238 82.6266 184.413 82.8563C184.445 82.8903 184.484 82.9132 184.527 82.9222Z" fill="#263238"/>
<path d="M179.493 83.6533L180.368 83.4951C180.368 83.4951 179.857 84.174 179.493 83.6533Z" fill="#263238"/>
<path d="M173.378 85.6825C174.276 84.5561 174.792 83.0905 174.832 81.5565C174.889 78.9991 178.348 76.244 182.784 77.7073C182.784 77.7073 184.056 73.0935 180.91 75.0247C180.91 75.0247 175.888 71.07 171.577 76.9295C168.578 81.0226 170.203 85.4519 171.469 87.7719C171.555 87.9297 171.678 88.0551 171.824 88.1328C171.97 88.2104 172.132 88.2368 172.291 88.2088C172.449 88.1808 172.598 88.0995 172.717 87.9751C172.837 87.8506 172.922 87.6884 172.963 87.5083L173.378 85.6825Z" fill="#263238"/>
<path d="M170.711 85.6866C170.796 86.1538 170.96 86.5969 171.193 86.9906C171.425 87.3842 171.723 87.7205 172.068 87.9803C173 88.6394 173.773 87.7891 173.801 86.5698C173.801 85.469 173.324 83.7883 172.262 83.5774C172.025 83.5366 171.784 83.5662 171.56 83.6634C171.336 83.7606 171.138 83.9223 170.983 84.1333C170.827 84.3442 170.721 84.5974 170.674 84.8692C170.626 85.1409 170.639 85.4222 170.711 85.6866Z" fill="white"/>
<path d="M182.386 77.6025C182.386 77.6025 184.056 76.772 184.544 78.7625C185.033 80.7531 183.63 77.6816 182.386 77.6025Z" fill="#1A2E35"/>
<path d="M180.25 77.2432C180.25 77.2432 178.443 77.4607 178.852 79.471C179.261 81.4813 179.193 78.0077 180.25 77.2432Z" fill="#1A2E35"/>
<path d="M172.053 85.6006C172.17 85.6266 172.282 85.6794 172.382 85.756C172.481 85.8325 172.567 85.9313 172.634 86.0466C172.7 86.1619 172.746 86.2913 172.77 86.4275C172.793 86.5636 172.792 86.7038 172.768 86.8397C172.723 87.1794 172.757 87.5269 172.866 87.8466C172.974 88.1663 173.155 88.4466 173.387 88.6589C173.337 88.7535 173.268 88.8331 173.186 88.8915C173.104 88.9498 173.012 88.9853 172.916 88.995C172.916 88.995 170.439 86.1542 172.053 85.6006Z" fill="#18191F"/>
<path opacity="0.5" d="M172.053 85.6006C172.17 85.6266 172.282 85.6794 172.382 85.756C172.481 85.8325 172.567 85.9313 172.634 86.0466C172.7 86.1619 172.746 86.2913 172.77 86.4275C172.793 86.5636 172.792 86.7038 172.768 86.8397C172.723 87.1794 172.757 87.5269 172.866 87.8466C172.974 88.1663 173.155 88.4466 173.387 88.6589C173.337 88.7535 173.268 88.8331 173.186 88.8915C173.104 88.9498 173.012 88.9853 172.916 88.995C172.916 88.995 170.439 86.1542 172.053 85.6006Z" fill="white"/>
<path opacity="0.1" d="M167.831 104.859L166.064 103.771L161.105 105.848L160.946 106.329C161.06 109.763 161.435 114.159 160.73 120.223C167.331 110.692 167.831 104.859 167.831 104.859Z" fill="black"/>
<path d="M163.975 109.718C163.975 109.718 160.516 119.242 156.977 121.734C153.438 124.225 143.532 118.642 143.532 118.642L139.863 118.194C139.626 118.14 139.405 118.019 139.22 117.84C139.034 117.662 138.89 117.432 138.801 117.173L137.915 114.589C137.85 114.402 137.819 114.202 137.825 114.001C137.831 113.8 137.873 113.603 137.949 113.422L138.261 112.691C138.341 112.5 138.455 112.332 138.597 112.198C138.739 112.065 138.905 111.969 139.082 111.918C139.259 111.867 139.444 111.862 139.623 111.903C139.802 111.945 139.971 112.031 140.118 112.157L143.896 115.373C143.896 115.373 152.848 118.333 154.228 115.999C155.608 113.666 155.591 113.699 158.306 107.543L163.975 109.718Z" fill="white"/>
<path d="M166.6 97.7801C168.207 98.9006 170.269 104.279 163.453 113.315L157.512 108.043C157.512 108.043 161.579 94.2539 166.6 97.7801Z" fill="#18191F"/>
<path d="M140.391 114.818L139.704 114.752C142.402 76.7545 137.778 75.3967 131.927 73.6764C128.923 72.7932 125.52 71.7979 122.748 65.767C120.17 60.1778 122.112 54.1073 127.934 49.5331C134.716 44.214 145.372 41.8478 155.767 43.3704C168.444 45.1918 180.035 52.5935 188.144 64.0468C195.96 74.843 198.402 84.0508 200.368 91.4461L200.901 93.4234C204.31 106.045 203.963 112.88 203.946 113.164L203.259 113.111C203.259 113.045 203.622 106.125 200.243 93.6607L199.709 91.6834C197.76 84.354 195.341 75.2055 187.616 64.5609C169.519 39.5541 141.072 40.1737 128.326 50.1988C122.743 54.5819 120.942 60.1185 123.362 65.3914C125.992 71.0993 129.099 72.0154 132.104 72.8987C135.108 73.7819 137.926 74.6123 139.601 80.1489C141.391 86.1732 141.646 97.1738 140.391 114.818Z" fill="#18191F"/>
<g opacity="0.3">
<path d="M140.39 114.818L139.703 114.752C142.401 76.7545 137.777 75.3967 131.926 73.6764C128.922 72.7932 125.519 71.7979 122.747 65.767C120.169 60.1778 122.111 54.1073 127.933 49.5331C134.715 44.214 145.371 41.8478 155.766 43.3704C168.443 45.1918 180.034 52.5935 188.143 64.0468C195.959 74.843 198.401 84.0508 200.367 91.4461L200.9 93.4234C204.309 106.045 203.962 112.88 203.945 113.164L203.258 113.111C203.258 113.045 203.621 106.125 200.242 93.6607L199.708 91.6834C197.759 84.354 195.34 75.2055 187.615 64.5609C169.518 39.5541 141.072 40.1737 128.325 50.1988C122.742 54.5819 120.941 60.1185 123.361 65.3914C125.991 71.0993 129.098 72.0154 132.103 72.8987C135.107 73.7819 137.925 74.6123 139.6 80.1489C141.39 86.1732 141.645 97.1738 140.39 114.818Z" fill="white"/>
</g>
<path d="M141.199 110.111H138.904V119.451H141.199V110.111Z" fill="#18191F"/>
<path opacity="0.1" d="M141.199 110.111H138.904V111.706H141.199V110.111Z" fill="black"/>
<path opacity="0.1" d="M141.199 118.387H138.904V119.454H141.199V118.387Z" fill="black"/>
<path d="M141.205 110.851H138.893C138.724 110.851 138.562 110.773 138.443 110.634C138.324 110.496 138.257 110.308 138.257 110.112C138.258 109.918 138.326 109.732 138.445 109.595C138.564 109.458 138.725 109.381 138.893 109.381H141.205C141.373 109.381 141.534 109.458 141.653 109.595C141.772 109.732 141.84 109.918 141.841 110.112C141.841 110.308 141.774 110.496 141.655 110.634C141.535 110.773 141.374 110.851 141.205 110.851Z" fill="#18191F"/>
<path d="M141.205 120.492H138.893C138.725 120.492 138.564 120.415 138.445 120.278C138.326 120.141 138.258 119.955 138.257 119.761C138.257 119.565 138.324 119.377 138.443 119.239C138.562 119.1 138.724 119.022 138.893 119.022H141.205C141.374 119.022 141.535 119.1 141.655 119.239C141.774 119.377 141.841 119.565 141.841 119.761C141.84 119.955 141.772 120.141 141.653 120.278C141.534 120.415 141.373 120.492 141.205 120.492Z" fill="#18191F"/>
<path d="M204.742 108.497H202.447V117.837H204.742V108.497Z" fill="#18191F"/>
<path opacity="0.1" d="M204.742 108.497H202.447V110.092H204.742V108.497Z" fill="black"/>
<path opacity="0.1" d="M204.742 116.762H202.447V117.829H204.742V116.762Z" fill="black"/>
<path d="M204.752 109.237H202.44C202.271 109.237 202.109 109.159 201.99 109.021C201.871 108.882 201.804 108.695 201.804 108.499C201.804 108.303 201.871 108.115 201.99 107.977C202.109 107.839 202.271 107.761 202.44 107.761H204.752C204.92 107.761 205.082 107.839 205.202 107.977C205.321 108.115 205.388 108.303 205.388 108.499C205.388 108.695 205.321 108.882 205.202 109.021C205.082 109.159 204.92 109.237 204.752 109.237Z" fill="#18191F"/>
<path d="M204.752 118.881H202.44C202.271 118.881 202.109 118.803 201.99 118.665C201.871 118.526 201.804 118.338 201.804 118.143C201.804 117.947 201.871 117.759 201.99 117.621C202.109 117.482 202.271 117.404 202.44 117.404H204.752C204.92 117.404 205.082 117.482 205.202 117.621C205.321 117.759 205.388 117.947 205.388 118.143C205.388 118.338 205.321 118.526 205.202 118.665C205.082 118.803 204.92 118.881 204.752 118.881Z" fill="#18191F"/>
<path d="M101.004 103.487C101.004 103.487 93.3298 107.474 89.5752 105.833C85.8206 104.192 81.8729 90.9307 81.8729 90.9307L79.4361 87.1935C79.2717 86.9424 79.1826 86.6357 79.1826 86.3202C79.1826 86.0048 79.2717 85.698 79.4361 85.4469L81.4526 82.4018C81.5963 82.1894 81.7777 82.0153 81.9845 81.8914C82.1913 81.7674 82.4186 81.6965 82.6511 81.6834H82.7817C82.9984 81.6725 83.2147 81.7133 83.4172 81.8033C83.6198 81.8934 83.8042 82.0307 83.9592 82.2068C84.1141 82.3829 84.2362 82.594 84.318 82.8271C84.3998 83.0602 84.4395 83.3102 84.4346 83.5618L84.3494 88.1756C84.3494 88.1756 90.3988 99.4267 92.7617 99.2487C95.1247 99.0708 98.9758 97.1989 98.9758 97.1989L101.004 103.487Z" fill="white"/>
<path d="M108.524 96.5954C108.797 98.5728 107.956 103.727 98.0328 105.579L96.5049 97.7621C96.5049 97.7621 107.553 89.5363 108.524 96.5954Z" fill="#263238"/>
<path d="M84.761 82.7656C85.7607 84.242 87.3227 84.7429 88.2429 83.9125C89.1631 83.082 89.0949 81.1903 88.0895 79.7139C87.0841 78.2375 85.5335 77.7366 84.6133 78.567C83.6931 79.3975 83.7556 81.2892 84.761 82.7656Z" fill="#18191F"/>
<path opacity="0.2" d="M84.7585 82.7672C84.3915 82.2914 84.1445 81.7077 84.0443 81.08C83.9441 80.4522 83.9947 79.8046 84.1904 79.2079C84.9743 78.7268 86.275 79.3727 87.2123 80.7503C88.0018 81.9103 88.2858 83.2417 88.0075 84.092C87.0589 84.6588 85.6786 84.1183 84.7585 82.7672Z" fill="black"/>
<path d="M78.291 88.6879C78.7226 89.347 80.7959 88.2595 82.9203 86.3085C85.0446 84.3575 86.4249 82.2682 85.9932 81.6354C85.5615 81.0027 83.4883 82.0704 81.3639 84.0148C79.2395 85.9592 77.8593 88.0552 78.291 88.6879Z" fill="#18191F"/>
<path opacity="0.2" d="M80.9293 87.887C79.6229 88.7636 78.5777 89.113 78.288 88.6845C77.9983 88.2561 78.555 87.1158 79.6285 85.8174C79.8882 86.0449 80.1212 86.3108 80.3215 86.6083C80.58 86.9954 80.785 87.4268 80.9293 87.887Z" fill="black"/>
<path d="M76.1136 90.6701C77.1133 92.1466 78.6697 92.6475 79.5899 91.817C80.51 90.9865 80.4476 89.1015 79.4422 87.625C78.4368 86.1486 76.8804 85.6477 75.9602 86.4782C75.0401 87.3087 75.1139 89.2003 76.1136 90.6701Z" fill="#18191F"/>
<path opacity="0.6" d="M106.582 101.711C105.182 103.048 103.554 104.026 101.805 104.578C101.896 96.6687 105.213 96.583 105.213 96.583L105.843 96.9983L106.582 101.711Z" fill="black"/>
<path d="M115.902 162.974L112.045 176.934C112.577 180.854 112.577 184.846 112.045 188.765C111.171 195.402 106.218 230.342 106.218 230.342L102.497 230.856C102.497 230.856 103.065 186.076 103.826 176.387C104.587 166.698 105.53 159.777 105.53 159.777L115.902 162.974Z" fill="white"/>
<path opacity="0.1" d="M105.526 159.777L115.904 162.974L113.422 171.971L104.379 170.152C104.987 163.864 105.526 159.777 105.526 159.777Z" fill="black"/>
<path d="M123.345 163.506C123.345 163.506 127.599 184.42 143.225 229.78L146.787 228.745C146.787 228.745 139.8 181.619 135.529 176.399L133.37 160.521L123.345 163.506Z" fill="white"/>
<path opacity="0.1" d="M133.352 160.521L134.619 169.643L125.286 171.62C123.883 166.136 123.366 163.526 123.366 163.526L133.352 160.521Z" fill="black"/>
<path d="M122.694 148.08C122.694 148.08 119.683 151.303 118.905 153.913C118.127 156.523 114.361 170.595 114.361 170.595L104.137 168.466C104.137 168.466 105.193 155.284 106.346 145.872C107.499 136.459 108.391 130.936 108.249 130.132L127.562 128.24C127.562 128.24 131.43 144.646 122.694 148.08Z" fill="#18191F"/>
<path opacity="0.1" d="M119.443 138.804L122.64 148.118C122.3 148.493 119.619 151.473 118.892 153.911C118.687 154.57 118.295 156.001 117.818 157.741C116.375 148.302 117.165 137.928 117.165 137.928L119.443 138.804Z" fill="black"/>
<path d="M116.926 130.206C116.926 130.206 115.058 137.72 120.232 153.703C121.658 158.113 123.953 169.904 123.953 169.904L135.006 167.347L132.615 151.713C132.615 151.713 133.103 136.21 129.337 128.749L116.926 130.206Z" fill="#18191F"/>
<path d="M102.547 229.86L106.415 229.781C106.497 229.779 106.577 229.81 106.641 229.869C106.705 229.928 106.75 230.011 106.767 230.104L108.164 234.402C108.198 234.581 108.17 234.768 108.087 234.924C108.003 235.079 107.869 235.19 107.716 235.232H107.591C105.977 235.199 104.552 235.1 102.547 235.1C100.184 235.1 100.786 235.43 98.0025 235.476C96.3269 235.476 96.0201 233.294 96.7302 233.189C99.9792 232.714 100.314 231.574 101.57 230.223C101.847 229.97 102.194 229.841 102.547 229.86Z" fill="#263238"/>
<path d="M142.949 228.827L146.72 227.812C146.799 227.79 146.882 227.801 146.955 227.843C147.028 227.885 147.085 227.956 147.118 228.042L149.259 231.905C149.325 232.071 149.332 232.26 149.277 232.432C149.223 232.604 149.112 232.744 148.97 232.821C148.932 232.844 148.892 232.862 148.85 232.874C147.271 233.23 145.851 233.473 143.897 233.968C141.585 234.541 142.233 234.713 139.523 235.431C137.893 235.866 137.195 233.777 137.871 233.5C140.961 232.247 141.086 231.054 142.068 229.433C142.287 229.112 142.601 228.896 142.949 228.827Z" fill="#263238"/>
<path d="M106.28 71.0403C106.28 71.0403 103.656 70.7898 105.059 75.2718L106.763 73.4065L107.899 70.915L106.28 71.0403Z" fill="#263238"/>
<path opacity="0.6" d="M106.28 71.0403C106.28 71.0403 103.656 70.7898 105.059 75.2718L106.763 73.4065L107.899 70.915L106.28 71.0403Z" fill="black"/>
<path d="M130.025 129.583C130.025 129.583 125.634 130.037 107.827 131.244C107.827 131.244 106.833 125.918 105.555 116.796C104.118 106.402 102.476 96.8312 104.595 94.2475C107.003 91.3144 118.46 91.7231 123.726 91.7429C124.543 91.7433 125.33 92.0966 125.935 92.7338C126.54 93.371 126.918 94.2466 126.997 95.19L130.025 129.583Z" fill="#263238"/>
<path d="M119.756 91.7113C119.728 93.1152 118.66 96.068 112.702 101.446C112.702 101.446 108.158 96.3514 108.606 92.4561C111.793 91.7969 116.15 91.7047 119.756 91.7113Z" fill="#18191F"/>
<path d="M112.677 99.7166C112.677 99.7166 109.195 94.3383 110.143 92.1896C112.751 91.8675 115.371 91.7091 117.993 91.715C117.988 92.73 117.42 95.3929 112.677 99.7166Z" fill="white"/>
<path d="M112.573 98.1717L110.301 93.5579C112.005 92.1211 111.613 90.816 110.698 88.8519L114.714 82.2607C114.879 85.5234 115.367 90.2426 117.708 91.7652C117.749 92.2955 117.665 92.8288 117.463 93.3075L112.573 98.1717Z" fill="white"/>
<path opacity="0.2" d="M111.33 90.4784C111.154 89.9252 110.94 89.3895 110.688 88.8768L113.21 84.7178C113.733 84.9221 114.608 84.6848 114.915 85.0276C114.915 85.2385 114.966 85.4494 115 85.6867C114.784 87.2685 113.034 89.6414 111.33 90.4784Z" fill="black"/>
<path d="M116.505 76.744C116.67 81.7269 116.829 83.8294 114.892 86.6307C111.978 90.8292 106.667 89.9658 105.236 85.1477C103.941 80.7975 103.89 73.3561 107.906 70.9306C108.586 70.5064 109.332 70.2423 110.1 70.1536C110.868 70.0648 111.644 70.1531 112.383 70.4134C113.122 70.6737 113.81 71.1009 114.406 71.6704C115.002 72.2398 115.496 72.9404 115.858 73.7318C116.273 74.6634 116.495 75.695 116.505 76.744Z" fill="white"/>
<path d="M109.816 78.8229C109.85 79.2249 109.691 79.5742 109.469 79.6006C109.248 79.627 109.026 79.3172 108.992 78.9415C108.958 78.5658 109.117 78.1901 109.338 78.1637C109.56 78.1374 109.764 78.434 109.816 78.8229Z" fill="#1A2E35"/>
<path d="M105.889 79.2873C105.923 79.696 105.764 80.0387 105.542 80.0651C105.321 80.0914 105.099 79.7817 105.065 79.406C105.031 79.0303 105.19 78.6546 105.412 78.6348C105.633 78.615 105.855 78.8853 105.889 79.2873Z" fill="#1A2E35"/>
<path d="M107.169 79.873C106.935 80.8307 106.589 81.7466 106.141 82.5952C106.332 82.7191 106.544 82.7944 106.762 82.816C106.981 82.8376 107.201 82.805 107.407 82.7204L107.169 79.873Z" fill="#FF8935"/>
<path d="M109.434 84.0794C109.267 84.1316 109.096 84.1668 108.923 84.1848C108.896 84.1868 108.87 84.1772 108.849 84.1576C108.828 84.1381 108.814 84.1102 108.81 84.0794C108.809 84.0476 108.819 84.0167 108.837 83.9925C108.854 83.9683 108.879 83.9523 108.906 83.9475C109.339 83.9093 109.759 83.7526 110.13 83.4902C110.501 83.2279 110.814 82.8674 111.042 82.4382C111.056 82.411 111.079 82.3911 111.105 82.3826C111.131 82.374 111.16 82.3774 111.184 82.392C111.208 82.4062 111.226 82.4307 111.235 82.4603C111.243 82.4899 111.241 82.5222 111.229 82.5502C111.033 82.9306 110.773 83.2617 110.464 83.5242C110.156 83.7868 109.806 83.9755 109.434 84.0794Z" fill="#1A2E35"/>
<path d="M111.331 77.7274C111.289 77.7402 111.245 77.7375 111.204 77.7198C111.163 77.7021 111.128 77.6702 111.104 77.6285C110.895 77.334 110.635 77.0925 110.342 76.919C110.049 76.7456 109.728 76.6438 109.4 76.6201C109.373 76.6201 109.345 76.6137 109.32 76.6014C109.295 76.5891 109.272 76.571 109.253 76.5483C109.234 76.5255 109.219 76.4986 109.209 76.469C109.199 76.4395 109.195 76.4079 109.195 76.3762C109.198 76.3138 109.222 76.2551 109.261 76.2122C109.3 76.1693 109.352 76.1454 109.406 76.1455C109.807 76.165 110.201 76.2852 110.559 76.498C110.917 76.7108 111.23 77.011 111.479 77.378C111.505 77.4311 111.514 77.4939 111.502 77.5537C111.49 77.6136 111.46 77.6662 111.416 77.701C111.392 77.7221 111.361 77.7315 111.331 77.7274Z" fill="#1A2E35"/>
<path d="M104.514 77.325C104.479 77.3348 104.442 77.3339 104.407 77.3224C104.372 77.3108 104.34 77.289 104.315 77.2591C104.296 77.237 104.281 77.2108 104.271 77.182C104.26 77.1532 104.255 77.1222 104.255 77.091C104.255 77.0598 104.26 77.0289 104.271 77C104.281 76.9712 104.296 76.945 104.315 76.9229C104.539 76.6419 104.82 76.4294 105.132 76.3041C105.444 76.1788 105.778 76.1446 106.104 76.2045C106.155 76.2157 106.2 76.2496 106.23 76.2988C106.26 76.3481 106.272 76.4088 106.263 76.4681C106.252 76.5291 106.221 76.5826 106.177 76.6171C106.132 76.6516 106.077 76.6644 106.025 76.6527C105.769 76.6166 105.509 76.6509 105.266 76.7528C105.023 76.8547 104.804 77.0213 104.627 77.2393C104.597 77.2792 104.558 77.3088 104.514 77.325Z" fill="#1A2E35"/>
<path d="M115.24 81.1265L113.849 80.8233C113.849 80.8233 114.763 77.1257 114.11 76.1766C113.457 75.2274 111.957 74.4695 111.469 72.703C110.98 70.9366 103.516 74.4101 104.726 67.1335C104.726 67.1335 105.294 69.1109 106.141 69.8293C106.141 69.8293 104.897 64.8398 109.634 65.3935C114.371 65.9471 117.353 71.6946 117.353 71.6946C117.353 71.6946 123.476 76.3545 117.137 83.1763C117.028 83.2966 116.894 83.3844 116.749 83.4322C116.604 83.4799 116.451 83.4863 116.303 83.4507C116.155 83.4151 116.017 83.3386 115.9 83.2277C115.784 83.1168 115.691 82.9748 115.632 82.8138L115.24 81.1265Z" fill="#263238"/>
<path d="M117.995 80.4132C117.901 80.8674 117.731 81.2957 117.494 81.6734C117.257 82.0512 116.958 82.371 116.615 82.6146C115.683 83.2737 114.911 82.3774 114.951 81.1778C114.951 80.1034 115.479 78.4688 116.524 78.2974C116.89 78.2492 117.258 78.3713 117.546 78.6369C117.835 78.9025 118.021 79.29 118.063 79.7145C118.086 79.9504 118.062 80.1891 117.995 80.4132Z" fill="white"/>
<path d="M117.131 72.0695C117.131 72.0695 118.806 69.1628 120.283 71.5027C121.76 73.8425 118.301 71.2325 117.131 72.0695Z" fill="#263238"/>
<path d="M116.347 80.0713C116.208 80.1013 116.075 80.1631 115.957 80.2532C115.839 80.3432 115.737 80.4597 115.657 80.5959C115.578 80.7321 115.523 80.8852 115.495 81.0463C115.467 81.2075 115.467 81.3734 115.495 81.5345C115.495 81.5345 115.762 82.543 114.763 83.6964C114.824 83.8091 114.908 83.9035 115.006 83.9722C115.105 84.0409 115.216 84.0818 115.331 84.0919C115.331 84.0919 118.262 80.7238 116.347 80.0713Z" fill="#18191F"/>
<path opacity="0.8" d="M116.347 80.0713C116.208 80.1013 116.075 80.1631 115.957 80.2532C115.839 80.3432 115.737 80.4597 115.657 80.5959C115.578 80.7321 115.523 80.8852 115.495 81.0463C115.467 81.2075 115.467 81.3734 115.495 81.5345C115.495 81.5345 115.762 82.543 114.763 83.6964C114.824 83.8091 114.908 83.9035 115.006 83.9722C115.105 84.0409 115.216 84.0818 115.331 84.0919C115.331 84.0919 118.262 80.7238 116.347 80.0713Z" fill="white"/>
<path opacity="0.6" d="M127.298 98.7255L127.962 106.984C125.646 104.921 124.036 101.971 123.418 98.6596L125.071 98.1719L127.298 98.7255Z" fill="black"/>
<path d="M128.49 100.7C128.49 100.7 137.351 101.754 140.93 99.342C144.508 96.9296 146.184 83.3123 146.184 83.3123L147.967 78.1251C148.115 77.6934 148.128 77.215 148.002 76.7739C147.876 76.3328 147.621 75.9571 147.28 75.7127L145.65 74.5527C145.31 74.3113 144.908 74.2157 144.514 74.2825L143.906 74.3879C143.478 74.4631 143.091 74.7242 142.823 75.1184C142.555 75.5125 142.427 76.0101 142.463 76.5103L142.901 82.4423C142.901 82.4423 140.328 93.4758 137.902 93.7593C135.477 94.0427 135.505 94.0427 129.547 93.8581L128.49 100.7Z" fill="white"/>
<path d="M121.555 95.926C121.487 98.167 122.901 102.227 133.239 101.594L133.353 92.9271C133.353 92.9271 121.754 88.3858 121.555 95.926Z" fill="#263238"/>
<path d="M142.707 75.7987C142.009 77.4926 140.589 78.3956 139.532 77.809C138.476 77.2224 138.186 75.3703 138.885 73.6763C139.583 71.9824 141.003 71.086 142.06 71.699C143.116 72.312 143.406 74.1048 142.707 75.7987Z" fill="#18191F"/>
<path opacity="0.2" d="M142.708 75.8005C142.978 75.244 143.111 74.6119 143.092 73.9737C143.072 73.3355 142.902 72.7156 142.6 72.182C141.742 71.9118 140.595 72.8741 139.942 74.4559C139.374 75.7742 139.374 77.1649 139.8 77.9229C140.822 78.2393 142.066 77.356 142.708 75.8005Z" fill="black"/>
<path d="M150.137 79.9338C149.842 80.6589 147.615 80.1513 145.173 78.7936C142.73 77.4358 140.987 75.7419 141.288 75.0168C141.589 74.2918 143.815 74.7993 146.258 76.1571C148.7 77.5149 150.438 79.2022 150.137 79.9338Z" fill="#18191F"/>
<path opacity="0.2" d="M147.411 79.8276C148.854 80.3483 149.939 80.4274 150.138 79.9331C150.336 79.4388 149.57 78.4699 148.292 77.4746C148.081 77.7629 147.903 78.082 147.763 78.4237C147.582 78.867 147.463 79.3409 147.411 79.8276Z" fill="black"/>
<path d="M152.638 81.3175C151.939 83.0114 150.514 83.9078 149.457 83.2948C148.401 82.6819 148.111 80.8627 148.81 79.1688C149.508 77.4749 150.934 76.5719 151.99 77.1585C153.047 77.7451 153.365 79.6236 152.638 81.3175Z" fill="#18191F"/>
</svg>
