<svg width="233" height="226" viewBox="0 0 233 226" fill="none" xmlns="http://www.w3.org/2000/svg">
<path d="M205.927 169.664C205.927 169.664 217.818 182.181 219.11 187.502C219.839 191.01 219.727 194.688 218.789 198.125L211.054 200.852L205.927 169.664Z" fill="black"/>
<path d="M211.054 201.324C210.98 201.326 210.908 201.303 210.845 201.258C210.753 201.185 210.687 201.073 210.661 200.945L205.518 169.748C205.502 169.65 205.513 169.549 205.549 169.459C205.585 169.369 205.644 169.295 205.717 169.247C205.791 169.199 205.876 169.179 205.96 169.191C206.043 169.203 206.122 169.245 206.184 169.312C206.673 169.824 218.219 181.981 219.487 187.368C220.247 190.971 220.133 194.755 219.158 198.285C219.135 198.354 219.099 198.416 219.053 198.467C219.008 198.517 218.953 198.556 218.893 198.578L211.166 201.305L211.054 201.324ZM206.545 170.969L211.359 200.245L218.46 197.736C219.318 194.454 219.406 190.96 218.716 187.624C217.689 183.344 209.321 173.99 206.545 170.969Z" fill="black"/>
<path d="M162.854 112.05C162.854 112.05 183.715 116.368 187.663 118.366C191.611 120.363 213.026 147.3 220.64 155.613C228.255 163.926 232.194 176.907 232.475 185.22C232.756 193.533 229.94 204.507 226.273 206.173C222.606 207.84 220.071 205.51 218.947 202.187C217.824 198.864 217.254 192.539 217.254 192.539L212.737 181.565C213.041 185.899 212.852 190.262 212.175 194.537C211.044 200.852 209.07 214.155 204.561 217.478C200.052 220.801 194.7 218.813 194.13 217.147C193.67 215.627 193.292 214.074 192.999 212.498C192.999 212.498 191.587 218.482 187.382 220.139C183.178 221.796 177.24 219.807 177.24 219.807C177.24 219.807 172.426 226.435 168.503 225.128C164.579 223.822 160.607 218.813 160.607 218.813C160.607 218.813 147.36 209.165 135.245 199.186C123.129 189.206 101.417 157.942 101.417 157.942L90.9863 150.292L122.84 97.744L136.368 107.723L162.854 112.05Z" fill="white"/>
<path d="M169.586 225.781C169.18 225.783 168.775 225.72 168.383 225.592C164.54 224.295 160.784 219.731 160.359 219.182C159.501 218.548 146.663 209.155 135.021 199.573C123.25 189.887 102.244 159.864 101.161 158.302L90.7863 150.727C90.7385 150.694 90.6974 150.648 90.6656 150.594C90.6338 150.541 90.612 150.479 90.6017 150.415C90.5848 150.285 90.6107 150.153 90.6739 150.046L122.504 97.4974C122.562 97.3984 122.651 97.3302 122.751 97.3072C122.852 97.2842 122.956 97.3083 123.041 97.3743L136.513 107.268L162.919 111.576C163.769 111.756 183.868 115.932 187.792 117.93C190.448 119.274 200.509 131.251 209.376 141.818C213.949 147.262 218.266 152.413 220.89 155.272C228.351 163.424 232.556 176.5 232.853 185.201C233.134 193.448 230.317 204.838 226.394 206.618C222.302 208.511 219.662 205.671 218.555 202.357C217.447 199.043 216.95 193.457 216.838 192.671L213.235 183.904C213.356 187.498 213.128 191.098 212.553 194.631L212.264 196.26C211.069 203.162 209.055 214.713 204.762 217.885C203.469 218.822 202.022 219.425 200.517 219.651C199.012 219.878 197.483 219.725 196.032 219.201C195.564 219.079 195.121 218.849 194.729 218.524C194.336 218.199 194.002 217.785 193.746 217.307C193.424 216.257 193.156 215.185 192.943 214.098C192.221 216.048 190.584 219.362 187.511 220.574C183.66 222.089 178.565 220.687 177.377 220.328C176.551 221.416 173.021 225.781 169.586 225.781ZM91.5806 150.159L101.65 157.544C101.686 157.574 101.719 157.609 101.747 157.648C101.963 157.961 123.555 188.979 135.486 198.797C147.417 208.615 160.704 218.311 160.841 218.406L160.921 218.491C160.961 218.491 164.836 223.395 168.632 224.673C172.282 225.904 176.904 219.57 176.952 219.504C177.002 219.435 177.068 219.384 177.142 219.357C177.216 219.33 177.295 219.329 177.369 219.352C177.425 219.352 183.219 221.293 187.279 219.693C191.338 218.093 192.638 212.422 192.654 212.365C192.677 212.266 192.728 212.178 192.798 212.117C192.867 212.055 192.952 212.022 193.039 212.024C193.13 212.024 193.218 212.061 193.288 212.128C193.358 212.195 193.406 212.289 193.425 212.393C193.716 213.945 194.086 215.476 194.532 216.976C194.975 217.656 195.61 218.126 196.321 218.301C197.656 218.778 199.061 218.916 200.444 218.705C201.827 218.495 203.156 217.941 204.345 217.08C208.357 214.126 210.314 202.821 211.486 196.07L211.775 194.432C212.442 190.204 212.628 185.889 212.328 181.603C212.319 181.492 212.344 181.381 212.398 181.289C212.451 181.198 212.531 181.132 212.622 181.102C212.713 181.073 212.81 181.082 212.895 181.129C212.981 181.175 213.05 181.256 213.091 181.357L217.6 192.33C217.622 192.381 217.635 192.435 217.64 192.491C217.64 192.548 218.21 198.778 219.301 202.007C219.774 203.389 221.652 207.754 226.113 205.728C229.322 204.26 232.355 193.921 232.058 185.239C231.77 176.717 227.653 163.945 220.352 155.963C217.72 153.123 213.395 147.944 208.814 142.49C200.437 132.501 189.999 120.069 187.487 118.82C183.652 116.879 163.256 112.637 162.774 112.533L136.296 108.206C136.242 108.198 136.19 108.175 136.144 108.14L122.929 98.3968L91.5806 150.159Z" fill="black"/>
<path d="M126.814 112.363L104.917 162.08L101.411 157.943L126.814 112.363Z" fill="black"/>
<path d="M104.919 162.555C104.814 162.556 104.713 162.508 104.638 162.422L101.132 158.285C101.065 158.208 101.023 158.107 101.013 157.998C101.003 157.89 101.025 157.78 101.075 157.688L126.478 112.099C126.536 111.999 126.623 111.928 126.723 111.902C126.823 111.876 126.928 111.895 127.016 111.957C127.106 112.017 127.172 112.116 127.2 112.233C127.229 112.35 127.217 112.475 127.168 112.582L105.272 162.299C105.244 162.365 105.203 162.423 105.153 162.467C105.103 162.512 105.045 162.542 104.983 162.555H104.919ZM101.926 157.887L104.814 161.296L122.876 120.336L101.926 157.887Z" fill="black"/>
<path d="M212.739 182.041C212.651 182.041 212.566 182.006 212.496 181.943C212.426 181.88 212.376 181.791 212.354 181.691C212.354 181.691 211.294 177.582 202.573 165.595C201.003 163.275 199.687 160.73 198.657 158.021C198.24 157.017 197.855 156.07 197.454 155.275C197.402 155.166 197.389 155.037 197.417 154.916C197.446 154.795 197.514 154.693 197.606 154.631C197.698 154.569 197.806 154.552 197.909 154.584C198.011 154.616 198.098 154.694 198.152 154.802C198.553 155.625 198.954 156.582 199.379 157.642C200.381 160.278 201.659 162.756 203.183 165.018C212.089 177.279 213.092 181.331 213.124 181.492C213.14 181.553 213.145 181.616 213.139 181.679C213.133 181.741 213.117 181.802 213.091 181.857C213.064 181.912 213.029 181.96 212.986 181.998C212.944 182.037 212.895 182.064 212.843 182.079L212.739 182.041Z" fill="black"/>
<path d="M196.86 153.532C196.789 153.532 196.719 153.51 196.657 153.469C196.595 153.427 196.543 153.367 196.507 153.295L195.488 151.193C195.457 151.141 195.44 151.078 195.44 151.013L194.87 144.386C194.863 144.261 194.896 144.138 194.963 144.041C195.03 143.944 195.126 143.881 195.231 143.865C195.337 143.854 195.443 143.893 195.525 143.972C195.607 144.052 195.66 144.166 195.672 144.291L196.226 150.843L197.205 152.85C197.258 152.96 197.273 153.089 197.246 153.212C197.219 153.334 197.152 153.438 197.061 153.503C196.996 153.53 196.928 153.54 196.86 153.532Z" fill="black"/>
<path d="M193.015 213.011C192.939 213.012 192.863 212.987 192.798 212.94C192.733 212.892 192.681 212.823 192.648 212.741C192.615 212.659 192.603 212.568 192.612 212.479C192.622 212.389 192.653 212.304 192.702 212.235C193.681 210.796 194.877 203.041 193.248 200.153C191.619 197.266 180.45 171.598 179.977 170.509C179.949 170.447 179.932 170.379 179.929 170.31L179.648 162.328C179.646 162.266 179.654 162.204 179.672 162.146C179.69 162.087 179.718 162.034 179.754 161.988C179.79 161.942 179.833 161.905 179.881 161.879C179.928 161.853 179.98 161.838 180.033 161.836C180.139 161.833 180.241 161.879 180.319 161.964C180.397 162.049 180.444 162.166 180.45 162.29L180.731 170.168C181.477 171.901 192.301 196.783 193.914 199.633C195.687 202.767 194.604 210.995 193.328 212.831C193.29 212.887 193.243 212.931 193.189 212.963C193.135 212.994 193.075 213.01 193.015 213.011Z" fill="black"/>
<path d="M177.232 220.282C177.13 220.283 177.031 220.237 176.957 220.154C176.882 220.071 176.837 219.958 176.831 219.837C176.831 219.733 176.221 209.271 171.84 202.795C170.125 200.161 168.554 197.4 167.138 194.529C167.109 194.476 167.09 194.417 167.081 194.355C167.073 194.293 167.075 194.229 167.088 194.168C167.1 194.107 167.124 194.049 167.156 193.999C167.188 193.949 167.228 193.907 167.275 193.876C167.365 193.813 167.473 193.794 167.575 193.825C167.677 193.855 167.765 193.931 167.82 194.037C169.221 196.873 170.775 199.599 172.474 202.198C177.007 208.892 177.609 219.326 177.633 219.762C177.636 219.824 177.629 219.886 177.612 219.945C177.595 220.004 177.568 220.058 177.533 220.105C177.498 220.152 177.455 220.19 177.408 220.217C177.36 220.244 177.309 220.26 177.256 220.263L177.232 220.282Z" fill="black"/>
<path d="M165.974 191.727C165.903 191.728 165.833 191.707 165.77 191.665C165.708 191.624 165.657 191.563 165.621 191.49C163.375 186.832 161.666 182.808 161.649 182.77C161.624 182.705 161.61 182.634 161.609 182.562V178.235C161.609 178.109 161.652 177.989 161.727 177.9C161.802 177.811 161.904 177.762 162.011 177.762C162.117 177.762 162.219 177.811 162.294 177.9C162.369 177.989 162.412 178.109 162.412 178.235V182.448C162.685 183.092 164.273 186.794 166.319 190.97C166.372 191.08 166.385 191.211 166.356 191.333C166.328 191.455 166.26 191.559 166.167 191.623C166.112 191.677 166.045 191.713 165.974 191.727Z" fill="black"/>
<path d="M131.972 102.585L92.2635 175.291L77.2031 166.4L118.958 93.2968L131.972 102.585Z" fill="white"/>
<path d="M92.2641 175.763C92.202 175.763 92.141 175.744 92.0876 175.707L77.0272 166.825C76.9758 166.795 76.9306 166.752 76.8944 166.7C76.8583 166.647 76.8321 166.586 76.8176 166.521C76.8032 166.455 76.8008 166.387 76.8107 166.32C76.8205 166.253 76.8424 166.19 76.8748 166.134L118.598 93.0307C118.655 92.9305 118.743 92.86 118.843 92.8336C118.942 92.8072 119.047 92.8269 119.135 92.8887L132.142 102.177C132.234 102.244 132.3 102.351 132.326 102.475C132.351 102.599 132.334 102.73 132.278 102.84L92.569 175.546C92.5368 175.608 92.4923 175.661 92.4392 175.699C92.3861 175.736 92.326 175.759 92.2641 175.763ZM77.8215 166.219L92.1518 174.674L131.468 102.717L119.135 93.9112L77.8215 166.219Z" fill="black"/>
<path d="M0.402344 0.478394V155.178L65.0006 202.424L125.122 93.7017L0.402344 0.478394Z" fill="black"/>
<path d="M64.9995 202.899C64.9253 202.897 64.8531 202.871 64.7909 202.824L0.192567 155.577C0.134056 155.537 0.0855523 155.478 0.051799 155.409C0.0180457 155.339 0.000198179 155.26 0 155.18V0.479865C0.000640029 0.394906 0.0202652 0.311656 0.0568937 0.238509C0.0935221 0.165363 0.145857 0.104909 0.208615 0.0632645C0.271079 0.0217891 0.341543 0 0.413217 0C0.48489 0 0.555355 0.0217891 0.617819 0.0632645L125.337 93.2866C125.427 93.3569 125.49 93.4655 125.514 93.5896C125.536 93.7135 125.516 93.8428 125.458 93.9494L65.3365 202.681C65.3014 202.749 65.2518 202.805 65.1926 202.843C65.1335 202.882 65.0669 202.901 64.9995 202.899ZM0.810387 154.915L64.8871 201.773L124.575 93.8357L0.802364 1.34147L0.810387 154.915Z" fill="black"/>
</svg>
