<svg width="268" height="209" viewBox="0 0 268 209" fill="none" xmlns="http://www.w3.org/2000/svg">
<path d="M122.088 103.651C122.088 103.651 105.736 97.0236 95.3129 89.3544C84.8902 81.6852 77.8374 78.7122 74.1706 79.375C70.5038 80.0378 62.3278 80.0377 56.4144 81.3727C50.5009 82.7078 46.786 84.0333 45.7028 87.3566C44.6196 90.6799 49.3696 99.9966 55.283 101.994C61.1964 103.992 73.0714 113.299 73.0714 113.299C73.0714 113.299 21.4955 171.509 23.4693 177.493C25.4431 183.477 47.9895 207.791 51.0867 208.094C54.1838 208.397 100.697 191.459 103.513 190.796C109.795 189.14 115.785 186.205 121.213 182.123C124.882 179.349 128.285 176.114 131.363 172.475L154.76 160.498L128.282 100.3L122.088 103.651Z" fill="white"/>
<path d="M51.1383 208.568H51.026C47.4073 208.19 24.9331 183.355 23.0636 177.674C21.0898 171.69 65.6451 121.026 72.409 113.376C70.2506 111.719 60.3735 104.201 55.1822 102.459C51.1704 101.105 47.7524 96.5981 46.1476 92.7351C45.1928 90.4343 44.904 88.465 45.3453 87.1868C46.5247 83.7309 50.1594 82.3201 56.3537 80.9094C60.224 80.1758 64.1276 79.711 68.0441 79.5176C70.5314 79.3377 72.6818 79.1767 74.126 78.9116C78.178 78.1731 85.5838 81.6574 95.5411 88.9573C105.282 96.1058 120.414 102.459 122.083 103.16L128.141 99.912C128.235 99.8646 128.341 99.8607 128.438 99.9011C128.534 99.9414 128.615 100.023 128.663 100.13L155.141 160.328C155.164 160.387 155.177 160.452 155.177 160.518C155.177 160.583 155.164 160.648 155.141 160.707C155.122 160.767 155.093 160.823 155.056 160.87C155.019 160.917 154.974 160.955 154.924 160.981L131.647 172.902C128.553 176.52 125.149 179.75 121.49 182.54C115.99 186.654 109.924 189.605 103.565 191.261C102.674 191.469 97.1458 193.41 90.1492 195.862C71.0129 202.556 53.6417 208.568 51.1383 208.568ZM75.2493 79.8016C74.911 79.7997 74.573 79.8281 74.2384 79.8868C72.754 80.1614 70.5876 80.3129 68.0842 80.5023C64.1996 80.6902 60.328 81.1518 56.4901 81.8846C50.5366 83.2196 47.1105 84.5262 46.0594 87.5655C45.7224 88.5596 46.0594 90.3491 46.8617 92.3469C48.3862 96.0205 51.6197 100.3 55.3909 101.578C61.3043 103.567 72.7781 112.561 73.2595 112.94C73.3106 112.98 73.3532 113.033 73.3838 113.095C73.4145 113.158 73.4323 113.228 73.436 113.3C73.4434 113.37 73.4363 113.441 73.4153 113.507C73.3944 113.573 73.3602 113.632 73.3157 113.679C52.6628 136.989 22.4298 173.186 23.8018 177.361C25.7836 183.355 48.2097 207.347 51.0822 207.659C53.072 207.868 76.14 199.81 89.9005 194.991C97.194 192.435 102.466 190.588 103.396 190.371C109.642 188.729 115.6 185.827 121.008 181.792C124.64 179.028 128.016 175.82 131.078 172.22C131.118 172.174 131.164 172.136 131.214 172.107L154.234 160.347L128.109 100.991L122.252 104.135C122.205 104.158 122.154 104.171 122.103 104.171C122.052 104.171 122.002 104.158 121.955 104.135C121.794 104.068 105.45 97.384 95.0998 89.7905C86.2417 83.2575 79.2772 79.7543 75.2493 79.7543V79.8016Z" fill="black"/>
<path d="M135.337 120.902L146.265 164.162L154.786 160.527L135.337 120.902Z" fill="black"/>
<path d="M146.264 164.635C146.202 164.634 146.141 164.614 146.087 164.578C146.038 164.55 145.994 164.51 145.958 164.461C145.923 164.412 145.895 164.356 145.879 164.294L134.95 121.034C134.925 120.924 134.935 120.807 134.977 120.705C135.019 120.602 135.091 120.521 135.18 120.476C135.268 120.431 135.368 120.425 135.46 120.46C135.552 120.495 135.63 120.568 135.681 120.665L155.13 160.289C155.153 160.352 155.165 160.42 155.165 160.488C155.165 160.557 155.153 160.624 155.13 160.687C155.11 160.752 155.078 160.811 155.036 160.861C154.995 160.91 154.944 160.947 154.889 160.971L146.368 164.607C146.335 164.622 146.299 164.632 146.264 164.635ZM136.692 124.604L146.528 163.546L154.199 160.28L136.692 124.604Z" fill="black"/>
<path d="M59.1455 81.0332C59.1455 81.0332 47.2945 80.6734 44.4863 82.0368C39.6721 84.366 39.4153 92.0162 39.4153 93.3418C39.4153 94.6673 36.0374 105.319 35.4677 109.305C34.898 113.291 38.8537 115.298 47.8722 111.634C56.8908 107.97 59.4263 103.321 59.4263 93.3418" fill="white"/>
<path d="M39.9547 114.029C38.5686 114.149 37.1902 113.697 36.0552 112.751C35.6366 112.324 35.3243 111.77 35.1518 111.15C34.9794 110.529 34.9533 109.865 35.0763 109.229C35.7358 105.847 36.5555 102.513 37.5316 99.2397C38.1249 97.3099 38.6205 95.3403 39.016 93.3411C39.016 92.3943 39.1684 84.1096 44.3356 81.6006C47.192 80.2088 58.6739 80.5496 59.1553 80.5591C59.2087 80.5603 59.2613 80.5741 59.3101 80.5996C59.3589 80.6252 59.4029 80.6619 59.4396 80.7077C59.4762 80.7536 59.5047 80.8076 59.5234 80.8666C59.5421 80.9257 59.5506 80.9885 59.5484 81.0514C59.5423 81.1745 59.4965 81.2902 59.4204 81.3747C59.3443 81.4592 59.2437 81.5061 59.1392 81.5059C59.0189 81.5059 47.3445 81.1651 44.6405 82.4527C39.9547 84.7346 39.8263 92.4511 39.8263 93.3222C39.8263 93.966 39.2807 95.9922 38.3018 99.5143C37.3447 102.744 36.5411 106.035 35.8948 109.371C35.7965 109.845 35.8103 110.342 35.9348 110.808C36.0593 111.274 36.2897 111.69 36.6008 112.012C38.2698 113.679 42.3377 113.366 47.7697 111.17C56.3069 107.704 59.051 103.368 59.051 93.3222C59.053 93.1974 59.0959 93.0784 59.1707 92.9901C59.2455 92.9018 59.3464 92.8512 59.4522 92.8487C59.5586 92.8487 59.6606 92.8986 59.7358 92.9874C59.8111 93.0762 59.8533 93.1966 59.8533 93.3222C59.8533 103.879 56.9809 108.471 48.0265 112.069C45.4419 113.227 42.7168 113.889 39.9547 114.029Z" fill="black"/>
<path d="M36.3203 107.449C36.2468 107.451 36.1744 107.428 36.1116 107.383C36.0291 107.327 35.9665 107.238 35.9355 107.131C35.9045 107.025 35.9072 106.909 35.9431 106.805L39.3291 96.4944C39.3526 96.4083 39.4009 96.3347 39.4655 96.2861C40.7849 95.2224 42.3302 94.6156 43.9267 94.5345C44.3878 94.506 44.8488 94.5953 45.2781 94.7963C45.7073 94.9973 46.0948 95.3052 46.414 95.6991C47.2565 96.7879 47.6015 98.5395 47.425 101.03C47.3892 101.64 47.245 102.234 47.0017 102.774C46.7584 103.314 46.4215 103.787 46.0128 104.164C44.4482 105.669 41.7603 106.057 39.9309 105.792C39.3189 105.715 38.7002 105.811 38.1255 106.071C37.5508 106.331 37.0367 106.748 36.6252 107.288C36.5865 107.338 36.5394 107.378 36.4869 107.406C36.4345 107.434 36.3777 107.448 36.3203 107.449ZM40.0272 96.9773L37.2269 105.499C38.074 104.913 39.061 104.673 40.0352 104.817C41.6961 105.063 44.1272 104.722 45.5073 103.397C45.8305 103.1 46.0974 102.727 46.2909 102.302C46.4844 101.876 46.6001 101.407 46.6306 100.925C46.7831 98.7478 46.5103 97.195 45.8283 96.3145C45.5848 96.0168 45.2893 95.7855 44.9622 95.6367C44.6351 95.4879 44.2844 95.4251 43.9347 95.4529C42.5405 95.5422 41.1917 96.0684 40.0272 96.9773Z" fill="black"/>
<path d="M12.4446 170.723C12.4446 170.723 5.66467 168.451 3.76306 165.611C1.86146 162.77 1.04305 153.577 0.906652 150.689C0.770251 147.801 -0.698073 144.913 2.26265 143.635C5.22337 142.357 9.2031 146.201 10.6955 150.055C12.1879 153.908 12.3002 159.191 12.3002 159.996C12.3002 160.801 14.611 165.128 14.611 165.128C14.611 165.128 16.8095 170.08 12.4446 170.723Z" fill="white"/>
<path d="M12.4439 171.196H12.3396C12.0587 171.102 5.3911 168.867 3.42531 165.894C1.09846 162.362 0.496696 150.821 0.488672 150.745C0.441775 150.067 0.358689 149.394 0.239929 148.728C-0.0970636 146.664 -0.474173 144.326 2.10944 143.218C5.22261 141.883 9.3949 145.632 11.0397 149.846C12.6846 154.059 12.7247 159.929 12.7247 159.929C13.3357 161.643 14.091 163.279 14.9794 164.815C15.0355 164.957 16.0946 167.418 15.2602 169.284C14.9738 169.847 14.5713 170.316 14.0902 170.648C13.6091 170.979 13.0648 171.161 12.5081 171.177L12.4439 171.196ZM3.49754 143.833C3.12316 143.83 2.75113 143.903 2.39829 144.051C0.552853 144.846 0.673205 146.191 1.04229 148.492C1.1726 149.2 1.26107 149.918 1.30707 150.641C1.47557 154.315 2.38225 162.722 4.07524 165.298C5.76822 167.873 11.7378 169.975 12.492 170.24C12.9027 170.227 13.3047 170.097 13.6637 169.861C14.0227 169.625 14.3282 169.291 14.5541 168.886C15.196 167.447 14.2893 165.345 14.2813 165.317C13.5832 164.019 11.9224 160.819 11.9224 159.967C11.9224 159.91 11.9224 154.286 10.3176 150.215C9.04989 146.92 6.02498 143.833 3.49754 143.833Z" fill="black"/>
<path d="M1.69366 156.775C1.69366 156.775 4.10074 159.616 5.85792 159.474C7.61509 159.332 6.39551 152.325 6.39551 152.325C5.15398 151.961 4.00241 151.257 3.0336 150.271C2.23208 149.422 1.47132 148.521 0.754883 147.572L1.69366 156.775Z" fill="white"/>
<path d="M5.72173 159.929C3.83618 159.929 1.50933 157.212 1.40503 157.089C1.34742 157.011 1.30862 156.916 1.2927 156.814L0.35392 147.621C0.342852 147.52 0.359503 147.418 0.401399 147.329C0.443295 147.241 0.508224 147.17 0.586613 147.129C0.664894 147.086 0.752841 147.075 0.836923 147.097C0.921004 147.12 0.996565 147.174 1.05199 147.252C1.76418 148.181 2.51673 149.066 3.30662 149.903C4.22919 150.846 5.32967 151.515 6.51608 151.853C6.59086 151.875 6.65894 151.922 6.71276 151.987C6.76659 152.052 6.80405 152.134 6.82098 152.222C6.92529 152.79 7.75172 157.809 6.74074 159.39C6.64742 159.542 6.52752 159.669 6.38912 159.762C6.25072 159.855 6.09702 159.912 5.93838 159.929H5.72173ZM2.07099 156.53C2.79312 157.345 4.61448 159.068 5.82605 158.983C5.87612 158.976 5.92435 158.956 5.96732 158.925C6.01029 158.894 6.04697 158.852 6.07478 158.803C6.64445 157.913 6.37967 154.703 6.07478 152.696C4.86345 152.293 3.74277 151.578 2.79311 150.603C2.18332 149.95 1.69388 149.382 1.31677 148.937L2.07099 156.53Z" fill="black"/>
<path d="M25.1083 186.442C25.1083 186.442 17.887 188.203 16.1378 185.316C14.3887 182.428 10.8342 170.877 10.9706 166.872C11.107 162.867 20.0774 153.077 24.5627 149.062C29.0479 145.048 31.9043 143.769 34.6243 145.691C37.3443 147.613 39.5187 150.028 38.7083 153.389C37.8979 156.75 31.3667 171.199 30.2755 173.764C29.1843 176.33 28.1011 185.316 28.1011 185.316L25.1083 186.442Z" fill="white"/>
<path d="M20.7186 187.444C18.7608 187.444 16.7068 187.056 15.8081 185.597C14.0188 182.662 10.4243 171.092 10.5687 166.851C10.7131 162.609 19.7477 152.771 24.3212 148.681C28.5015 144.951 31.7109 143.076 34.8321 145.282C37.1189 146.911 40.0555 149.524 39.0927 153.519C38.4267 156.256 34.1582 165.961 31.8714 171.178C31.3018 172.465 30.8604 173.459 30.6438 174.018C29.5927 176.489 28.5175 185.38 28.5015 185.38C28.4936 185.469 28.4635 185.553 28.4149 185.623C28.3664 185.692 28.3016 185.742 28.2287 185.768L25.2359 186.895H25.1958C23.7206 187.238 22.222 187.422 20.7186 187.444ZM32.0479 145.292C30.1945 145.292 27.9719 146.608 24.8267 149.439C20.2051 153.567 11.5155 163.205 11.3951 166.888C11.2587 170.893 14.7891 182.265 16.4821 185.039C17.806 187.198 23.0775 186.459 25.0273 185.986L27.7633 184.954C27.9639 183.354 28.9348 175.921 29.9377 173.592L31.1734 170.751C33.4521 165.572 37.7046 155.924 38.3385 153.283C38.9723 150.641 37.7688 148.473 34.439 146.115C33.7241 145.579 32.8949 145.294 32.0479 145.292Z" fill="black"/>
<path d="M22.388 151.787C22.388 151.787 19.3951 155.158 20.8956 157.724C22.396 160.289 26.1992 162.694 27.828 162.051C29.4568 161.407 34.7604 154.836 35.7152 152.753C36.67 150.67 30.8208 145.69 30.8208 145.69C27.6273 146.872 24.7306 148.966 22.388 151.787Z" fill="white"/>
<path d="M27.2138 162.628C25.1437 162.628 21.862 160.223 20.5622 157.988C18.9093 155.148 21.9021 151.683 22.1027 151.455C24.4839 148.561 27.4449 146.422 30.7121 145.235C30.7695 145.217 30.8296 145.214 30.888 145.227C30.9463 145.24 31.0014 145.269 31.0491 145.311C32.0761 146.182 37.123 150.641 36.0639 152.97C35.0047 155.299 29.7252 161.804 27.952 162.505C27.7128 162.591 27.4638 162.632 27.2138 162.628ZM30.7362 146.21C27.6901 147.399 24.9265 149.424 22.6724 152.118C22.6724 152.118 19.9444 155.243 21.2282 157.449C22.7286 160.024 26.3793 162.126 27.7032 161.596C29.0271 161.066 34.411 154.608 35.3658 152.516C35.8793 151.408 32.9667 148.142 30.7362 146.21Z" fill="black"/>
<path d="M36.8838 198.748C36.8838 198.748 29.0126 200.641 27.0789 197.526C25.1452 194.411 21.2939 181.752 21.4624 177.369C21.6309 172.985 31.4117 162.295 36.3141 157.921C41.2166 153.547 44.3378 152.136 47.3065 154.238C50.2752 156.34 52.6502 158.972 51.7596 162.646C50.869 166.319 43.736 182.103 42.5565 184.905C41.377 187.708 40.1494 197.526 40.1494 197.526L36.8838 198.748Z" fill="white"/>
<path d="M32.087 199.846C29.9527 199.846 27.7221 199.42 26.7593 197.839C24.8497 194.724 20.886 181.904 21.0385 177.387C21.1909 172.871 31.0519 162.04 36.0507 157.58C40.6001 153.509 44.0743 151.473 47.4924 153.869C49.9797 155.63 53.1731 158.479 52.122 162.816C51.3999 165.798 46.7301 176.403 44.2268 182.103C43.6089 183.504 43.1275 184.593 42.8868 185.151C41.7474 187.859 40.5599 197.536 40.5519 197.63C40.5412 197.718 40.51 197.801 40.4619 197.87C40.4137 197.938 40.3505 197.99 40.2791 198.018L37.0055 199.24H36.9654C35.3588 199.621 33.7256 199.824 32.087 199.846ZM44.4675 153.793C42.4375 153.793 39.9983 155.232 36.5321 158.328C31.4772 162.854 21.9772 173.392 21.8408 177.425C21.6964 181.809 25.5558 194.25 27.4092 197.308C28.8615 199.675 34.6305 198.871 36.7888 198.35L39.7897 197.223C40.0063 195.528 41.0735 187.348 42.1968 184.754C42.4375 184.185 42.9109 183.097 43.5367 181.686C46.0321 176.005 50.6778 165.467 51.3758 162.579C52.0739 159.691 50.75 157.287 47.0992 154.702C46.3122 154.112 45.3998 153.797 44.4675 153.793Z" fill="black"/>
<path d="M33.9146 160.934C33.9146 160.934 30.6489 164.617 32.3098 167.419C33.9707 170.222 38.1029 172.854 39.8841 172.153C41.6654 171.453 47.4585 164.266 48.5015 161.985C49.5446 159.703 43.1578 154.277 43.1578 154.277C39.6559 155.555 36.4791 157.843 33.9146 160.934Z" fill="white"/>
<path d="M39.1794 172.737C36.9328 172.737 33.3703 170.115 31.9582 167.681C30.1769 164.623 33.4265 160.836 33.6431 160.599C36.2448 157.45 39.4716 155.116 43.0308 153.811C43.0883 153.794 43.1481 153.793 43.2062 153.806C43.2643 153.819 43.3194 153.846 43.3678 153.886C44.4831 154.833 49.9793 159.69 48.8319 162.209C47.7487 164.585 41.9235 171.838 40.0059 172.624C39.7377 172.716 39.4584 172.754 39.1794 172.737ZM43.0468 154.795C39.7101 156.09 36.684 158.307 34.2208 161.262C34.2208 161.262 31.22 164.699 32.6161 167.142C34.1406 169.764 38.1364 172.321 39.7331 171.686C41.3298 171.052 47.0426 164.112 48.1178 161.754C48.7035 160.467 45.5582 156.963 43.0468 154.795Z" fill="black"/>
<path d="M52.1933 204.373C52.1933 204.373 50.1151 197.026 50.1151 196.363C50.1151 195.701 53.8943 185.002 53.5172 180.334C53.1401 175.666 49.9306 170.316 47.8525 171.651C45.7744 172.986 42.0033 176.774 38.6093 182.786C35.2153 188.798 34.0839 193.466 35.2153 195.691C36.3466 197.916 43.1426 206.381 45.9669 207.716C48.7913 209.051 54.6164 206.769 54.6164 206.769L52.1933 204.373Z" fill="white"/>
<path d="M48.2207 208.596C47.4019 208.625 46.5855 208.475 45.8136 208.151C42.9331 206.778 36.0167 198.2 34.9095 195.908C33.6578 193.437 34.9095 188.542 38.3195 182.492C41.529 176.811 45.3482 172.721 47.6992 171.206C48.0211 171.016 48.3791 170.926 48.7388 170.946C49.0984 170.966 49.4477 171.095 49.7532 171.32C51.7431 172.56 53.6607 176.66 53.9496 180.258C54.2384 183.855 52.2165 190.672 51.1253 194.346C50.8444 195.293 50.5796 196.183 50.5556 196.363C50.5556 196.789 51.6067 200.633 52.5775 204.07L54.9124 206.333C54.9677 206.387 55.0101 206.458 55.0354 206.538C55.0607 206.617 55.0681 206.703 55.0568 206.787C55.0429 206.871 55.0102 206.948 54.9622 207.011C54.9142 207.075 54.8527 207.121 54.784 207.147C52.6641 207.988 50.455 208.476 48.2207 208.596ZM48.5497 171.916C48.3727 171.912 48.1981 171.965 48.0442 172.068C45.7735 173.526 42.0826 177.483 38.9454 183.041C35.8081 188.599 34.4842 193.333 35.5594 195.454C36.6346 197.575 43.3824 205.982 46.1426 207.27C48.2367 208.264 52.2084 207.09 53.8132 206.532L51.9597 204.742C51.9035 204.684 51.8619 204.609 51.8394 204.524C51.3419 202.782 49.7372 197.054 49.7372 196.363C49.8736 195.573 50.078 194.803 50.347 194.062C51.3419 190.72 53.412 183.78 53.1392 180.381C52.8664 176.982 51.1092 173.28 49.3601 172.181C49.1121 172.017 48.834 171.926 48.5497 171.916Z" fill="black"/>
<path d="M38.9873 184.783C38.9873 184.783 41.4425 186.563 43.1435 186.563C44.8446 186.563 49.1773 181.895 48.9847 177.218C48.7922 172.541 46.345 173.658 46.345 173.658C46.345 173.658 39.7255 179.443 38.9873 184.783Z" fill="white"/>
<path d="M43.1326 187.036C41.3434 187.036 38.8801 185.265 38.7758 185.189C38.7092 185.138 38.6565 185.065 38.6238 184.98C38.5911 184.894 38.5798 184.799 38.5913 184.707C39.3936 179.243 45.8125 173.515 46.1014 173.278L46.1977 173.212C46.5075 173.086 46.8369 173.042 47.1627 173.083C47.4885 173.124 47.8028 173.249 48.0832 173.449C48.8856 174.064 49.3108 175.343 49.383 177.236C49.5194 180.607 47.5216 183.466 46.655 184.536C45.4033 186.041 44.0233 187.036 43.1326 187.036ZM39.4337 184.546C40.5606 185.362 41.8212 185.888 43.1326 186.089C43.6943 186.089 44.8818 185.322 46.0693 183.845C46.8368 182.989 47.4537 181.964 47.8847 180.826C48.3157 179.689 48.5522 178.463 48.5807 177.217C48.5245 175.693 48.1955 174.661 47.6499 174.235C47.4854 174.113 47.3006 174.035 47.1081 174.006C46.9156 173.976 46.72 173.996 46.5347 174.064C45.9409 174.613 40.3244 179.811 39.4337 184.546Z" fill="black"/>
<path d="M126.054 98.1788L155.147 172.504L172.607 163.613L142.141 89.6953L126.054 98.1788Z" fill="white"/>
<path d="M155.147 172.977C155.071 172.978 154.996 172.952 154.932 172.903C154.868 172.854 154.817 172.785 154.786 172.702L125.692 98.3775C125.67 98.321 125.659 98.2597 125.659 98.1976C125.659 98.1356 125.67 98.0743 125.692 98.0178C125.708 97.9582 125.735 97.9036 125.771 97.8578C125.807 97.812 125.852 97.7761 125.901 97.7527L141.988 89.2313C142.035 89.2045 142.086 89.1891 142.138 89.1861C142.189 89.1831 142.241 89.1924 142.29 89.2137C142.339 89.2349 142.383 89.2675 142.421 89.3096C142.459 89.3517 142.489 89.4024 142.51 89.4585L172.999 163.367C173.021 163.425 173.032 163.488 173.032 163.551C173.032 163.615 173.021 163.678 172.999 163.736C172.981 163.797 172.952 163.852 172.915 163.899C172.877 163.946 172.833 163.984 172.783 164.011L155.323 172.892C155.272 172.938 155.211 172.967 155.147 172.977ZM126.591 98.4154L155.347 171.879L172.061 163.357L141.956 90.2823L126.591 98.4154Z" fill="black"/>
<path d="M267.029 0.478516L136.324 90.9087L179.54 195.115L267.029 143.608V0.478516Z" fill="black"/>
<path d="M179.54 195.59H179.412C179.31 195.546 179.227 195.458 179.179 195.344L135.964 91.1186C135.92 91.011 135.912 90.8878 135.942 90.7737C135.971 90.6596 136.037 90.5629 136.124 90.5031L266.829 0.063455C266.891 0.0216128 266.96 -0.000283598 267.031 2.77332e-06C267.102 0.000289145 267.172 0.0227359 267.233 0.0650731C267.294 0.10741 267.344 0.168118 267.379 0.241012C267.414 0.313905 267.432 0.396381 267.431 0.480041V143.61C267.429 143.696 267.409 143.78 267.371 143.853C267.332 143.926 267.279 143.986 267.214 144.027L179.757 195.543C179.691 195.587 179.615 195.603 179.54 195.59ZM136.854 91.0996L179.725 194.482L266.629 143.354V1.28484L136.854 91.0996Z" fill="black"/>
</svg>
