<svg width="43" height="43" viewBox="0 0 43 43" fill="none" xmlns="http://www.w3.org/2000/svg">
<path d="M17.0174 10.3792C19.5615 6.96788 23.3867 5.97171 26.9056 6.93025C30.7039 7.96405 34.0436 11.2267 35.1526 15.7703C35.2099 16.0033 35.2595 16.2362 35.3013 16.4691C33.7003 15.8986 31.9589 15.8547 30.3312 16.3437C28.0254 14.638 25.1694 14.3513 22.6306 15.2866C19.4504 16.4601 16.9672 19.4361 16.3921 23.1807C15.6575 27.9752 18.5779 32.2823 22.7077 35.9445L23.4029 36.5465C22.8421 36.5859 22.2723 36.4981 21.7276 36.3817C21.4478 36.3215 21.1694 36.2546 20.8927 36.181L19.9306 35.9123C11.3772 33.506 5.65102 29.7418 4.00806 24.1159C2.69656 19.626 3.9579 15.1307 6.7314 12.3357C9.30065 9.74675 13.1097 8.69684 17.0174 10.3792ZM19.9342 23.7235C20.701 18.7212 26.4863 16.2559 29.4569 20.5487C29.4854 20.5886 29.5284 20.6157 29.5767 20.6241C29.625 20.6325 29.6746 20.6215 29.7149 20.5935C33.9737 17.5763 38.5657 21.871 37.5749 26.8339C37.0016 29.7125 34.332 32.1014 29.5662 34.0005L28.7868 34.3051L28.3156 34.4986C27.9089 34.6581 27.4789 34.7853 27.0901 34.7172C26.7031 34.6491 26.343 34.3804 26.0151 34.0937L25.4597 33.592C21.315 30.0254 19.4731 26.7359 19.9342 23.7235Z" fill="#FFF8FB"/>
</svg>
