<svg width="197" height="302" viewBox="0 0 197 302" fill="none" xmlns="http://www.w3.org/2000/svg">
<path d="M118.28 301.5L125.998 285.095L139.09 301.5H190.176C189.329 298.304 187.454 292.52 183.335 282.241C175.413 262.491 161.829 245.052 161.829 245.052L160.143 241.899C160.014 241.564 159.886 241.186 159.757 240.779C158.623 237.213 153.347 224.231 150.686 220.672C149.585 219.236 148.247 217.974 146.725 216.935L139.166 202.876L69.1973 227.79L70.5126 301.5H118.28Z" fill="#0C0F11" stroke="#0C0F11" stroke-linecap="round" stroke-linejoin="round"/>
<path d="M127.494 283.297L132.393 271.378" stroke="white" stroke-linecap="round" stroke-linejoin="round"/>
<path d="M131.794 235.223C132.057 238.25 132.13 241.289 132.014 244.324C131.636 251.799 129.187 261.763 131.258 264.296" stroke="white" stroke-linecap="round" stroke-linejoin="round"/>
<path d="M130.889 227.241C130.889 227.241 131.085 228.489 131.312 230.43" stroke="white" stroke-linecap="round" stroke-linejoin="round"/>
<path d="M180.666 292.662C181.222 294.245 181.604 295.877 181.807 297.534" stroke="white" stroke-linecap="round" stroke-linejoin="round"/>
<path d="M151.064 246.507C154.413 252.826 159.176 260.523 164.837 266.036C172.23 273.254 177.129 282.955 179.669 289.838" stroke="white" stroke-linecap="round" stroke-linejoin="round"/>
<path d="M145.787 235.251C145.787 235.251 147.155 238.76 149.567 243.646" stroke="white" stroke-linecap="round" stroke-linejoin="round"/>
<path d="M101.936 260.266C100.817 272.27 100.22 284.182 97.5137 295.993" stroke="white" stroke-linecap="round" stroke-linejoin="round"/>
<path d="M102.782 251.799C102.782 251.799 102.631 253.225 102.396 255.565" stroke="white" stroke-linecap="round" stroke-linejoin="round"/>
<path d="M73.7402 237.384C73.7402 237.384 86.0014 239.346 94.1125 237.206" stroke="white" stroke-linecap="round" stroke-linejoin="round"/>
<path d="M77.3905 246C76.0147 249.88 74.2231 255.037 72.9834 258.917C70.7156 266.05 70.1562 267.641 70.1562 267.641" stroke="white" stroke-linecap="round" stroke-linejoin="round"/>
<path d="M79.4005 240.408C79.4005 240.408 78.9621 241.606 78.2969 243.475" stroke="white" stroke-linecap="round" stroke-linejoin="round"/>
<path d="M136.354 210.693C136.354 210.693 137.397 214.26 138.274 215.115C139.15 215.971 140.677 215.936 140.541 214.081C140.405 212.227 138.977 208.561 138.977 208.561L136.354 210.693Z" fill="white" stroke="#0C0F11" stroke-linecap="round" stroke-linejoin="round"/>
<path d="M104.672 226.706L99.1992 228.311C99.1992 228.311 101.263 232.933 103.334 233.347C105.405 233.76 106.554 230.272 104.672 226.706Z" fill="white" stroke="#0C0F11" stroke-linecap="round" stroke-linejoin="round"/>
<path d="M39.2241 132.748C39.2241 132.748 18.6553 161.757 22.8205 168.162C26.9856 174.567 61.2896 217.277 61.2896 217.277C61.2896 217.277 62.2345 226.707 63.7464 227.977C65.2582 229.246 85.2449 231.543 90.1509 230.83C95.0569 230.116 121.832 221.557 129.943 216.236C138.054 210.915 140.881 207.52 140.526 203.397C140.171 199.275 119.783 141.293 119.783 141.293C119.783 141.293 165.041 140.045 173.341 138.09C181.641 136.136 185.035 131.671 182.775 127.948C180.514 124.224 160.52 111.393 156.748 110.116C152.976 108.839 136.338 110.829 136.338 110.829C136.338 110.829 126.723 107.092 123.487 106.549C120.252 106.007 93.3107 108.86 88.0267 111.171C82.7428 113.482 71.0562 119.017 71.0562 119.017L39.2241 132.748Z" fill="white" stroke="#0C0F11" stroke-linecap="round" stroke-linejoin="round"/>
<path d="M75.9462 205.272L64.6073 217.804L70.4128 221.463L61.2963 217.277L45.8301 199.48L75.9462 205.272Z" fill="#0C0F11" stroke="#0C0F11" stroke-linecap="round" stroke-linejoin="round"/>
<path d="M119.633 138.425L127.011 119.602L124.569 136.67L127.124 132.091L133.255 140.286L119.761 141.292L119.633 138.425Z" fill="#0C0F11" stroke="#0C0F11" stroke-linecap="round" stroke-linejoin="round"/>
<path d="M130.91 117.555L127.871 127.376" stroke="#0C0F11" stroke-linecap="round" stroke-linejoin="round"/>
<path d="M49.3613 149.887C49.3613 149.887 55.8699 149.481 62.8093 162.17" stroke="#0C0F11" stroke-linecap="round" stroke-linejoin="round"/>
<path d="M63.2559 155.208C63.2559 155.208 65.4254 160.529 66.7256 164.217" stroke="#0C0F11" stroke-linecap="round" stroke-linejoin="round"/>
<path d="M86.6895 122.469C86.6895 122.469 95.3675 129.43 98.8372 135.978" stroke="#0C0F11" stroke-linecap="round" stroke-linejoin="round"/>
<path d="M82.3281 123.282C82.3281 123.282 85.7978 125.736 87.9673 131.877" stroke="#0C0F11" stroke-linecap="round" stroke-linejoin="round"/>
<path d="M24.8906 157.841C30.9119 155.968 37.3448 155.599 43.562 156.771C53.9333 158.732 99.1983 228.312 99.1983 228.312L104.671 226.707C104.671 226.707 64.5012 166.913 57.8944 160.33C51.2876 153.746 38.9962 151.97 33.9466 152.149C28.897 152.327 26.9694 153.033 26.9694 153.033L24.8906 157.841Z" fill="#0C0F11" stroke="#0C0F11" stroke-linecap="round" stroke-linejoin="round"/>
<path d="M81.2832 114.623C81.2832 114.623 102.215 126.192 107.499 135.8C112.783 145.408 136.352 210.693 136.352 210.693L138.998 208.554C138.998 208.554 128.619 177.227 119.949 154.809C111.278 132.391 97.5054 117.79 93.9223 115.479C91.3136 113.95 88.4401 112.866 85.4332 112.276L81.2832 114.623Z" fill="#0C0F11" stroke="#0C0F11" stroke-linecap="round" stroke-linejoin="round"/>
<path d="M66.544 139.224L77.1346 141.471L96.9776 216.764L80.9293 147.84L75.6756 136.35L65.9922 133.746L66.544 139.224Z" fill="#0C0F11" stroke="#0C0F11" stroke-linecap="round" stroke-linejoin="round"/>
<path d="M67.3301 135.95L77.1345 141.471L101.838 233.468L116.737 241.122L126.171 221.55L80.7175 139.866L74.6852 127.769L68.275 127.056L67.3301 135.95Z" fill="white" stroke="#0C0F11" stroke-linecap="round" stroke-linejoin="round"/>
<path d="M70.6783 129.88L66.7701 146.834L37.4023 134.744L38.9596 125.165L70.6783 129.88Z" fill="white" stroke="#0C0F11" stroke-linecap="round" stroke-linejoin="round"/>
<path d="M72.2363 129.295L83.802 133.86L72.3951 122.22L72.2363 129.295Z" fill="white" stroke="#0C0F11" stroke-linecap="round" stroke-linejoin="round"/>
<path d="M63.648 78.4316C63.648 78.4316 67.0799 80.7926 68.3348 83.4245C69.5896 86.0565 69.4233 87.8468 70.9881 88.7313C72.5529 89.6157 78.177 91.6771 78.7968 93.446C79.4167 95.2149 78.177 98.1678 78.177 98.1678C78.177 98.1678 81.6089 99.9367 82.5538 101.734C83.4987 103.532 85.0483 108.075 84.2697 109.252C83.4911 110.429 85.6757 111.905 83.9598 115.885C82.2438 119.865 73.9589 122.669 73.9589 122.669L72.0842 130.771C65.9788 131.34 59.8175 131.042 53.8059 129.887C43.805 127.975 38.9595 125.172 38.9595 125.172L36.9336 119.865C36.9336 119.865 29.7447 116.049 25.3679 113.196C20.9911 110.343 63.648 78.4316 63.648 78.4316Z" fill="white" stroke="#0C0F11" stroke-linecap="round" stroke-linejoin="round"/>
<path d="M73.9587 122.662L64.1543 123.119L72.2352 129.296L73.9587 122.662Z" fill="#0C0F11" stroke="#0C0F11" stroke-linecap="round" stroke-linejoin="round"/>
<path d="M67.3519 91.3637C68.1078 92.5121 68.191 93.746 67.5484 94.1241C66.9059 94.5021 65.7569 93.8887 65.001 92.7403C64.245 91.592 64.1619 90.358 64.8044 89.98C65.447 89.6019 66.5884 90.2225 67.3519 91.3637Z" fill="#0C0F11"/>
<path d="M78.1764 98.2178C78.1764 98.2178 75.4097 100.122 73.1797 98.7171" stroke="#0C0F11" stroke-linecap="round" stroke-linejoin="round"/>
<path d="M77.7383 101.827C79.5818 103.745 80.7262 106.17 81.0039 108.746" stroke="#0C0F11" stroke-linecap="round" stroke-linejoin="round"/>
<path d="M65.1446 84.4375C65.1446 84.4375 60.2311 85.379 59.959 91.8912" stroke="#0C0F11" stroke-width="2" stroke-linecap="round" stroke-linejoin="round"/>
<path d="M73.9596 122.662C76.5978 122.149 72.5989 122.084 75.2069 121.592C77.777 120.487 82.0102 118.325 83.1441 115.622C84.656 112.056 83.1441 110.529 83.3028 109.395C83.1357 109.374 82.9656 109.388 82.8049 109.436C82.6441 109.484 82.4966 109.565 82.373 109.673C81.8212 110.109 82.2823 112.291 81.8212 114.124C81.5369 115.236 81.0565 116.294 80.4001 117.255C79.115 117.969 73.4531 111.913 72.6821 108.268C72.0773 105.415 76.5071 100.8 78.4649 98.5678C78.155 98.3752 77.8904 98.2183 77.709 98.1113C75.3505 99.6306 71.208 102.847 70.1497 104.388C68.6379 106.571 67.315 111.428 66.0299 112.398C64.7448 113.368 51.8109 109.859 50.1554 106.778C48.5 103.696 46.4892 99.8588 46.4892 99.8588L43.6016 107.056C43.6016 107.056 47.7138 116.528 51.3196 119.181C54.9253 121.835 69.3938 123.539 73.9596 122.662Z" fill="#808080"/>
<path d="M49.1272 97.0771C49.1272 97.0771 49.8831 103.625 49.5354 105.686C49.1877 107.748 46.2093 108.96 44.6445 108.96C43.0798 108.96 34.757 107.391 34.757 107.391C34.757 107.391 34.757 112.698 37.5691 115.052C40.3811 117.405 38.4913 119.267 36.9341 119.859C35.3769 120.451 28.4828 114.046 25.3684 113.197C22.254 112.348 49.1272 97.0771 49.1272 97.0771Z" fill="#0C0F11" stroke="#0C0F11" stroke-linecap="round" stroke-linejoin="round"/>
<path d="M41.5152 108.34C41.5152 108.34 32.3005 106.129 30.267 109.666C28.2336 113.204 32.9203 117.184 38.0758 118.511C43.2312 119.838 47.4568 117.184 47.4568 114.531" fill="white"/>
<path d="M41.5152 108.34C41.5152 108.34 32.3005 106.129 30.267 109.666C28.2336 113.204 32.9203 117.184 38.0758 118.511C43.2312 119.838 47.4568 117.184 47.4568 114.531" stroke="#0C0F11" stroke-linecap="round" stroke-linejoin="round"/>
<path d="M15.2166 98.9313C15.2166 98.9313 7.09041 111.463 8.65518 115.443C10.2199 119.424 13.9467 120.308 23.3353 116.478C32.7239 112.647 51.7733 97.6046 60.2094 87.8756C68.6455 78.1466 72.8636 67.683 69.1142 62.3762C65.3648 57.0695 52.5519 60.6073 44.7431 66.3563C36.9344 72.1052 15.2166 98.9313 15.2166 98.9313Z" fill="#0C0F11" stroke="#0C0F11" stroke-linecap="round" stroke-linejoin="round"/>
<path d="M67.3594 70.0649C68.3723 66.9336 68.3345 64.5014 67.7071 62.6611" stroke="white" stroke-linecap="round" stroke-linejoin="round"/>
<path d="M19.4121 114.174C29.1862 108.668 54.3284 89.923 60.6933 81.6776C62.7403 79.0951 64.5127 76.3285 65.9848 73.418" stroke="white" stroke-linecap="round" stroke-linejoin="round"/>
<path d="M10.2109 114.845C10.2109 114.845 10.5284 117.498 16.4625 115.558" stroke="white" stroke-linecap="round" stroke-linejoin="round"/>
<path d="M4.90503 74.3088C4.90503 74.3088 -0.567885 82.2689 0.686953 85.3645C1.94179 88.4601 20.3411 107.918 22.246 108.36C24.1509 108.803 46.3072 94.6513 52.8686 88.1605C59.43 81.6698 58.8026 73.7168 57.4042 71.9479C56.0057 70.179 34.4391 55.5855 31.7782 55.2931C29.1174 55.0006 22.7071 56.1775 15.0647 61.7767C10.5466 65.0171 7.03709 69.3462 4.90503 74.3088Z" fill="#0C0F11" stroke="#0C0F11" stroke-linecap="round" stroke-linejoin="round"/>
<path d="M15.0117 102.312L19.1466 106.628" stroke="white" stroke-linecap="round" stroke-linejoin="round"/>
<path d="M54.0331 69.6445L60.0805 74.1667C60.0805 74.1667 60.2921 80.1225 50.0645 88.1325" stroke="white" stroke-linecap="round" stroke-linejoin="round"/>
<path d="M48.5449 65.5361L50.6388 67.0625" stroke="white" stroke-linecap="round" stroke-linejoin="round"/>
<path d="M22.1484 64.109C22.9605 63.2052 23.6723 62.2253 24.2726 61.1846" stroke="white" stroke-linecap="round" stroke-linejoin="round"/>
<path d="M10.53 70.4723C10.53 70.4723 0.37032 80.9431 3.96853 80.9431C6.41774 80.9431 14.612 72.7048 19.843 66.8203" stroke="white" stroke-linecap="round" stroke-linejoin="round"/>
<path d="M160.876 106.413C160.876 106.413 155.214 106.235 153.71 108.724C152.205 111.213 152.387 113.717 153.891 115.486C155.395 117.255 160.876 124.387 166.341 127.768C171.806 131.149 177.468 135.614 181.24 132.761C185.012 129.908 188.974 128.482 187.091 122.44C185.209 116.399 176.062 112.069 168.231 108.888C162.32 106.527 161.639 107.048 160.876 106.413Z" fill="white" stroke="#0C0F11" stroke-linecap="round" stroke-linejoin="round"/>
<path d="M144.751 96.6988L155.024 95.9499C155.024 95.9499 159.446 104.003 159.446 105.793C159.446 107.583 157.549 113.404 158.343 115.636C159.136 117.869 167.187 123.689 174.618 124.909C182.049 126.128 184.573 123.268 184.573 121.178C184.514 114.986 182.596 108.937 179.04 103.732C173.673 95.6788 169.084 91.0568 165.139 85.2366C161.193 79.4163 146.996 68.5318 141.901 64.6587C136.806 60.7857 133.208 58.6958 132.263 60.7785C131.318 62.8613 139.112 68.3107 141.062 70.2864L143.013 72.2622C143.013 72.2622 139.838 72.6901 138.893 72.1766C137.948 71.663 128.945 63.9098 127.365 64.9583C125.785 66.0068 126.73 68.5246 126.73 68.5246C126.73 68.5246 123.094 67.9326 121.831 69.2736C121.475 69.6658 121.266 70.1584 121.237 70.6746C121.208 71.1908 121.361 71.7014 121.673 72.1267C121.673 72.1267 117.251 72.1267 117.56 74.2165C117.87 76.3064 123.57 79.8799 125.785 81.3492C128 82.8186 137.638 88.9527 139.392 91.1852C141.145 93.4178 143.64 96.3992 144.751 96.6988Z" fill="white" stroke="#0C0F11" stroke-linecap="round" stroke-linejoin="round"/>
<path d="M148.855 85.0659C148.855 85.0659 156.127 84.7664 158.811 88.6323" stroke="#0C0F11" stroke-linecap="round" stroke-linejoin="round"/>
<path d="M156.99 121.421C156.99 121.421 163.726 132.712 171.013 133.768" stroke="#0C0F11" stroke-linecap="round" stroke-linejoin="round"/>
<path d="M158.102 127.59C158.102 127.59 161.465 132.882 164.27 134.116" stroke="#0C0F11" stroke-linecap="round" stroke-linejoin="round"/>
<path d="M91.5637 94.4092L83.1729 100.829C82.9031 100.351 82.4579 99.9822 81.9208 99.7918C81.3837 99.6015 80.7915 99.6024 80.255 99.7944C78.3047 100.508 81.714 105.871 83.4148 106.927C85.1156 107.983 86.5746 106.356 86.4385 105.208C86.2736 104.261 85.9867 103.336 85.5843 102.455L92.0324 97.4049L91.5637 94.4092Z" fill="white" stroke="#0C0F11" stroke-linecap="round" stroke-linejoin="round"/>
<path d="M91.5574 94.4092L85.9258 98.7245L87.4603 100.986L92.0488 97.3906L91.5574 94.4092Z" fill="white" stroke="#0C0F11" stroke-linecap="round" stroke-linejoin="round"/>
<path d="M175.079 0.5C175.291 4.92768 174.346 9.33651 172.328 13.3389C168.941 20.3289 93.1445 85.8498 90.8163 89.8442C88.488 93.8385 94.2028 105.629 99.8874 110.422C101.8 112.086 104.231 113.123 106.818 113.38C109.406 113.637 112.012 113.1 114.25 111.849C116.79 110.422 169.932 70.8997 171.413 65.7C172.895 60.5002 170.355 52.7185 165.275 48.9239C160.195 45.1293 154.473 46.3276 152.356 47.4973C151.873 47.7684 148.524 50.3504 143.648 54.1307L141.365 51.8554C148.002 46.6557 152.636 43.0465 152.636 43.0465C152.636 43.0465 177.196 26.0636 183.758 24.4659C187.863 23.5225 192.148 23.5225 196.253 24.4659L175.079 0.5ZM103.357 109.552C98.368 107.141 94.6035 96.1281 94.6035 96.1281C94.6035 96.1281 105.769 87.2407 118.347 77.2763L129.883 90.372L132.717 88.1466L121.167 75.0438L123.397 73.2749L135.34 86.827L138.175 84.6016L126.224 71.0495L127.35 70.165L138.923 83.3035L141.758 81.0781L141.705 81.0067C142.493 81.5431 143.44 81.8303 144.412 81.827C145.544 81.8261 146.639 81.4413 147.496 80.7428L157.088 72.74L158.789 74.3377L117.826 106.007C117.826 106.007 108.339 111.963 103.357 109.552ZM154.76 70.9568L151.207 67.5973L156.733 63.2392C157.206 62.8676 157.811 62.6805 158.425 62.7163C159.039 62.7521 159.616 63.0081 160.037 63.4318C160.261 63.656 160.435 63.9212 160.547 64.2111C160.659 64.501 160.707 64.8095 160.688 65.1175C160.668 65.4255 160.583 65.7266 160.436 66.0022C160.289 66.2778 160.083 66.522 159.832 66.72L154.76 70.9568ZM149.469 68.9454L153.067 72.3405L145.508 78.6316C145.176 78.9052 144.747 79.0487 144.307 79.0328C143.867 79.0169 143.45 78.8427 143.142 78.546L132.952 66.9625L134.501 65.5359L139.294 70.4218C140.279 71.4249 141.634 72.0329 143.08 72.1205C144.526 72.2081 145.952 71.7686 147.065 70.8926L149.469 68.9454ZM129.195 68.6672L139.71 79.9511L129.195 68.6672ZM152.931 50.1222C155.486 48.5173 159.137 48.8597 162.901 51.3847C166.666 53.9096 168.616 58.9596 169.108 62.1693C169.599 65.379 165.577 69.0523 165.577 69.0523L160.475 72.9967L158.721 71.3419L161.745 68.8241C162.7 67.9279 163.263 66.7252 163.321 65.4553C163.379 64.1854 162.928 62.9415 162.058 61.9712C161.187 61.0009 159.962 60.3754 158.625 60.2191C157.288 60.0628 155.938 60.3873 154.843 61.1279L145.175 68.7456C144.644 69.1633 143.963 69.3731 143.273 69.332C142.582 69.2908 141.935 69.0019 141.463 68.5245L136.172 63.1679C145.084 56.135 152.099 50.6714 152.961 50.1222H152.931ZM142.008 55.4218C125.12 68.5887 93.7795 93.3962 93.7795 93.3962C93.7795 93.3962 92.9329 91.7985 94.8378 89.2022C96.1531 87.419 123.019 66.2421 139.657 53.2106L142.008 55.4218Z" fill="white"/>
<path d="M129.195 68.6672L139.71 79.9511M175.079 0.5C175.291 4.92768 174.346 9.33651 172.328 13.3389C168.941 20.3289 93.1445 85.8498 90.8163 89.8442C88.488 93.8385 94.2028 105.629 99.8874 110.422C101.8 112.086 104.231 113.123 106.818 113.38C109.406 113.637 112.012 113.1 114.25 111.849C116.79 110.422 169.932 70.8997 171.413 65.7C172.895 60.5002 170.355 52.7185 165.275 48.9239C160.195 45.1293 154.473 46.3276 152.356 47.4973C151.873 47.7684 148.524 50.3504 143.648 54.1307L141.365 51.8554C148.002 46.6557 152.636 43.0465 152.636 43.0465C152.636 43.0465 177.196 26.0636 183.758 24.4659C187.863 23.5225 192.148 23.5225 196.253 24.4659L175.079 0.5ZM103.357 109.552C98.368 107.141 94.6035 96.1281 94.6035 96.1281C94.6035 96.1281 105.769 87.2407 118.347 77.2763L129.883 90.372L132.717 88.1466L121.167 75.0438L123.397 73.2749L135.34 86.827L138.175 84.6016L126.224 71.0495L127.35 70.165L138.923 83.3035L141.758 81.0781L141.705 81.0067C142.493 81.5431 143.44 81.8303 144.412 81.827C145.544 81.8261 146.639 81.4413 147.496 80.7428L157.088 72.7399L158.789 74.3377L117.826 106.007C117.826 106.007 108.339 111.963 103.357 109.552ZM154.76 70.9568L151.207 67.5973L156.733 63.2392C157.206 62.8676 157.811 62.6805 158.425 62.7163C159.039 62.7521 159.616 63.0081 160.037 63.4318C160.261 63.656 160.435 63.9212 160.547 64.2111C160.659 64.501 160.707 64.8095 160.688 65.1175C160.668 65.4255 160.583 65.7266 160.436 66.0022C160.289 66.2778 160.083 66.522 159.832 66.72L154.76 70.9568ZM149.469 68.9454L153.067 72.3405L145.508 78.6316C145.176 78.9052 144.747 79.0487 144.307 79.0328C143.867 79.0169 143.45 78.8427 143.142 78.546L132.952 66.9625L134.501 65.5359L139.294 70.4218C140.279 71.4249 141.634 72.0329 143.08 72.1205C144.526 72.2081 145.952 71.7686 147.065 70.8926L149.469 68.9454ZM152.931 50.1222C155.486 48.5173 159.137 48.8597 162.901 51.3847C166.666 53.9096 168.616 58.9596 169.108 62.1693C169.599 65.379 165.577 69.0523 165.577 69.0523L160.475 72.9967L158.721 71.3419L161.745 68.8241C162.7 67.9279 163.263 66.7252 163.321 65.4553C163.379 64.1854 162.928 62.9415 162.058 61.9712C161.187 61.0009 159.962 60.3754 158.625 60.2191C157.288 60.0628 155.938 60.3873 154.843 61.1279L145.175 68.7456C144.644 69.1633 143.963 69.3731 143.273 69.332C142.582 69.2908 141.935 69.0019 141.463 68.5245L136.172 63.1679C145.084 56.135 152.099 50.6714 152.961 50.1222H152.931ZM142.008 55.4218C125.12 68.5887 93.7795 93.3962 93.7795 93.3962C93.7795 93.3962 92.9329 91.7985 94.8378 89.2022C96.1531 87.419 123.019 66.2421 139.657 53.2106L142.008 55.4218Z" stroke="#0C0F11" stroke-linecap="round" stroke-linejoin="round"/>
<path d="M119.488 65.6149C119.488 65.6149 172.668 17.4478 174.595 14.8943C176.523 12.3408 177.695 6.68457 177.695 6.68457L181.935 12.1553C181.935 12.1553 180.197 14.1596 179.229 15.2581C178.535 16.0038 177.757 16.6759 176.908 17.2624L119.488 65.6149Z" fill="#0C0F11"/>
<path d="M169.381 30.2223C169.381 30.2223 181.944 22.7401 183.88 22.1909C185.815 21.6416 190.842 22.3763 190.842 22.3763L185.006 18.0967L169.381 30.2223Z" fill="#0C0F11"/>
<path d="M143.384 82.9327C143.386 83.3156 143.267 83.6903 143.042 84.0093C142.818 84.3282 142.498 84.5771 142.123 84.7243C141.748 84.8714 141.336 84.9103 140.938 84.836C140.54 84.7616 140.174 84.5774 139.887 84.3066C139.6 84.0359 139.405 83.6908 139.326 83.3152C139.247 82.9395 139.289 82.5503 139.444 82.1968C139.6 81.8433 139.864 81.5415 140.202 81.3296C140.54 81.1178 140.937 81.0054 141.343 81.0068C141.885 81.0068 142.404 81.2098 142.786 81.5709C143.169 81.9321 143.384 82.4219 143.384 82.9327Z" fill="white" stroke="#0C0F11" stroke-linecap="round" stroke-linejoin="round"/>
<path d="M139.15 85.7142C139.15 86.0965 139.03 86.4702 138.805 86.7881C138.58 87.106 138.26 87.3537 137.885 87.5C137.511 87.6463 137.099 87.6846 136.702 87.61C136.304 87.5355 135.939 87.3514 135.653 87.081C135.366 86.8107 135.171 86.4663 135.092 86.0913C135.013 85.7164 135.054 85.3277 135.209 84.9745C135.364 84.6213 135.626 84.3194 135.963 84.107C136.3 83.8946 136.696 83.7812 137.101 83.7812C137.37 83.7812 137.637 83.8313 137.885 83.9284C138.134 84.0255 138.36 84.1679 138.55 84.3474C138.74 84.5269 138.891 84.74 138.994 84.9745C139.097 85.209 139.15 85.4604 139.15 85.7142Z" fill="white" stroke="#0C0F11" stroke-linecap="round" stroke-linejoin="round"/>
<path d="M133.556 89.4232C133.556 89.8055 133.436 90.1792 133.211 90.4971C132.986 90.815 132.666 91.0627 132.292 91.209C131.917 91.3553 131.505 91.3936 131.108 91.319C130.711 91.2444 130.345 91.0603 130.059 90.79C129.772 90.5197 129.577 90.1753 129.498 89.8003C129.419 89.4254 129.46 89.0367 129.615 88.6835C129.77 88.3303 130.033 88.0284 130.369 87.816C130.706 87.6036 131.102 87.4902 131.508 87.4902C131.777 87.4893 132.044 87.5387 132.293 87.6355C132.542 87.7323 132.768 87.8746 132.958 88.0543C133.149 88.234 133.3 88.4474 133.402 88.6824C133.505 88.9173 133.557 89.1691 133.556 89.4232Z" fill="white" stroke="#0C0F11" stroke-linecap="round" stroke-linejoin="round"/>
<path d="M130.623 68.4242C130.623 68.8068 130.502 69.1808 130.277 69.4988C130.051 69.8168 129.731 70.0646 129.356 70.2107C128.981 70.3568 128.569 70.3946 128.172 70.3195C127.774 70.2443 127.409 70.0595 127.123 69.7885C126.837 69.5174 126.642 69.1723 126.564 68.7969C126.486 68.4215 126.527 68.0326 126.684 67.6795C126.84 67.3264 127.103 67.025 127.441 66.8135C127.779 66.602 128.176 66.4898 128.582 66.4912C128.85 66.4912 129.116 66.5413 129.364 66.6385C129.612 66.7357 129.838 66.8782 130.027 67.0578C130.217 67.2374 130.367 67.4505 130.469 67.685C130.571 67.9195 130.624 68.1707 130.623 68.4242Z" fill="white" stroke="#0C0F11" stroke-linecap="round" stroke-linejoin="round"/>
<path d="M126.427 71.2064C126.427 71.5887 126.307 71.9624 126.082 72.2803C125.857 72.5982 125.537 72.8459 125.163 72.9922C124.788 73.1385 124.376 73.1768 123.979 73.1022C123.582 73.0276 123.217 72.8435 122.93 72.5732C122.644 72.3029 122.448 71.9585 122.369 71.5835C122.29 71.2085 122.331 70.8199 122.486 70.4667C122.641 70.1135 122.904 69.8116 123.241 69.5992C123.577 69.3868 123.973 69.2734 124.379 69.2734C124.922 69.2734 125.443 69.4771 125.827 69.8396C126.211 70.2021 126.427 70.6938 126.427 71.2064Z" fill="white" stroke="#0C0F11" stroke-linecap="round" stroke-linejoin="round"/>
<path d="M120.796 74.9086C120.796 75.2909 120.676 75.6646 120.451 75.9824C120.226 76.3003 119.906 76.5481 119.532 76.6944C119.157 76.8407 118.746 76.8789 118.348 76.8044C117.951 76.7298 117.586 76.5457 117.299 76.2754C117.013 76.005 116.818 75.6606 116.739 75.2856C116.66 74.9107 116.7 74.522 116.855 74.1688C117.01 73.8156 117.273 73.5137 117.61 73.3013C117.947 73.0889 118.343 72.9756 118.748 72.9756C119.291 72.9756 119.812 73.1792 120.196 73.5417C120.581 73.9042 120.796 74.3959 120.796 74.9086Z" fill="white" stroke="#0C0F11" stroke-linecap="round" stroke-linejoin="round"/>
<path d="M146.172 93.5678C145.537 91.6277 142.695 88.3467 140.004 88.3467C139.188 88.3667 138.386 88.55 137.651 88.8844C136.916 89.2189 136.265 89.6969 135.74 90.2868C135.74 90.2868 138.583 93.7176 139.686 94.9088C140.79 96.0999 143.798 97.1484 144.751 96.6991L149.332 95.8075" fill="white"/>
<path d="M146.172 93.5678C145.537 91.6277 142.695 88.3467 140.004 88.3467C139.188 88.3667 138.386 88.55 137.651 88.8844C136.916 89.2189 136.265 89.6969 135.74 90.2868C135.74 90.2868 138.583 93.7176 139.686 94.9088C140.79 96.0999 143.798 97.1484 144.751 96.6991L149.332 95.8075" stroke="#0C0F11" stroke-linecap="round" stroke-linejoin="round"/>
<path d="M87.4453 179.808C87.4453 179.808 98.2702 152.818 100.296 138.874C102.322 124.929 102.564 118.232 102.564 118.232C102.564 118.232 97.1439 105.707 97.1439 105.179C97.1439 104.651 95.632 85.7709 95.632 85.0719C95.632 84.3729 101.052 74.8365 102.36 75.0148L103.668 75.186C103.668 75.186 108.528 68.8379 109.465 68.4884C110.403 68.1389 113.767 67.604 114.515 69.2017C115.263 70.7994 114.885 75.7281 114.885 76.7837C114.885 77.8394 113.956 84.0163 113.956 84.0163L114.885 91.955C114.885 91.955 118.438 85.7781 119.187 82.604C119.935 79.43 120.124 75.022 121.621 76.2559C123.118 77.4899 123.677 81.5484 122.929 83.3102C122.18 85.0719 120.661 92.8394 120.661 92.8394C121.557 97.9171 122.009 103.056 122.014 108.203C121.774 113.183 121.083 118.135 119.95 123.004C119.95 123.004 120.51 142.59 120.328 158.289C120.147 173.988 115.838 191.813 115.468 194.63C115.097 197.448 112.096 202.569 112.096 202.569L87.4453 179.808Z" fill="white" stroke="#0C0F11" stroke-linecap="round" stroke-linejoin="round"/>
<path d="M103.688 75.1934C103.688 75.1934 100.393 83.9523 100.393 84.6656C100.393 85.3788 101.904 90.9923 101.904 90.9923" stroke="#0C0F11" stroke-linecap="round" stroke-linejoin="round"/>
<path d="M111.12 68.3818C111.12 68.3818 109.056 75.1008 108.232 77.7257C107.505 80.2349 107.089 82.8151 106.992 85.4147C107.136 87.1156 107.389 88.8067 107.748 90.4789" stroke="#0C0F11" stroke-linecap="round" stroke-linejoin="round"/>
<path d="M24.5147 161.934C24.5147 161.934 20.924 170.294 24.3257 176.528C27.7274 182.762 35.6419 194.852 45.8696 199.502C56.0973 204.153 84.7167 211.071 98.8601 210.715C113.003 210.358 113.979 206.086 114.137 201.285C114.296 196.485 93.5837 181.314 90.0006 177.969C86.4175 174.623 80.9295 176.906 80.9295 176.906C80.9413 175.966 80.6851 175.04 80.1878 174.226C79.6904 173.412 78.9701 172.738 78.1023 172.277C75.0786 170.672 58.864 166.407 58.2971 166.05C57.7301 165.693 53.5876 160.707 47.1698 159.288" fill="white"/>
<path d="M24.5147 161.934C24.5147 161.934 20.924 170.294 24.3257 176.528C27.7274 182.762 35.6419 194.852 45.8696 199.502C56.0973 204.153 84.7167 211.071 98.8601 210.715C113.003 210.358 113.979 206.086 114.137 201.285C114.296 196.485 93.5837 181.314 90.0006 177.969C86.4175 174.623 80.9295 176.906 80.9295 176.906C80.9413 175.966 80.6851 175.04 80.1878 174.226C79.6904 173.412 78.9701 172.738 78.1023 172.277C75.0786 170.672 58.864 166.407 58.2971 166.05C57.7301 165.693 53.5876 160.707 47.1698 159.288" stroke="#0C0F11" stroke-linecap="round" stroke-linejoin="round"/>
<path d="M80.906 176.884C80.906 176.884 77.1263 181 78.555 183.874C79.9837 186.749 98.2091 207.747 101.513 209.552C104.816 211.356 112.519 210.215 113.925 205.351C115.331 200.486 113.925 199.159 113.222 197.833C112.519 196.506 90.733 175.95 88.1553 175.507C85.5776 175.065 83.0301 174.309 80.906 176.884Z" fill="white" stroke="#0C0F11" stroke-linecap="round" stroke-linejoin="round"/>
<path d="M71.668 182.22C71.668 182.22 72.4239 192.541 81.495 198.233" stroke="#0C0F11" stroke-linecap="round" stroke-linejoin="round"/>
</svg>
