<svg width="18" height="18" viewBox="0 0 18 18" fill="none" xmlns="http://www.w3.org/2000/svg">
<path d="M15.3333 1.7H14.5V0H12.8333V1.7H6.16667V0H4.5V1.7H3.66667C2.75 1.7 2 2.465 2 3.4V15.3C2 15.7509 2.17559 16.1833 2.48816 16.5021C2.80072 16.8209 3.22464 17 3.66667 17H15.3333C16.2583 17 17 16.2435 17 15.3V3.4C17 2.94913 16.8244 2.51673 16.5118 2.19792C16.1993 1.87911 15.7754 1.7 15.3333 1.7ZM15.3333 15.3H3.66667V6.8H15.3333V15.3ZM3.66667 5.1V3.4H15.3333V5.1H3.66667ZM8.3 13.991L13.25 8.9505L12.3583 8.0495L8.3 12.189L6.54167 10.3955L5.65833 11.2965L8.3 13.991Z" fill="#5B2E68"/>
</svg>
