<svg width="232" height="297" viewBox="0 0 232 297" fill="none" xmlns="http://www.w3.org/2000/svg">
<path d="M221.196 116.792C226.887 114.883 230.292 107.423 228.802 100.129C227.313 92.8362 221.491 88.4716 215.8 90.3809C210.11 92.2901 206.704 99.7502 208.194 107.043C209.683 114.337 215.505 118.701 221.196 116.792Z" fill="#FFF8FB" stroke="#263238" stroke-linecap="round" stroke-linejoin="round"/>
<path d="M215.73 92.7664L218.122 95.6731L213.709 94.3483" stroke="#263238" stroke-width="2" stroke-linecap="round" stroke-linejoin="round"/>
<path d="M226.995 99.8496L223.59 99.1113L226.928 102.664" stroke="#263238" stroke-width="2" stroke-linecap="round" stroke-linejoin="round"/>
<path d="M212.165 96.4438C211.096 102.376 212.52 108.045 215.961 110.206C219.402 112.368 223.779 110.338 226.762 105.639L225.594 104.571C221.869 101.151 217.723 98.5551 213.328 96.8921L212.165 96.4438Z" fill="#263238" stroke="#263238" stroke-linecap="round" stroke-linejoin="round"/>
<path d="M222.144 110.167C221.083 108.076 219.597 106.396 217.846 105.309C216.095 104.221 214.145 103.768 212.207 103.998C212.427 105.334 212.883 106.588 213.54 107.664C214.196 108.739 215.036 109.608 215.996 110.204C216.955 110.799 218.007 111.105 219.073 111.099C220.139 111.093 221.189 110.774 222.144 110.167Z" fill="#474747" stroke="#263238" stroke-linecap="round" stroke-linejoin="round"/>
<path d="M61.3609 18.1005C62.5465 15.716 64.2572 13.8355 66.2767 12.697C68.2962 11.5584 70.5338 11.2128 72.7066 11.7039C74.8793 12.195 76.8897 13.5007 78.4834 15.456C80.0771 17.4112 81.1827 19.9282 81.6602 22.6886C82.1377 25.4491 81.9659 28.329 81.1663 30.9642C80.3667 33.5995 78.9753 35.8717 77.1681 37.4936C75.3609 39.1155 73.219 40.0142 71.0132 40.0762C68.8074 40.1381 66.6369 39.3604 64.776 37.8414C63.5402 36.8327 62.4716 35.5219 61.6311 33.9839C60.7907 32.4458 60.1949 30.7107 59.8777 28.8775C59.5606 27.0444 59.5284 25.1491 59.7828 23.3C60.0373 21.4508 60.5735 19.684 61.3609 18.1005Z" fill="#FFF8FB" stroke="#263238" stroke-linecap="round" stroke-linejoin="round"/>
<path d="M81.7481 22.8391L81.5012 22.1404C81.2741 21.4729 80.8706 20.9292 80.3618 20.605C79.8529 20.2807 79.2712 20.1966 78.7188 20.3674" stroke="#263238" stroke-width="2" stroke-linecap="round" stroke-linejoin="round"/>
<path d="M72.7174 18.0782L72.3008 17.5311C71.905 17.0111 71.3794 16.6854 70.8156 16.6107C70.2517 16.536 69.6853 16.7171 69.2148 17.1225" stroke="#263238" stroke-width="2" stroke-linecap="round" stroke-linejoin="round"/>
<path d="M68.3715 20.3811C67.6617 21.8048 67.7285 23.4724 68.5103 24.1118C69.2921 24.7511 70.5008 24.1118 71.2105 22.7012C71.9203 21.2907 71.8534 19.6099 71.0665 18.9706C70.2796 18.3312 69.0761 18.964 68.3715 20.3811Z" fill="#263238" stroke="#263238" stroke-linecap="round" stroke-linejoin="round"/>
<path d="M77.7881 24.8616C77.6235 26.5358 78.2459 28.0057 79.1665 28.1573C80.0871 28.3089 80.9666 27.0631 81.1261 25.3955C81.2855 23.7279 80.6683 22.2515 79.7477 22.0999C78.8271 21.9483 77.9476 23.1941 77.7881 24.8616Z" fill="#263238" stroke="#263238" stroke-linecap="round" stroke-linejoin="round"/>
<path d="M71.6483 28.924C71.3449 30.3939 71.8026 31.8242 72.677 32.1142C73.5513 32.4042 74.4926 31.4551 74.796 29.9852C75.0995 28.5154 74.6366 27.0851 73.7674 26.795C72.8982 26.505 71.9467 27.4542 71.6483 28.924Z" fill="#263238" stroke="#263238" stroke-linecap="round" stroke-linejoin="round"/>
<path d="M178.366 239.593C184.526 239.422 189.411 232.884 189.278 224.991C189.145 217.097 184.043 210.836 177.884 211.007C171.724 211.178 166.839 217.715 166.972 225.609C167.105 233.503 172.207 239.764 178.366 239.593Z" fill="#FFF8FB" stroke="#263238" stroke-linecap="round" stroke-linejoin="round"/>
<path d="M170.865 214.35L171.38 213.988C171.879 213.639 172.457 213.526 173.014 213.668C173.572 213.811 174.073 214.199 174.429 214.765" stroke="#263238" stroke-width="2" stroke-linecap="round" stroke-linejoin="round"/>
<path d="M180.277 217.664L180.869 217.558C181.432 217.457 182.005 217.611 182.488 217.996C182.971 218.38 183.334 218.969 183.512 219.661" stroke="#263238" stroke-width="2" stroke-linecap="round" stroke-linejoin="round"/>
<path d="M182.617 222.879C182.494 224.559 181.65 225.832 180.725 225.719C179.799 225.607 179.146 224.164 179.264 222.49C179.382 220.816 180.231 219.537 181.157 219.649C182.082 219.761 182.736 221.218 182.617 222.879Z" fill="#263238" stroke="#263238" stroke-linecap="round" stroke-linejoin="round"/>
<path d="M173.025 219.056C172.357 220.499 171.163 221.185 170.366 220.572C169.569 219.959 169.461 218.298 170.135 216.848C170.808 215.398 171.996 214.725 172.794 215.332C173.591 215.938 173.725 217.606 173.025 219.056Z" fill="#263238" stroke="#263238" stroke-linecap="round" stroke-linejoin="round"/>
<path d="M175.947 227.083C175.484 228.481 174.44 229.252 173.612 228.804C172.784 228.356 172.491 226.826 172.954 225.455C173.417 224.084 174.461 223.287 175.289 223.735C176.117 224.183 176.41 225.679 175.947 227.083Z" fill="#263238" stroke="#263238" stroke-linecap="round" stroke-linejoin="round"/>
<path d="M164.495 44.2704C172.275 39.7622 175.73 28.0245 172.213 18.0537C168.695 8.08294 159.536 3.65469 151.755 8.16297C143.975 12.6712 140.52 24.4089 144.038 34.3797C147.555 44.3505 156.714 48.7787 164.495 44.2704Z" fill="#FFF8FB" stroke="#263238" stroke-linecap="round" stroke-linejoin="round"/>
<path d="M153.061 30.8938L154.146 30.5378C155.177 30.1874 156.271 30.313 157.236 30.8927C158.202 31.4724 158.978 32.4691 159.428 33.7082" stroke="#263238" stroke-width="2" stroke-linecap="round" stroke-linejoin="round"/>
<path d="M153.816 21.4206C153.384 23.0157 152.191 23.9385 151.152 23.4771C150.113 23.0157 149.609 21.3481 150.056 19.753C150.504 18.1579 151.676 17.2351 152.715 17.6965C153.754 18.1579 154.248 19.8255 153.816 21.4206Z" fill="#263238" stroke="#263238" stroke-linecap="round" stroke-linejoin="round"/>
<path d="M167.732 27.5981C167.3 29.1998 166.107 30.1225 165.068 29.6612C164.029 29.1998 163.525 27.5256 163.967 25.9305C164.41 24.3354 165.593 23.4126 166.632 23.874C167.671 24.3354 168.164 26.003 167.732 27.5981Z" fill="#263238" stroke="#263238" stroke-linecap="round" stroke-linejoin="round"/>
<path d="M154.917 15.4049C154.917 15.4049 153.055 12.5048 150.658 15.4049" stroke="#263238" stroke-width="2" stroke-linecap="round" stroke-linejoin="round"/>
<path d="M165.938 20.2951C165.938 20.2951 168.802 19.4976 169.291 23.6699" stroke="#263238" stroke-width="2" stroke-linecap="round" stroke-linejoin="round"/>
<path d="M40.7248 69.6595C43.4709 62.1468 40.9447 53.2036 35.0825 49.6844C29.2202 46.1651 22.2418 49.4025 19.4957 56.9153C16.7496 64.428 19.2757 73.3712 25.138 76.8904C31.0003 80.4097 37.9787 77.1723 40.7248 69.6595Z" fill="#FFF8FB" stroke="#263238" stroke-linecap="round" stroke-linejoin="round"/>
<path d="M24.1239 53.3283C22.5809 51.7332 20.3436 52.0101 19.3458 53.6052C19.0147 54.1952 18.8277 54.8979 18.8085 55.6242C18.7893 56.3505 18.9387 57.0678 19.2378 57.6852C18.7059 57.4374 18.1286 57.3979 17.5791 57.5716C17.0296 57.7453 16.5328 58.1244 16.1519 58.6607C15.1541 60.236 15.3855 63.1164 16.9131 64.7115C18.4406 66.3066 20.1996 65.7727 21.8197 65.4234C23.0335 65.1663 24.4428 64.5863 25.6566 64.3292C25.5897 62.2398 25.7234 59.8405 25.6566 57.7379C25.6 56.1165 25.3223 54.5675 24.1239 53.3283Z" fill="#474747" stroke="#263238" stroke-linecap="round" stroke-linejoin="round"/>
<path d="M37.43 50.5365C37.2757 48.3021 35.7327 46.6477 34.344 46.8059C33.8545 46.9134 33.3996 47.2002 33.0346 47.6318C32.6695 48.0635 32.4097 48.6213 32.2867 49.2381C32.0777 48.6521 31.7393 48.1576 31.3134 47.8155C30.8874 47.4735 30.3925 47.2989 29.89 47.3134C28.491 47.4716 27.2001 49.449 27.3544 51.6834C27.5087 53.9179 28.8562 55.0186 30.034 56.1259C30.9083 56.9564 32.0913 57.754 32.9451 58.5779C33.9429 57.2596 35.2235 55.8623 36.2213 54.5177C36.6465 54.0163 36.9765 53.3968 37.186 52.7068C37.3955 52.0167 37.4789 51.2743 37.43 50.5365Z" fill="#474747" stroke="#263238" stroke-linecap="round" stroke-linejoin="round"/>
<path d="M25.457 66.5866C28.4353 64.2305 31.763 62.693 35.2292 62.0715C35.2292 62.0715 37.5848 68.6628 32.1432 71.1214C26.7017 73.5799 25.457 66.5866 25.457 66.5866Z" fill="#263238" stroke="#263238" stroke-linecap="round" stroke-linejoin="round"/>
<path d="M33.3405 68.9405C33.469 69.5403 32.6564 70.3378 31.5352 70.7201C30.414 71.1024 29.3956 70.9245 29.2722 70.3247C29.1487 69.7249 29.9614 68.9339 31.0826 68.5516C32.2038 68.1693 33.217 68.3407 33.3405 68.9405Z" fill="#FFF8FB" stroke="#263238" stroke-linecap="round" stroke-linejoin="round"/>
<path d="M121.903 107.22C134.751 107.22 145.166 93.872 145.166 77.4071C145.166 60.9422 134.751 47.5947 121.903 47.5947C109.056 47.5947 98.6406 60.9422 98.6406 77.4071C98.6406 93.872 109.056 107.22 121.903 107.22Z" fill="#FFF8FB" stroke="#263238" stroke-linecap="round" stroke-linejoin="round"/>
<path d="M108.361 59.6328L115.232 62.388L105.578 65.2288" stroke="#263238" stroke-width="2" stroke-linecap="round" stroke-linejoin="round"/>
<path d="M135.752 59.6328L128.531 62.388L137.732 65.2288" stroke="#263238" stroke-width="2" stroke-linecap="round" stroke-linejoin="round"/>
<path d="M104.133 71.2772C106.473 84.1829 113.545 93.5623 121.903 93.5623C130.26 93.5623 137.332 84.1829 139.673 71.2772L136.587 70.6181C126.722 68.5086 116.65 68.5354 106.792 70.6972L104.133 71.2772Z" fill="#263238" stroke="#263238" stroke-linecap="round" stroke-linejoin="round"/>
<path d="M134.014 85.8896C130.928 83.2531 126.721 81.6646 122.046 81.6646C117.283 81.6646 112.983 83.3519 109.902 86.0478C113.143 90.7078 117.324 93.5355 121.902 93.5355C126.479 93.5355 130.758 90.6485 134.014 85.8896Z" fill="#474747" stroke="#263238" stroke-linecap="round" stroke-linejoin="round"/>
<path d="M193.478 104.323C198.371 88.6857 192.446 70.9265 180.244 64.6564C168.043 58.3863 154.185 65.9795 149.293 81.6164C144.4 97.2532 150.325 115.012 162.527 121.283C174.728 127.553 188.586 119.959 193.478 104.323Z" fill="#FFF8FB" stroke="#263238" stroke-linecap="round" stroke-linejoin="round"/>
<path d="M159.803 71.935L160.867 71.0385C161.873 70.1654 163.087 69.7765 164.295 69.9405C165.502 70.1046 166.626 70.8111 167.466 71.935" stroke="#263238" stroke-width="2" stroke-linecap="round" stroke-linejoin="round"/>
<path d="M180.309 76.6463L181.553 76.2772C182.734 75.9195 183.976 76.1051 185.06 76.8015C186.145 77.4979 187.005 78.6608 187.489 80.0869" stroke="#263238" stroke-width="2" stroke-linecap="round" stroke-linejoin="round"/>
<path d="M186.07 87.1831C186.07 90.7753 184.46 93.6887 182.469 93.6887C180.479 93.6887 178.869 90.7753 178.869 87.1831C178.869 83.5908 180.474 80.6775 182.469 80.6775C184.465 80.6775 186.07 83.5908 186.07 87.1831Z" fill="#263238" stroke="#263238" stroke-linecap="round" stroke-linejoin="round"/>
<path d="M165.116 81.4075C163.913 84.6504 161.48 86.3971 159.69 85.303C157.9 84.2088 157.427 80.6891 158.662 77.4462C159.896 74.2033 162.298 72.4632 164.088 73.5573C165.878 74.6515 166.325 78.1646 165.116 81.4075Z" fill="#263238" stroke="#263238" stroke-linecap="round" stroke-linejoin="round"/>
<path d="M172.537 97.7429C171.766 100.834 169.662 102.732 167.836 101.981C166.01 101.23 165.162 98.1252 165.933 95.0338C166.705 91.9425 168.808 90.0508 170.629 90.7957C172.45 91.5405 173.309 94.6581 172.537 97.7429Z" fill="#263238" stroke="#263238" stroke-linecap="round" stroke-linejoin="round"/>
<path d="M73.1645 119.782C86.2707 119.782 96.8954 106.166 96.8954 89.3695C96.8954 72.5733 86.2707 58.9573 73.1645 58.9573C60.0583 58.9573 49.4336 72.5733 49.4336 89.3695C49.4336 106.166 60.0583 119.782 73.1645 119.782Z" fill="#FFF8FB" stroke="#263238" stroke-linecap="round" stroke-linejoin="round"/>
<path d="M67.2598 106.126C67.2598 107.095 66.2568 107.879 65.0225 107.879C63.7881 107.879 62.7852 107.095 62.7852 106.126C62.7852 105.157 63.7881 104.366 65.0225 104.366C66.2568 104.366 67.2598 105.157 67.2598 106.126Z" fill="#263238" stroke="#263238" stroke-linecap="round" stroke-linejoin="round"/>
<path d="M88.2188 106.126C88.2188 107.095 87.2158 107.879 85.9814 107.879C84.7471 107.879 83.7441 107.095 83.7441 106.126C83.7441 105.157 84.7471 104.366 85.9814 104.366C87.2158 104.366 88.2188 105.157 88.2188 106.126Z" fill="#263238" stroke="#263238" stroke-linecap="round" stroke-linejoin="round"/>
<path d="M59.6172 100.737C59.887 101.374 60.2941 101.898 60.7898 102.247C61.5768 102.748 67.26 104 70.3974 104" stroke="#263238" stroke-width="2" stroke-linecap="round" stroke-linejoin="round"/>
<path d="M91.5412 100.737C91.2684 101.374 90.8599 101.897 90.3634 102.247C89.5817 102.748 83.8932 104 80.7559 104" stroke="#263238" stroke-width="2" stroke-linecap="round" stroke-linejoin="round"/>
<path d="M70.3467 112.804C72.0477 111.795 73.8939 111.252 75.7677 111.208C79.9903 111.07 81.5641 112.942 80.9109 113.239C78.7508 114.194 67.3122 114.517 70.3467 112.804Z" fill="#263238" stroke="#263238" stroke-linecap="round" stroke-linejoin="round"/>
<path d="M71.3559 167.903C76.2893 152.488 70.5373 134.866 58.5085 128.543C46.4798 122.221 32.7293 129.593 27.7959 145.008C22.8626 160.423 28.6145 178.045 40.6433 184.367C52.672 190.69 66.4226 183.318 71.3559 167.903Z" fill="#FFF8FB" stroke="#263238" stroke-linecap="round" stroke-linejoin="round"/>
<path d="M47.7676 168.419L48.6779 166.574C49.5397 164.809 50.8584 163.488 52.4033 162.843C53.9482 162.199 55.6208 162.271 57.1283 163.047" stroke="#263238" stroke-width="2" stroke-linecap="round" stroke-linejoin="round"/>
<path d="M39.6069 162.749C41.1338 161.872 41.706 159.258 40.885 156.909C40.064 154.56 38.1607 153.366 36.6338 154.243C35.1069 155.12 34.5347 157.734 35.3557 160.083C36.1767 162.432 38.08 163.625 39.6069 162.749Z" fill="#263238" stroke="#263238" stroke-linecap="round" stroke-linejoin="round"/>
<path d="M61.3622 145.159C62.1851 147.506 61.6142 150.122 60.0867 150.999C58.5591 151.876 56.651 150.683 55.8332 148.363C55.0154 146.042 55.5812 143.399 57.1087 142.523C58.6363 141.646 60.5444 142.806 61.3622 145.159Z" fill="#263238" stroke="#263238" stroke-linecap="round" stroke-linejoin="round"/>
<path d="M37.2201 148.757C37.2201 148.757 32.7917 148.032 32.4883 154.439" stroke="#263238" stroke-width="2" stroke-linecap="round" stroke-linejoin="round"/>
<path d="M53.4297 139.451C53.4297 139.451 55.9499 134.732 59.8896 138.706" stroke="#263238" stroke-width="2" stroke-linecap="round" stroke-linejoin="round"/>
<path d="M193.289 189.249C205.264 182.789 210.885 165.111 205.844 149.765C200.803 134.419 187.009 127.216 175.034 133.676C163.059 140.136 157.438 157.814 162.479 173.16C167.52 188.506 181.314 195.71 193.289 189.249Z" fill="#FFF8FB" stroke="#263238" stroke-linecap="round" stroke-linejoin="round"/>
<path d="M182.201 136.339C180.91 131.547 176.821 129.003 173.823 130.327C171.724 131.257 170.423 133.959 170.263 137.13C168.607 134.757 166.283 133.663 164.189 134.592C161.186 135.91 159.195 141.15 160.486 145.949C161.818 150.886 165.208 152.217 168.258 153.858C170.536 155.058 173.401 155.994 175.7 157.193C177.31 153.548 179.532 149.633 181.141 145.988C182.427 143.055 183.209 140.082 182.201 136.339Z" fill="#474747" stroke="#263238" stroke-linecap="round" stroke-linejoin="round"/>
<path d="M207.217 149.675C208.802 145.661 207.542 140.751 205.026 139.129C203.273 137.989 201.123 138.596 199.446 140.448C199.605 137.627 198.711 135.056 196.957 133.916C194.442 132.288 190.61 133.916 189.021 137.91C187.39 142.049 188.825 145.642 189.91 149.115C190.718 151.719 192.035 154.652 192.847 157.255C195.655 156.319 198.973 155.713 201.786 154.777C204.018 154.013 205.983 152.813 207.217 149.675Z" fill="#474747" stroke="#263238" stroke-linecap="round" stroke-linejoin="round"/>
<path d="M173.506 160.74C180.543 160.775 187.499 162.685 193.929 166.349C193.929 166.349 192.474 180.85 181.164 177.554C169.854 174.258 173.506 160.74 173.506 160.74Z" fill="#263238" stroke="#263238" stroke-linecap="round" stroke-linejoin="round"/>
<path d="M185 175.473C184.717 176.66 182.675 176.917 180.443 176.04C178.211 175.163 176.637 173.489 176.92 172.303C177.202 171.116 179.244 170.853 181.477 171.729C183.709 172.606 185.283 174.28 185 175.473Z" fill="#474747" stroke="#263238" stroke-linecap="round" stroke-linejoin="round"/>
<path d="M1.39648 272.313H220.519" stroke="#263238" stroke-linecap="round" stroke-linejoin="round"/>
<path d="M6.6582 186.618L12.2643 255.444" stroke="#263238" stroke-miterlimit="10"/>
<path d="M11.3591 242.275L8.81836 238.835" stroke="#263238" stroke-miterlimit="10"/>
<path d="M9.59527 239.861C9.58823 239.333 9.49273 238.813 9.31526 238.336C9.13778 237.86 8.88247 237.438 8.56662 237.099C7.91343 236.354 4.48289 234.502 4.15372 236.051C3.81427 237.738 7.33224 241.047 9.59527 239.861Z" fill="#474747" stroke="#263238" stroke-miterlimit="10"/>
<path d="M9.59337 239.864L6.32227 237.253" stroke="#263238" stroke-width="0.5" stroke-miterlimit="10"/>
<path d="M11.9978 250.098L9.45703 246.664" stroke="#263238" stroke-miterlimit="10"/>
<path d="M10.2274 247.691C10.2214 247.163 10.1263 246.643 9.9488 246.166C9.77125 245.69 9.5154 245.268 9.19877 244.93C8.54558 244.185 5.11504 242.333 4.78587 243.882C4.45156 245.562 7.96953 248.878 10.2274 247.691Z" fill="#474747" stroke="#263238" stroke-miterlimit="10"/>
<path d="M10.2269 247.693L6.96094 245.083" stroke="#263238" stroke-width="0.5" stroke-miterlimit="10"/>
<path d="M9.80639 223.174L7.26562 219.733" stroke="#263238" stroke-miterlimit="10"/>
<path d="M8.03742 220.759C8.03038 220.231 7.93489 219.711 7.75741 219.235C7.57994 218.758 7.32462 218.336 7.00877 217.997C6.36072 217.252 2.92504 215.4 2.60102 216.949C2.26156 218.637 5.77439 221.945 8.03742 220.759Z" fill="#474747" stroke="#263238" stroke-miterlimit="10"/>
<path d="M8.03549 220.762L4.76953 218.152" stroke="#263238" stroke-width="0.5" stroke-miterlimit="10"/>
<path d="M10.4431 230.998L7.90234 227.564" stroke="#263238" stroke-miterlimit="10"/>
<path d="M8.67414 228.59C8.6671 228.062 8.5716 227.542 8.39413 227.066C8.21665 226.589 7.96134 226.167 7.64549 225.828C6.99744 225.083 3.56176 223.231 3.23773 224.78C2.89828 226.467 6.41111 229.776 8.67414 228.59Z" fill="#474747" stroke="#263238" stroke-miterlimit="10"/>
<path d="M8.67416 228.591L5.4082 225.981" stroke="#263238" stroke-width="0.5" stroke-miterlimit="10"/>
<path d="M8.77123 210.459L6.23047 207.018" stroke="#263238" stroke-miterlimit="10"/>
<path d="M7.00226 208.048C6.99522 207.52 6.89973 207 6.72225 206.523C6.54478 206.047 6.28947 205.625 5.97362 205.286C5.32042 204.541 1.88988 202.689 1.56586 204.238C1.22641 205.925 4.73924 209.234 7.00226 208.048Z" fill="#474747" stroke="#263238" stroke-miterlimit="10"/>
<path d="M7.00352 208.047L3.73242 205.437" stroke="#263238" stroke-width="0.5" stroke-miterlimit="10"/>
<path d="M7.73145 197.686L5.18555 194.245" stroke="#263238" stroke-width="2" stroke-miterlimit="10"/>
<path d="M5.96377 195.278C5.95646 194.749 5.86088 194.228 5.68345 193.751C5.50602 193.273 5.25085 192.85 4.93513 192.509C4.28193 191.765 0.851393 189.913 0.522226 191.461C0.187915 193.149 3.70075 196.458 5.96377 195.278Z" fill="#474747" stroke="#263238" stroke-miterlimit="10"/>
<path d="M5.96446 195.28L2.69336 192.669" stroke="#263238" stroke-width="0.5" stroke-miterlimit="10"/>
<path d="M10.9316 237.642L12.8655 233.601" stroke="#263238" stroke-width="2" stroke-miterlimit="10"/>
<path d="M12.2805 234.811C12.196 234.299 12.1983 233.769 12.287 233.257C12.3757 232.745 12.5488 232.264 12.7948 231.845C13.3091 230.942 16.3951 228.22 16.9454 229.65C17.5883 231.206 14.6824 235.398 12.2805 234.811Z" fill="#474747" stroke="#263238" stroke-miterlimit="10"/>
<path d="M12.2793 234.815L15.2212 231.217" stroke="#263238" stroke-width="0.5" stroke-miterlimit="10"/>
<path d="M9.25586 217.043L11.1897 213.003" stroke="#263238" stroke-miterlimit="10"/>
<path d="M10.5971 214.217C10.518 213.701 10.5257 213.17 10.6197 212.658C10.7137 212.147 10.8919 211.667 11.1423 211.251C11.6566 210.348 14.7425 207.625 15.2877 209.056C15.9101 210.611 13.0041 214.777 10.5971 214.217Z" fill="#474747" stroke="#263238" stroke-miterlimit="10"/>
<path d="M10.5977 214.216L13.5396 210.611" stroke="#263238" stroke-width="0.5" stroke-miterlimit="10"/>
<path d="M8.52148 207.987L10.4553 203.953" stroke="#263238" stroke-miterlimit="10"/>
<path d="M9.86282 205.166C9.78361 204.649 9.79126 204.116 9.88527 203.604C9.97928 203.091 10.1575 202.61 10.408 202.193C10.9223 201.29 14.0083 198.574 14.5535 200.005C15.1706 201.56 12.2699 205.739 9.86282 205.166Z" fill="#474747" stroke="#263238" stroke-miterlimit="10"/>
<path d="M9.86328 205.166L12.8052 201.561" stroke="#263238" stroke-width="0.5" stroke-miterlimit="10"/>
<path d="M7.43945 194.718L9.36817 190.677" stroke="#263238" stroke-miterlimit="10"/>
<path d="M8.78248 191.897C8.70166 191.381 8.70852 190.849 8.80261 190.338C8.89669 189.826 9.07578 189.346 9.32766 188.931C9.84199 188.028 12.9279 185.305 13.4731 186.736C14.0903 188.285 11.1998 192.45 8.78248 191.897Z" fill="#474747" stroke="#263238" stroke-miterlimit="10"/>
<path d="M8.78125 191.892L11.7232 188.293" stroke="#263238" stroke-width="0.5" stroke-miterlimit="10"/>
<path d="M6.61086 186.237C6.53165 185.72 6.5393 185.188 6.63331 184.675C6.72732 184.163 6.90553 183.682 7.15605 183.264C7.67037 182.361 10.7563 179.646 11.3015 181.076C11.9187 182.625 9.0179 186.797 6.61086 186.237Z" fill="#474747" stroke="#263238" stroke-miterlimit="10"/>
<path d="M6.61133 186.236L9.55326 182.631" stroke="#263238" stroke-width="0.5" stroke-miterlimit="10"/>
<path d="M6.78114 186.387C6.36908 186.439 5.95309 186.377 5.56162 186.204C5.17015 186.031 4.81245 185.752 4.51297 185.385C3.87007 184.627 2.08022 180.442 3.24774 179.868C4.53869 179.242 7.47034 183.382 6.78114 186.387Z" fill="#474747" stroke="#263238" stroke-miterlimit="10"/>
<path d="M6.7823 186.388L4.29297 182.261" stroke="#263238" stroke-width="0.5" stroke-miterlimit="10"/>
<path d="M21.4444 196.097L15.8691 264.929" stroke="#263238" stroke-miterlimit="10"/>
<path d="M17.1038 251.798L15.1699 247.764" stroke="#263238" stroke-miterlimit="10"/>
<path d="M15.7571 248.979C15.8376 248.462 15.8307 247.929 15.7366 247.417C15.6425 246.904 15.4636 246.423 15.2119 246.006C14.6976 245.103 11.6116 242.387 11.0664 243.818C10.4493 245.373 13.3552 249.539 15.7571 248.979Z" fill="#474747" stroke="#263238" stroke-miterlimit="10"/>
<path d="M15.7578 248.979L12.9805 245.558" stroke="#263238" stroke-width="0.5" stroke-miterlimit="10"/>
<path d="M18.6467 232.696L16.7129 228.663" stroke="#263238" stroke-miterlimit="10"/>
<path d="M17.3051 229.879C17.3843 229.362 17.3766 228.83 17.2826 228.317C17.1886 227.805 17.0104 227.324 16.7599 226.906C16.2456 226.003 13.1596 223.288 12.6093 224.718C11.9921 226.273 14.9032 230.439 17.3051 229.879Z" fill="#474747" stroke="#263238" stroke-miterlimit="10"/>
<path d="M17.3047 229.875L14.5273 226.455" stroke="#263238" stroke-width="0.5" stroke-miterlimit="10"/>
<path d="M18.0139 240.53L16.0801 236.49" stroke="#263238" stroke-miterlimit="10"/>
<path d="M16.6719 237.699C16.751 237.184 16.7433 236.652 16.6493 236.141C16.5553 235.629 16.3771 235.149 16.1267 234.733C15.6124 233.83 12.5264 231.115 11.9761 232.538C11.3589 234.081 14.2854 238.26 16.6719 237.699Z" fill="#474747" stroke="#263238" stroke-miterlimit="10"/>
<path d="M16.6719 237.702L13.8945 234.287" stroke="#263238" stroke-width="0.5" stroke-miterlimit="10"/>
<path d="M19.68 219.984L17.7461 215.944" stroke="#263238" stroke-miterlimit="10"/>
<path d="M18.3333 217.157C18.4141 216.642 18.4072 216.11 18.3131 215.598C18.219 215.086 18.04 214.606 17.7881 214.191C17.2737 213.288 14.1878 210.573 13.6426 212.003C13.0254 213.558 15.9314 217.718 18.3333 217.157Z" fill="#474747" stroke="#263238" stroke-miterlimit="10"/>
<path d="M18.332 217.155L15.5547 213.741" stroke="#263238" stroke-width="0.5" stroke-miterlimit="10"/>
<path d="M20.7151 207.21L18.7812 203.177" stroke="#263238" stroke-miterlimit="10"/>
<path d="M19.3684 204.422C19.449 203.905 19.442 203.372 19.3479 202.859C19.2539 202.346 19.0749 201.866 18.8232 201.449C18.3089 200.546 15.223 197.83 14.6778 199.261C14.0606 200.783 16.9665 204.949 19.3684 204.422Z" fill="#474747" stroke="#263238" stroke-miterlimit="10"/>
<path d="M19.3672 204.388L16.5898 200.967" stroke="#263238" stroke-width="0.5" stroke-miterlimit="10"/>
<path d="M17.4277 247.153L19.9685 243.712" stroke="#263238" stroke-miterlimit="10"/>
<path d="M19.1973 244.746C19.2046 244.218 19.3003 243.698 19.4777 243.222C19.6552 242.746 19.9103 242.323 20.2259 241.984C20.8791 241.233 24.3096 239.381 24.6388 240.93C24.9731 242.65 21.486 245.946 19.1973 244.746Z" fill="#474747" stroke="#263238" stroke-miterlimit="10"/>
<path d="M19.1973 244.745L22.6535 241.99" stroke="#263238" stroke-width="0.5" stroke-miterlimit="10"/>
<path d="M19.0938 226.556L21.6345 223.115" stroke="#263238" stroke-miterlimit="10"/>
<path d="M20.8633 224.143C20.8713 223.615 20.9673 223.096 21.1447 222.62C21.3221 222.143 21.5768 221.721 21.8919 221.381C22.5451 220.637 25.9757 218.784 26.3048 220.333C26.6289 222.014 23.1263 225.33 20.8633 224.143Z" fill="#474747" stroke="#263238" stroke-miterlimit="10"/>
<path d="M20.8633 224.144L24.3247 221.396" stroke="#263238" stroke-width="0.5" stroke-miterlimit="10"/>
<path d="M19.8301 217.506L22.3708 214.058" stroke="#263238" stroke-width="2" stroke-miterlimit="10"/>
<path d="M21.5996 215.092C21.6056 214.564 21.7007 214.044 21.8782 213.567C22.0558 213.091 22.3116 212.669 22.6283 212.331C23.2814 211.579 26.712 209.727 27.036 211.276C27.3703 212.99 23.8626 216.285 21.5996 215.092Z" fill="#474747" stroke="#263238" stroke-miterlimit="10"/>
<path d="M21.5996 215.094L25.0559 212.345" stroke="#263238" stroke-width="0.5" stroke-miterlimit="10"/>
<path d="M20.9062 204.231L23.447 200.79" stroke="#263238" stroke-miterlimit="10"/>
<path d="M22.6738 201.816C22.6802 201.288 22.7754 200.768 22.9529 200.291C23.1304 199.815 23.3861 199.393 23.7025 199.054C24.3557 198.31 27.7862 196.457 28.1102 198.006C28.4445 199.687 24.9369 203.003 22.6738 201.816Z" fill="#474747" stroke="#263238" stroke-miterlimit="10"/>
<path d="M22.6738 201.817L26.1301 199.068" stroke="#263238" stroke-width="0.5" stroke-miterlimit="10"/>
<path d="M21.4863 195.709C21.4924 195.181 21.5874 194.66 21.7649 194.184C21.9425 193.707 22.1983 193.285 22.515 192.947C23.1682 192.202 26.5987 190.35 26.9227 191.899C27.2365 193.58 23.7236 196.895 21.4863 195.709Z" fill="#474747" stroke="#263238" stroke-miterlimit="10"/>
<path d="M21.4609 195.708L24.9172 192.959" stroke="#263238" stroke-width="0.5" stroke-miterlimit="10"/>
<path d="M21.5984 195.907C21.1873 195.85 20.7906 195.679 20.4356 195.407C20.0805 195.136 19.7754 194.769 19.5411 194.332C19.0268 193.422 17.9519 188.855 19.1862 188.598C20.5543 188.327 22.7556 193.146 21.5984 195.907Z" fill="#474747" stroke="#263238" stroke-miterlimit="10"/>
<path d="M21.5994 195.907L19.8301 191.214" stroke="#263238" stroke-width="0.5" stroke-miterlimit="10"/>
<path d="M15.0566 168.064V255.108" stroke="#263238" stroke-miterlimit="10"/>
<path d="M15.1089 242.024L12.8613 238.26" stroke="#263238" stroke-miterlimit="10"/>
<path d="M13.5443 239.39C13.5793 238.864 13.5258 238.335 13.3874 237.838C13.2489 237.341 13.0288 236.888 12.742 236.509C12.1556 235.679 8.88967 233.385 8.44221 234.881C7.97418 236.509 11.199 240.273 13.5443 239.39Z" fill="#474747" stroke="#263238" stroke-miterlimit="10"/>
<path d="M13.5436 239.387L10.5039 236.362" stroke="#263238" stroke-width="0.5" stroke-miterlimit="10"/>
<path d="M15.1089 225.666L12.8613 221.909" stroke="#263238" stroke-miterlimit="10"/>
<path d="M13.5443 223.035C13.5793 222.509 13.5258 221.98 13.3874 221.483C13.2489 220.986 13.0288 220.533 12.742 220.155C12.1556 219.324 8.88967 217.024 8.44221 218.52C7.97418 220.155 11.199 223.912 13.5443 223.035Z" fill="#474747" stroke="#263238" stroke-miterlimit="10"/>
<path d="M13.5436 223.035L10.5039 220.003" stroke="#263238" stroke-miterlimit="10"/>
<path d="M15.1089 206.458L12.8613 202.701" stroke="#263238" stroke-miterlimit="10"/>
<path d="M13.5443 203.828C13.5793 203.302 13.5258 202.773 13.3874 202.276C13.2489 201.779 13.0288 201.326 12.742 200.948C12.1556 200.117 8.88967 197.817 8.44221 199.32C7.97418 200.948 11.199 204.705 13.5443 203.828Z" fill="#474747" stroke="#263238" stroke-miterlimit="10"/>
<path d="M13.5436 203.829L10.5039 200.797" stroke="#263238" stroke-width="0.5" stroke-miterlimit="10"/>
<path d="M15.1089 193.677L12.8613 189.914" stroke="#263238" stroke-miterlimit="10"/>
<path d="M13.5443 191.042C13.5793 190.516 13.5258 189.987 13.3874 189.49C13.2489 188.993 13.0288 188.54 12.742 188.161C12.1556 187.331 8.88967 185.037 8.44221 186.533C7.97418 188.161 11.199 191.899 13.5443 191.042Z" fill="#474747" stroke="#263238" stroke-miterlimit="10"/>
<path d="M13.5436 191.039L10.5039 188.014" stroke="#263238" stroke-width="0.5" stroke-miterlimit="10"/>
<path d="M15.1089 180.831L12.8613 177.074" stroke="#263238" stroke-miterlimit="10"/>
<path d="M13.5443 178.202C13.5793 177.677 13.5258 177.147 13.3874 176.65C13.2489 176.153 13.0288 175.7 12.742 175.322C12.1556 174.491 8.88967 172.198 8.44221 173.694C7.97418 175.322 11.199 179.079 13.5443 178.202Z" fill="#474747" stroke="#263238" stroke-miterlimit="10"/>
<path d="M13.5436 178.203L10.5039 175.178" stroke="#263238" stroke-miterlimit="10"/>
<path d="M15.0625 247.02L17.3101 243.256" stroke="#263238" stroke-miterlimit="10"/>
<path d="M16.6254 244.384C16.5877 243.86 16.638 243.332 16.7729 242.835C16.9077 242.339 17.124 241.885 17.4072 241.504C17.9935 240.673 21.2595 238.38 21.7069 239.876C22.1956 241.504 18.9707 245.287 16.6254 244.384Z" fill="#474747" stroke="#263238" stroke-miterlimit="10"/>
<path d="M16.625 244.384L19.8447 241.194" stroke="#263238" stroke-width="0.5" stroke-miterlimit="10"/>
<path d="M15.0625 220.998L17.3101 217.241" stroke="#263238" stroke-miterlimit="10"/>
<path d="M16.6254 218.369C16.5877 217.845 16.638 217.317 16.7729 216.82C16.9077 216.323 17.124 215.869 17.4072 215.488C17.9935 214.658 21.2595 212.364 21.7069 213.86C22.1956 215.488 18.9707 219.245 16.6254 218.369Z" fill="#474747" stroke="#263238" stroke-miterlimit="10"/>
<path d="M16.625 218.371L19.8447 215.18" stroke="#263238" stroke-width="0.5" stroke-miterlimit="10"/>
<path d="M15.0625 208.158L17.3101 204.401" stroke="#263238" stroke-miterlimit="10"/>
<path d="M16.6254 205.529C16.5877 205.005 16.638 204.477 16.7729 203.98C16.9077 203.483 17.124 203.029 17.4072 202.649C17.9935 201.818 21.2595 199.524 21.7069 201.021C22.1956 202.649 18.9707 206.399 16.6254 205.529Z" fill="#474747" stroke="#263238" stroke-miterlimit="10"/>
<path d="M16.625 205.529L19.8447 202.339" stroke="#263238" stroke-width="0.5" stroke-miterlimit="10"/>
<path d="M15.0625 191.186L17.3101 187.428" stroke="#263238" stroke-miterlimit="10"/>
<path d="M16.6254 188.555C16.5877 188.031 16.638 187.503 16.7729 187.006C16.9077 186.509 17.124 186.055 17.4072 185.674C17.9935 184.844 21.2595 182.55 21.7069 184.046C22.1956 185.674 18.9707 189.431 16.6254 188.555Z" fill="#474747" stroke="#263238" stroke-miterlimit="10"/>
<path d="M16.625 188.557L19.8447 185.366" stroke="#263238" stroke-width="0.5" stroke-miterlimit="10"/>
<path d="M15.0625 177.845L17.3101 174.088" stroke="#263238" stroke-miterlimit="10"/>
<path d="M16.6254 175.215C16.5877 174.691 16.638 174.163 16.7729 173.667C16.9077 173.17 17.124 172.716 17.4072 172.335C17.9935 171.504 21.2595 169.204 21.7069 170.707C22.1956 172.335 18.9707 176.079 16.6254 175.215Z" fill="#474747" stroke="#263238" stroke-miterlimit="10"/>
<path d="M16.625 175.218L19.8447 172.021" stroke="#263238" stroke-width="0.5" stroke-miterlimit="10"/>
<path d="M14.9301 169.295C14.8924 168.772 14.9427 168.243 15.0775 167.747C15.2124 167.25 15.4287 166.796 15.7119 166.415C16.2982 165.584 19.5642 163.284 20.0116 164.787C20.5002 166.415 17.2754 170.146 14.9301 169.295Z" fill="#474747" stroke="#263238" stroke-miterlimit="10"/>
<path d="M14.9297 169.297L18.1442 166.106" stroke="#263238" stroke-width="0.5" stroke-miterlimit="10"/>
<path d="M15.0834 169.486C14.6715 169.477 14.2659 169.355 13.8941 169.128C13.5223 168.9 13.1929 168.573 12.9284 168.168C12.3472 167.331 10.9071 162.928 12.1158 162.513C13.4324 162.071 16.0092 166.573 15.0834 169.486Z" fill="#474747" stroke="#263238" stroke-miterlimit="10"/>
<path d="M15.0829 169.474L12.9434 165.038" stroke="#263238" stroke-width="0.5" stroke-miterlimit="10"/>
<path d="M17.8501 277.685H10.6598L9.75977 254.405H18.7501L17.8501 277.685Z" fill="#263238" stroke="#263238" stroke-miterlimit="10"/>
<path d="M153.252 133.976C153.252 133.976 115.058 127.384 85.1602 134.589L93.8008 227.77L143.747 227.981L156.533 136.645C156.533 136.645 154.98 133.976 153.252 133.976Z" fill="#C9C9C9" stroke="#263238" stroke-linecap="round" stroke-linejoin="round"/>
<path d="M98.2954 226.739C98.2954 226.739 89.4799 137.263 87.9266 134.178C86.3733 131.093 81.5336 119.572 75.6548 124.509C69.7761 129.445 88.4461 227.155 88.4461 227.155L98.2954 226.739Z" fill="#C9C9C9" stroke="#263238" stroke-linecap="round" stroke-linejoin="round"/>
<path d="M154.609 188.893C154.609 188.893 163.435 140.776 164.078 133.15C164.721 125.524 159.099 122.044 156.363 123.889C153.627 125.735 152.994 125.128 150.263 145.7C147.532 166.271 144.004 219.957 144.323 221.19C144.642 222.422 146.411 223.246 147.373 223.246C148.335 223.246 154.609 188.893 154.609 188.893Z" fill="#C9C9C9" stroke="#263238" stroke-linecap="round" stroke-linejoin="round"/>
<path d="M87.4378 225.305C87.4378 225.305 85.9925 196.092 83.4261 189.712C80.8596 183.332 77.8097 181.486 71.5503 181.282C65.291 181.077 61.4336 187.656 62.7194 192.184C64.0052 196.712 70.748 198.966 71.8692 202.262C72.9904 205.557 79.5841 266.197 79.5841 266.197L87.4378 225.305Z" fill="#C9C9C9" stroke="#263238" stroke-linecap="round" stroke-linejoin="round"/>
<path d="M85.3508 225.305C85.3508 225.305 83.2935 193.937 81.3442 189.91C79.3949 185.883 77.0856 184.71 72.3332 184.578C67.5809 184.446 64.6647 188.612 65.647 191.466C66.6294 194.32 71.7366 195.757 72.5904 197.839C73.4442 199.922 78.4331 238.264 78.4331 238.264L85.3508 225.305Z" fill="#C9C9C9" stroke="#263238" stroke-linecap="round" stroke-linejoin="round"/>
<path d="M141.283 225.305C141.283 225.305 142.728 196.092 145.3 189.712C147.872 183.332 150.916 181.486 157.176 181.282C163.435 181.077 167.287 187.656 166.002 192.184C164.716 196.712 157.978 198.966 156.852 202.262C155.725 205.557 149.137 266.197 149.137 266.197L141.283 225.305Z" fill="#C9C9C9" stroke="#263238" stroke-linecap="round" stroke-linejoin="round"/>
<path d="M143.381 225.305C143.381 225.305 145.438 193.937 147.387 189.91C149.337 185.883 151.651 184.71 156.398 184.578C161.146 184.446 164.072 188.612 163.085 191.466C162.097 194.32 157 195.757 156.146 197.839C155.293 199.922 150.299 238.264 150.299 238.264L143.381 225.305Z" fill="#C9C9C9" stroke="#263238" stroke-linecap="round" stroke-linejoin="round"/>
<path d="M136.757 214.198C136.757 214.198 137.533 215.345 136.037 217.526C134.54 219.708 130.281 219.168 130.281 219.168L130.708 204.008C130.708 204.008 136.407 211.548 136.757 214.198Z" fill="#263238" stroke="#263238" stroke-linecap="round" stroke-linejoin="round"/>
<path d="M128.406 206.398C128.406 206.398 133.256 209.74 133.58 211.012C133.904 212.284 133.292 218.065 132.67 220.411C132.047 222.758 129.383 224.669 127.578 225.137C125.773 225.605 123.849 224.801 122.28 220.998C120.712 217.195 121.89 202.885 123.875 202.687C125.86 202.49 128.406 206.398 128.406 206.398Z" fill="#474747" stroke="#263238" stroke-linecap="round" stroke-linejoin="round"/>
<path d="M123.765 143.255C123.765 143.255 124.156 148.726 124.794 151.56C125.235 153.384 125.948 155.08 126.892 156.557C126.892 156.557 133.249 157.506 136.016 159.266C138.783 161.025 139.046 161.559 139.658 164.776C140.27 167.992 144.369 197.686 143.201 200.995C142.034 204.304 133.82 197.627 133.82 197.627L136.762 214.197C136.762 214.197 134.299 210.559 131.542 208.667C128.785 206.776 112.404 196.085 102.971 193.593C93.5383 191.102 89.8301 190.39 89.8301 190.39C89.8301 190.39 93.9447 165.857 95.2356 161.803C96.5266 157.75 97.8072 158.244 104.159 157.42C110.511 156.596 111.951 157.361 112.028 155.977C112.105 154.592 111.144 148.693 111.144 148.693C111.144 148.693 110.809 142.089 123.765 143.255Z" fill="#FFF8FB" stroke="#263238" stroke-linecap="round" stroke-linejoin="round"/>
<path d="M130.731 185.466L141.691 179.468C140.832 172.475 139.922 166.167 139.634 164.776C139.022 161.559 138.754 161.032 135.992 159.266C133.23 157.499 126.868 156.557 126.868 156.557C125.923 155.08 125.211 153.384 124.77 151.56C124.137 148.726 123.741 143.255 123.741 143.255C110.785 142.089 111.114 148.693 111.114 148.693C111.114 148.693 112.076 154.625 111.999 155.977C111.922 157.328 110.487 156.603 104.13 157.42C97.7728 158.237 96.5127 157.75 95.2063 161.803C93.8999 165.857 89.8008 190.39 89.8008 190.39C89.8008 190.39 93.5091 191.102 102.942 193.593C112.374 196.085 128.756 206.776 131.512 208.667C134.269 210.559 136.733 214.197 136.733 214.197L133.791 197.627C133.791 197.627 134.886 198.517 136.363 199.486L130.731 185.466Z" fill="#999999" stroke="#263238" stroke-linecap="round" stroke-linejoin="round"/>
<path d="M132.139 213.907C132.139 213.907 131.023 201.799 117.774 191.497C104.525 181.195 98.7437 176.647 92.0575 186.883C85.3713 197.119 98.3374 216.392 104.458 221.744C110.578 227.097 113.932 225.251 117.753 225.699C121.575 226.147 129.449 226.497 130.951 222.456" fill="#474747"/>
<path d="M132.139 213.907C132.139 213.907 131.023 201.799 117.774 191.497C104.525 181.195 98.7437 176.647 92.0575 186.883C85.3713 197.119 98.3374 216.392 104.458 221.744C110.578 227.097 113.932 225.251 117.753 225.699C121.575 226.147 129.449 226.497 130.951 222.456" stroke="#263238" stroke-linecap="round" stroke-linejoin="round"/>
<path d="M126.739 142.822C126.739 142.822 128.205 145.043 129.779 146.955C131.353 148.866 134.726 157.501 130.936 161.851C127.145 166.201 123.128 163.927 121.678 152.168C120.228 140.409 126.184 142.07 126.739 142.822Z" fill="#263238" stroke="#263238" stroke-linecap="round" stroke-linejoin="round"/>
<path d="M132.807 165.534C132.807 165.534 130.853 175.975 130.75 185.447L145.609 182.481C145.609 182.481 142.77 167.69 140.712 163.84C138.655 159.991 133.913 158.297 133.296 158.752" fill="#999999"/>
<path d="M132.807 165.534C132.807 165.534 130.853 175.975 130.75 185.447L145.609 182.481C145.609 182.481 142.77 167.69 140.712 163.84C138.655 159.991 133.913 158.297 133.296 158.752" stroke="#263238" stroke-linecap="round" stroke-linejoin="round"/>
<path d="M119.332 164.875C121.801 164.591 124.887 159.503 126.646 156.194C125.817 154.81 125.188 153.248 124.789 151.58C124.156 148.746 123.76 143.275 123.76 143.275C110.804 142.108 111.134 148.713 111.134 148.713C111.134 148.713 112.095 154.645 112.018 155.996C112.008 155.977 115.66 165.277 119.332 164.875Z" fill="#FFF8FB" stroke="#263238" stroke-linecap="round" stroke-linejoin="round"/>
<path d="M123.935 136.533C123.935 136.533 125.113 133.567 126.666 134.886C128.22 136.204 128.482 140.719 126.738 142.795C124.995 144.871 123.652 145.115 123.652 145.115L123.935 136.533Z" fill="#FFF8FB" stroke="#263238" stroke-linecap="round" stroke-linejoin="round"/>
<path d="M105.322 135.663C105.322 135.663 103.63 134.121 102.972 137.093C102.313 140.066 106.572 143.48 106.572 143.48L105.322 135.663Z" fill="#FFF8FB" stroke="#263238" stroke-linecap="round" stroke-linejoin="round"/>
<path d="M107.311 117.634C107.311 117.634 105.043 119.454 104.431 125.214C103.819 130.975 105.819 143.162 106.771 145.522C107.722 147.882 112.074 156.866 115 157.762C117.927 158.659 119.979 156.945 121.203 154.401C122.427 151.856 123.774 149.068 124.556 145.344C125.338 141.62 126.099 128.293 124.644 122.097C123.188 115.901 119.47 113.917 114.933 113.891C110.397 113.864 107.445 117.015 107.311 117.634Z" fill="#FFF8FB" stroke="#263238" stroke-linecap="round" stroke-linejoin="round"/>
<path d="M124.624 122.097C123.189 115.901 119.45 113.917 114.913 113.891C110.377 113.864 107.445 117.015 107.311 117.634C107.311 117.634 105.043 119.454 104.431 125.214C104.253 127.773 104.306 130.35 104.591 132.893C105.45 132.036 104.591 134.211 104.591 134.211C104.591 134.211 108.525 136.373 111.673 132.623C113.807 129.994 115.754 127.127 117.49 124.054C117.49 124.054 118.894 132.373 122.119 134.679C125.344 136.986 125.375 135.306 125.375 135.306V135.339C125.534 130.599 125.38 125.326 124.624 122.097Z" fill="#263238" stroke="#263238" stroke-linecap="round" stroke-linejoin="round"/>
<path d="M108.922 142.683C109.253 142.168 109.71 141.811 110.219 141.672C110.728 141.534 111.259 141.62 111.725 141.918" stroke="#263238" stroke-linecap="round" stroke-linejoin="round"/>
<path d="M117.348 141.542C117.348 141.542 118.628 139.762 120.583 141.957" stroke="#263238" stroke-linecap="round" stroke-linejoin="round"/>
<path d="M108 139.314C108 139.314 109.903 136.954 111.924 137.897" stroke="#263238" stroke-linecap="round" stroke-linejoin="round"/>
<path d="M116.662 137.812C116.662 137.812 118.627 136.223 120.653 138.807" stroke="#263238" stroke-linecap="round" stroke-linejoin="round"/>
<path d="M113.473 147.513C113.58 147.901 113.791 148.228 114.067 148.437C114.343 148.647 114.668 148.726 114.985 148.66C116.085 148.377 116.322 147.645 116.322 147.645" stroke="#263238" stroke-linecap="round" stroke-linejoin="round"/>
<path d="M112.6 150.849C112.6 150.849 116.339 152.826 118.257 149.84" stroke="#263238" stroke-linecap="round" stroke-linejoin="round"/>
<path d="M143.896 195.01C144.281 195.944 144.481 196.986 144.477 198.042C144.477 199.901 144.307 202.188 143.515 203.803C142.63 205.622 138.536 206.518 132.714 199.677C126.892 192.835 118.241 181.188 118.241 181.188L115.67 179.059C115.67 179.059 112.131 176.976 110.84 175.342C109.549 173.707 109.127 172.409 109.58 171.308C110.033 170.207 112.316 173.575 113.314 173.417C114.312 173.259 114.343 172.62 114.003 171.578C113.664 170.537 112.774 168.816 111.884 168.862C110.994 168.909 109.693 169.298 109.04 168.605C108.387 167.913 109.925 166.793 110.825 166.628C111.725 166.463 115.788 167.834 115.788 167.834C115.491 167.33 115.145 166.876 114.759 166.483C113.89 165.9 112.904 165.67 111.93 165.824C111.416 166.028 109.359 164.328 110.182 163.517C111.005 162.706 112.609 162.469 113.365 163.042C114.121 163.616 117.994 164.974 117.994 164.974C117.994 164.974 114.852 161.151 113.592 160.663C112.332 160.175 112.049 158.501 113.309 158.613C114.569 158.725 116.863 160.445 118.082 161.566C119.301 162.686 121.492 165.923 121.492 165.923C121.492 165.923 121.106 162.218 121.559 161.124C122.011 160.03 123.179 160.386 123.199 161.783C123.22 163.181 123.292 167.353 123.487 169.139C123.683 170.926 121.944 177.846 121.944 177.846C121.944 177.846 141.026 190.581 142.507 192.558C143.05 193.295 143.517 194.12 143.896 195.01Z" fill="#FFF8FB" stroke="#263238" stroke-linecap="round" stroke-linejoin="round"/>
<path d="M121.539 165.934L120.598 170.522" stroke="#263238" stroke-linecap="round" stroke-linejoin="round"/>
<path d="M118.041 164.987C118.443 165.659 118.675 166.474 118.704 167.32L118.041 164.987Z" fill="#FFF8FB"/>
<path d="M118.041 164.987C118.443 165.659 118.675 166.474 118.704 167.32" stroke="#263238" stroke-linecap="round" stroke-linejoin="round"/>
<path d="M119.723 171.842C119.723 171.842 118.237 173.727 118.335 175.632" stroke="#263238" stroke-linecap="round" stroke-linejoin="round"/>
<path d="M102.235 158.692L105.424 175.098C105.516 175.573 105.733 175.992 106.039 176.285C106.345 176.578 106.72 176.727 107.101 176.706L113.35 176.357C113.594 176.345 113.832 176.264 114.049 176.12C114.265 175.975 114.454 175.771 114.601 175.522C114.749 175.273 114.852 174.986 114.902 174.68C114.952 174.374 114.949 174.057 114.893 173.753L111.864 157.275C111.776 156.791 111.558 156.363 111.249 156.064C110.94 155.765 110.558 155.615 110.171 155.64L103.758 156.056C103.513 156.072 103.275 156.157 103.059 156.305C102.843 156.453 102.656 156.661 102.51 156.913C102.365 157.165 102.265 157.455 102.217 157.763C102.17 158.071 102.176 158.388 102.235 158.692Z" fill="#474747" stroke="#263238" stroke-linecap="round" stroke-linejoin="round"/>
<path d="M100.461 179.845C100.932 178.03 101.136 176.119 101.063 174.209C100.944 171.039 101.886 169.984 102.117 167.618C102.349 165.252 101.603 162.892 102.565 163.004C103.526 163.116 103.902 167.42 103.763 168.165C103.692 169.385 103.692 170.61 103.763 171.83C103.763 171.83 107.188 163.261 107.949 161.943C108.711 160.624 109.894 158.832 110.377 158.996C110.861 159.161 110.079 162.635 109.395 164.349C108.711 166.062 107.029 171.599 107.029 171.599C107.029 171.599 111.102 167.414 111.977 165.851C112.851 164.289 113.031 162.78 113.412 163.07C113.792 163.36 113.998 165.047 113.504 166.741C113.01 168.435 109.636 174.361 109.636 174.361C109.636 174.361 112.635 171.849 113.278 170.894C113.921 169.938 114.163 169.206 114.646 169.371C115.129 169.536 115.042 171.177 114.368 172.634C114.368 172.634 114.564 172.548 114.883 173.768C115.201 174.987 113.34 178.236 110.336 181.123C107.332 184.01 105.558 185.625 105.558 185.625L100.461 179.845Z" fill="#FFF8FB" stroke="#263238" stroke-linecap="round" stroke-linejoin="round"/>
<path d="M114.368 172.621L110.541 177.716" stroke="#263238" stroke-linecap="round" stroke-linejoin="round"/>
<path d="M77.8812 242.169V277.887C77.8812 278.437 77.9658 278.982 78.1303 279.49C78.2947 279.999 78.5358 280.46 78.8396 280.849C79.1434 281.238 79.504 281.546 79.9009 281.756C80.2977 281.966 80.723 282.074 81.1523 282.073H146.682C147.112 282.074 147.537 281.966 147.934 281.756C148.331 281.546 148.691 281.238 148.995 280.849C149.299 280.46 149.54 279.999 149.704 279.49C149.869 278.982 149.953 278.437 149.953 277.887V240.521H77.5469L77.8812 242.169Z" fill="#C9C9C9" stroke="#263238" stroke-linecap="round" stroke-linejoin="round"/>
<path d="M84.2334 222.629C84.2334 222.629 115.777 223.044 129.581 222.016C143.386 220.987 152.212 220.572 153.019 225.713C153.827 230.855 153.981 241.533 152.695 244.228C151.409 246.924 92.3443 244.848 90.8991 245.257C89.4538 245.665 78.041 246.904 76.1328 243.2C74.2247 239.496 73.8852 225.305 77.0946 222.016C80.304 218.727 84.2334 222.629 84.2334 222.629Z" fill="#C9C9C9" stroke="#263238" stroke-linecap="round" stroke-linejoin="round"/>
<path d="M68.7227 213.782C68.7227 213.782 71.9783 222.793 72.2509 223.195C72.5235 223.597 77.1421 213.143 77.1421 213.143C77.1421 213.143 70.3479 211.396 68.7227 213.782Z" fill="#263238" stroke="#263238" stroke-linecap="round" stroke-linejoin="round"/>
<path d="M73.9164 216.141C73.9164 216.141 62.663 243.449 61.5726 245.498C60.4823 247.548 43.2061 256.493 43.3604 259.129C43.5147 261.766 49.126 265.463 54.4852 264.936C59.8445 264.409 66.2015 256.249 66.2015 256.249L68.7732 247.021L83.4571 227.491C83.4571 227.491 76.7349 216.899 73.9164 216.141Z" fill="#FFF8FB" stroke="#263238" stroke-linecap="round" stroke-linejoin="round"/>
<path d="M66.2016 256.276L66.9268 253.679C61.5984 258.952 54.1767 261.523 54.1767 261.523C53.7447 259.86 53.2062 258.246 52.5668 256.698C51.8929 255.367 50.9992 254.242 49.9489 253.402C46.3487 255.775 43.2936 258.016 43.3605 259.143C43.5096 261.78 49.126 265.477 54.4853 264.95C59.8445 264.423 66.2016 256.276 66.2016 256.276Z" fill="#263238" stroke="#263238" stroke-linecap="round" stroke-linejoin="round"/>
<path d="M105.573 185.612C105.573 185.612 99.8896 179.416 96.7831 178.5C93.6765 177.584 90.5803 178.328 87.5252 183.364C85.5253 186.828 83.8621 190.59 82.5723 194.569L68.6855 213.803C70.928 215.03 73.0413 216.613 74.9757 218.515C78.4423 221.857 83.2563 229.496 83.2563 229.496L96.279 209.551C96.279 209.551 107.64 207.409 107.656 203.494C107.671 199.579 106.041 193.363 106.041 193.363" fill="#474747"/>
<path d="M105.573 185.612C105.573 185.612 99.8896 179.416 96.7831 178.5C93.6765 177.584 90.5803 178.328 87.5252 183.364C85.5253 186.828 83.8621 190.59 82.5723 194.569L68.6855 213.803C70.928 215.03 73.0413 216.613 74.9757 218.515C78.4423 221.857 83.2563 229.496 83.2563 229.496L96.279 209.551C96.279 209.551 107.64 207.409 107.656 203.494C107.671 199.579 106.041 193.363 106.041 193.363" stroke="#263238" stroke-linecap="round" stroke-linejoin="round"/>
<path d="M104.693 248.584C104.693 248.584 104.693 273.987 105.166 276.057C105.639 278.127 112.521 287.473 112.521 287.473C112.521 287.473 117.597 293.867 114.064 295.323C110.531 296.78 107.82 295.897 104.57 292.192C101.319 288.488 99.6269 285.179 99.7143 281.772C99.8018 278.364 99.8995 278.377 99.6115 276.452C99.3234 274.528 91.7012 251.478 91.7012 251.478C91.7012 251.478 101.36 251.88 104.693 248.584Z" fill="#FFF8FB" stroke="#263238" stroke-linecap="round" stroke-linejoin="round"/>
<path d="M107.656 288.309C106.926 289.052 106.253 289.882 105.645 290.787C103.525 288.126 101.549 285.283 99.7305 282.278C99.8076 285.514 101.489 288.685 104.581 292.204C107.831 295.909 110.547 296.785 114.075 295.335C117.603 293.885 112.522 287.472 112.522 287.472C112.522 287.472 109.333 286.437 107.656 288.309Z" fill="#263238" stroke="#263238" stroke-linecap="round" stroke-linejoin="round"/>
<path d="M113.803 220.863C113.803 220.863 107.724 209.44 103.3 207.278C98.8773 205.116 86.0141 216.848 84.2191 222.629C82.4241 228.41 87.3925 234.922 87.3925 234.922L87.521 250.609C87.521 250.609 92.3402 254.452 96.604 254.076C100.868 253.7 106.237 251.024 106.237 251.024C106.237 251.024 109.915 237.954 109.987 231.132C110.059 224.31 107.245 216.354 107.245 216.354" fill="#474747"/>
<path d="M113.803 220.863C113.803 220.863 107.724 209.44 103.3 207.278C98.8773 205.116 86.0141 216.848 84.2191 222.629C82.4241 228.41 87.3925 234.922 87.3925 234.922L87.521 250.609C87.521 250.609 92.3402 254.452 96.604 254.076C100.868 253.7 106.237 251.024 106.237 251.024C106.237 251.024 109.915 237.954 109.987 231.132C110.059 224.31 107.245 216.354 107.245 216.354" stroke="#263238" stroke-linecap="round" stroke-linejoin="round"/>
<path d="M104.596 134.221L104.822 131.769L115.916 122.58" fill="#263238"/>
<path d="M104.596 134.221L104.822 131.769L115.916 122.58" stroke="#263238" stroke-linecap="round" stroke-linejoin="round"/>
</svg>
