<svg width="280" height="283" viewBox="0 0 280 283" fill="none" xmlns="http://www.w3.org/2000/svg">
<path d="M48.604 194.146L32.1587 225.833L33.5131 148.896C33.8224 144.008 35.3976 139.301 38.0694 135.281C39.2024 133.476 40.53 131.814 42.0259 130.327C43.9607 128.615 46.5436 126.448 48.3138 125.718C50.5098 124.807 50.5775 121.616 48.5363 121.058C46.4952 120.501 40.3814 122.852 35.0609 128.565C29.7403 134.278 30.9398 121.93 31.3074 117.422C31.675 112.914 32.1684 98.9346 30.9302 97.7595C29.1212 96.0273 26.9639 97.7595 26.7028 102.298C26.4416 106.836 24.768 120.278 22.4753 120.025C20.1827 119.772 22.398 96.8579 22.398 96.8579C22.398 96.8579 23.6168 92.0158 21.0146 91.6309C16.3132 90.9319 15.7424 115.426 15.7424 117.766C15.7424 119.387 13.2756 119.205 13.3627 117.462C13.4498 115.72 16.0133 94.6293 11.2345 93.8797C7.56815 93.3023 10.5863 114.028 7.74228 118.192C4.8982 122.355 6.98773 102.186 3.45682 101.781C2.15087 101.629 1.1448 101.71 1.52208 113.4C1.7349 119.691 4.42419 129.092 3.94051 141.227L3.82442 144.368C1.04806 167.069 -11.46 286.167 31.5977 282.936C31.5977 282.936 64.2658 278.185 82.4234 215.926L48.604 194.146Z" fill="white"/>
<path d="M11.7563 136.011C11.7563 136.122 12.4819 136.213 13.5557 136.801C15.0032 137.583 16.1331 138.884 16.7383 140.468L17.0769 141.369L17.4542 140.488C17.9966 139.231 18.7539 138.087 19.6888 137.115C21.49 135.196 23.8034 133.893 26.325 133.377C28.2597 132.962 29.5173 133.195 29.5366 133.032C28.4788 132.624 27.3329 132.533 26.2282 132.769C23.5144 133.138 20.9989 134.455 19.089 136.507C18.0951 137.56 17.3007 138.801 16.748 140.164H17.4638C17.117 139.303 16.6111 138.523 15.9753 137.867C15.3394 137.212 14.5862 136.695 13.7588 136.345C13.1424 136.013 12.4408 135.896 11.7563 136.011Z" fill="#BCBCBC"/>
<path d="M245 208.946L263.293 245.029L280 278.681H242.224L218.813 228.163" fill="white"/>
<path d="M101.722 278.681C105.321 265.846 102.961 263.82 99.0912 251.077L90.7718 223.726L72.5659 251.887L33.8613 219.309L46.6984 188.99C70.6795 132.08 109.578 136.122 109.578 136.122L159.146 126.214C159.146 126.214 190.856 123.175 211.384 142.686C218.078 149.047 248.482 206.363 248.482 206.363L211.123 233.775L201.962 217.415L199.427 239.65C197.434 251.806 197.56 267.275 201.962 278.681" fill="#18191F"/>
<path d="M97.4077 155.49C97.4077 155.632 89.2528 157.516 79.1437 159.694C69.0347 161.872 60.7637 163.523 60.7637 163.382C60.7637 163.24 68.9089 161.356 79.0276 159.178C89.1464 157 97.3787 155.328 97.4077 155.49Z" fill="#FAFAFA"/>
<path d="M206.402 139.099C206.402 139.251 198.402 140.923 188.467 142.837C178.532 144.752 170.464 146.201 170.435 146.049C170.406 145.897 178.445 144.235 188.38 142.321C198.315 140.406 206.383 138.958 206.402 139.099Z" fill="#FAFAFA"/>
<path d="M221.678 157.628C221.678 157.77 209.227 160.667 193.808 164.182C178.388 167.698 165.87 170.362 165.841 170.26C165.812 170.159 178.281 167.221 193.701 163.706C209.121 160.191 221.61 157.517 221.678 157.628Z" fill="#FAFAFA"/>
<path d="M236.951 186.184L236.429 186.295L234.901 186.579L228.99 187.592L207.253 191.32L135.493 203.374C107.44 208.024 82.0655 212.167 63.6661 215.064C54.476 216.523 47.0273 217.657 41.8712 218.407C39.298 218.772 37.2955 219.045 35.9315 219.197C35.2519 219.352 34.5532 219.393 33.8613 219.319C34.553 219.307 35.2425 219.233 35.9218 219.096L41.8421 218.205L63.6177 214.7L135.416 202.847L207.166 190.945L228.932 187.379L234.852 186.437L236.4 186.204L236.951 186.184Z" fill="#FAFAFA"/>
<path d="M200.451 230.533C200.451 230.675 177.408 233.947 148.958 237.827C120.508 241.707 97.4261 244.735 97.4068 244.594C97.3874 244.452 120.44 241.19 148.9 237.3C177.36 233.41 200.393 230.391 200.451 230.533Z" fill="#FAFAFA"/>
<path d="M196.052 268.461C196.052 268.612 175.428 268.592 150.005 268.461C124.583 268.329 103.949 268.055 103.949 267.903C103.949 267.751 124.563 267.772 150.005 267.903C175.447 268.035 196.052 268.319 196.052 268.461Z" fill="#FAFAFA"/>
<path d="M111.581 178.931C111.364 179.005 111.14 179.056 110.914 179.083L108.979 179.417L101.917 180.592C95.9484 181.605 87.716 183.034 78.7001 184.806C69.6842 186.579 61.4616 188.352 55.5509 189.679L48.5182 191.249L46.5834 191.664C46.3623 191.728 46.1352 191.765 45.9062 191.776C46.115 191.682 46.3321 191.611 46.5544 191.563L48.5182 191.046C50.1627 190.621 52.5424 190.033 55.4832 189.314C61.3745 187.886 69.5391 186.062 78.6131 184.249C87.687 182.436 95.929 181.099 101.907 180.197C104.906 179.741 107.325 179.397 109.008 179.184L110.943 178.951C111.154 178.922 111.368 178.915 111.581 178.931Z" fill="#FAFAFA"/>
<path d="M154.136 15.4639C152.946 30.4765 172.158 41.1333 170.446 56.0851C169.972 60.2384 167.911 64.7564 170.01 68.3222C172.526 72.6071 178.649 71.7056 183.118 73.5594C188.623 75.8386 191.438 82.7777 190.606 88.9063C189.774 95.035 185.982 100.333 181.522 104.415C174.482 110.861 165.682 114.82 156.371 115.731C152.056 116.136 147.548 115.812 143.698 113.705C139.848 111.597 136.801 107.535 136.781 102.997" fill="#232D32"/>
<path d="M156.031 134.825C153.477 122.011 151.01 108.487 151.01 108.487C151.01 108.487 166.208 102.247 165.115 80.0119C164.079 58.7997 151.262 12.141 151.262 12.141C126.642 7.49129 101.094 19.8904 88.7695 42.5309L111.145 146.201C113.737 158.236 125.655 165.448 137.97 162.48C150.381 159.38 158.459 147.032 156.031 134.825Z" fill="white"/>
<path d="M152.925 50.4416C153.074 51.1594 152.951 51.9099 152.58 52.5339C152.21 53.1579 151.623 53.6065 150.942 53.7845C150.612 53.8875 150.266 53.9203 149.924 53.8809C149.583 53.8414 149.252 53.7306 148.951 53.555C148.651 53.3793 148.387 53.1424 148.176 52.8582C147.965 52.574 147.81 52.2483 147.721 51.9003C147.567 51.188 147.683 50.4409 148.043 49.8159C148.404 49.1908 148.982 48.7361 149.655 48.5473C149.989 48.438 150.34 48.4007 150.687 48.4376C151.035 48.4745 151.372 48.5848 151.677 48.7619C151.983 48.939 152.251 49.1791 152.466 49.4678C152.68 49.7565 152.836 50.0878 152.925 50.4416Z" fill="#232D32"/>
<path d="M155.894 47.6566C155.643 48.0922 153.331 46.988 150.496 47.6566C147.662 48.3252 145.882 50.2397 145.505 49.946C145.321 49.8143 145.505 49.095 146.288 48.2036C147.323 47.045 148.675 46.249 150.158 45.9243C151.63 45.5911 153.165 45.7578 154.54 46.4005C155.565 46.8766 155.991 47.4641 155.894 47.6566Z" fill="#232D32"/>
<path d="M123.97 57.401C124.124 58.1134 124.008 58.8604 123.648 59.4855C123.287 60.1106 122.709 60.5652 122.036 60.754C121.705 60.8555 121.359 60.8867 121.017 60.846C120.675 60.8053 120.344 60.6934 120.044 60.5169C119.744 60.3404 119.481 60.1029 119.269 59.8184C119.058 59.5338 118.903 59.2078 118.814 58.8597C118.661 58.1487 118.777 57.403 119.137 56.7795C119.498 56.1561 120.076 55.7035 120.749 55.5168C121.079 55.4138 121.425 55.3811 121.766 55.4205C122.108 55.4599 122.439 55.5707 122.74 55.7464C123.04 55.9221 123.304 56.159 123.515 56.4432C123.726 56.7274 123.881 57.0531 123.97 57.401Z" fill="#232D32"/>
<path d="M126.874 54.5855C126.622 55.0109 124.31 53.9068 121.476 54.5855C118.641 55.2642 116.871 57.1686 116.484 56.8749C116.3 56.7533 116.484 56.0239 117.268 55.1325C118.307 53.9796 119.657 53.1847 121.137 52.8533C122.613 52.5241 124.149 52.6907 125.529 53.3294C126.593 53.8055 127.028 54.3829 126.874 54.5855Z" fill="#232D32"/>
<path d="M141.946 73.7816C141.897 73.6093 143.6 72.9003 146.376 71.8873C147.082 71.6441 147.74 71.3504 147.759 70.8033C147.651 70.0049 147.313 69.2597 146.792 68.6659L143.484 63.3679C138.84 55.8008 135.319 49.5202 135.619 49.3278C135.919 49.1353 139.904 55.112 144.538 62.669L147.769 68.0176C148.402 68.8368 148.744 69.8608 148.736 70.9148C148.685 71.2049 148.572 71.4789 148.404 71.7159C148.236 71.9529 148.019 72.1467 147.769 72.2823C147.392 72.4863 146.993 72.6394 146.579 72.7382C143.774 73.5384 141.994 73.9436 141.946 73.7816Z" fill="#232D32"/>
<path d="M151.059 108.487C141.43 110.773 131.386 110.222 122.038 106.896C122.038 106.896 131.711 120.197 151.862 113.623L151.059 108.487Z" fill="#BCBCBC"/>
<path d="M142.197 81.1962C141.514 80.6056 140.697 80.2072 139.826 80.0388C138.954 79.8704 138.055 79.9376 137.215 80.2338C136.601 80.4284 136.03 80.7525 135.54 81.1863C135.049 81.62 134.648 82.1543 134.362 82.7562C134.08 83.3334 133.976 83.9875 134.062 84.6293C134.149 85.271 134.422 85.8692 134.845 86.3422C135.404 86.7648 136.069 87.0055 136.757 87.0343C137.445 87.0632 138.126 86.8788 138.715 86.5043C139.953 85.7193 141.031 84.6867 141.888 83.4653C142.153 83.1696 142.366 82.8265 142.517 82.4523C142.589 82.2636 142.606 82.0564 142.565 81.8577C142.523 81.6589 142.426 81.4779 142.284 81.338" fill="black"/>
<path d="M134.013 77.6817C134.478 77.55 135.136 80.7713 138.231 82.4833C141.327 84.1952 144.529 83.1012 144.645 83.4963C144.732 83.6887 144.045 84.2864 142.662 84.6308C140.864 85.0599 138.979 84.8087 137.341 83.9217C135.77 83.0772 134.576 81.6232 134.013 79.8697C133.646 78.5832 133.801 77.712 134.013 77.6817Z" fill="#232D32"/>
<path d="M101.124 64.5225C98.8205 64.5173 96.5604 65.18 94.5943 66.4371C92.6378 67.7165 91.2461 69.7568 90.7248 72.1099C90.3166 74.5002 90.7941 76.9636 92.0598 78.9983C93.324 81.0131 95.0032 82.7058 96.9741 83.9518C98.3252 84.949 99.8838 85.5949 101.521 85.836C102.34 85.9509 103.174 85.8509 103.947 85.545C104.72 85.2392 105.409 84.7369 105.951 84.0835" fill="white"/>
<path d="M102.69 78.7451C102.961 78.7451 102.284 80.376 100.165 80.2545C99.0188 80.1045 97.9754 79.4854 97.2633 78.5324C96.422 77.4809 95.7874 76.2657 95.3963 74.9565C94.9453 73.5705 94.983 72.0612 95.5027 70.7019C95.718 70.1226 96.0577 69.6029 96.4955 69.183C96.9334 68.7632 97.4576 68.4545 98.0276 68.2808C100.088 67.7743 101.026 69.1317 100.804 69.2229C100.581 69.3141 99.7108 68.838 98.4339 69.4761C97.1569 70.1143 96.2863 72.1707 97.0408 74.4297C97.7954 76.6887 99.0723 78.7147 100.388 78.9882C101.704 79.2617 102.555 78.583 102.69 78.7451Z" fill="#BCBCBC"/>
<path d="M145.256 7.3898C146.75 10.468 147.252 13.97 146.687 17.3719C146.122 20.7739 144.52 23.8928 142.121 26.262C137.207 30.8914 130.087 31.5498 123.741 33.4846C117.395 35.4195 110.595 40.3123 110.885 47.231C111.059 51.4249 113.903 55.4566 112.878 59.5086C111.688 64.2596 105.893 66.2855 104.258 70.8846C101.637 78.2794 111.233 84.9349 110.807 92.8059C110.556 97.4758 106.783 101.285 106.367 105.975C105.767 112.6 111.978 119.64 108.524 125.222C105.874 129.517 99.702 128.899 95.1747 127.035C90.6474 125.171 85.6944 122.517 81.1575 124.381C78.4295 125.495 76.5044 128.048 74.0763 129.77C71.859 131.346 69.245 132.198 66.5652 132.218C63.8854 132.237 61.2604 131.424 59.0222 129.88C56.784 128.337 55.0334 126.133 53.9919 123.548C52.9504 120.962 52.6648 118.111 53.1714 115.355C53.9066 111.303 56.2476 107.829 58.134 104.212C60.0204 100.596 61.5198 96.3716 60.388 92.4311C59.5077 89.3921 57.244 87.1027 55.4447 84.5702C53.6454 82.0377 52.2427 78.7049 53.4036 75.7976C55.435 70.682 63.2224 71.1277 66.0471 66.4476C69.9166 60.0151 60.9394 51.8301 63.2417 44.6175C65.8536 36.4527 79.6871 37.9115 82.3183 29.7467C83.2857 26.7786 82.3183 23.5066 82.5795 20.3866C83.2663 13.2956 90.4152 8.68644 97.1578 7.46071C103.9 6.23498 110.943 7.14668 117.56 5.32328C121.178 4.31028 124.563 2.51727 128.123 1.27128C131.683 0.025295 135.63 -0.59264 139.151 0.774909C142.673 2.14246 145.488 6.00198 144.781 9.8919" fill="#232D32"/>
<path d="M142.206 22.6062C144.164 26.154 146.871 29.1854 150.121 31.468C153.371 33.7507 157.076 35.224 160.954 35.7752C160.828 30.3455 160.557 24.8753 159.154 19.6584C157.752 14.4414 155.12 9.38656 151.057 6.07405C146.994 2.76154 141.248 1.38386 136.431 3.35921" fill="#232D32"/>
<path d="M167.116 126.731C168.867 126.974 178.657 187.106 141.074 193.782C105.504 200.113 94.5049 138.33 94.5049 138.33C94.5049 138.33 118.467 119.924 167.116 126.731Z" fill="white"/>
<path d="M145.584 44.404C145.806 44.8396 147.741 44.1913 150.15 43.9077C152.559 43.624 154.571 43.7658 154.687 43.2897C154.803 42.8136 152.752 41.8411 149.956 42.1856C147.161 42.53 145.361 44.0596 145.584 44.404Z" fill="#232D32"/>
<path d="M116.862 49.0649C116.949 48.9838 116.94 48.8116 116.862 48.5381V48.994C118.251 48.2548 119.719 47.6904 121.235 47.3124C123.905 46.7046 126.168 47.3732 126.352 46.9173C126.429 46.7046 125.946 46.2285 124.959 45.9043C123.654 45.4391 122.253 45.355 120.906 45.6612C120.014 45.8038 119.16 46.1351 118.395 46.635C117.63 47.1348 116.97 47.7927 116.456 48.5685L116.282 48.9332L116.427 49.0142C116.62 49.1257 116.785 49.1257 116.862 49.0649Z" fill="#232D32"/>
<path d="M100.628 47.3124C98.4347 47.3405 96.2422 47.1949 94.0696 46.8768C91.8818 46.7364 89.7081 46.4146 87.5688 45.9145C89.7625 45.8866 91.9549 46.0322 94.1276 46.3501C96.3146 46.4986 98.4877 46.8203 100.628 47.3124Z" fill="black"/>
<path d="M97.4366 51.1515C95.8075 51.5233 94.1321 51.619 92.474 51.4352C90.8099 51.4309 89.1573 51.147 87.5791 50.5944C87.5791 50.4525 89.7944 50.7564 92.503 50.9084C95.2117 51.0603 97.4269 50.9894 97.4366 51.1515Z" fill="black"/>
<path d="M145.574 19.6582C145.536 19.8753 145.471 20.0863 145.381 20.2863C145.145 20.8718 144.818 21.4126 144.414 21.8868C142.799 23.538 140.669 24.5235 138.416 24.6624C136.887 24.8414 135.343 24.8142 133.821 24.5814C132.186 24.3686 130.454 24.0546 128.636 23.9128C126.747 23.6879 124.833 23.9059 123.035 24.551C121.162 25.3972 119.544 26.759 118.353 28.4915C117.027 30.2136 115.915 32.0573 114.609 33.6882C113.965 34.4941 113.249 35.2336 112.471 35.8966C111.706 36.5153 110.867 37.0262 109.975 37.4161C108.322 38.0597 106.611 38.5247 104.867 38.8039C103.373 39.0433 101.901 39.4127 100.466 39.908C98.386 40.5917 96.6063 42.028 95.4452 43.96C95.0866 44.7068 94.8667 45.5181 94.7971 46.3507C94.7695 46.1322 94.7695 45.9108 94.7971 45.6923C94.8584 45.0589 95.0253 44.4418 95.2904 43.8689C96.41 41.8104 98.2146 40.256 100.359 39.5028C101.808 38.9781 103.297 38.5816 104.809 38.3176C106.519 38.031 108.195 37.5591 109.811 36.9096C111.556 36.1159 113.083 34.8759 114.251 33.3033C115.528 31.7129 116.631 29.8591 117.975 28.1066C119.235 26.3212 120.929 24.922 122.88 24.0546C124.745 23.3936 126.728 23.1756 128.684 23.4164C132.389 23.7608 135.63 24.6827 138.358 24.2876C140.556 24.2094 142.656 23.3195 144.288 21.7754C144.819 21.1439 145.253 20.4296 145.574 19.6582Z" fill="#18191F"/>
<path d="M64.8458 130.692C65.1378 130.628 65.4254 130.543 65.7068 130.439C66.4862 130.064 67.1013 129.395 67.4287 128.565C67.9661 127.254 67.9939 125.774 67.5061 124.442C67.0418 122.862 66.1421 121.18 65.4553 119.174C63.6902 114.5 63.2109 109.401 64.0719 104.456C64.6602 101.545 65.8707 98.8128 67.6125 96.463C68.5473 95.23 69.6412 94.139 70.8629 93.2214C72.134 92.3136 73.5046 91.5687 74.9452 91.0029C76.3543 90.4764 77.664 89.6946 78.8147 88.6933C79.3252 88.1836 79.7231 87.5631 79.9804 86.8754C80.2378 86.1877 80.3483 85.4494 80.3044 84.7122C80.14 81.7644 78.6019 79.0597 78.6502 76.1422C78.677 74.725 79.0287 73.3353 79.6756 72.0902C80.2763 70.9468 81.0178 69.891 81.8813 68.95C83.4403 67.3072 85.1013 65.7742 86.8535 64.3611C89.9491 61.6867 91.8742 58.7794 92.3869 56.4901C92.6503 55.3038 92.6503 54.0701 92.3869 52.8838C92.4248 52.9564 92.451 53.0352 92.4643 53.1168C92.4643 53.2687 92.5707 53.5017 92.6287 53.8056C92.7696 54.7146 92.74 55.6436 92.5417 56.5407C92.2105 57.9556 91.6154 59.2879 90.7907 60.461C89.7139 62.0101 88.4599 63.4151 87.0567 64.6447C85.334 66.068 83.6991 67.604 82.1618 69.2437C81.331 70.1571 80.6158 71.1785 80.0336 72.2827C79.4289 73.4547 79.0974 74.7598 79.0662 76.0916C79.1156 77.5005 79.3667 78.8937 79.8111 80.2246C80.2976 81.6521 80.6223 83.1345 80.7784 84.6413C80.8296 85.4532 80.7096 86.267 80.4271 87.0249C80.1446 87.7829 79.7064 88.4666 79.1436 89.0276C77.9527 90.0744 76.5932 90.8908 75.129 91.4385C73.7234 92.025 72.3889 92.7833 71.1531 93.6975C69.9683 94.5865 68.9069 95.6434 67.9995 96.8378C66.2984 99.1211 65.1113 101.777 64.5266 104.608C63.6678 109.465 64.1029 114.477 65.7842 119.093C66.442 121.119 67.3223 122.771 67.777 124.412C67.9972 125.173 68.1017 125.966 68.0865 126.762C68.0569 127.437 67.8956 128.099 67.6125 128.707C67.2458 129.564 66.5768 130.239 65.7455 130.591C65.4575 130.699 65.1491 130.733 64.8458 130.692Z" fill="#18191F"/>
</svg>
