<svg width="126" height="286" viewBox="0 0 126 286" fill="none" xmlns="http://www.w3.org/2000/svg">
<path d="M36.6936 257.252C36.0542 254.29 34.8668 251.864 34.4101 249.704C33.8023 247.178 33.6942 244.535 34.0935 241.959C34.5809 238.393 35.5414 234.929 36.9433 231.679C38.9893 227.087 41.9365 221.631 52.3309 207.839L35.9994 203.443C33.5942 209.361 29.0577 219.681 28.2661 220.428C28.2042 220.493 28.1391 220.555 28.0712 220.612C26.6524 221.876 24.375 222.562 22.3656 224.58C21.7577 225.223 21.3313 226.051 21.1387 226.961C20.9462 227.87 20.9959 228.823 21.2817 229.702C21.3674 229.956 21.4406 230.214 21.5009 230.477C22.055 232.2 22.4269 233.99 22.6091 235.81C22.7674 238.066 21.7201 240.743 20.898 243.678C20.076 246.613 20.21 248.372 21.507 250.961C22.5239 252.999 26.5063 257.979 29.9771 259.535C35.5001 262.035 37.333 260.221 36.6936 257.252Z" fill="white"/>
<path d="M21.1414 225.599C20.1984 226.096 19.4419 226.947 19.0041 228.004C18.96 230.027 19.2746 232.041 19.9296 233.928C20.7882 236.578 21.0927 237.665 20.4838 239.696C19.8748 241.728 18.9797 244.241 19.2659 247.951C19.5521 251.661 21.0196 256.484 25.9276 260.554C29.9465 263.883 33.4539 263.727 34.7874 263.448C36.121 263.17 36.4133 261.111 36.4133 261.111L21.1414 225.599Z" fill="#263238"/>
<path d="M28.3388 220.354C27.4942 221.133 26.914 222.212 26.6947 223.411C26.3781 226.38 29.167 230.205 29.9525 231.21C30.2287 230.911 30.559 230.681 30.9213 230.536C31.2836 230.391 31.6695 230.333 32.0533 230.368C33.7887 230.368 36.8029 230.66 37.1013 231.509C37.3997 232.359 34.83 238.466 34.4281 242.998C34.0978 246.615 34.6821 250.263 36.1148 253.529C37.1561 255.852 38.9342 259.018 35.993 261.858C34.2698 262.422 27.1453 261.396 22.9559 254.677C19.2354 248.719 20.8977 242.57 21.8355 239.418C22.7732 236.265 21.9512 234.37 21.123 230.49C20.7577 228.798 20.3741 227.528 21.123 225.599C23.6684 222.059 28.3388 220.354 28.3388 220.354Z" fill="black"/>
<path d="M22.9556 254.676C23.5036 252.883 26.0794 250.376 29.3797 249.635C33.4352 248.725 34.8601 249.635 35.7552 251.171C36.5042 252.428 40.5596 259.677 36.1693 261.98C34.7444 262.965 27.8209 262.958 22.9556 254.676Z" fill="#FAFAFA"/>
<path d="M29.9524 231.21C30.2189 231.461 30.396 231.811 30.4517 232.195C30.4606 232.581 30.4154 232.966 30.3178 233.336C30.1351 234.057 29.9828 234.756 29.8245 235.477C29.4957 236.903 29.2156 238.337 28.9416 239.77C28.6895 241.206 28.5066 242.655 28.3935 244.112C28.2799 245.577 28.3126 247.051 28.491 248.508C28.0802 247.082 27.8887 245.589 27.9247 244.091C27.9356 242.597 28.0722 241.107 28.3327 239.641C28.5859 238.18 28.9174 236.737 29.3252 235.32C29.5261 234.641 29.7636 233.907 29.995 233.221C30.1268 232.897 30.2169 232.554 30.263 232.202C30.2556 231.843 30.1469 231.496 29.9524 231.21Z" fill="#263238"/>
<path d="M27.6935 247.381C29.2889 246.633 33.6366 246.402 34.5318 247.924L34.617 248.44C34.7658 247.923 34.7508 247.364 34.5744 246.857C34.2882 245.913 31.3288 244.894 27.6448 246.253C27.2551 246.667 27.2064 247.55 27.6935 247.381Z" fill="#FAFAFA"/>
<path d="M27.8519 243.582C29.4046 242.733 33.3931 242.4 34.3674 243.861V244.282C34.5014 244.075 34.5805 243.83 34.5956 243.576C34.6107 243.321 34.5611 243.067 34.4526 242.842C34.1177 241.918 31.3715 240.865 27.7544 242.455C27.3769 242.896 27.3769 243.779 27.8519 243.582Z" fill="#FAFAFA"/>
<path d="M28.3023 239.729C29.8977 239.05 33.9471 238.88 34.7996 240.443L34.7022 240.945C34.8355 240.755 34.9328 240.537 34.9883 240.303C35.0438 240.069 35.0562 239.826 35.0249 239.587C34.8239 238.581 31.9498 237.379 28.2658 238.602C27.8944 238.996 27.8395 239.886 28.3023 239.729Z" fill="#FAFAFA"/>
<path d="M28.8747 236.462C30.4701 235.783 34.7813 235.559 35.6338 237.142L35.5242 237.644C35.7964 237.23 35.9142 236.714 35.853 236.204C35.6582 235.199 32.5344 234.118 28.8504 235.341C28.4546 235.722 28.3876 236.619 28.8747 236.462Z" fill="#FAFAFA"/>
<path d="M94.365 274.298C92.9705 273.36 91.6735 272.26 90.2852 271.329C88.8635 270.422 87.5396 269.337 86.3393 268.095C84.2142 265.792 82.8502 262.768 81.6567 259.745C81.1042 258.484 80.7264 257.137 80.5363 255.75C80.5323 254.962 80.5934 254.175 80.7189 253.399C80.7188 253.02 80.6944 252.64 80.6459 252.265C80.5972 251.402 80.5485 250.546 80.5058 249.683C80.4023 247.509 80.3231 245.328 80.2562 243.154C80.0552 236.693 79.9578 230.245 79.8969 223.777L64.625 233.004C65.8124 237.705 67.6087 250.043 67.4809 252.666C67.219 257.965 64.6615 264.895 69.1311 268.421C70.014 269.1 71.0248 269.589 71.9504 270.208C74.995 272.205 77.0106 275.643 79.7447 278.082C81.7903 279.896 84.1556 281.209 86.6864 281.934C87.7083 282.35 88.7791 282.597 89.865 282.668C91.261 282.596 92.6496 282.4 94.0179 282.084C94.8725 281.943 95.6975 281.632 96.4536 281.166C96.8302 280.931 97.1548 280.604 97.4034 280.21C97.6521 279.816 97.8186 279.365 97.8907 278.89C97.9131 278.391 97.8363 277.892 97.6658 277.429C97.4952 276.966 97.2352 276.551 96.9042 276.214C96.2363 275.546 95.4957 274.976 94.6999 274.515L94.365 274.298Z" fill="white"/>
<path d="M65.526 265.438C65.252 265.921 65.2276 267.382 65.6234 268.978C66.2323 269.895 67.1944 270.616 69.5449 272.029C71.8954 273.442 72.6504 274.841 73.6917 276.785C74.671 278.582 75.8861 280.206 77.2965 281.601C79.9271 284.217 83.8303 285.678 90.285 285.365C94.3221 285.168 97.6347 283.388 98.5176 282.131C98.7758 281.764 98.9604 281.34 99.0592 280.886C99.1579 280.432 99.1684 279.961 99.09 279.502L65.526 265.438Z" fill="#263238"/>
<path d="M66.6651 253.549C66.6651 252.869 67.274 252.19 67.4628 252.4C67.5054 253.127 67.4019 255.084 67.8464 255.797C69.3463 257.948 71.4794 259.438 73.8687 260.003C73.8687 260.003 73.6556 259.249 75.1535 258.644C76.6515 258.039 80.4573 256.504 81.2428 256.939C82.0283 257.374 82.8016 261.796 85.3409 265.689C87.5901 268.984 90.5762 271.562 93.9998 273.163C96.2833 274.189 98.8712 276.295 98.8225 279.617C96.4355 283.238 90.0905 283.612 86.2421 283.238C79.416 282.559 76.3774 277.871 74.4959 275.052C72.6143 272.232 71.9871 271.797 68.8876 269.385C67.5358 268.339 66.1231 267.585 65.5081 265.458C64.9053 260.234 66.6651 259.398 66.6651 253.549Z" fill="black"/>
<path d="M82.5517 282.349C82.2107 279.631 83.4103 276.105 87.3318 273.924C91.2533 271.743 92.9217 272.239 94.2614 272.803C95.601 273.367 100.253 275.949 99.0232 279.74C98.5178 281.635 90.2972 285.555 82.5517 282.349Z" fill="#FAFAFA"/>
<path d="M73.8926 260.004C74.2594 259.992 74.6178 260.127 74.9034 260.384C75.1543 260.68 75.36 261.02 75.5123 261.39L76.4744 263.469C77.1138 264.827 77.7775 266.186 78.4839 267.545C79.1851 268.878 79.9557 270.165 80.7917 271.397C81.619 272.646 82.571 273.786 83.6293 274.794C82.409 273.993 81.3181 272.969 80.402 271.764C79.4723 270.57 78.6408 269.286 77.9176 267.925C77.1977 266.573 76.5511 265.173 75.9812 263.734C75.6889 263.054 75.421 262.286 75.1896 261.553C75.089 261.194 74.9435 260.853 74.7573 260.54C74.5263 260.265 74.2239 260.078 73.8926 260.004Z" fill="#263238"/>
<path d="M81.7419 274.217C82.9597 272.858 88.3853 270.188 90.1877 270.82L90.6078 271.119C90.4044 270.63 90.0528 270.238 89.6153 270.011C88.775 269.474 84.0741 270.466 81.0355 273.408C80.8711 273.925 81.3339 274.604 81.7419 274.217Z" fill="#FAFAFA"/>
<path d="M79.5314 271.241C80.7493 269.882 85.4806 267.579 87.2831 268.217L87.6362 268.591C87.5658 268.333 87.4468 268.094 87.2872 267.892C87.1276 267.689 86.931 267.527 86.7107 267.416C85.8704 266.879 81.8393 267.49 78.8251 270.432C78.6607 270.942 79.1234 271.621 79.5314 271.241Z" fill="#FAFAFA"/>
<path d="M78.0148 268.102C79.2753 266.743 83.4343 264.766 85.2184 265.459L85.4803 265.88C85.3882 265.422 85.1475 265.018 84.8044 264.745C84.0188 264.107 80.4383 264.433 77.3328 267.28C77.1501 267.782 77.6251 268.469 78.0148 268.102Z" fill="#FAFAFA"/>
<path d="M76.5478 265.391C77.8083 264.032 81.9734 262.055 83.7575 262.748L83.9767 263.21C83.9202 262.744 83.7015 262.322 83.3678 262.035C82.5823 261.396 79.0018 261.722 75.8902 264.562C75.6892 265.072 76.1338 265.758 76.5478 265.391Z" fill="#FAFAFA"/>
<path d="M51.8557 138.621L62.0735 119.761C62.0735 119.761 77.3514 108.517 82.777 101.091C82.777 101.091 89.804 116.867 87.9529 137.262C86.3953 153.222 81.2766 168.492 73.0646 181.675C68.6377 188.639 43.0749 221.141 43.0749 221.141C40.4748 220.978 33.3321 215.876 32.1143 211.833C32.1143 211.833 38.2035 195.059 41.0838 188.965C44.8165 181.009 45.8029 177.286 53.4267 170.159C52.1784 162.488 51.8557 138.621 51.8557 138.621Z" fill="black"/>
<path d="M34.8363 210.291L34.2822 209.972L34.5562 209.388C41.2544 195.005 49.615 177.109 66.5554 171.26L66.738 171.939C50.0473 177.701 41.772 195.46 35.1104 209.728L34.8363 210.291Z" fill="#263238"/>
<path d="M73.3627 133.812L52.4217 157.156C52.5586 161.51 52.9062 165.854 53.463 170.166C51.5715 171.889 49.8061 173.777 48.1836 175.812L56.0996 190.216C55.0401 194.971 55.5577 200.889 56.0631 204.524C63.1145 195.393 70.8479 185.229 73.1131 181.682C75.6834 177.594 77.9481 173.276 79.8843 168.774L76.2308 135.096C76.2308 135.096 81.9729 131.753 83.5927 125.896C80.5968 131.046 73.3627 133.812 73.3627 133.812Z" fill="#263238"/>
<path d="M48.2629 158.738C44.9078 148.234 42.7826 141.583 41.6317 134.225C39.9633 123.749 41.516 117.756 42.8496 114.441C46.7589 104.467 48.9023 101.199 50.3637 97.748C50.3637 97.748 53.3231 104.617 66.683 105.901C81.9731 107.341 83.7756 101.145 83.7756 101.145C83.2884 107.43 84.9508 115.467 83.1971 120.719C79.647 131.195 73.3629 133.811 73.3629 133.811L77.7167 163.175C79.3852 178.583 80.1524 176.015 80.2621 206.303C80.3047 219.599 80.3595 240.694 80.3595 240.694C78.5327 241.985 69.752 243.446 66.5064 241.924C66.5064 241.924 63.2486 228.268 61.3366 219.171C57.683 201.758 57.1898 197.281 58.292 188.944C58.292 188.937 52.1114 170.777 48.2629 158.738Z" fill="black"/>
<path d="M69.2829 242.516C67.7667 234.363 64.7343 217.847 63.419 209.11C62.5318 203.851 62.2922 198.482 62.7065 193.151C62.8391 191.633 62.8818 190.108 62.8344 188.585C62.603 183.517 59.2539 172.402 55.71 160.634C52.5801 150.233 49.3528 139.498 48.4028 133.214H48.7256C49.9904 133.222 51.2188 132.742 52.2025 131.855C55.3385 129.137 57.4819 122.398 58.5597 111.921L57.9508 111.84C56.9035 121.983 54.7844 128.716 51.825 131.305C50.8438 132.207 49.585 132.646 48.3176 132.527C47.0145 122.527 49.3223 115.352 51.3622 109.027C51.9285 107.267 52.4644 105.63 52.915 103.931L52.3061 103.734C51.8615 105.392 51.3257 107.036 50.7655 108.789C48.6769 115.25 46.3142 122.581 47.7208 132.901C48.5733 139.186 51.892 150.206 55.1071 160.865C58.4806 172.075 61.9636 183.659 62.195 188.639C62.2413 190.131 62.2006 191.624 62.0733 193.11C61.654 198.494 61.8999 203.916 62.804 209.225C64.1071 217.894 67.103 234.234 68.6314 242.448L69.2829 242.516Z" fill="#263238"/>
<path d="M66.1412 242.563C66.1412 242.563 68.7413 243.99 74.0938 243.303C79.4463 242.617 80.4388 240.735 80.4388 240.735V231.998C80.4388 231.998 78.4963 234.036 72.9733 234.716C67.1885 235.395 64.5093 234.179 64.5093 234.179L66.1412 242.563Z" fill="black"/>
<path d="M31.8281 212.011C31.8281 212.011 32.0108 216.087 36.4012 219.593C40.7915 223.098 43.0994 221.597 43.0994 221.597L48.0621 214.803C48.0621 214.803 44.4634 216.005 39.9573 212.391C35.2259 208.6 35.0859 203.905 35.0859 203.905L31.8281 212.011Z" fill="black"/>
<path d="M69.0942 57.927C76.5962 57.3495 79.1172 58.8102 82.1862 63.9601C85.3282 69.2458 90.8025 78.0441 95.5338 86.1494L110.038 80.8161L115.044 90.45C115.044 90.45 98.5115 100.023 94.6752 100.743C90.839 101.463 90.1205 100.322 87.3681 97.1421C84.3235 93.616 74.0631 79.7698 74.0631 79.7698L69.0942 57.927Z" fill="white"/>
<path d="M125.651 63.9533L124.726 62.9886C124.587 62.8759 124.426 62.8023 124.256 62.7739C124.087 62.7455 123.914 62.7632 123.751 62.8255L113.284 65.5024C112.752 65.6709 112.259 65.9657 111.838 66.3668C111.418 66.7679 111.08 67.2656 110.848 67.8259L102.542 91.4691C102.445 91.6606 102.402 91.8803 102.418 92.0997C102.434 92.3191 102.509 92.528 102.634 92.6989L103.584 93.6908C103.723 93.8068 103.886 93.8829 104.058 93.9125C104.23 93.9422 104.406 93.9243 104.57 93.8606L115.038 91.1838C115.571 91.0178 116.065 90.7239 116.486 90.3225C116.907 89.9212 117.244 89.4221 117.473 88.8602L125.779 65.217C125.883 65.0193 125.927 64.7893 125.904 64.5614C125.881 64.3336 125.792 64.1202 125.651 63.9533Z" fill="black"/>
<path d="M113.077 67.106C112.526 67.5364 112.09 68.1258 111.816 68.8113L103.504 92.4477C103.414 92.636 103.372 92.8485 103.382 93.0619C103.393 93.2753 103.457 93.4812 103.565 93.657L102.67 92.733C102.543 92.5637 102.466 92.3551 102.449 92.1352C102.431 91.9154 102.475 91.6948 102.573 91.5033L110.879 67.8533C111.137 67.2107 111.539 66.6536 112.048 66.2363L113.077 67.106Z" fill="#263238"/>
<path d="M111.652 73.8395L113.205 69.4166C113.247 69.3116 113.309 69.2182 113.386 69.1431C113.464 69.0679 113.556 69.0129 113.655 68.9818L115.616 68.479C115.799 68.4315 115.89 68.5538 115.817 68.744L114.264 73.1669C114.223 73.2724 114.161 73.3663 114.083 73.4416C114.005 73.5168 113.913 73.5716 113.814 73.6017L111.853 74.1045C111.676 74.152 111.579 74.023 111.652 73.8395Z" fill="black"/>
<path d="M113.259 70.4895C113.373 70.2312 113.534 70.0025 113.732 69.8187C113.931 69.6349 114.162 69.4999 114.41 69.4229C114.879 69.3006 115.123 69.5859 114.958 70.0547C114.845 70.3143 114.684 70.5443 114.486 70.7293C114.288 70.9144 114.056 71.0503 113.807 71.1282C113.338 71.2437 113.095 70.9583 113.259 70.4895Z" fill="#263238"/>
<path d="M112.504 72.7249C112.614 72.4649 112.774 72.2348 112.971 72.0506C113.169 71.8664 113.4 71.7325 113.649 71.6582C114.118 71.5359 114.368 71.8213 114.197 72.29C114.087 72.55 113.928 72.7801 113.73 72.9643C113.533 73.1485 113.301 73.2824 113.052 73.3567C112.608 73.479 112.334 73.1937 112.504 72.7249Z" fill="#263238"/>
<path d="M71.4019 57.0371C74.0568 57.4108 77.144 57.4312 80.5358 60.9573C83.1359 63.6409 87.3618 70.8901 89.8645 74.885C88.1534 83.0786 80.1826 89.8319 76.9431 90.7694L73.5636 85.2255L71.4019 57.0371Z" fill="#F0F0F0"/>
<path d="M123.568 78.2482C124.738 76.7875 124.665 76.5633 124.177 75.6937C123.825 74.9992 123.33 74.4079 122.733 73.9686C122.136 73.5292 121.454 73.2542 120.743 73.1663C119.489 73.0576 118.234 72.8742 117.552 73.1663C116.87 73.4584 117.272 75.0347 118.855 75.6461C121.358 76.5973 121.291 77.3718 121.291 77.3718C120.226 76.9585 119.143 76.607 118.045 76.3187C117.102 76.1489 115.324 76.441 114.221 76.4954C113.119 76.5497 112.76 78.0852 114.538 78.8461L112.523 78.9548C111.116 79.0295 110.562 79.7973 111.554 80.8911C111.881 81.2634 112.309 81.5027 112.772 81.5705C112.772 81.5705 111.292 81.3871 111.213 81.9306C110.97 83.4932 111.822 84.0164 114.733 85.3276C117.485 86.5981 117.905 88.3781 117.223 89.4923C117.223 89.4923 118.441 88.8877 119.537 88.2219C120.341 87.7395 121.041 87.1688 120.828 85.8236C120.828 85.8236 122.454 86.0614 122.655 84.9471C122.762 84.1264 122.708 83.2897 122.497 82.4945C122.807 82.348 123.074 82.1061 123.266 81.7969C123.458 81.4878 123.567 81.1242 123.581 80.7484C123.653 80.0381 123.512 79.321 123.179 78.7102L123.568 78.2482Z" fill="white"/>
<path d="M114.508 78.8462C115.115 78.7778 115.727 78.7778 116.335 78.8462C116.931 79.0204 117.498 79.3002 118.015 79.6751C119.056 80.3316 120.044 81.0862 120.969 81.9307C119.855 81.4493 118.78 80.8653 117.753 80.1846C117.272 79.8372 116.765 79.5372 116.237 79.2878C115.701 79.1248 115.08 79.0364 114.508 78.8462Z" fill="white"/>
<path d="M112.729 81.5713C113.382 81.4473 114.051 81.5056 114.678 81.7411C115.298 81.9704 115.897 82.2639 116.468 82.6175C117.606 83.3031 118.675 84.1207 119.659 85.0566C118.483 84.4827 117.335 83.8409 116.219 83.1339C115.153 82.3751 113.97 81.8452 112.729 81.5713Z" fill="white"/>
<path d="M65.495 56.4531C65.495 56.4531 48.3477 57.1325 44.9803 57.8119C42.9708 58.2264 39.8409 61.569 39.6644 74.5796C39.5547 82.6781 38.2212 107.755 38.2212 107.755C47.7022 116.866 79.1776 113.571 83.4218 107.959C83.4218 107.959 83.0139 94.9481 82.8982 89.0237C82.8982 89.0237 84.8163 84.4717 84.7797 80.7554C84.7188 75.3201 83.8116 73.2819 79.683 66.9295C77.3005 63.2621 74.5187 59.9393 71.4016 57.0374L65.495 56.4531Z" fill="#FAFAFA"/>
<path d="M82.2652 71.1009C80.816 70.8767 77.3512 70.5914 70.3972 71.2911C65.178 71.7851 59.9891 72.6199 54.8574 73.7914C54.145 78.9073 54.7722 85.7488 55.7708 89.8524C55.7708 89.8524 62.0793 87.8142 72.4189 86.7951C76.1751 86.4517 79.9496 86.4336 83.7084 86.7408C84.3574 84.8247 84.7194 82.8025 84.7801 80.7552C84.7374 76.6992 84.2199 74.5523 82.2652 71.1009Z" fill="black"/>
<path d="M64.3804 79.2132C64.171 79.2796 63.9471 79.2573 63.7515 79.1507C63.556 79.0442 63.4026 78.8607 63.3208 78.6357C63.3208 78.5066 63.3209 77.9563 63.5157 77.902C63.5054 77.9326 63.5054 77.9664 63.5157 77.9971C63.5157 78.0718 63.6436 78.0718 63.7715 78.0446C64.423 77.8816 66.1097 75.3746 66.0123 74.6816C66.0123 74.5389 65.8905 74.471 65.6957 74.5118C64.7275 74.7292 62.8824 76.3393 61.5915 78.2824C60.2031 80.3614 59.1558 83.2285 59.4055 85.0765C59.4109 85.2402 59.4514 85.4001 59.5236 85.5428C59.5957 85.6854 59.6975 85.8068 59.8203 85.8966C59.9431 85.9864 60.0834 86.042 60.2295 86.0589C60.3756 86.0758 60.5231 86.0534 60.6598 85.9937C62.6571 85.4365 65.4947 81.2378 65.4947 80.9389C65.4947 80.8913 65.4947 80.8642 65.5556 80.8574C65.6165 80.8506 65.7626 80.9457 65.7931 81.1563C65.8364 81.553 65.8486 81.953 65.8296 82.3521C65.8296 83.0315 63.8567 86.544 60.6477 87.434C60.3508 87.4972 60.0456 87.493 59.7502 87.4215C59.4549 87.3501 59.1755 87.2129 58.9287 87.0182C58.682 86.8234 58.473 86.5752 58.3143 86.2882C58.1556 86.0013 58.0503 85.6816 58.0049 85.3482C57.3655 81.0204 61.7072 73.9546 65.7566 73.0578C66.3289 72.9287 67.4372 73.1665 67.5833 74.1041C67.7965 75.7347 65.4399 78.9618 64.3804 79.2132Z" fill="#FAFAFA"/>
<path d="M73.5028 82.6308C73.53 82.7604 73.53 82.8953 73.5028 83.0249C73.3566 83.5277 72.3519 85.165 71.2923 85.3417C71.1495 85.3796 71.0012 85.3851 70.8564 85.3578C70.7116 85.3306 70.5732 85.2712 70.4494 85.1831C70.3256 85.095 70.2189 84.98 70.1356 84.8451C70.0524 84.7101 69.9943 84.5578 69.9649 84.3973C69.8773 83.854 69.9171 83.2946 70.0806 82.7735C69.4717 84.0032 68.3939 85.9192 67.3769 86.1298C67.2443 86.1558 67.1082 86.1516 66.977 86.1175C66.8458 86.0833 66.7222 86.0199 66.6135 85.9311C66.5049 85.8422 66.4135 85.7297 66.3448 85.6004C66.2761 85.4711 66.2316 85.3276 66.2139 85.1786C66.0312 83.9081 66.8654 81.6865 67.1273 80.8916C67.6753 79.2338 67.8763 78.5272 68.3086 78.4389C68.441 78.4414 68.5698 78.4879 68.6783 78.5727C68.7868 78.6574 68.8702 78.7765 68.9175 78.9145C68.9602 79.2202 67.4013 83.4325 67.517 84.2003C67.517 84.2886 67.5596 84.3293 67.6205 84.3158C68.1868 84.2003 70.5129 80.0083 70.6651 79.3765C70.7899 78.8703 70.9962 78.3938 71.2741 77.9701C71.5219 77.763 71.8096 77.6234 72.1144 77.5625H72.2484C72.3275 77.5625 72.4676 77.8207 72.4858 77.909C72.017 79.492 71.7247 80.1578 71.5968 80.6266C71.4385 81.2177 70.9879 82.889 71.0731 83.6092C71.0731 83.8402 71.1949 83.9761 71.3776 83.9421C72.0352 83.7247 72.8512 82.1281 72.973 81.9582C73.0156 81.9041 73.0737 81.8681 73.1374 81.8563C73.1799 81.8496 73.2231 81.8604 73.2589 81.8867C73.2948 81.9129 73.3208 81.9529 73.3323 81.999C73.3931 82.1281 73.4662 82.393 73.5028 82.6308Z" fill="#FAFAFA"/>
<path d="M74.964 76.2032C74.964 76.2032 73.7827 76.5225 73.6061 76.5497H73.5391C73.3138 76.5837 72.8632 76.5497 72.8145 76.21C72.8145 76.0809 72.9789 75.9247 73.0032 75.7344C73.0276 75.5442 73.6426 74.9599 73.8983 74.8988C74.1541 74.8376 74.5803 74.7697 74.9213 74.7085C75.6642 74.5726 75.3111 74.8376 75.6338 74.5794C75.9565 74.3213 76.1514 73.3429 76.4802 72.7926C76.5594 72.6431 76.5654 72.6024 76.7359 72.582C76.9064 72.5616 76.9734 72.5005 77.1013 72.4869C77.2292 72.4733 77.3144 72.5548 77.4423 72.548C77.5702 72.5412 77.6432 72.6703 77.6615 72.7722C77.4885 73.3203 77.2852 73.8558 77.0526 74.3756C77.15 74.3756 77.6615 74.2601 77.832 74.2397C77.9778 74.223 78.1247 74.223 78.2704 74.2397C78.4775 74.3145 78.5688 74.5523 78.7637 74.6813C78.8084 74.7026 78.8475 74.7362 78.8773 74.779C78.9071 74.8218 78.9267 74.8724 78.9342 74.9259C78.9829 75.286 78.6114 75.4695 78.374 75.517C77.6554 75.6665 77.0952 75.816 76.3706 75.945C75.9382 77.0049 74.2393 81.8151 74.2576 82.7391C74.2504 82.8544 74.2504 82.9702 74.2576 83.0856C74.3063 83.4388 74.4586 83.5068 74.7082 83.4728C75.4755 83.3709 76.602 81.4346 76.8029 81.4346C77.0039 81.4346 77.1013 82.0597 77.1257 82.2227C77.15 82.3715 77.1404 82.5248 77.0979 82.6684C77.0553 82.8121 76.9811 82.9415 76.8821 83.0448C76.4193 83.6223 75.5668 84.7909 74.6534 84.9132H74.4281C74.2378 84.9232 74.0475 84.8904 73.8688 84.8166C73.6901 84.7428 73.5265 84.6297 73.3878 84.4838C73.2492 84.338 73.1383 84.1625 73.0617 83.9678C72.9852 83.7731 72.9446 83.5631 72.9423 83.3505C72.7901 81.9102 74.4281 77.5348 74.964 76.2032Z" fill="#FAFAFA"/>
<path d="M80.1152 78.6491C79.8656 78.6491 79.8108 78.5268 79.7742 78.2686C79.765 78.1897 79.765 78.1098 79.7742 78.0309C79.5595 78.1436 79.3555 78.2801 79.1653 78.4385C78.9339 78.6219 77.9475 79.5323 78.0023 79.8652C78.0023 79.9332 78.1362 79.9196 78.1667 79.9196C78.599 79.8788 78.9156 79.5459 79.3175 79.512C79.3722 79.5052 79.4273 79.5052 79.482 79.512C79.6745 79.6472 79.8236 79.847 79.9082 80.0827C79.9082 80.2321 79.7742 80.402 79.689 80.5039C79.488 80.7417 79.2201 80.7824 78.9948 80.9591C78.7695 81.1357 77.4664 82.1684 77.5273 82.5693C77.6186 83.2011 78.2641 83.2079 78.6843 83.1671C79.8473 83.0652 80.7729 81.7472 81.4122 81.0746C81.4597 81.0239 81.5186 80.9886 81.5827 80.9727C81.7898 80.9727 81.8689 81.5094 81.8933 81.6521C81.9175 81.814 81.9175 81.9793 81.8933 82.1412C81.8423 82.3135 81.7521 82.468 81.6315 82.5896C80.8528 83.5654 79.7931 84.207 78.6355 84.4037C77.6917 84.4852 76.4008 84.2949 76.1998 82.9769C76.0537 81.985 76.7479 81.326 77.4481 80.9387C76.9793 80.7553 76.8879 80.4156 76.8392 79.94C76.5835 78.1735 79.0435 76.6313 80.3953 76.543C80.6754 76.543 81.2174 76.6449 81.2783 77.0321C81.302 77.2244 81.2904 77.42 81.2441 77.6071C81.1978 77.7941 81.1177 77.9687 81.0088 78.1201C80.9 78.2714 80.7646 78.3964 80.6109 78.4874C80.4573 78.5783 80.2886 78.6334 80.1152 78.6491Z" fill="#FAFAFA"/>
<path d="M39.6641 74.5801C39.6641 77.3452 39.5971 80.1172 39.524 82.8824C39.4509 85.6475 39.3474 88.4195 39.2439 91.1847L38.9273 99.4802L38.5254 107.776L38.4219 107.511C39.9357 108.847 41.6486 109.875 43.482 110.548C45.323 111.247 47.2104 111.783 49.1268 112.151C52.9795 112.868 56.8823 113.195 60.7877 113.129C64.7016 113.111 68.609 112.774 72.4791 112.124C74.4135 111.797 76.3288 111.344 78.2152 110.765C78.6902 110.622 79.153 110.439 79.6158 110.283C80.0786 110.126 80.5413 109.923 80.9798 109.685C81.8905 109.296 82.7197 108.701 83.4155 107.939C82.73 108.742 81.8999 109.374 80.9798 109.794C80.5413 110.052 80.0724 110.222 79.6218 110.439C79.1712 110.656 78.6963 110.819 78.2274 110.976C76.345 111.62 74.4268 112.126 72.4852 112.491C68.6053 113.229 64.6805 113.636 60.7451 113.707C56.8053 113.8 52.8659 113.497 48.9746 112.803C47.0189 112.448 45.0953 111.9 43.2263 111.166C41.331 110.453 39.5627 109.375 38.0017 107.98L37.8921 107.878V107.715L38.8055 91.1371C39.1221 85.634 39.4631 80.1376 39.6641 74.5801Z" fill="#E0E0E0"/>
<path d="M79.117 15.8114C73.4175 7.94389 65.7633 6.2318 58.6266 8.09336C54.4007 9.19399 49.9981 11.9795 48.7681 16.9256C45.2485 16.9256 42.8798 21.0903 42.4596 28.6181C42.0395 36.1459 41.9359 48.4703 43.5131 51.1131C45.0902 53.756 46.4055 54.3403 47.4589 54.7547C46.4359 53.6065 45.4799 50.6783 45.4799 50.6783C45.4799 50.6783 46.5942 52.9 49.6876 54.5985C52.2877 56.0252 54.559 56.6367 58.5657 56.7861C63.4372 56.9696 68.1929 56.2019 70.4581 55.0876C69.8763 54.8106 69.3493 54.4081 68.9073 53.9033C68.4653 53.3985 68.117 52.8012 67.8823 52.1458C67.8823 52.1458 70.0379 55.2031 74.5805 53.6201C72.5832 53.1446 71.4506 50.4541 71.408 45.8681C71.408 44.4482 71.408 41.1123 71.408 37.1786C73.8437 35.9353 76.4377 35.3985 77.8931 32.3005C78.9083 29.9781 79.1438 27.3266 78.5568 24.827C79.0967 25.3221 79.5317 25.9444 79.8307 26.6491C80.1297 27.3539 80.2852 28.1237 80.2862 28.9035C82.3139 24.895 81.7537 19.4326 79.117 15.8114Z" fill="black"/>
<path d="M74.5742 53.6747C73.1676 53.3418 72.1933 51.9082 71.7244 49.4963C70.6357 48.9461 69.6228 48.2255 68.7164 47.3562C68.9273 48.4866 69.2907 49.5747 69.7942 50.5834C68.7047 50.1188 67.7045 49.4271 66.8469 48.5452C67.0479 48.749 67.1027 49.6662 67.1819 49.9651C67.261 50.2641 67.4315 50.6445 67.3341 50.9163C65.7568 49.968 64.2391 48.9011 62.7915 47.7231C62.87 48.9303 63.327 50.068 64.0824 50.9367C62.5834 50.2419 61.1546 49.372 59.8199 48.3413C60.1118 49.6894 60.688 50.9402 61.5006 51.9897C59.7215 51.2614 58.0614 50.2125 56.5865 48.8849C57.0541 50.0583 57.5954 51.1935 58.2063 52.2819C57.0385 51.8117 55.9294 51.177 54.9059 50.3931C55.1495 51.0725 55.3991 51.7519 55.6488 52.4313C53.3504 51.4567 51.4611 49.5595 50.3511 47.1116C50.3246 48.7449 50.609 50.3658 51.1853 51.8674C48.8474 50.6563 46.9047 48.6643 45.6258 46.1673C45.4285 47.0851 45.4579 48.0454 45.7111 48.946C44.4594 47.8129 43.5986 46.2306 43.2754 44.4688C43.1063 45.669 43.1876 46.8965 43.5129 48.056C43.0188 47.3615 42.6525 46.5649 42.4351 45.7121C42.636 48.2462 42.977 50.2301 43.5068 51.1473C45.0839 53.7902 46.3992 54.3744 47.4526 54.7889C46.4296 53.6407 45.4736 50.7125 45.4736 50.7125C45.4736 50.7125 46.5879 52.9341 49.6813 54.6326C52.2814 56.0594 54.5527 56.6708 58.5595 56.8203C63.4309 57.0037 68.1866 56.236 70.4518 55.1218C69.87 54.8448 69.343 54.4423 68.901 53.9374C68.459 53.4326 68.1107 52.8354 67.876 52.18C67.876 52.18 70.0499 55.2577 74.5742 53.6747Z" fill="black"/>
<path opacity="0.3" d="M74.5742 53.6747C73.1676 53.3418 72.1933 51.9082 71.7244 49.4963C70.6357 48.9461 69.6228 48.2255 68.7164 47.3562C68.9273 48.4866 69.2907 49.5747 69.7942 50.5834C68.7047 50.1188 67.7045 49.4271 66.8469 48.5452C67.0479 48.749 67.1027 49.6662 67.1819 49.9651C67.261 50.2641 67.4315 50.6445 67.3341 50.9163C65.7568 49.968 64.2391 48.9011 62.7915 47.7231C62.87 48.9303 63.327 50.068 64.0824 50.9367C62.5834 50.2419 61.1546 49.372 59.8199 48.3413C60.1118 49.6894 60.688 50.9402 61.5006 51.9897C59.7215 51.2614 58.0614 50.2125 56.5865 48.8849C57.0541 50.0583 57.5954 51.1935 58.2063 52.2819C57.0385 51.8117 55.9294 51.177 54.9059 50.3931C55.1495 51.0725 55.3991 51.7519 55.6488 52.4313C53.3504 51.4567 51.4611 49.5595 50.3511 47.1116C50.3246 48.7449 50.609 50.3658 51.1853 51.8674C48.8474 50.6563 46.9047 48.6643 45.6258 46.1673C45.4285 47.0851 45.4579 48.0454 45.7111 48.946C44.4594 47.8129 43.5986 46.2306 43.2754 44.4688C43.1063 45.669 43.1876 46.8965 43.5129 48.056C43.0188 47.3615 42.6525 46.5649 42.4351 45.7121C42.636 48.2462 42.977 50.2301 43.5068 51.1473C45.0839 53.7902 46.3992 54.3744 47.4526 54.7889C46.4296 53.6407 45.4736 50.7125 45.4736 50.7125C45.4736 50.7125 46.5879 52.9341 49.6813 54.6326C52.2814 56.0594 54.5527 56.6708 58.5595 56.8203C63.4309 57.0037 68.1866 56.236 70.4518 55.1218C69.87 54.8448 69.343 54.4423 68.901 53.9374C68.459 53.4326 68.1107 52.8354 67.876 52.18C67.876 52.18 70.0499 55.2577 74.5742 53.6747Z" fill="white"/>
<path d="M52.8418 53.8242C52.8418 52.1733 52.5617 43.8914 52.5617 43.8914C52.5008 44.5096 49.8215 46.2217 47.3919 43.0557C44.9623 39.8897 44.7613 36.4927 46.174 34.3186C47.7512 31.9135 51.3012 32.0154 52.7505 35.9016C55.0705 36.4859 56.0996 32.5046 54.2971 28.7611C54.425 23.9373 58.858 24.1547 61.044 17.8906C66.6401 21.111 71.7977 18.4817 75.3721 23.1492C76.115 25.4864 76.6996 29.1551 76.7604 35.6978C76.8518 46.3712 75.0067 48.9257 72.4127 50.2506C70.866 51.0319 68.9662 51.2629 66.0129 51.0183L66.1712 53.7767C66.2382 55.1355 66.1347 55.7469 67.3403 56.1886C68.1502 56.4807 69.7761 56.868 69.7761 56.868C69.7761 56.868 73.2896 60.5231 65.6232 61.7461C54.1814 63.5669 47.8912 57.4319 47.8912 57.4319C47.8912 57.4319 48.6706 57.2824 50.6192 56.8748C52.5678 56.4671 52.8418 55.4752 52.8418 53.8242Z" fill="white"/>
<path d="M47.5017 35.0246C47.5017 35.1021 47.4741 35.1764 47.425 35.2312C47.3759 35.286 47.3093 35.3168 47.2399 35.3168C47.1704 35.3168 47.1038 35.286 47.0547 35.2312C47.0056 35.1764 46.978 35.1021 46.978 35.0246C46.9793 34.8031 46.9269 34.5853 46.8265 34.3942C46.726 34.2032 46.5811 34.0459 46.4071 33.9392C46.2331 33.8324 46.0365 33.78 45.8381 33.7876C45.6396 33.7952 45.4467 33.8625 45.2797 33.9823C45.1127 34.1022 44.9778 34.2701 44.8893 34.4684C44.8008 34.6667 44.7619 34.8881 44.7768 35.109C44.7918 35.3299 44.8599 35.5422 44.974 35.7235C45.0881 35.9048 45.2441 36.0483 45.4253 36.1389C45.3823 36.3313 45.3498 36.5264 45.3278 36.7231C45.0494 36.6101 44.8041 36.4139 44.6187 36.1561C44.4332 35.8982 44.3147 35.5886 44.2761 35.2608C44.2374 34.9331 44.28 34.5998 44.3994 34.2972C44.5187 33.9946 44.7101 33.7343 44.9528 33.5447C45.1955 33.355 45.4802 33.2433 45.7759 33.2217C46.0715 33.2 46.3669 33.2693 46.6297 33.4219C46.8925 33.5745 47.1128 33.8046 47.2666 34.0872C47.4203 34.3698 47.5016 34.6941 47.5017 35.0246Z" fill="#FAFAFA"/>
<path d="M46.9167 38.3002C46.8599 38.3425 46.7906 38.3583 46.7235 38.3443C46.6564 38.3304 46.5968 38.2877 46.5575 38.2255C46.392 37.9586 46.1401 37.774 45.8549 37.7106C45.5697 37.6472 45.2735 37.71 45.0291 37.8858C44.9093 37.9753 44.8066 38.0904 44.7269 38.2245C44.6473 38.3586 44.5923 38.509 44.5651 38.6669C44.5379 38.8249 44.5391 38.9873 44.5686 39.1448C44.598 39.3023 44.6552 39.4516 44.7368 39.5843C44.8979 39.8533 45.1471 40.0411 45.431 40.1074C45.538 40.1243 45.6466 40.1243 45.7537 40.1074C45.8146 40.2909 45.8876 40.4743 45.9668 40.6577C45.8562 40.6978 45.7417 40.7228 45.6258 40.7325C45.5226 40.7455 45.4184 40.7455 45.3153 40.7325C45.1056 40.6902 44.9058 40.601 44.7279 40.4702C44.5499 40.3395 44.3976 40.1698 44.2801 39.9715C44.0399 39.572 43.9512 39.0826 44.0333 38.6103C44.1155 38.1381 44.3618 37.7212 44.7185 37.451C44.8867 37.3261 45.0748 37.2384 45.2726 37.1928C45.5918 37.1115 45.9256 37.14 46.23 37.2747C46.5344 37.4093 46.7951 37.6437 46.9776 37.9469C47.0043 38.0049 47.0127 38.0712 47.0017 38.1353C46.9907 38.1993 46.9608 38.2573 46.9167 38.3002Z" fill="#FAFAFA"/>
<path d="M49.237 41.9749C49.2479 42.2305 49.3264 42.4769 49.4626 42.6829C49.5987 42.889 49.7864 43.0455 50.0021 43.1328C50.2178 43.2201 50.4518 43.2342 50.6746 43.1735C50.8975 43.1128 51.0993 42.9799 51.2546 42.7915C51.41 42.6031 51.5119 42.3677 51.5476 42.1148C51.5833 41.862 51.5512 41.603 51.4553 41.3704C51.3594 41.1379 51.204 40.9422 51.0086 40.808C50.8133 40.6737 50.5867 40.607 50.3574 40.6161C50.2033 40.6212 50.0517 40.6607 49.9115 40.7322C49.7713 40.8037 49.6453 40.9058 49.5409 41.0323C49.4365 41.1589 49.3558 41.3075 49.3037 41.4694C49.2515 41.6312 49.2288 41.8031 49.237 41.9749Z" fill="black"/>
<path d="M63.0407 41.085L67.1875 42.5185C67.116 42.8289 66.989 43.1201 66.8141 43.3743C66.6392 43.6286 66.4201 43.8408 66.1698 43.9982C65.9196 44.1556 65.6434 44.2549 65.3578 44.2902C65.0723 44.3254 64.7833 44.2959 64.5083 44.2034C63.949 43.9974 63.4834 43.557 63.2096 42.9751C62.9358 42.3933 62.8752 41.7156 63.0407 41.085Z" fill="#B16668"/>
<path d="M63.2847 42.1512C63.8399 42.1214 64.387 42.3087 64.8316 42.6808C65.2763 43.0528 65.5906 43.5864 65.7204 44.1894C65.3235 44.3248 64.8994 44.3248 64.5026 44.1894C64.1034 44.0436 63.7492 43.7749 63.481 43.4143C63.2127 43.0537 63.0412 42.6158 62.9863 42.1512C63.0857 42.1449 63.1853 42.1449 63.2847 42.1512Z" fill="white"/>
<path d="M75.0186 27.1024L71.6938 26.7287C71.7043 26.4859 71.759 26.248 71.8547 26.0296C71.9503 25.8112 72.0849 25.6169 72.2502 25.4585C72.4155 25.3001 72.6081 25.1811 72.816 25.1086C73.024 25.0361 73.243 25.0118 73.4597 25.037C73.907 25.0935 74.3179 25.3391 74.6079 25.7233C74.8978 26.1074 75.0448 26.601 75.0186 27.1024Z" fill="black"/>
<path d="M59.2779 27.4764L62.5905 26.7155C62.5571 26.4724 62.4797 26.2394 62.3628 26.0309C62.246 25.8223 62.0922 25.6426 61.9109 25.5026C61.7296 25.3627 61.5247 25.2655 61.3086 25.2171C61.0925 25.1686 60.8698 25.1699 60.6541 25.2208C60.2104 25.3305 59.8209 25.625 59.5652 26.0441C59.3094 26.4633 59.2067 26.9756 59.2779 27.4764Z" fill="black"/>
<path d="M71.2986 31.7976C71.278 32.2109 71.4015 32.6171 71.6433 32.9312C71.885 33.2452 72.2263 33.4428 72.5956 33.4825C72.7731 33.504 72.9527 33.4858 73.1238 33.4288C73.2948 33.3718 73.454 33.2772 73.5918 33.1506C73.7297 33.024 73.8435 32.868 73.9265 32.6916C74.0095 32.5153 74.0601 32.3222 74.0753 32.1237C74.0975 31.711 73.9754 31.3048 73.7346 30.9905C73.4939 30.6763 73.1532 30.4785 72.7844 30.4388C72.6067 30.4181 72.4271 30.437 72.256 30.4943C72.0849 30.5516 71.9257 30.6461 71.7875 30.7725C71.6494 30.8988 71.535 31.0545 71.4511 31.2304C71.3672 31.4064 71.3153 31.5991 71.2986 31.7976Z" fill="#263238"/>
<path d="M61.2145 32.1718C61.1923 32.5845 61.3144 32.9907 61.5552 33.3049C61.7959 33.6192 62.1366 33.817 62.5054 33.8567C62.6831 33.8773 62.8627 33.8585 63.0338 33.8012C63.2049 33.7439 63.3641 33.6494 63.5023 33.523C63.6404 33.3967 63.7548 33.241 63.8387 33.0651C63.9226 32.8891 63.9745 32.6963 63.9912 32.4979C64.0181 32.0768 63.8951 31.6608 63.6489 31.3403C63.4026 31.0198 63.053 30.8205 62.6759 30.7858C62.498 30.7672 62.3185 30.7885 62.148 30.8485C61.9775 30.9085 61.8196 31.006 61.6834 31.1351C61.5472 31.2643 61.4355 31.4225 61.355 31.6006C61.2745 31.7786 61.2267 31.9728 61.2145 32.1718Z" fill="#263238"/>
<path d="M57.1955 28.5029L49.0298 32.7424C49.9334 32.7671 50.7985 33.1556 51.4655 33.8362L57.4634 30.6091L57.1955 28.5029Z" fill="black"/>
<path opacity="0.1" d="M57.1955 28.5029L49.0298 32.7424C49.9334 32.7671 50.7985 33.1556 51.4655 33.8362L57.4634 30.6091L57.1955 28.5029Z" fill="#18191F"/>
<path d="M78.7089 27.8777C76.6325 27.6127 73.8375 27.538 72.096 28.1495C70.1718 28.8289 69.4776 29.6102 68.4424 29.6373C67.4072 29.6645 66.6156 28.9579 64.5696 28.2785C62.9438 27.7894 60.228 27.9117 58.1515 28.197C57.4391 28.197 56.7875 28.462 56.7632 29.515C56.8423 30.5138 57.4208 30.6632 57.5609 31.4717C57.8897 34.2505 58.3403 37.797 61.5981 37.9464C68.2963 38.3473 66.165 31.0709 68.6312 31.4242C69.5202 31.6416 69.3862 33.5575 69.9282 34.9231C70.1349 35.4626 70.4164 35.9624 70.7624 36.4042C72.9485 38.9723 77.1074 37.5184 77.7468 34.9503C78.3009 33.673 78.2096 31.628 78.7942 30.5274C79.2874 30.045 79.7258 28.1562 78.7089 27.8777ZM65.9641 33.639C65.806 34.3967 65.4793 35.0977 65.0141 35.6772C64.6541 36.0851 64.2217 36.4046 63.7446 36.6152C63.2675 36.8257 62.7562 36.9228 62.2435 36.9002C60.7943 36.9002 59.345 36.1528 58.9675 34.5834C58.9188 34.4407 58.8762 34.298 58.8335 34.1554C58.5473 32.9936 58.1637 30.5274 58.7239 29.814C59.7347 28.6182 64.5514 28.6862 65.9641 30.4934C66.3294 31.1456 66.2076 32.4908 65.9641 33.639ZM77.418 32.9596C77.2597 33.7681 76.9004 35.5074 75.512 36.2955C73.6853 37.335 71.1278 36.2955 70.7442 34.3048C69.6481 30.1401 71.1034 29.1686 74.824 28.7405C77.899 28.7337 78.0513 29.617 77.418 32.9664V32.9596Z" fill="black"/>
<path d="M77.4181 32.9663C77.2597 33.7748 76.9005 35.5141 75.5121 36.3022C73.6853 37.3417 71.1278 36.3022 70.7442 34.3115C69.6482 30.1468 71.1035 29.1752 74.824 28.7472C77.8991 28.7336 78.0513 29.6169 77.4181 32.9663Z" fill="black"/>
<path d="M65.9641 33.6388C65.8061 34.3965 65.4794 35.0975 65.0142 35.677C64.6542 36.0848 64.2218 36.4043 63.7446 36.6149C63.2675 36.8255 62.7563 36.9226 62.2436 36.8999C60.7943 36.8999 59.3451 36.1526 58.9676 34.5831C58.9188 34.4405 58.8762 34.2978 58.8336 34.1551C58.5474 32.9933 58.1638 30.5271 58.724 29.8137C59.7348 28.618 64.5514 28.6859 65.9641 30.4931C66.3295 31.1454 66.2077 32.4906 65.9641 33.6388Z" fill="black"/>
<path d="M62.5785 29.0944C60.9405 28.9245 59.272 29.1963 58.724 29.8485C58.176 30.5007 58.5474 33.0281 58.8336 34.1899C58.8336 34.2578 58.8762 34.3326 58.9006 34.4005C59.3972 34.3665 59.8881 34.2638 60.362 34.0948C60.6665 33.9861 61.0501 33.8638 61.2693 34.0948C61.3454 34.2264 61.3858 34.3797 61.3858 34.5364C61.3858 34.693 61.3454 34.8463 61.2693 34.978C60.9656 35.4612 60.8058 36.0388 60.8126 36.6289C61.2788 36.8087 61.7686 36.9006 62.2619 36.9007C62.7746 36.9234 63.2858 36.8263 63.7629 36.6157C64.24 36.4051 64.6725 36.0856 65.0325 35.6778C65.1867 35.4899 65.3234 35.285 65.4405 35.0663C64.8746 35.3829 64.2462 35.5348 63.6137 35.5079C63.3948 35.5294 63.1769 35.4565 63.0048 35.3041C62.9284 35.183 62.8801 35.0427 62.8641 34.8957C62.8482 34.7487 62.8651 34.5996 62.9134 34.4616C63.1095 33.7135 63.4434 33.0193 63.8938 32.4234C64.0348 32.2504 64.1463 32.0501 64.2226 31.8324C64.2591 31.7229 64.2634 31.6034 64.2349 31.491C64.2065 31.3786 64.1467 31.2793 64.0643 31.2073C63.9789 31.1652 63.8866 31.1434 63.7933 31.1434C63.7 31.1434 63.6077 31.1652 63.5223 31.2073C63.0735 31.337 62.6416 31.5311 62.2375 31.7848C61.9818 31.9479 61.6286 32.1381 61.4094 31.9411C61.3478 31.8817 61.2992 31.8073 61.2675 31.7237C61.2359 31.64 61.2219 31.5493 61.2267 31.4587C61.2725 30.9914 61.4593 30.5554 61.7565 30.2222C61.9818 29.8621 62.274 29.4748 62.5785 29.0944Z" fill="black"/>
<path d="M76.6811 34.6173C76.5125 34.7012 76.3299 34.7446 76.1453 34.7446C75.9606 34.7446 75.778 34.7012 75.6094 34.6173C75.528 34.578 75.4612 34.5084 75.4206 34.4203C75.3992 34.3382 75.3992 34.251 75.4206 34.1689C75.5306 33.5877 75.7371 33.0347 76.0296 32.5383C76.1712 32.3029 76.2298 32.0174 76.194 31.7367C76.1248 31.5569 76.006 31.4066 75.8548 31.3076C75.7036 31.2086 75.528 31.1661 75.3537 31.1863C75.0066 31.1863 74.6656 31.3358 74.3185 31.3562C74.1325 31.3795 73.9455 31.3237 73.7948 31.1999C73.7102 31.1172 73.6477 31.0099 73.6144 30.89C73.5811 30.7701 73.5782 30.6422 73.6061 30.5205C73.6484 30.2896 73.7312 30.0703 73.8496 29.8751C74.0708 29.48 74.3301 29.1132 74.623 28.7812C71.4444 29.1821 70.0134 30.0449 70.5188 33.1498C70.6179 33.2314 70.724 33.3019 70.8354 33.3604C71.3332 33.5919 71.8858 33.6325 72.4065 33.4759C72.8536 33.2884 73.3239 33.1784 73.8009 33.1498C73.974 33.1531 74.1403 33.2254 74.2698 33.3536C74.3486 33.4585 74.4032 33.5833 74.4287 33.7172C74.4541 33.851 74.4498 33.9898 74.4159 34.1214C74.3265 34.5066 74.187 34.8751 74.0019 35.2152C73.8224 35.5584 73.722 35.9459 73.7096 36.343C73.7129 36.4687 73.7356 36.5928 73.7766 36.7099C74.3845 36.7509 74.9914 36.6126 75.5363 36.309C76.2189 35.8984 76.7495 35.2319 77.0343 34.4271C76.9226 34.5036 76.8043 34.5673 76.6811 34.6173Z" fill="black"/>
<path d="M72.4553 37.783L67.9614 39.9027L67.5474 32.0964C67.6142 31.9194 67.7202 31.7642 67.8555 31.6453C67.9907 31.5265 68.1508 31.4479 68.3207 31.417L69.4716 33.2582L72.2848 37.5588L72.4553 37.783Z" fill="white"/>
<path d="M66.031 51.0388C60.7334 50.4884 55.6793 48.6065 54.4614 45.9229C54.4614 45.9229 54.4614 48.8647 56.6231 50.2506C59.6678 52.1937 66.1711 53.1245 66.1711 53.1245L66.031 51.0388Z" fill="white"/>
<path d="M25.963 74.8514C24.0327 78.3843 25.963 83.6837 30.0185 87.8416C34.281 92.2238 41.6551 95.8178 43.1226 90.9465C44.5901 86.0752 40.6382 79.5869 38.2512 77.0663C35.8642 74.5457 28.1795 70.7139 25.963 74.8514Z" fill="#E0E0E0"/>
<path d="M44.8829 58.0908C42.1976 58.6275 37.3262 58.7702 33.5447 65.4352C29.4466 72.698 24.1612 84.9476 20.8425 94.5815C18.8452 100.363 18.4981 103.448 21.3297 107.164C23.8202 110.425 34.4155 120.834 37.6489 124.149C39.7984 126.371 42.77 130.726 44.956 132.431C44.956 132.431 49.322 131.283 51.5324 122.457C51.5324 122.457 51.6968 121.139 54.5283 122.213C56.4891 122.96 58.9796 123.11 60.1548 121.839C61.3301 120.569 58.5716 119.903 57.165 118.945C55.1339 117.366 52.812 116.315 50.3694 115.867C46.8802 115.229 45.845 114.909 42.4533 111.111C39.0616 107.314 34.9087 100.39 34.9087 100.39L43.866 79.6958C47.0994 72.1341 47.7814 64.946 44.8829 58.0908Z" fill="white"/>
<path d="M34.9389 100.383C32.7285 97.19 28.0337 96.9861 28.0337 96.9861C29.3384 96.6643 30.6913 96.6743 31.9921 97.0154C33.2929 97.3565 34.5082 98.0199 35.5478 98.9564L34.9389 100.383Z" fill="white"/>
<path d="M44.9807 57.8115C42.4475 58.0901 39.1593 58.6336 37.6065 60.0739C35.6763 61.7526 33.9143 63.6592 32.3515 65.7605C28.8745 70.3397 25.9639 74.8509 25.9639 74.8509C25.9639 74.8509 30.0376 73.0777 35.1465 77.4191C40.0483 81.5906 42.6363 87.1889 43.1234 90.946C44.9015 85.4157 46.3873 79.4437 47.3128 75.9991C48.2384 72.5546 48.8961 63.1041 44.9807 57.8115Z" fill="#F0F0F0"/>
</svg>
