<svg width="345" height="230" viewBox="0 0 345 230" fill="none" xmlns="http://www.w3.org/2000/svg">
<path d="M183.223 184.46C183.1 183.339 182.634 182.284 181.889 181.438C181.194 180.582 180.248 179.966 179.184 179.676C178.276 179.451 177.319 179.531 176.461 179.905C175.603 180.278 174.891 180.923 174.437 181.741C174.004 180.949 173.33 180.314 172.514 179.929C171.697 179.544 170.779 179.428 169.892 179.598C168.813 179.834 167.835 180.402 167.095 181.222C166.311 182.029 165.793 183.056 165.609 184.166C165.4 185.587 165.653 187.039 166.332 188.306C167.129 189.589 168.22 190.664 169.515 191.443C171.608 192.781 174.368 194.46 174.368 194.46C174.368 194.46 176.783 192.749 178.945 191.521C180.278 190.812 181.423 189.795 182.284 188.554C183.03 187.326 183.36 185.89 183.223 184.46Z" fill="#F5F5F5"/>
<path d="M136.606 69.0508H14.6741V194.162H136.606V69.0508Z" fill="#F5F5F5"/>
<path d="M22.6413 75.3067C22.6662 75.6997 22.5724 76.0911 22.372 76.4301C22.1717 76.7692 21.874 77.0401 21.5178 77.2079C21.1615 77.3757 20.763 77.4325 20.374 77.3709C19.9851 77.3094 19.6236 77.1323 19.3365 76.8628C19.0494 76.5932 18.85 76.2436 18.7641 75.8592C18.6782 75.4749 18.7098 75.0736 18.8548 74.7075C18.9999 74.3414 19.2516 74.0273 19.5773 73.806C19.9031 73.5848 20.2879 73.4665 20.6817 73.4667C21.1853 73.4518 21.6742 73.637 22.0415 73.9819C22.4088 74.3268 22.6245 74.8031 22.6413 75.3067Z" fill="#5B3765"/>
<path d="M28.6488 75.3067C28.6737 75.6997 28.5799 76.0911 28.3796 76.4301C28.1792 76.7692 27.8816 77.0401 27.5253 77.2079C27.169 77.3757 26.7706 77.4325 26.3816 77.3709C25.9926 77.3094 25.6311 77.1323 25.3441 76.8628C25.057 76.5932 24.8575 76.2436 24.7717 75.8592C24.6858 75.4749 24.7174 75.0736 24.8624 74.7075C25.0074 74.3414 25.2592 74.0273 25.5849 73.806C25.9107 73.5848 26.2954 73.4665 26.6892 73.4667C27.1928 73.4518 27.6818 73.637 28.0491 73.9819C28.4164 74.3268 28.632 74.8031 28.6488 75.3067Z" fill="#5B3765"/>
<path d="M34.6564 75.3067C34.6813 75.6997 34.5875 76.0911 34.3871 76.4301C34.1868 76.7692 33.8892 77.0401 33.5329 77.2079C33.1766 77.3757 32.7781 77.4325 32.3892 77.3709C32.0002 77.3094 31.6387 77.1323 31.3516 76.8628C31.0645 76.5932 30.8651 76.2436 30.7792 75.8592C30.6933 75.4749 30.7249 75.0736 30.87 74.7075C31.015 74.3414 31.2667 74.0273 31.5925 73.806C31.9182 73.5848 32.303 73.4665 32.6968 73.4667C33.2004 73.4518 33.6894 73.637 34.0566 73.9819C34.4239 74.3268 34.6396 74.8031 34.6564 75.3067Z" fill="#5B3765"/>
<path d="M318.49 90.9238H196.558V216.035H318.49V90.9238Z" fill="#F5F5F5"/>
<path d="M204.525 97.1797C204.55 97.5727 204.456 97.9641 204.256 98.3032C204.056 98.6422 203.758 98.9132 203.402 99.081C203.045 99.2487 202.647 99.3055 202.258 99.244C201.869 99.1824 201.508 99.0054 201.221 98.7358C200.933 98.4662 200.734 98.1166 200.648 97.7323C200.562 97.348 200.594 96.9467 200.739 96.5806C200.884 96.2144 201.136 95.9004 201.461 95.6791C201.787 95.4578 202.172 95.3396 202.566 95.3397C203.069 95.3248 203.558 95.5101 203.926 95.855C204.293 96.1998 204.508 96.6762 204.525 97.1797Z" fill="#5B3765"/>
<path d="M208.573 99.0242C209.656 99.0242 210.533 98.1983 210.533 97.1796C210.533 96.1608 209.656 95.335 208.573 95.335C207.491 95.335 206.614 96.1608 206.614 97.1796C206.614 98.1983 207.491 99.0242 208.573 99.0242Z" fill="#5B3765"/>
<path d="M214.581 99.0242C215.663 99.0242 216.541 98.1983 216.541 97.1796C216.541 96.1608 215.663 95.335 214.581 95.335C213.499 95.335 212.621 96.1608 212.621 97.1796C212.621 98.1983 213.499 99.0242 214.581 99.0242Z" fill="#5B3765"/>
<path d="M318.49 102.29C318.49 102.359 291.194 102.41 257.527 102.41C223.859 102.41 196.558 102.359 196.558 102.29C196.558 102.221 223.85 102.171 257.527 102.171C291.203 102.171 318.49 102.226 318.49 102.29Z" fill="#5B3765"/>
<path d="M154.155 90.9053H32.2231V216.016H154.155V90.9053Z" fill="#F5F5F5"/>
<path d="M38.2306 99.0066C39.3129 99.0066 40.1902 98.1807 40.1902 97.162C40.1902 96.1432 39.3129 95.3174 38.2306 95.3174C37.1483 95.3174 36.271 96.1432 36.271 97.162C36.271 98.1807 37.1483 99.0066 38.2306 99.0066Z" fill="#5B3765"/>
<path d="M46.1979 97.162C46.2228 97.555 46.129 97.9464 45.9287 98.2855C45.7283 98.6245 45.4307 98.8955 45.0744 99.0632C44.7181 99.231 44.3196 99.2878 43.9307 99.2263C43.5417 99.1647 43.1802 98.9877 42.8931 98.7181C42.606 98.4485 42.4066 98.0989 42.3207 97.7146C42.2348 97.3303 42.2665 96.929 42.4115 96.5629C42.5565 96.1967 42.8082 95.8826 43.134 95.6614C43.4598 95.4401 43.8445 95.3219 44.2383 95.322C44.7416 95.3083 45.2298 95.494 45.5969 95.8386C45.9639 96.1832 46.1799 96.6589 46.1979 97.162Z" fill="#5B3765"/>
<path d="M50.246 99.0066C51.3282 99.0066 52.2056 98.1807 52.2056 97.162C52.2056 96.1432 51.3282 95.3174 50.246 95.3174C49.1637 95.3174 48.2864 96.1432 48.2864 97.162C48.2864 98.1807 49.1637 99.0066 50.246 99.0066Z" fill="#5B3765"/>
<path d="M180.201 18.2439C180.032 16.7234 179.401 15.2912 178.393 14.1407C177.446 12.9774 176.159 12.1394 174.713 11.7441C173.48 11.4396 172.181 11.5498 171.016 12.0579C169.852 12.566 168.888 13.4435 168.273 14.5547C167.685 13.4773 166.771 12.6143 165.662 12.0901C164.552 11.566 163.305 11.4077 162.1 11.6383C160.635 11.9585 159.308 12.729 158.305 13.8417C157.235 14.9361 156.528 16.3334 156.281 17.8437C155.997 19.7725 156.34 21.7415 157.26 23.4603C158.339 25.2048 159.82 26.6655 161.58 27.7199C164.423 29.5369 168.176 31.8185 168.176 31.8185C168.176 31.8185 171.456 29.5185 174.391 27.8303C176.208 26.8688 177.768 25.4854 178.94 23.7961C179.944 22.1282 180.386 20.1819 180.201 18.2439Z" fill="#F5F5F5"/>
<path d="M100.363 32.4071C100.241 31.2875 99.7749 30.2333 99.0289 29.3895C98.334 28.5326 97.3881 27.9149 96.3241 27.6231C95.4153 27.3978 94.4576 27.4785 93.5993 27.8527C92.7411 28.227 92.0302 28.8738 91.5769 29.6931C91.2723 29.1482 90.8514 28.677 90.3441 28.3131C89.8709 27.972 89.3334 27.7304 88.7641 27.6031C88.1948 27.4758 87.6055 27.4654 87.0321 27.5725C85.9536 27.807 84.9757 28.3732 84.2353 29.1917C83.4508 30 82.9323 31.0289 82.7495 32.1403C82.5392 33.5621 82.7924 35.0138 83.4717 36.2803C84.2674 37.5661 85.3588 38.6433 86.6549 39.4221C88.7479 40.7561 91.5079 42.4351 91.5079 42.4351C91.5079 42.4351 93.9229 40.7285 96.0849 39.5003C97.4187 38.7916 98.5637 37.7743 99.4245 36.5333C100.177 35.2962 100.506 33.8479 100.363 32.4071Z" fill="#FAFAFA"/>
<path d="M45.08 38.0054C44.95 36.8754 44.4763 35.8125 43.723 34.9602C43.0135 34.0899 42.0477 33.4654 40.963 33.1754C40.3893 33.0378 39.7937 33.0174 39.212 33.1154C38.6303 33.2134 38.0743 33.4278 37.5774 33.7458C36.9883 34.1305 36.5019 34.6532 36.1606 35.2684C35.7233 34.4654 35.0419 33.8222 34.215 33.4319C33.3881 33.0416 32.4585 32.9244 31.5606 33.0972C30.4684 33.3338 29.4786 33.9084 28.7316 34.7394C27.9482 35.5601 27.4332 36.5998 27.255 37.7202C27.0449 39.1564 27.3013 40.622 27.9864 41.9016C28.7917 43.2009 29.8956 44.2891 31.2064 45.0756C33.327 46.428 36.1192 48.1254 36.1192 48.1254C36.1192 48.1254 38.5618 46.3958 40.7468 45.1584C42.0959 44.4411 43.2537 43.4111 44.1232 42.1546C44.8815 40.9111 45.2172 39.4555 45.08 38.0054Z" fill="#F5F5F5"/>
<path d="M321.83 47.38C321.687 46.0978 321.154 44.8902 320.303 43.9208C319.506 42.9385 318.422 42.2306 317.202 41.8968C316.162 41.6389 315.065 41.7318 314.083 42.161C313.101 42.5902 312.287 43.3317 311.77 44.2704C311.275 43.3613 310.504 42.6332 309.567 42.1916C308.631 41.75 307.579 41.6178 306.563 41.814C305.323 42.0754 304.197 42.7189 303.343 43.654C302.444 44.5795 301.85 45.7577 301.641 47.0304C301.404 48.6562 301.694 50.3149 302.469 51.7638C303.38 53.2339 304.629 54.4654 306.112 55.3564C308.508 56.8882 311.673 58.811 311.673 58.811C311.673 58.811 314.433 56.8514 316.913 55.4484C318.439 54.6351 319.749 53.4698 320.735 52.049C321.591 50.6503 321.975 49.0135 321.83 47.38Z" fill="#F5F5F5"/>
<path d="M279.933 24.9462C279.807 23.8263 279.342 22.7716 278.599 21.924C277.904 21.0671 276.958 20.4494 275.894 20.1576C275.327 20.0225 274.737 20.0034 274.162 20.1014C273.586 20.1994 273.037 20.4125 272.546 20.728C271.972 21.1096 271.498 21.624 271.166 22.2276C270.733 21.4351 270.059 20.8005 269.242 20.4153C268.426 20.03 267.508 19.9141 266.621 20.084C265.543 20.3194 264.565 20.8855 263.824 21.7032C263.039 22.5115 262.521 23.5404 262.338 24.6518C262.129 26.0736 262.382 27.5248 263.06 28.7918C263.856 30.075 264.946 31.1504 266.239 31.929C268.318 33.263 271.078 34.9604 271.078 34.9604C271.078 34.9604 273.493 33.2492 275.678 32.021C277.012 31.3123 278.157 30.295 279.018 29.054C279.757 27.8188 280.078 26.3783 279.933 24.9462Z" fill="#FAFAFA"/>
<path d="M221.449 32.4075C221.322 31.2891 220.857 30.2362 220.115 29.3899C219.419 28.5317 218.471 27.9138 217.405 27.6235C216.838 27.4888 216.25 27.4695 215.676 27.5667C215.101 27.6639 214.552 27.8756 214.061 28.1893C213.487 28.5725 213.014 29.0885 212.681 29.6935C212.248 28.9009 211.575 28.2663 210.758 27.8811C209.941 27.4959 209.023 27.3799 208.136 27.5499C207.057 27.7832 206.079 28.3496 205.34 29.1691C204.553 29.9757 204.034 31.0054 203.854 32.1177C203.641 33.5394 203.894 34.9919 204.576 36.2577C205.369 37.5443 206.459 38.6217 207.755 39.3995C209.852 40.7335 212.612 42.4125 212.612 42.4125C212.612 42.4125 215.027 40.7059 217.189 39.4777C218.523 38.7689 219.668 37.7517 220.529 36.5107C221.266 35.2762 221.588 33.8383 221.449 32.4075Z" fill="#F5F5F5"/>
<path d="M221.596 62.9098C221.526 62.2684 221.259 61.6643 220.832 61.1802C220.434 60.6888 219.892 60.3348 219.282 60.1682C218.957 60.0913 218.619 60.0806 218.29 60.1367C217.96 60.1928 217.645 60.3146 217.364 60.4948C217.031 60.7119 216.756 61.0072 216.563 61.355C216.317 60.9 215.931 60.5355 215.463 60.3146C214.995 60.0937 214.468 60.028 213.96 60.1268C213.343 60.2587 212.783 60.5804 212.359 61.0468C211.91 61.5099 211.613 62.0988 211.508 62.735C211.389 63.5486 211.534 64.379 211.922 65.104C212.383 65.8418 213.014 66.4585 213.762 66.9026C214.963 67.6662 216.522 68.6276 216.522 68.6276C216.522 68.6276 217.902 67.6478 219.144 66.9486C219.907 66.541 220.561 65.9575 221.053 65.2466C221.48 64.546 221.67 63.7268 221.596 62.9098Z" fill="#FAFAFA"/>
<path d="M72.7721 53.1169C72.7018 52.4754 72.4351 51.8714 72.0085 51.3872C71.6102 50.8963 71.0681 50.5424 70.4583 50.3753C70.1338 50.2984 69.7971 50.2878 69.4683 50.3439C69.1395 50.4 68.8254 50.5217 68.5447 50.7019C68.2102 50.9186 67.9338 51.2139 67.7397 51.562C67.4928 51.107 67.1072 50.7425 66.639 50.5217C66.1708 50.3008 65.6443 50.235 65.1361 50.3338C64.5189 50.4643 63.9587 50.7862 63.5353 51.2538C63.0865 51.7169 62.7896 52.3058 62.6843 52.942C62.5652 53.7542 62.7103 54.5831 63.0983 55.3065C63.5593 56.0442 64.1902 56.6609 64.9383 57.105C66.1389 57.8732 67.7213 58.8347 67.7213 58.8347C67.7213 58.8347 69.1013 57.8548 70.3433 57.151C71.1069 56.7449 71.7616 56.1612 72.2523 55.449C72.6703 54.7472 72.8525 53.9298 72.7721 53.1169Z" fill="#FAFAFA"/>
<path d="M132.383 44.9237C132.274 43.9347 131.863 43.0033 131.206 42.2557C130.592 41.4979 129.755 40.9524 128.814 40.6963C128.01 40.5001 127.163 40.574 126.405 40.9065C125.647 41.239 125.019 41.8117 124.619 42.5363C124.237 41.8353 123.642 41.2738 122.92 40.9332C122.198 40.5925 121.387 40.4902 120.603 40.6411C119.65 40.8505 118.786 41.3523 118.133 42.0763C117.448 42.788 116.997 43.6914 116.84 44.6661C116.656 45.9206 116.88 47.2011 117.479 48.3185C118.183 49.4493 119.147 50.3956 120.29 51.0785C122.13 52.2607 124.582 53.7419 124.582 53.7419C124.582 53.7419 126.716 52.2331 128.625 51.1475C129.805 50.5219 130.818 49.6228 131.578 48.5255C132.222 47.4406 132.504 46.1793 132.383 44.9237Z" fill="#F5F5F5"/>
<path d="M329.93 79.8652H204.82V204.976H329.93V79.8652Z" fill="#FAFAFA"/>
<path d="M329.93 204.976C329.93 204.093 329.889 154.887 329.829 79.8561L329.93 79.9619H204.833L204.953 79.8423C204.953 125.658 204.953 168.595 204.953 204.962L204.847 204.861L329.967 204.962L204.847 205.068H204.7V204.962C204.7 168.622 204.7 125.667 204.7 79.8423V79.7227H204.833H329.953H330.059V79.8239C329.972 154.887 329.93 204.093 329.93 204.976Z" fill="#263238"/>
<path d="M213.27 86.121C213.295 86.514 213.201 86.9054 213.001 87.2445C212.8 87.5835 212.503 87.8545 212.146 88.0222C211.79 88.19 211.392 88.2468 211.003 88.1852C210.614 88.1237 210.252 87.9466 209.965 87.6771C209.678 87.4075 209.479 87.0579 209.393 86.6736C209.307 86.2892 209.338 85.888 209.483 85.5218C209.629 85.1557 209.88 84.8416 210.206 84.6204C210.532 84.3991 210.917 84.2808 211.31 84.281C211.814 84.2673 212.302 84.453 212.669 84.7976C213.036 85.1422 213.252 85.6179 213.27 86.121Z" fill="#5B3765"/>
<path d="M217.318 87.9656C218.4 87.9656 219.277 87.1397 219.277 86.121C219.277 85.1022 218.4 84.2764 217.318 84.2764C216.235 84.2764 215.358 85.1022 215.358 86.121C215.358 87.1397 216.235 87.9656 217.318 87.9656Z" fill="#5B3765"/>
<path d="M223.321 87.9656C224.403 87.9656 225.281 87.1397 225.281 86.121C225.281 85.1022 224.403 84.2764 223.321 84.2764C222.239 84.2764 221.361 85.1022 221.361 86.121C221.361 87.1397 222.239 87.9656 223.321 87.9656Z" fill="#5B3765"/>
<path d="M329.931 91.2319C329.931 91.3009 301.921 91.3561 267.371 91.3561C232.82 91.3561 204.811 91.3009 204.811 91.2319C204.811 91.1629 232.815 91.1123 267.371 91.1123C301.926 91.1123 329.931 91.1675 329.931 91.2319Z" fill="#5B3765"/>
<path d="M249.601 138L252.462 117.185L251.749 111.15C251.749 111.15 240.769 110.901 239.214 100.165C238.464 94.9807 237.783 84.1753 237.282 74.4049C237.027 69.3281 238.691 64.3411 241.944 60.4351C245.197 56.5291 249.801 53.9902 254.84 53.3231L255.88 53.1851C267.154 52.3571 274.16 61.4651 274.671 72.7673L279.781 113.16L249.601 138Z" fill="#FFBE9D"/>
<path d="M251.735 111.155C251.735 111.155 258.608 110.81 265.232 105.317C265.232 105.317 262.932 113.496 252.08 113.947L251.735 111.155Z" fill="#EB996E"/>
<path d="M240.893 82.1791C240.941 82.5797 241.145 82.9454 241.459 83.1981C241.774 83.4508 242.175 83.5705 242.576 83.5315C242.772 83.5187 242.963 83.4673 243.138 83.3801C243.314 83.293 243.47 83.1719 243.599 83.0238C243.727 82.8758 243.825 82.7038 243.886 82.5177C243.948 82.3317 243.971 82.1353 243.956 81.9399C243.908 81.539 243.705 81.1729 243.39 80.9194C243.076 80.666 242.675 80.5453 242.273 80.5829C242.077 80.5963 241.886 80.6483 241.71 80.736C241.535 80.8236 241.379 80.9451 241.25 81.0935C241.122 81.2419 241.024 81.4143 240.963 81.6006C240.902 81.7869 240.878 81.9835 240.893 82.1791Z" fill="#263238"/>
<path d="M240.056 78.8074C240.272 78.9822 241.321 77.9702 242.977 77.754C244.633 77.5378 245.948 78.214 246.105 77.9794C246.178 77.8782 245.939 77.5194 245.36 77.2296C244.578 76.8262 243.691 76.6766 242.82 76.8018C241.958 76.9097 241.152 77.29 240.52 77.8874C240.074 78.3474 239.95 78.7292 240.056 78.8074Z" fill="#263238"/>
<path d="M255.392 80.7021C255.442 81.1022 255.645 81.4672 255.96 81.7197C256.274 81.9722 256.674 82.0923 257.076 82.0545C257.271 82.0411 257.462 81.9891 257.638 81.9014C257.813 81.8138 257.97 81.6923 258.098 81.5439C258.226 81.3955 258.324 81.2232 258.385 81.0368C258.447 80.8505 258.471 80.6539 258.456 80.4583C258.406 80.0573 258.202 79.6916 257.886 79.439C257.571 79.1864 257.169 79.0669 256.767 79.1059C256.572 79.1193 256.381 79.1713 256.206 79.259C256.03 79.3467 255.874 79.4683 255.746 79.6168C255.618 79.7652 255.521 79.9376 255.46 80.1239C255.4 80.3102 255.376 80.5067 255.392 80.7021Z" fill="#263238"/>
<path d="M255.903 76.2544C256.096 76.4522 257.251 75.5552 258.92 75.523C260.59 75.4908 261.828 76.2912 262.002 76.0842C262.09 75.9922 261.887 75.6242 261.345 75.2562C260.612 74.7721 259.747 74.5278 258.87 74.557C258.003 74.5732 257.163 74.8648 256.473 75.3896C255.972 75.7944 255.806 76.1624 255.903 76.2544Z" fill="#263238"/>
<path d="M252.204 90.5607C252.204 90.4687 251.146 90.4273 249.444 90.4319C249.016 90.4319 248.607 90.4319 248.497 90.1375C248.404 89.7063 248.444 89.2574 248.612 88.8495C248.872 87.7731 249.147 86.6461 249.435 85.4685C250.562 80.6615 251.321 76.7285 251.128 76.6917C250.935 76.6549 249.863 80.5051 248.736 85.3121C248.464 86.4943 248.211 87.6121 247.968 88.7023C247.871 89.2037 247.669 89.7833 247.968 90.3905C248.048 90.5312 248.159 90.6516 248.293 90.7426C248.427 90.8335 248.58 90.8924 248.74 90.9149C248.983 90.9447 249.229 90.9447 249.472 90.9149C251.16 90.7861 252.209 90.6573 252.204 90.5607Z" fill="#263238"/>
<path d="M255.401 70.3803C255.627 70.8081 257.241 70.3803 259.215 70.3527C261.188 70.3251 262.826 70.6517 263.028 70.2147C263.12 70.0077 262.789 69.6213 262.108 69.2671C261.194 68.8452 260.195 68.6375 259.188 68.6598C258.182 68.6821 257.193 68.9339 256.298 69.3959C255.617 69.7547 255.3 70.1549 255.401 70.3803Z" fill="#263238"/>
<path d="M239.876 74.1613C240.217 74.5017 241.302 73.9589 242.668 73.7611C244.035 73.5633 245.231 73.6783 245.428 73.2505C245.52 73.0435 245.286 72.6939 244.734 72.4041C243.997 72.069 243.177 71.96 242.377 72.091C241.578 72.222 240.836 72.5871 240.244 73.1401C239.83 73.6001 239.72 73.9957 239.876 74.1613Z" fill="#263238"/>
<path d="M274.832 80.8497C275.002 80.7439 281.929 77.6849 282.652 85.0679C283.374 92.4509 275.825 91.6735 275.788 91.4619C275.752 91.2503 274.832 80.8497 274.832 80.8497Z" fill="#FFBE9D"/>
<path d="M277.785 88.4398C277.812 88.4122 277.923 88.5134 278.148 88.5916C278.468 88.6923 278.814 88.6659 279.114 88.518C279.864 88.1546 280.398 86.8482 280.301 85.5142C280.256 84.8782 280.069 84.2604 279.754 83.7065C279.662 83.4833 279.517 83.2859 279.332 83.1312C279.147 82.9765 278.927 82.8692 278.691 82.8186C278.539 82.7944 278.383 82.8239 278.251 82.9019C278.118 82.98 278.017 83.1018 277.964 83.2465C277.886 83.4627 277.964 83.6052 277.909 83.6236C277.854 83.642 277.739 83.5133 277.766 83.2051C277.791 83.0174 277.878 82.8437 278.015 82.7128C278.107 82.6258 278.215 82.5579 278.334 82.5129C278.452 82.4679 278.578 82.4467 278.705 82.4507C279.014 82.4797 279.311 82.5881 279.567 82.7654C279.822 82.9426 280.027 83.1828 280.163 83.4627C280.543 84.0705 280.767 84.7625 280.816 85.4775C280.917 86.9679 280.296 88.4399 279.257 88.8539C279.064 88.9316 278.857 88.9649 278.65 88.9514C278.443 88.9378 278.241 88.8778 278.061 88.7757C277.812 88.6147 277.757 88.4536 277.785 88.4398Z" fill="#EB996E"/>
<path d="M257.218 91.0796C256.947 91.0796 257.181 92.892 255.838 94.3686C254.495 95.8452 252.535 95.905 252.554 96.1534C252.554 96.273 253.014 96.4478 253.837 96.365C254.891 96.2429 255.868 95.7544 256.597 94.985C257.296 94.2381 257.676 93.2477 257.655 92.225C257.6 91.4522 257.338 91.0336 257.218 91.0796Z" fill="#263238"/>
<path d="M228.326 61.8516C228.332 61.1383 228.516 60.4378 228.861 59.8131C229.205 59.1885 229.699 58.6592 230.299 58.2728C230.251 57.8637 230.242 57.4509 230.271 57.04C230.469 54.5422 232.535 52.2284 235.032 52.0352C235.109 51.0665 235.449 50.1372 236.015 49.3473C236.581 48.5574 237.352 47.9369 238.244 47.5526C239.137 47.1683 240.117 47.0348 241.08 47.1665C242.043 47.2982 242.952 47.6901 243.708 48.3C244.526 47.3857 245.59 46.7261 246.773 46.3998C247.955 46.0736 249.207 46.0945 250.378 46.46C250.677 46.5359 250.948 46.6955 251.16 46.92C251.222 46.9994 251.267 47.0905 251.292 47.1878C251.317 47.285 251.322 47.3864 251.307 47.4858C251.574 46.8935 251.98 46.3747 252.491 45.9741C253.002 45.5734 253.603 45.3029 254.242 45.1858C254.676 45.1099 255.119 45.1099 255.553 45.1858C256.734 45.1301 257.889 45.5379 258.773 46.322C260.198 45.649 261.82 45.5217 263.332 45.9642C264.845 46.4067 266.142 47.3883 266.979 48.7232C268.194 48.6488 269.404 48.9382 270.453 49.5543C271.503 50.1705 272.345 51.0854 272.872 52.1824C273.656 52.1438 274.437 52.3122 275.135 52.6706C275.834 53.029 276.426 53.5648 276.852 54.2243C277.278 54.8838 277.523 55.6437 277.562 56.4277C277.602 57.2118 277.434 57.9925 277.076 58.6914C277.076 58.6914 282.38 59.179 281.653 63.9492C281.281 66.3872 278.07 66.3964 278.07 66.3964L276.092 81.7742C276.166 81.8432 275.407 83.7108 274.468 83.4532C273.53 83.1956 272.909 82.3492 272.288 81.6132C271.579 80.7576 270.77 79.9434 270.36 78.913C269.951 77.8826 270.08 76.5256 270.991 75.8862C269.661 75.6332 268.691 74.4464 268.258 73.163C267.826 71.8796 267.899 70.4996 267.959 69.1518C268.048 67.1615 268.137 65.1682 268.226 63.1718C266.882 63.299 265.529 63.0564 264.313 62.4702C263.097 61.884 262.064 60.9766 261.326 59.846C259.615 61.5664 256.321 61.226 255.024 59.1606C254.734 60.5368 253.929 61.7502 252.774 62.553C251.619 63.3558 250.201 63.6873 248.809 63.48C249.302 64.9658 246.758 66.7414 245.313 67.3394C243.869 67.9374 241.854 67.1324 241.854 67.1324C241.007 67.7888 240.047 68.2845 239.021 68.5952L238.864 68.6274C236.813 69.0874 234.536 67.4912 233.284 65.7984C232.756 65.9201 232.209 65.9342 231.674 65.8398C230.756 65.6355 229.93 65.1341 229.324 64.4132C228.719 63.6923 228.368 62.792 228.326 61.8516Z" fill="#263238"/>
<path d="M263.53 82.9976C263.677 83.0238 263.814 83.0903 263.925 83.1899C264.036 83.2894 264.118 83.418 264.16 83.5612C264.203 83.7044 264.205 83.8566 264.166 84.0008C264.126 84.145 264.048 84.2755 263.939 84.3776C263.543 84.6471 263.083 84.8059 262.605 84.8376C261.978 84.9112 261.345 84.9112 260.719 84.8376C260.259 84.787 259.652 84.5478 259.679 84.0694C259.706 83.9295 259.765 83.7977 259.851 83.6843C259.937 83.571 260.048 83.4792 260.176 83.4162C261.018 82.8642 261.657 82.832 262.665 82.7998L263.53 82.9976Z" fill="#EF9E89"/>
<path d="M254.118 120.989L259.054 117.383L279.036 102.346L281.203 110.478L262.932 127.738L257.789 147.269L245.433 155.232L249.421 138.584L251.735 119.839L252.223 115.17L254.118 120.989Z" fill="#F5F5F5"/>
<path d="M279.781 104.576L280.825 108.505C280.825 108.505 289.473 112.037 294.331 118.28C299.189 124.522 307.018 136.937 310.946 154.275C314.875 171.612 316.411 204.7 316.411 204.7H252.223L255.093 142.765L258.52 128.8L267.72 116.334L279.781 104.576Z" fill="#5B3765"/>
<path d="M280.825 108.505C280.804 108.533 280.779 108.559 280.752 108.583L280.513 108.794L279.593 109.59C279.183 109.931 278.7 110.368 278.139 110.874L277.219 111.679L276.235 112.599C274.855 113.896 273.268 115.52 271.552 117.35C269.836 119.181 268.051 121.297 266.248 123.565C264.445 125.833 262.853 128.096 261.473 130.194C260.093 132.291 258.948 134.246 258.088 135.939C257.867 136.358 257.655 136.758 257.457 137.14L256.947 138.234C256.625 138.915 256.344 139.504 256.156 140.001L255.696 141.132L255.571 141.422L255.521 141.519C256.177 139.571 256.988 137.679 257.945 135.861C258.791 134.154 259.951 132.181 261.294 130.074C262.637 127.967 264.279 125.709 266.069 123.418C267.858 121.127 269.693 119.052 271.4 117.203C273.107 115.354 274.721 113.758 276.129 112.474L277.122 111.554L278.042 110.759C278.613 110.262 279.105 109.839 279.524 109.507L280.48 108.744L280.733 108.551C280.793 108.518 280.825 108.5 280.825 108.505Z" fill="#263238"/>
<path d="M279.22 147.269C279.22 147.338 273.157 147.2 265.678 146.961C258.198 146.722 252.14 146.478 252.145 146.414C252.149 146.349 258.207 146.483 265.687 146.722C273.167 146.961 279.22 147.2 279.22 147.269Z" fill="#5B3765"/>
<path d="M208.472 150.705L229.917 164.229L231.136 164.302L245.585 146.413L248.635 127.723L251.763 120.267L247.816 152.655L248.671 186.387L226.808 190.674L197.041 170.549L208.472 150.705Z" fill="#5B3765"/>
<path d="M248.23 149.242C248.165 149.242 248.901 142.742 249.877 134.743C250.852 126.743 251.694 120.257 251.763 120.267C251.832 120.276 251.091 126.766 250.116 134.77C249.141 142.774 248.299 149.251 248.23 149.242Z" fill="#263238"/>
<path d="M248.533 158.613C248.451 158.451 248.386 158.282 248.34 158.107C248.23 157.78 248.087 157.297 247.922 156.699C247.586 155.498 247.176 153.829 246.831 151.966C246.486 150.103 246.275 148.391 246.16 147.154C246.1 146.538 246.063 146.036 246.049 145.687C246.026 145.508 246.026 145.327 246.049 145.148C246.098 145.321 246.128 145.498 246.141 145.677C246.192 146.073 246.252 146.561 246.325 147.136C246.482 148.364 246.726 150.061 247.071 151.92C247.416 153.778 247.793 155.448 248.083 156.653C248.221 157.219 248.336 157.697 248.432 158.084C248.484 158.256 248.518 158.433 248.533 158.613Z" fill="#5B3765"/>
<path d="M236.136 172.601C235.854 172.202 235.6 171.784 235.377 171.35C234.917 170.568 234.296 169.51 233.537 168.341C232.778 167.173 232.079 166.17 231.55 165.434C231.248 165.052 230.972 164.651 230.722 164.233C231.082 164.565 231.406 164.933 231.688 165.333C232.249 166.041 232.99 167.053 233.74 168.212C234.49 169.372 235.12 170.462 235.515 171.267C235.765 171.69 235.973 172.137 236.136 172.601Z" fill="#263238"/>
<path d="M229.917 177.1C229.853 177.123 228.947 174.75 227.889 171.801C226.831 168.853 226.026 166.442 226.09 166.419C226.154 166.396 227.056 168.77 228.114 171.723C229.172 174.676 230 177.1 229.917 177.1Z" fill="#263238"/>
<path d="M265.774 124.733C263.928 126.674 262.202 128.725 260.604 130.874C256.22 137.043 230.598 178.429 228.004 184.46C225.409 190.49 221.987 198.614 232.084 203.66C240.525 207.883 245.617 202.611 250.392 197.929C255.167 193.246 285.812 160.719 285.812 160.719C285.812 160.719 295.752 147.651 292.054 135.318" fill="#5B3765"/>
<path d="M292.049 135.313C292.049 135.313 292.1 135.47 292.183 135.773C292.315 136.218 292.424 136.669 292.509 137.126C292.859 138.881 292.983 140.675 292.877 142.462C292.692 145.301 292.099 148.099 291.116 150.769C289.831 154.326 288.066 157.69 285.872 160.77L264.629 183.273C260.585 187.528 256.349 192.013 251.864 196.613C250.737 197.758 249.591 198.913 248.4 200.021C247.215 201.174 245.933 202.222 244.568 203.154C243.18 204.107 241.616 204.774 239.968 205.118C238.284 205.423 236.553 205.336 234.908 204.865L233.712 204.479C233.321 204.327 232.949 204.148 232.567 203.982C231.809 203.645 231.077 203.253 230.377 202.809C228.967 201.947 227.745 200.81 226.785 199.465C225.871 198.107 225.336 196.53 225.234 194.897C225.157 193.301 225.345 191.703 225.791 190.168C226.214 188.667 226.738 187.196 227.36 185.766C227.937 184.345 228.604 182.962 229.356 181.626C230.796 178.972 232.295 176.428 233.754 173.939C239.623 164.022 245.079 155.194 249.693 147.798C254.306 140.401 258.074 134.458 260.884 130.451C262.347 128.501 263.644 127.098 264.482 126.141L265.471 125.069C265.696 124.83 265.816 124.715 265.816 124.715C265.816 124.715 265.71 124.844 265.489 125.087L264.514 126.173C263.672 127.139 262.407 128.551 260.958 130.506C258.175 134.504 254.449 140.497 249.835 147.885C245.221 155.273 239.798 164.128 233.942 174.054C232.489 176.538 230.994 179.087 229.554 181.736C229.195 182.394 228.827 183.061 228.51 183.747C228.192 184.432 227.87 185.127 227.59 185.835C226.976 187.258 226.457 188.719 226.035 190.21C225.598 191.719 225.413 193.29 225.487 194.86C225.586 196.453 226.109 197.99 227.001 199.313C227.945 200.629 229.143 201.743 230.524 202.588C231.195 203.034 231.895 203.433 232.622 203.78C232.999 203.941 233.372 204.12 233.754 204.267L234.931 204.649C236.546 205.112 238.246 205.197 239.899 204.897C241.524 204.563 243.066 203.907 244.435 202.97C245.786 202.044 247.057 201.005 248.234 199.865C249.417 198.743 250.567 197.602 251.689 196.461C256.165 191.861 260.429 187.385 264.463 183.121L285.747 160.655C287.937 157.591 289.702 154.246 290.996 150.709C291.987 148.05 292.591 145.261 292.79 142.429C292.903 140.649 292.795 138.861 292.468 137.107C292.367 136.505 292.243 136.054 292.164 135.75C292.086 135.447 292.049 135.313 292.049 135.313Z" fill="#263238"/>
<path d="M243.91 156.644C243.846 156.644 244.83 150.148 246.155 142.163C247.48 134.177 248.57 127.71 248.635 127.719C248.699 127.728 247.715 134.214 246.394 142.2C245.074 150.185 243.975 156.653 243.91 156.644Z" fill="#263238"/>
<path d="M283.627 204.769C283.563 204.769 283.015 196.111 282.403 185.449C281.792 174.786 281.35 166.06 281.419 166.06C281.488 166.06 282.031 174.717 282.643 185.407C283.254 196.098 283.696 204.764 283.627 204.769Z" fill="#263238"/>
<g opacity="0.3">
<path d="M252.692 195.854C264.886 190.293 274.648 180.504 283.052 170.062C286.87 165.319 289.358 159.969 289.524 153.879C278.07 168.438 265.457 182.229 252.692 195.854Z" fill="black"/>
</g>
<path d="M287.183 126.767C286.994 126.582 286.818 126.385 286.654 126.178C286.183 125.64 285.679 125.133 285.145 124.66C283.385 123.087 281.289 121.937 279.017 121.299C276.744 120.661 274.356 120.552 272.035 120.98C271.331 121.104 270.637 121.275 269.956 121.491C269.709 121.582 269.457 121.659 269.201 121.721C269.257 121.679 269.319 121.646 269.385 121.624C269.509 121.573 269.689 121.486 269.928 121.403C270.602 121.151 271.296 120.954 272.003 120.814C274.349 120.334 276.775 120.421 279.081 121.067C281.387 121.714 283.505 122.901 285.26 124.531C285.79 125.019 286.281 125.548 286.727 126.114C286.888 126.311 286.999 126.477 287.077 126.574C287.121 126.633 287.156 126.698 287.183 126.767Z" fill="#263238"/>
<path d="M258.52 128.8C258.472 128.92 258.415 129.037 258.35 129.149L257.825 130.124C257.365 130.985 256.675 132.181 255.866 133.634L255.732 133.869L255.691 133.602C255.305 131.233 254.817 128.234 254.283 124.968L253.713 121.389H253.938L251.496 128.602C251.188 129.476 250.944 130.18 250.76 130.695L250.553 131.251C250.507 131.38 250.479 131.445 250.47 131.44C250.478 131.373 250.493 131.306 250.516 131.242L250.686 130.672L251.353 128.556C251.951 126.716 252.775 124.213 253.718 121.315L253.869 120.855L253.943 121.315C254.127 122.442 254.32 123.652 254.523 124.894C255.033 128.16 255.507 131.164 255.903 133.533L255.723 133.501L257.756 130.032L258.327 129.085C258.382 128.984 258.447 128.889 258.52 128.8Z" fill="#263238"/>
<path d="M209.015 155.825L201.687 150.981C201.687 150.981 194.971 141.988 193.559 141.261C192.147 140.534 186.102 136.201 186.102 136.201L174.8 136.831C174.458 137.235 174.243 137.731 174.182 138.256C174.12 138.781 174.215 139.313 174.455 139.785C174.455 139.785 172.123 142.305 173.466 144.339C173.466 144.339 171.065 145.613 172.978 147.637C174.059 148.778 174.432 149.086 174.556 149.136C174.335 149.596 173.116 152.241 174.211 153.138C175.967 154.41 177.9 155.417 179.947 156.128C180.324 156.239 180.722 156.255 181.107 156.175C181.491 156.095 181.85 155.921 182.151 155.668L185.693 157.389C185.693 157.389 191.107 160.705 194.299 161.418L196.328 161.653L203.274 166.672C206.117 163.571 208.237 160.08 209.015 155.825Z" fill="#FFBE9D"/>
<path d="M174.34 139.481C174.952 141.428 175.956 143.23 177.289 144.776C177.449 144.974 177.654 145.132 177.887 145.236C178.498 145.456 179.138 144.918 179.4 144.316C179.598 143.777 179.67 143.2 179.611 142.629C179.552 142.059 179.363 141.509 179.06 141.022C178.498 140.028 178.218 139.214 177.546 138.345" fill="#FFBE9D"/>
<path d="M177.56 138.354C177.709 138.489 177.839 138.644 177.946 138.814C178.246 139.274 178.516 139.752 178.756 140.245C178.926 140.553 179.106 140.889 179.299 141.243C179.5 141.64 179.639 142.065 179.713 142.504C179.802 142.993 179.783 143.495 179.658 143.976C179.599 144.241 179.487 144.492 179.329 144.713C179.171 144.935 178.97 145.122 178.738 145.264C178.609 145.336 178.466 145.381 178.319 145.395C178.171 145.409 178.023 145.393 177.882 145.346C177.631 145.239 177.411 145.07 177.243 144.854C176.909 144.5 176.601 144.122 176.323 143.723C175.859 143.05 175.459 142.335 175.127 141.588C174.898 141.088 174.695 140.577 174.519 140.056C174.444 139.87 174.389 139.676 174.358 139.477C174.454 139.653 174.537 139.836 174.607 140.024C174.759 140.378 174.975 140.898 175.278 141.515C175.63 142.239 176.04 142.934 176.502 143.594C176.777 143.98 177.077 144.349 177.399 144.698C177.546 144.881 177.736 145.027 177.951 145.121C178.06 145.157 178.174 145.169 178.288 145.156C178.401 145.143 178.511 145.106 178.609 145.048C178.817 144.924 178.997 144.76 179.139 144.564C179.282 144.369 179.383 144.147 179.437 143.911C179.557 143.461 179.579 142.991 179.501 142.531C179.433 142.114 179.306 141.708 179.124 141.326C178.949 140.972 178.756 140.632 178.613 140.319C178.314 139.689 178.071 139.192 177.868 138.86C177.666 138.529 177.56 138.364 177.56 138.354Z" fill="#EB996E"/>
<path d="M178.747 145.103C178.8 145.124 178.85 145.153 178.894 145.19C179.03 145.281 179.159 145.381 179.28 145.489C179.728 145.896 180.09 146.387 180.348 146.934C180.729 147.751 180.904 148.65 180.858 149.551C180.847 149.828 180.778 150.1 180.657 150.349C180.536 150.598 180.365 150.82 180.154 151C179.918 151.199 179.619 151.308 179.31 151.308C179.001 151.308 178.702 151.199 178.466 151C178.039 150.625 177.655 150.204 177.321 149.744C176.985 149.316 176.672 148.893 176.401 148.484C175.84 147.674 175.334 146.943 174.901 146.308C174.469 145.673 174.115 145.199 173.862 144.864C173.719 144.697 173.591 144.519 173.48 144.33C173.65 144.466 173.804 144.62 173.94 144.79C174.216 145.107 174.598 145.586 175.044 146.193L176.585 148.337C176.876 148.741 177.183 149.155 177.505 149.579C177.831 150.02 178.201 150.427 178.609 150.793C178.811 150.956 179.062 151.045 179.322 151.046C179.574 151.036 179.816 150.944 180.012 150.784C180.199 150.625 180.351 150.43 180.458 150.21C180.566 149.99 180.627 149.75 180.637 149.505C180.684 148.637 180.526 147.771 180.177 146.975C179.941 146.438 179.609 145.949 179.198 145.531C178.94 145.264 178.733 145.121 178.747 145.103Z" fill="#EB996E"/>
<path d="M180.803 149.04C180.87 149.052 180.935 149.074 180.996 149.104C181.175 149.178 181.35 149.261 181.521 149.353C182.147 149.701 182.713 150.147 183.2 150.673C183.959 151.441 184.433 152.446 184.543 153.52C184.616 154.177 184.433 154.836 184.032 155.36C183.919 155.499 183.78 155.614 183.622 155.698C183.464 155.781 183.29 155.833 183.112 155.848C182.749 155.855 182.392 155.754 182.086 155.558C181.026 154.82 180.022 154.003 179.083 153.116L176.783 150.986C176.125 150.383 175.582 149.905 175.2 149.583C174.992 149.425 174.795 149.253 174.611 149.068C174.675 149.094 174.734 149.129 174.786 149.173C174.897 149.247 175.058 149.357 175.246 149.509C175.646 149.813 176.212 150.268 176.888 150.857L179.234 152.955C180.174 153.819 181.17 154.619 182.215 155.351C182.478 155.525 182.788 155.614 183.103 155.609C183.251 155.598 183.395 155.557 183.526 155.488C183.658 155.419 183.774 155.324 183.867 155.209C184.222 154.732 184.387 154.14 184.327 153.548C184.228 152.514 183.786 151.542 183.071 150.788C182.421 150.08 181.653 149.488 180.803 149.04Z" fill="#EB996E"/>
<path d="M209.512 151.101C209.524 151.183 209.524 151.267 209.512 151.349V152.067C209.512 152.228 209.512 152.398 209.512 152.586L209.461 153.203C209.43 153.704 209.373 154.203 209.291 154.698C209.249 154.978 209.203 155.264 209.157 155.567C209.111 155.871 209.024 156.174 208.955 156.487C208.831 157.131 208.601 157.798 208.398 158.511C207.886 160.032 207.215 161.495 206.397 162.877C205.566 164.253 204.566 165.52 203.421 166.649L202.63 167.385C202.363 167.615 202.087 167.812 201.83 168.019C201.347 168.393 200.841 168.737 200.316 169.05C200.201 169.123 200.086 169.202 199.971 169.266L199.626 169.441L198.991 169.767C198.655 169.945 198.306 170.099 197.947 170.227L197.276 170.48C197.2 170.515 197.119 170.539 197.036 170.549C197.106 170.504 197.18 170.465 197.257 170.434L197.91 170.14C198.261 170 198.602 169.837 198.932 169.652L199.553 169.321L199.888 169.137C200.003 169.068 200.114 168.99 200.229 168.916C200.742 168.597 201.235 168.246 201.705 167.868C201.958 167.665 202.23 167.463 202.487 167.237L203.265 166.501C204.389 165.377 205.372 164.122 206.195 162.762C207.002 161.393 207.671 159.948 208.191 158.447C208.394 157.748 208.628 157.09 208.762 156.45C208.835 156.133 208.904 155.825 208.978 155.53C209.052 155.236 209.079 154.946 209.125 154.675C209.231 154.127 209.277 153.626 209.328 153.189C209.351 152.973 209.378 152.77 209.397 152.577C209.415 152.384 209.397 152.223 209.424 152.062C209.447 151.777 209.461 151.538 209.475 151.349C209.476 151.265 209.488 151.181 209.512 151.101Z" fill="#263238"/>
<path d="M186.424 140.263C190.891 139.187 194.161 136.284 194.976 130.603C195.859 124.393 191.392 114.043 191.392 114.043L183.282 114.181L176.382 114.347C176.382 114.347 172.242 124.798 173.31 130.98C174.377 137.163 178.273 139.969 183.388 140.672H183.466L183.926 141.468L184.386 159.776L179.851 161.616C179.806 161.643 179.771 161.683 179.75 161.731C179.73 161.779 179.725 161.832 179.736 161.883C179.747 161.933 179.774 161.979 179.813 162.014C179.852 162.049 179.9 162.071 179.952 162.076L191.53 161.869C191.589 161.868 191.645 161.847 191.689 161.809C191.733 161.771 191.763 161.718 191.772 161.66C191.781 161.603 191.77 161.544 191.74 161.494C191.71 161.443 191.664 161.405 191.608 161.386L186.447 159.62L185.987 141.326L186.424 140.263Z" fill="white"/>
<path d="M186.424 140.263C186.424 140.263 186.392 140.36 186.319 140.539C186.245 140.719 186.135 140.999 185.987 141.358C186.052 143.851 186.231 150.342 186.484 159.648L186.429 159.574L191.282 161.225L191.604 161.336C191.677 161.364 191.738 161.417 191.777 161.485C191.816 161.553 191.83 161.632 191.817 161.71C191.804 161.787 191.765 161.858 191.706 161.909C191.647 161.961 191.572 161.991 191.494 161.994H191.149L189.769 162.021L186.894 162.076L180.817 162.196H180.026C179.948 162.208 179.869 162.208 179.791 162.196C179.746 162.181 179.704 162.157 179.669 162.124C179.634 162.092 179.607 162.052 179.589 162.007C179.57 161.965 179.56 161.92 179.559 161.874C179.558 161.827 179.566 161.781 179.583 161.739C179.601 161.696 179.626 161.657 179.659 161.624C179.691 161.591 179.73 161.565 179.773 161.547L181.263 160.931L184.304 159.685L184.239 159.79C184.097 154.137 183.95 147.95 183.779 141.482V141.537L183.319 140.742L183.425 140.801H183.329C182.011 140.634 180.724 140.281 179.506 139.753C178.254 139.195 177.124 138.396 176.18 137.402C174.746 135.818 173.77 133.873 173.356 131.776C172.946 129.749 172.906 127.664 173.236 125.621C173.52 123.647 173.935 121.694 174.478 119.775C175.007 117.889 175.601 116.058 176.281 114.296L176.309 114.227H176.383L184.161 114.052L191.402 113.938H191.466L191.494 113.997C192.349 116.06 193.089 118.169 193.711 120.313C194.286 122.24 194.714 124.209 194.99 126.201C195.251 127.954 195.22 129.739 194.898 131.482C194.624 132.959 194.081 134.373 193.297 135.654C192.659 136.683 191.831 137.582 190.859 138.304C190.15 138.832 189.377 139.268 188.559 139.601L188.099 139.794L187.676 139.932C187.459 140.011 187.238 140.077 187.013 140.13L186.466 140.263C186.466 140.263 186.645 140.204 187.004 140.102C187.183 140.056 187.404 139.983 187.662 139.891L188.08 139.744L188.54 139.546C189.359 139.207 190.132 138.766 190.84 138.235C191.796 137.512 192.607 136.616 193.232 135.594C194 134.321 194.53 132.918 194.796 131.454C195.107 129.726 195.129 127.959 194.861 126.224C194.35 122.493 193.108 118.377 191.342 114.076L191.434 114.135L184.193 114.264L176.419 114.448L176.521 114.379C175.849 116.127 175.256 117.958 174.736 119.835C174.195 121.745 173.783 123.689 173.503 125.654C173.178 127.668 173.217 129.725 173.618 131.726C174.021 133.782 174.975 135.69 176.378 137.246C177.316 138.219 178.434 139.001 179.672 139.546C180.87 140.062 182.135 140.409 183.43 140.576H183.54L183.577 140.636L184.037 141.436V141.459V141.491C184.189 147.954 184.336 154.146 184.465 159.795V159.873L184.396 159.901L181.346 161.147L179.86 161.722C179.842 161.729 179.825 161.74 179.811 161.754C179.798 161.767 179.787 161.784 179.78 161.802C179.773 161.821 179.77 161.84 179.771 161.86C179.772 161.879 179.777 161.898 179.787 161.915C179.828 161.994 179.869 162.003 180.026 161.994H180.817L186.894 161.892L189.769 161.842L191.149 161.819H191.494C191.529 161.818 191.564 161.805 191.591 161.781C191.618 161.758 191.635 161.725 191.641 161.69C191.647 161.654 191.64 161.618 191.623 161.586C191.605 161.554 191.578 161.529 191.544 161.515L191.227 161.41L186.383 159.74H186.328V159.68C186.139 150.369 186.001 143.879 185.951 141.386C186.107 141.027 186.227 140.76 186.305 140.571L186.424 140.263Z" fill="#263238"/>
<path d="M194.161 130.203C193.356 135.834 189.906 138.46 185.288 139.206H185.219V139.302L183.646 139.339C179.004 138.7 175.472 136.156 174.496 130.548C174.496 130.548 176.226 128.064 179.064 127.706C182.146 127.315 183.269 130.433 186.916 130.985C189.64 131.399 194.161 130.203 194.161 130.203Z" fill="#5B3765"/>
<path d="M191.779 114.112C191.61 114.239 191.43 114.35 191.24 114.443C191.029 114.572 190.809 114.685 190.583 114.784C190.283 114.933 189.976 115.066 189.663 115.184C188.869 115.494 188.053 115.74 187.22 115.92C186.196 116.142 185.153 116.273 184.106 116.311C183.058 116.333 182.01 116.266 180.973 116.108C180.128 115.972 179.296 115.768 178.485 115.497C178.135 115.395 177.831 115.262 177.565 115.156C177.333 115.068 177.108 114.967 176.888 114.853C176.694 114.771 176.508 114.67 176.332 114.554C176.332 114.508 177.16 114.917 178.54 115.336C179.349 115.579 180.174 115.763 181.01 115.888C183.061 116.195 185.15 116.132 187.179 115.704C188.006 115.531 188.819 115.297 189.612 115.004C190.978 114.54 191.756 114.08 191.779 114.112Z" fill="#263238"/>
<path d="M186.838 137.968C185.971 138.363 185.022 138.542 184.07 138.492C183.119 138.442 182.194 138.162 181.374 137.678C182.251 137.973 183.161 138.166 184.083 138.253C185.009 138.262 185.934 138.166 186.838 137.968Z" fill="white"/>
<path d="M179.073 136.735C178.89 136.597 178.719 136.443 178.563 136.275C178.364 136.089 178.179 135.887 178.011 135.672C177.774 135.401 177.554 135.116 177.353 134.817L177.003 134.292C176.888 134.108 176.787 133.906 176.672 133.699C176.432 133.252 176.219 132.791 176.033 132.319C175.632 131.242 175.351 130.123 175.196 128.984C174.95 126.911 175.02 124.813 175.403 122.76C175.55 121.978 175.692 121.348 175.812 120.92C175.86 120.693 175.929 120.472 176.019 120.258C175.999 120.487 175.96 120.715 175.904 120.939C175.807 121.376 175.692 122.006 175.573 122.779C175.241 124.817 175.195 126.891 175.435 128.943C175.587 130.064 175.857 131.167 176.24 132.232C176.419 132.691 176.621 133.141 176.847 133.579C176.957 133.782 177.054 133.989 177.164 134.173L177.496 134.693C178.37 136.031 179.115 136.694 179.073 136.735Z" fill="white"/>
<path d="M192.28 142.443L179.451 143.087C179.529 145.019 181.171 146.611 183.002 147.227C184.833 147.844 186.824 147.747 188.761 147.623C188.263 149.561 188.455 151.613 189.304 153.425C190.154 155.237 191.608 156.697 193.416 157.554" fill="#FFBE9D"/>
<path d="M193.402 157.573C193.328 157.555 193.257 157.527 193.191 157.49C193.057 157.421 192.85 157.348 192.602 157.201C191.884 156.789 191.235 156.268 190.679 155.655C189.821 154.716 189.174 153.604 188.784 152.394C188.268 150.848 188.217 149.184 188.637 147.61L188.752 147.752C187.741 147.838 186.726 147.867 185.711 147.84C184.607 147.822 183.515 147.601 182.491 147.186C181.628 146.817 180.866 146.246 180.269 145.521C179.695 144.836 179.355 143.985 179.299 143.092V142.977H179.409L188.609 142.559L191.273 142.458H191.986C192.068 142.448 192.152 142.448 192.234 142.458C192.152 142.476 192.069 142.487 191.986 142.49L191.277 142.545L188.614 142.711L179.414 143.212L179.52 143.097C179.573 143.942 179.895 144.748 180.44 145.397C181.013 146.091 181.745 146.637 182.574 146.989C183.563 147.389 184.617 147.606 185.684 147.628C186.69 147.655 187.697 147.63 188.701 147.554H188.858L188.816 147.706C188.398 149.239 188.438 150.86 188.931 152.371C189.302 153.56 189.919 154.657 190.744 155.591C191.278 156.201 191.897 156.731 192.584 157.164C193.131 157.426 193.412 157.559 193.402 157.573Z" fill="#EB996E"/>
<path d="M171.069 105.459C171.014 105.496 169.689 103.578 168.112 101.172C166.534 98.7665 165.296 96.7885 165.352 96.7563C165.407 96.7241 166.732 98.6377 168.309 101.043C169.887 103.449 171.12 105.423 171.069 105.459Z" fill="#263238"/>
<path d="M175.674 104.981C175.617 104.752 175.579 104.518 175.559 104.282C175.504 103.822 175.426 103.178 175.343 102.364C175.177 100.745 174.975 98.5046 174.805 96.0252C174.634 93.5458 174.529 91.2964 174.473 89.668C174.446 88.8538 174.432 88.196 174.427 87.7406C174.405 87.505 174.405 87.2678 174.427 87.0322C174.471 87.2645 174.495 87.4998 174.501 87.736C174.533 88.2328 174.575 88.8814 174.625 89.6588C174.731 91.324 174.869 93.5504 175.025 96.0068C175.182 98.4632 175.37 100.685 175.485 102.35C175.541 103.128 175.591 103.776 175.628 104.273C175.666 104.507 175.681 104.744 175.674 104.981Z" fill="#263238"/>
<path d="M185.293 95.0732C185.085 95.6347 184.81 96.1691 184.474 96.6648C183.913 97.6216 183.121 98.928 182.224 100.345C181.327 101.762 180.504 103.063 179.897 103.983C179.589 104.443 179.34 104.816 179.165 105.074C179.083 105.212 178.983 105.339 178.866 105.451C178.92 105.3 178.993 105.156 179.083 105.023C179.271 104.71 179.492 104.333 179.75 103.896C180.325 102.948 181.13 101.651 182.022 100.216L184.322 96.5636C184.598 96.1312 184.833 95.7678 185.026 95.4596C185.108 95.326 185.197 95.197 185.293 95.0732Z" fill="#263238"/>
<path d="M142.72 80.9141H20.7874V206.025H142.72V80.9141Z" fill="#FAFAFA"/>
<path d="M142.72 206.025C142.72 205.137 142.678 155.885 142.618 80.9049L142.72 81.0107H20.8196L20.9392 80.8911C20.9392 126.771 20.9392 169.726 20.9392 206.011L20.838 205.91L142.77 206.011L20.838 206.117H20.7V206.011C20.7 169.735 20.7 126.781 20.7 80.8911V80.7715H20.8334H142.733H142.839V80.8727C142.761 155.866 142.724 205.16 142.72 206.025Z" fill="#263238"/>
<path d="M28.7545 87.1698C28.7794 87.5628 28.6856 87.9542 28.4853 88.2933C28.2849 88.6323 27.9873 88.9033 27.631 89.0711C27.2747 89.2388 26.8763 89.2956 26.4873 89.2341C26.0983 89.1725 25.7368 88.9955 25.4498 88.7259C25.1627 88.4564 24.9633 88.1067 24.8774 87.7224C24.7915 87.3381 24.8231 86.9368 24.9681 86.5707C25.1131 86.2045 25.3649 85.8905 25.6906 85.6692C26.0164 85.4479 26.4011 85.3297 26.7949 85.3298C27.2982 85.3161 27.7865 85.5018 28.1535 85.8464C28.5205 86.191 28.7365 86.6667 28.7545 87.1698Z" fill="#5B3765"/>
<path d="M34.7621 87.1698C34.787 87.5628 34.6932 87.9542 34.4929 88.2933C34.2925 88.6323 33.9949 88.9033 33.6386 89.0711C33.2823 89.2388 32.8838 89.2956 32.4949 89.2341C32.1059 89.1725 31.7444 88.9955 31.4573 88.7259C31.1702 88.4564 30.9708 88.1067 30.8849 87.7224C30.799 87.3381 30.8307 86.9368 30.9757 86.5707C31.1207 86.2045 31.3724 85.8905 31.6982 85.6692C32.024 85.4479 32.4087 85.3297 32.8025 85.3298C33.3058 85.3161 33.7941 85.5018 34.1611 85.8464C34.5281 86.191 34.7441 86.6667 34.7621 87.1698Z" fill="#5B3765"/>
<path d="M40.7697 87.1698C40.7946 87.5628 40.7008 87.9542 40.5004 88.2933C40.3001 88.6323 40.0025 88.9033 39.6462 89.0711C39.2899 89.2388 38.8914 89.2956 38.5024 89.2341C38.1135 89.1725 37.752 88.9955 37.4649 88.7259C37.1778 88.4564 36.9784 88.1067 36.8925 87.7224C36.8066 87.3381 36.8382 86.9368 36.9833 86.5707C37.1283 86.2045 37.38 85.8905 37.7058 85.6692C38.0315 85.4479 38.4163 85.3297 38.8101 85.3298C39.3133 85.3161 39.8016 85.5018 40.1686 85.8464C40.5356 86.191 40.7517 86.6667 40.7697 87.1698Z" fill="#5B3765"/>
<path d="M142.72 92.2846C142.72 92.349 115.423 92.4042 81.7558 92.4042C48.0884 92.4042 20.7874 92.349 20.7874 92.2846C20.7874 92.2202 48.0792 92.165 81.7558 92.165C115.432 92.165 142.72 92.2156 142.72 92.2846Z" fill="#5B3765"/>
<path d="M106.421 132.719C106.237 129.899 107.281 127.166 108.21 124.498C111.246 115.758 114.535 99.8885 115.377 90.6885L98.5918 102.975C94.2228 112.972 91.728 123.687 91.2318 134.586C91.0386 138.933 91.1766 143.368 92.5152 147.508C93.8538 151.648 96.5218 155.502 100.381 157.508C102.888 158.814 106.021 159.247 108.523 157.936C111.026 156.625 112.387 153.906 112.603 151.165C112.82 148.423 111.964 145.695 110.763 143.22C109.098 139.789 106.669 136.527 106.421 132.719Z" fill="#263238"/>
<path d="M77.2386 78.7607C77.3746 77.7203 77.8954 76.7687 78.6984 76.0935C79.5014 75.4182 80.5282 75.0683 81.5764 75.1129L102.336 68.6729C109.489 68.9903 114.922 82.5649 114.296 89.6949C113.611 97.6207 111.366 106.963 109.554 112.695C105.915 124.195 97.9432 123.394 97.9432 123.394L93.1316 142.121L70.2236 139.131L77.2386 78.7607Z" fill="#AD7460"/>
<path d="M110.584 97.9794C110.529 98.3733 110.322 98.73 110.007 98.9733C109.693 99.2166 109.295 99.3271 108.9 99.2812C108.706 99.268 108.516 99.2158 108.342 99.1279C108.167 99.0399 108.013 98.9178 107.887 98.769C107.761 98.6202 107.666 98.4475 107.607 98.2614C107.549 98.0752 107.529 97.8792 107.548 97.685C107.603 97.2911 107.81 96.9344 108.124 96.6911C108.439 96.4479 108.836 96.3373 109.231 96.3832C109.426 96.3965 109.616 96.4486 109.79 96.5366C109.964 96.6246 110.119 96.7466 110.245 96.8954C110.371 97.0443 110.466 97.2169 110.524 97.4031C110.583 97.5893 110.603 97.7853 110.584 97.9794Z" fill="#263238"/>
<path d="M111.398 94.76C111.214 94.8842 110.05 94.5392 108.413 94.6864C106.775 94.8336 105.588 95.3672 105.409 95.2798C105.322 95.243 105.51 95.036 106.025 94.7922C106.786 94.4572 107.598 94.2534 108.427 94.1896C109.224 94.1065 110.03 94.1704 110.805 94.3782C111.32 94.5438 111.49 94.7186 111.398 94.76Z" fill="#263238"/>
<path d="M95.4178 95.79C95.3617 96.1842 95.1538 96.541 94.8385 96.7842C94.5231 97.0273 94.1252 97.1377 93.7296 97.0918C93.535 97.0785 93.345 97.0264 93.1709 96.9384C92.9968 96.8504 92.8421 96.7284 92.716 96.5796C92.5899 96.4307 92.4949 96.2581 92.4367 96.0719C92.3786 95.8857 92.3583 95.6897 92.3772 95.4956C92.4322 95.1017 92.6392 94.745 92.9538 94.5017C93.2684 94.2584 93.6658 94.1479 94.0608 94.1938C94.2559 94.2064 94.4464 94.2581 94.621 94.3459C94.7956 94.4336 94.9509 94.5555 95.0774 94.7044C95.204 94.8533 95.2994 95.0261 95.3579 95.2126C95.4163 95.3991 95.4367 95.5954 95.4178 95.79Z" fill="#263238"/>
<path d="M95.3856 93.2415C95.1464 93.2967 94.116 92.4503 92.4048 91.9397C90.6936 91.4291 89.2768 91.5073 89.1296 91.3371C89.0606 91.2589 89.332 91.1209 89.9576 91.0703C90.862 91.0243 91.7672 91.1411 92.6302 91.4153C93.4655 91.6564 94.2464 92.0562 94.9302 92.5929C95.3948 92.9655 95.5006 93.2231 95.3856 93.2415Z" fill="#263238"/>
<path d="M99.5347 105.21C99.5347 105.114 100.579 105.091 102.244 105.128C102.667 105.151 103.072 105.128 103.164 104.852C103.261 104.429 103.229 103.987 103.072 103.582C102.828 102.519 102.58 101.406 102.318 100.238C101.292 95.4815 100.611 91.5945 100.804 91.5531C100.998 91.5117 101.987 95.3389 103.012 100.095C103.258 101.264 103.491 102.381 103.712 103.449C103.799 103.945 103.988 104.52 103.679 105.109C103.598 105.247 103.486 105.364 103.352 105.452C103.218 105.54 103.065 105.596 102.907 105.615C102.668 105.646 102.427 105.646 102.189 105.615C100.551 105.45 99.5255 105.302 99.5347 105.21Z" fill="#263238"/>
<path d="M97.934 123.487C92.3772 122.736 87.138 120.457 82.8 116.904C82.8 116.904 85.146 126.044 97.0968 126.716L97.934 123.487Z" fill="#5B3765"/>
<path d="M98.67 109.12C98.049 107.791 96.9542 106.797 95.864 106.577C95.4967 106.487 95.1108 106.509 94.7564 106.641C94.4021 106.773 94.0956 107.009 93.8768 107.317C93.6301 107.731 93.4875 108.198 93.461 108.679C93.4346 109.159 93.5252 109.639 93.725 110.077C93.9115 110.536 94.2292 110.93 94.6383 111.209C95.0474 111.488 95.5298 111.64 96.025 111.646C96.8576 111.614 97.5752 111.126 98.2606 110.629C98.4693 110.502 98.6419 110.323 98.762 110.109C98.8269 109.974 98.8606 109.825 98.8606 109.675C98.8606 109.524 98.8269 109.376 98.762 109.24" fill="#5B3765"/>
<path d="M94.5806 105.616C94.8474 105.639 94.5806 107.401 95.91 108.882C97.2394 110.363 99.13 110.451 99.13 110.722C99.13 110.837 98.67 111.003 97.865 110.906C96.8301 110.762 95.8781 110.261 95.174 109.489C94.5 108.744 94.142 107.766 94.1758 106.761C94.1988 105.993 94.461 105.584 94.5806 105.616Z" fill="#263238"/>
<path d="M97.6119 86.6913C97.3405 87.0823 95.8041 86.4705 93.8767 86.2313C91.9493 85.9921 90.3117 86.1025 90.1645 85.6517C90.1001 85.4355 90.4681 85.0951 91.1811 84.8329C92.1257 84.5249 93.1282 84.4368 94.112 84.5756C95.0958 84.7143 96.0349 85.0761 96.8575 85.6333C97.4693 86.0749 97.7315 86.5027 97.6119 86.6913Z" fill="#263238"/>
<path d="M111.591 89.3771C111.292 89.7727 110.004 89.4645 108.477 89.5428C106.95 89.6209 105.685 89.9705 105.363 89.5979C105.22 89.4185 105.4 89.0321 105.942 88.6411C106.684 88.1572 107.546 87.891 108.431 87.8729C109.314 87.8253 110.192 88.0312 110.961 88.4664C111.522 88.816 111.725 89.1885 111.591 89.3771Z" fill="#263238"/>
<path d="M61.3962 106.375C63.089 101.269 68.4342 84.8926 74.2486 76.746C80.063 68.5994 85.8636 65.8302 91.2364 65.246C96.6092 64.6618 100.786 66.8468 102.801 69.2848C104.816 71.7228 105.069 78.3974 105.069 78.3974C105.069 78.3974 91.2134 79.0552 85.9372 85.509C79.879 92.9196 78.085 96.8296 78.085 96.8296L75.8448 101.052C75.8448 101.052 73.5448 121.228 73.4298 125.575L59.9702 153.888C49.726 145.254 59.7034 111.481 61.3962 106.375Z" fill="#263238"/>
<path d="M104.42 78.296C104.42 78.296 111.656 78.6134 113.059 87.036C113.694 90.854 112.452 101.558 112.452 101.558C112.452 101.558 115.308 93.3196 115.672 88.4988C116.035 83.678 114.558 77.3024 111.421 73.4108C108.367 69.6296 105.611 67.6516 99.2083 67.0674C99.2083 67.0674 102.005 68.5394 103.261 71.2074C103.873 72.5322 104.07 73.5994 104.42 78.296Z" fill="#263238"/>
<path d="M78.0758 97.464C78.3426 94.8374 75.7758 92.6662 73.3148 93.6276C71.9624 94.152 70.794 95.4676 70.4858 98.2276C69.6624 105.652 77.2892 104.948 77.326 104.737C77.3444 104.608 77.763 100.537 78.0758 97.464Z" fill="#AD7460"/>
<path d="M75.3664 101.659C75.3388 101.632 75.2284 101.738 74.9984 101.811C74.6758 101.909 74.3278 101.878 74.0278 101.724C73.278 101.351 72.7536 100.031 72.8686 98.6878C72.9194 98.049 73.1127 97.4297 73.4344 96.8754C73.5302 96.6521 73.6784 96.4551 73.8666 96.3013C74.0549 96.1475 74.2774 96.0415 74.5154 95.9922C74.6714 95.9708 74.8299 96.0053 74.9629 96.0894C75.0959 96.1736 75.1948 96.3021 75.2422 96.4522C75.3158 96.6684 75.2422 96.811 75.2928 96.8294C75.3434 96.8478 75.463 96.7236 75.44 96.4108C75.4186 96.2217 75.3344 96.0451 75.2008 95.9094C75.0118 95.7351 74.7633 95.6397 74.5062 95.6426C74.1944 95.67 73.8948 95.7765 73.6356 95.9519C73.3764 96.1274 73.1662 96.3661 73.025 96.6454C72.6386 97.2535 72.4065 97.9467 72.3488 98.6648C72.2292 100.164 72.841 101.65 73.8806 102.078C74.0733 102.159 74.2819 102.196 74.4906 102.185C74.6994 102.173 74.9029 102.115 75.0858 102.014C75.3342 101.857 75.394 101.696 75.3664 101.659Z" fill="#5B3765"/>
<path d="M95.4269 131.56C95.4269 131.56 116.858 155.425 116.923 165.508C116.992 177.008 110.717 186.742 110.717 186.742L106.458 205.928L59.2939 205.786C60.0667 197.331 66.1019 198.154 65.2739 186.249C65.0807 183.489 59.4181 161.069 59.3675 150.098C59.3031 137.195 73.5999 122.544 73.5999 122.544L95.4269 131.56Z" fill="#5B3765"/>
<g opacity="0.3">
<path d="M93.702 174.703C92.5106 173.507 91.1352 172.233 89.447 172.219C88.205 172.219 87.0596 172.905 85.8268 173.08C83.6464 173.392 81.5948 172.058 79.8468 170.734C74.7013 166.907 69.8977 162.64 65.4902 157.982H65.2832C68.5538 168.953 75.0858 179.294 82.8828 187.68C83.9086 186.76 84.1432 185.242 84.4928 183.894C84.8424 182.546 85.537 181.061 86.8894 180.725C88.2418 180.389 89.5344 181.346 90.6108 182.22C94.0326 184.997 97.6431 187.533 101.416 189.81C102.566 190.5 103.785 191.19 105.124 191.24C106.462 191.291 107.93 190.5 108.178 189.184L93.702 174.703Z" fill="black"/>
</g>
<path d="M97.9341 144.651C99.0473 144.615 108.698 151.965 108.698 151.965L96.1401 130.442L80.2471 125.29L89.3091 139.205L97.9341 144.651Z" fill="#AD7460"/>
<path d="M98.1179 140.3C96.9357 136.62 94.6587 133.17 91.2547 131.376C88.3567 129.848 84.5893 129.43 82.7723 126.702C81.3279 124.526 81.6867 121.679 81.2911 119.098C80.4309 113.505 80.2423 104.884 72.3349 104.208L67.1599 115.128C66.4213 116.881 66.1719 118.802 66.4384 120.685C66.705 122.568 67.4773 124.344 68.6733 125.823C70.6743 128.229 73.6275 129.577 76.2587 131.27C84.9987 136.891 92.3587 146.151 99.7187 153.019C99.5163 149.178 99.2955 143.938 98.1179 140.3Z" fill="#263238"/>
<path d="M71.3001 103.389C71.2073 103.45 71.1105 103.503 71.0103 103.55L70.6515 103.73L70.1915 104.042C69.7916 104.341 69.4382 104.698 69.1427 105.1C68.7616 105.641 68.4682 106.239 68.2733 106.871C68.0354 107.639 67.9054 108.437 67.8869 109.24C67.8716 109.684 67.904 110.128 67.9835 110.565C68.075 111.024 68.2298 111.469 68.4435 111.885C68.9006 112.789 69.5855 113.558 70.4307 114.116C71.3565 114.687 72.465 114.885 73.5311 114.668C74.6075 114.497 75.625 114.062 76.4935 113.403C77.286 112.773 77.8657 111.913 78.1541 110.942C78.4306 110.067 78.4921 109.137 78.3335 108.233C78.1989 107.444 77.8944 106.694 77.4411 106.034C76.7762 105.074 75.8638 104.311 74.8007 103.826C74.4069 103.649 74.0029 103.495 73.5909 103.366C74.0216 103.419 74.4419 103.537 74.8375 103.716C75.9454 104.176 76.9018 104.937 77.5975 105.915C78.0754 106.589 78.4004 107.36 78.5497 108.173C78.7222 109.11 78.6654 110.074 78.3841 110.984C78.089 112.003 77.4846 112.904 76.6545 113.564C75.758 114.253 74.703 114.705 73.5863 114.88C73.0196 114.972 72.4418 114.972 71.8751 114.88C71.3203 114.79 70.7905 114.585 70.3203 114.277C69.4438 113.692 68.7351 112.888 68.2641 111.945C68.039 111.51 67.875 111.045 67.7765 110.565C67.6952 110.11 67.6659 109.647 67.6891 109.185C67.7143 108.366 67.8569 107.554 68.1123 106.775C68.3199 106.128 68.6306 105.519 69.0323 104.972C69.3431 104.567 69.7138 104.211 70.1317 103.918L70.5917 103.624L70.9643 103.463C71.0732 103.426 71.1858 103.401 71.3001 103.389Z" fill="white"/>
<path d="M163.82 141.583C168.342 140.801 171.787 138.16 172.942 132.631C174.202 126.61 170.37 116.209 170.37 116.209L162.265 115.85L155.365 115.593C155.365 115.593 150.59 125.57 151.289 131.693C151.989 137.815 155.701 140.792 160.765 141.813H160.844L161.239 142.636L160.54 160.912L155.669 162.568C155.626 162.584 155.589 162.615 155.566 162.654C155.543 162.694 155.533 162.74 155.54 162.786C155.546 162.831 155.568 162.873 155.601 162.904C155.635 162.936 155.678 162.955 155.724 162.959L167.803 163.483C167.85 163.484 167.895 163.469 167.932 163.44C167.968 163.411 167.994 163.371 168.004 163.326C168.014 163.28 168.009 163.233 167.988 163.191C167.967 163.15 167.933 163.116 167.891 163.097L162.605 160.917L163.3 142.632L163.82 141.583Z" fill="white"/>
<path d="M163.82 141.583C163.82 141.583 163.783 141.675 163.7 141.85L163.323 142.641C163.24 145.125 163.019 151.621 162.702 160.926L162.651 160.848L167.541 162.84L167.863 162.969L167.946 163.006C167.984 163.023 168.019 163.048 168.047 163.079C168.078 163.112 168.1 163.151 168.114 163.193C168.127 163.236 168.131 163.28 168.125 163.325C168.118 163.369 168.103 163.411 168.078 163.448C168.053 163.485 168.021 163.516 167.983 163.539C167.913 163.575 167.835 163.589 167.757 163.581H167.403L165.968 163.521L163.006 163.397L156.731 163.134L155.917 163.098C155.843 163.098 155.788 163.098 155.701 163.098C155.649 163.09 155.599 163.069 155.557 163.037C155.515 163.005 155.482 162.962 155.462 162.914C155.442 162.865 155.434 162.812 155.44 162.76C155.446 162.708 155.464 162.658 155.494 162.615C155.552 162.543 155.633 162.492 155.724 162.472L157.32 161.92L160.54 160.821L160.462 160.922C160.673 155.264 160.922 149.081 161.138 142.623V142.678L160.742 141.859L160.844 141.924H160.747C158.493 141.464 156.106 140.544 154.307 138.768C152.794 137.205 151.779 135.228 151.391 133.087C151 131.019 151.026 128.894 151.469 126.836C151.853 124.846 152.39 122.888 153.074 120.98C153.727 119.103 154.454 117.3 155.259 115.557L155.291 115.492H155.365L163.148 115.796L170.375 116.122H170.439L170.462 116.187C171.193 118.265 171.807 120.383 172.302 122.53C172.761 124.46 173.069 126.422 173.222 128.4C173.375 130.14 173.229 131.893 172.79 133.584C172.413 135.017 171.773 136.368 170.904 137.568C170.198 138.527 169.316 139.344 168.305 139.973C167.566 140.443 166.77 140.816 165.936 141.082C165.635 141.188 165.328 141.275 165.016 141.344C164.754 141.418 164.533 141.464 164.353 141.496L163.806 141.593L164.344 141.468C164.522 141.432 164.743 141.376 165.007 141.303C165.264 141.238 165.563 141.146 165.899 141.027C166.723 140.75 167.51 140.372 168.24 139.9C169.236 139.268 170.102 138.453 170.793 137.499C171.645 136.306 172.269 134.966 172.633 133.547C173.061 131.872 173.198 130.135 173.038 128.414C172.884 126.445 172.577 124.492 172.118 122.572C171.621 120.433 171.007 118.323 170.278 116.251L170.366 116.316L163.139 116.003L155.356 115.713L155.462 115.649C154.666 117.374 153.939 119.181 153.29 121.049C152.615 122.946 152.083 124.891 151.699 126.868C151.263 128.895 151.237 130.989 151.621 133.027C152.001 135.123 152.995 137.059 154.477 138.589C156.221 140.314 158.562 141.243 160.784 141.68H160.917L160.945 141.744L161.34 142.568V142.595V142.6C161.097 149.04 160.88 155.241 160.65 160.899V161L160.577 161.023L157.357 162.113L155.779 162.647C155.705 162.674 155.673 162.684 155.659 162.707C155.651 162.721 155.647 162.738 155.647 162.755C155.647 162.772 155.651 162.788 155.659 162.803C155.665 162.818 155.675 162.831 155.688 162.841C155.701 162.851 155.717 162.857 155.733 162.858H155.926L156.74 162.895L163.015 163.171L165.977 163.305L167.412 163.369H167.767C167.886 163.369 167.914 163.369 167.937 163.282C167.94 163.266 167.94 163.25 167.935 163.234C167.93 163.219 167.921 163.205 167.909 163.194C167.909 163.171 167.854 163.157 167.794 163.13L167.472 162.996L162.587 161H162.536V160.94C162.914 151.634 163.18 145.144 163.282 142.66L163.682 141.873C163.76 141.68 163.82 141.583 163.82 141.583Z" fill="#263238"/>
<path d="M171.897 131.56C170.752 137.131 167.146 139.541 162.49 140.001H162.421V140.102L160.844 140.042C156.244 139.122 152.886 136.362 152.255 130.704C152.255 130.704 156.313 131.284 159.155 131.39C163.406 131.546 165.352 128.708 168.098 128.809C170.844 128.91 171.897 131.56 171.897 131.56Z" fill="#5B3765"/>
<path d="M170.485 116.233C170.326 116.373 170.152 116.495 169.965 116.596C169.473 116.894 168.959 117.155 168.429 117.378C166.666 118.118 164.761 118.457 162.852 118.369C160.942 118.282 159.076 117.77 157.389 116.872C156.879 116.602 156.39 116.294 155.926 115.952C155.748 115.837 155.586 115.699 155.443 115.543C155.471 115.506 156.175 116.076 157.467 116.72C159.146 117.562 160.984 118.042 162.861 118.127C164.737 118.213 166.611 117.903 168.36 117.217C169.712 116.693 170.462 116.191 170.485 116.233Z" fill="#263238"/>
<path d="M170.734 132.347C170.698 132.537 170.639 132.722 170.559 132.899C170.362 133.38 170.122 133.842 169.841 134.279C168.907 135.759 167.574 136.945 165.995 137.701C164.416 138.457 162.656 138.752 160.917 138.552C160.395 138.495 159.879 138.389 159.376 138.235C159.19 138.19 159.01 138.121 158.843 138.028C159.532 138.188 160.231 138.306 160.936 138.382C162.639 138.534 164.352 138.224 165.894 137.485C167.436 136.746 168.75 135.605 169.699 134.182C170.078 133.59 170.424 132.978 170.734 132.347Z" fill="white"/>
<path d="M80.9598 139.697C76.7324 135.603 68.7146 134.03 64.9058 140.084C64.1514 141.275 63.857 147.223 63.9214 148.916C64.2204 157.026 66.7826 155.756 70.2878 159.684C72.8132 162.509 106.048 190.196 112.861 193.54C119.673 196.884 123.873 193.278 123.873 193.278L147.37 162.716L140.893 152.108L117.861 172.385L80.9598 139.697Z" fill="#AD7460"/>
<path d="M139.592 153.405C139.592 153.405 152.554 142.264 153.189 142.199C153.824 142.135 164.307 142.54 164.307 142.54C164.307 142.54 167.477 143.382 167.362 144.67C167.289 145.441 166.926 146.157 166.345 146.671C166.861 147.327 167.315 148.029 167.702 148.768C167.955 149.421 167.1 150.719 167.1 150.719C167.1 150.719 168.153 151.744 168.02 152.825C167.956 153.441 167.702 154.022 167.293 154.486C167.293 154.486 168.641 155.148 168.314 156.496C167.987 157.844 166.396 160.526 166.396 160.526C166.396 160.526 164.993 160.319 164.905 159.261C164.843 158.725 164.871 158.182 164.988 157.655L159.418 158.635C159.418 158.635 156.257 160.595 154.477 160.935C152.697 161.276 146.607 163.695 146.607 163.695L139.592 153.405Z" fill="#AD7460"/>
<path d="M166.354 146.937C166.052 146.645 165.719 146.385 165.361 146.164C164.45 145.707 163.433 145.504 162.417 145.576C161.225 145.631 160.144 145.842 159.344 145.893C158.916 145.953 158.481 145.944 158.056 145.865C158.056 145.829 158.548 145.829 159.33 145.723C160.112 145.617 161.17 145.396 162.408 145.332C163.465 145.257 164.521 145.495 165.444 146.017C165.718 146.183 165.963 146.394 166.166 146.643C166.308 146.818 166.368 146.928 166.354 146.937Z" fill="#5B3765"/>
<path d="M167.44 150.645C167.046 150.604 166.656 150.535 166.272 150.438C164.402 150.089 162.488 150.045 160.604 150.309C160.216 150.386 159.822 150.436 159.427 150.461C159.794 150.302 160.181 150.194 160.577 150.139C161.522 149.959 162.485 149.881 163.447 149.905C164.41 149.927 165.367 150.05 166.304 150.273C166.697 150.347 167.079 150.472 167.44 150.645Z" fill="#5B3765"/>
<path d="M167.725 154.799C167.384 154.632 167.024 154.505 166.653 154.422C165.735 154.329 164.808 154.346 163.893 154.473C162.803 154.555 161.814 154.62 161.097 154.652C160.71 154.691 160.32 154.691 159.933 154.652C160.309 154.555 160.695 154.497 161.083 154.477C161.796 154.404 162.785 154.316 163.875 154.229C164.81 154.09 165.76 154.09 166.695 154.229C167.091 154.303 167.453 154.503 167.725 154.799Z" fill="#5B3765"/>
<path d="M119.342 181.037C119.274 180.617 119.237 180.193 119.232 179.767C119.181 178.981 119.089 177.9 118.924 176.713C118.758 175.526 118.542 174.459 118.372 173.691C118.26 173.28 118.177 172.862 118.123 172.439C118.308 172.825 118.447 173.231 118.537 173.649C119.076 175.642 119.367 177.694 119.402 179.758C119.432 180.185 119.412 180.614 119.342 181.037Z" fill="#5B3765"/>
<path d="M74.5475 131.863C72.301 131.331 69.9375 131.636 67.9 132.722C65.8625 133.807 64.291 135.599 63.4799 137.76C62.6263 139.916 62.1592 142.205 62.0999 144.522C62.1459 150.309 64.0365 156.096 68.0385 162.2C71.4701 167.435 81.7373 181.575 81.7373 181.575L83.0897 178.088C83.459 177.44 83.9527 176.87 84.5423 176.412C85.1319 175.955 85.8059 175.618 86.5259 175.42L87.4459 175.181C89.3181 174.684 91.5169 174.201 92.6623 172.647L94.5023 169.206L103.642 156.882C103.642 156.882 83.5451 136.872 79.0049 133.533C77.9607 132.792 75.7251 132.139 74.5475 131.863Z" fill="#5B3765"/>
<path d="M103.606 156.883C103.555 156.929 98.8219 152.283 93.0259 146.519C87.2299 140.755 82.5701 136.031 82.6161 135.985C82.6621 135.939 87.4001 140.585 93.1961 146.349C98.9921 152.112 103.652 156.86 103.606 156.883Z" fill="#263238"/>
<path d="M103.606 156.883L103.509 157.026L103.215 157.426L102.051 158.953C101.03 160.282 99.5027 162.173 97.6719 164.639C96.7519 165.867 95.7629 167.228 94.8245 168.779C94.5853 169.165 94.3644 169.57 94.1528 169.988L93.5549 171.299C93.1487 172.244 92.4996 173.065 91.6734 173.678C90.752 174.241 89.7454 174.651 88.6926 174.892L87.0919 175.352C86.5442 175.474 86.0062 175.635 85.4819 175.835C84.4516 176.359 83.6211 177.205 83.1175 178.245C82.5672 179.321 82.1354 180.453 81.8294 181.622L81.7605 181.852L81.6225 181.659L75.0813 172.5C71.4657 167.357 67.7627 162.592 65.2557 157.711C64.0401 155.416 63.1131 152.979 62.4956 150.457C61.9823 148.251 61.827 145.977 62.0356 143.722C62.2068 141.863 62.6565 140.039 63.3696 138.313C63.9191 137.015 64.6468 135.799 65.5317 134.702C66.1012 134.024 66.7394 133.408 67.4361 132.862L67.9926 132.448L68.1858 132.314L68.0064 132.471L67.4637 132.899C66.7833 133.462 66.1594 134.091 65.6007 134.775C64.7373 135.874 64.0284 137.086 63.4938 138.377C62.7989 140.094 62.3633 141.905 62.2013 143.75C61.9978 145.985 62.1531 148.239 62.6613 150.425C63.2802 152.929 64.2073 155.347 65.4213 157.624C67.9237 162.467 71.6267 167.228 75.2469 172.376C77.5147 175.554 79.7134 178.641 81.7788 181.53L81.5718 181.567C81.8853 180.383 82.3264 179.237 82.8875 178.149C83.4136 177.064 84.2837 176.185 85.3623 175.646C85.8963 175.44 86.4453 175.274 87.0044 175.15L88.6007 174.713C89.639 174.474 90.6318 174.069 91.5401 173.512C92.3466 172.922 92.9817 172.128 93.3801 171.212C93.5871 170.752 93.7849 170.329 93.9873 169.901C94.1897 169.473 94.4473 169.073 94.6681 168.682C95.6203 167.123 96.6323 165.77 97.5476 164.542C99.3876 162.104 100.942 160.209 101.982 158.898C102.497 158.245 102.902 157.743 103.178 157.389L103.491 157.003C103.526 156.959 103.564 156.919 103.606 156.883Z" fill="#263238"/>
<path d="M185.205 74.4282L192.938 75.8082L189.102 69.4602C190.74 66.4792 191.57 63.1216 191.509 59.7207C191.449 56.3197 190.5 52.9938 188.757 50.0729C187.014 47.152 184.537 44.7377 181.573 43.0697C178.608 41.4016 175.259 40.5379 171.858 40.5641C168.457 40.5903 165.121 41.5055 162.183 43.219C159.245 44.9325 156.805 47.3847 155.108 50.3321C153.41 53.2795 152.512 56.6197 152.504 60.0211C152.496 63.4225 153.378 66.7669 155.062 69.7224L150.678 76.8708L159.57 75.0952C163.2 78.113 167.802 79.7103 172.522 79.5901C177.241 79.47 181.756 77.6406 185.228 74.442L185.205 74.4282Z" fill="#FAFAFA"/>
<path d="M185.293 74.3496C185.293 74.3496 185.169 74.4738 184.925 74.6946C184.681 74.9154 184.304 75.242 183.798 75.6422C180.303 78.3103 176.011 79.7213 171.615 79.647C167.219 79.5727 162.976 78.0174 159.574 75.2328L159.712 75.104C159.719 75.1139 159.724 75.1251 159.727 75.137C159.729 75.1489 159.73 75.1612 159.727 75.1732C159.725 75.1851 159.721 75.1966 159.714 75.2068C159.708 75.217 159.699 75.2258 159.689 75.2328H159.652L150.774 77.0728C150.747 77.0782 150.718 77.0725 150.695 77.057C150.672 77.0415 150.656 77.0174 150.65 76.9899C150.64 76.9664 150.64 76.9399 150.65 76.9164L155.02 69.7634V69.8784C152.926 66.2778 152.045 62.0992 152.509 57.9597C152.747 55.7923 153.336 53.6779 154.252 51.6991C156.453 47.0854 160.355 43.5031 165.14 41.7034C168.807 40.3349 172.8 40.0961 176.604 41.0176C180.409 41.9392 183.85 43.9788 186.484 46.8737C188.053 48.5714 189.3 50.54 190.164 52.6835C190.948 54.6638 191.416 56.7545 191.553 58.8797C191.782 62.5341 190.975 66.1789 189.226 69.3953V69.3217L193.085 75.679C193.093 75.6895 193.098 75.7024 193.098 75.7158C193.098 75.7291 193.093 75.742 193.085 75.7525C193.073 75.7568 193.06 75.7568 193.048 75.7525L187.298 74.7267L185.822 74.4554L185.316 74.3542C185.316 74.3542 185.481 74.3542 185.813 74.4278L187.289 74.6716L193.067 75.6468L193.012 75.7296L189.12 69.3953C189.113 69.3843 189.109 69.3716 189.109 69.3585C189.109 69.3455 189.113 69.3328 189.12 69.3217C190.832 66.1202 191.608 62.5017 191.36 58.8797C191.22 56.7797 190.754 54.7142 189.98 52.7571C189.122 50.6404 187.89 48.6957 186.342 47.0163C184.693 45.2173 182.723 43.7428 180.532 42.6693C178.218 41.5387 175.701 40.8833 173.13 40.7419C170.443 40.5856 167.752 40.9881 165.228 41.9241C160.503 43.7117 156.652 47.2572 154.482 51.8187C153.577 53.7728 152.994 55.8607 152.757 58.0011C152.297 62.0852 153.158 66.2091 155.213 69.7679C155.223 69.7854 155.229 69.8053 155.229 69.8254C155.229 69.8456 155.223 69.8655 155.213 69.8829L150.866 77.0498L150.756 76.8934L159.639 75.0534L159.579 75.2052C159.562 75.1872 159.552 75.1633 159.552 75.1385C159.552 75.1136 159.562 75.0897 159.579 75.0718C159.596 75.0583 159.617 75.051 159.639 75.051C159.66 75.051 159.681 75.0583 159.698 75.0718C162.33 77.2376 165.484 78.6748 168.845 79.2399C172.207 79.8049 175.657 79.478 178.853 78.2917C180.609 77.6338 182.264 76.7292 183.766 75.6054C184.276 75.2144 184.663 74.9062 184.911 74.6854C185.159 74.4646 185.293 74.3496 185.293 74.3496Z" fill="#263238"/>
<path d="M177.266 59.2752C177.266 59.6528 177.378 60.0219 177.587 60.3358C177.797 60.6497 178.095 60.8944 178.444 61.0389C178.793 61.1834 179.177 61.2212 179.547 61.1475C179.917 61.0739 180.258 60.8921 180.524 60.6251C180.791 60.3581 180.973 60.018 181.047 59.6476C181.121 59.2773 181.083 58.8935 180.938 58.5447C180.794 58.1958 180.549 57.8977 180.235 57.6879C179.921 57.4782 179.552 57.3662 179.175 57.3662C178.668 57.3662 178.183 57.5673 177.825 57.9253C177.467 58.2834 177.266 58.7689 177.266 59.2752Z" fill="#263238"/>
<path d="M169.639 59.2752C169.639 59.653 169.751 60.0222 169.961 60.3363C170.171 60.6503 170.469 60.895 170.818 61.0393C171.168 61.1837 171.552 61.2212 171.922 61.1472C172.292 61.0732 172.633 60.8909 172.899 60.6234C173.166 60.356 173.348 60.0154 173.421 59.6448C173.494 59.2742 173.455 58.8902 173.31 58.5415C173.165 58.1927 172.92 57.8949 172.605 57.6857C172.291 57.4765 171.921 57.3653 171.543 57.3662C171.038 57.3674 170.553 57.5691 170.196 57.927C169.839 58.2848 169.639 58.7697 169.639 59.2752Z" fill="#263238"/>
<path d="M162.031 58.3182C161.841 58.6449 161.752 59.0206 161.776 59.3977C161.8 59.7748 161.935 60.1364 162.164 60.4367C162.394 60.7369 162.707 60.9623 163.065 61.0843C163.422 61.2064 163.808 61.2195 164.173 61.1221C164.538 61.0247 164.866 60.8211 165.115 60.5372C165.365 60.2532 165.524 59.9017 165.574 59.5271C165.623 59.1524 165.56 58.7716 165.393 58.4327C165.226 58.0939 164.962 57.8123 164.634 57.6236C164.418 57.4975 164.179 57.4155 163.93 57.3821C163.682 57.3488 163.43 57.3649 163.188 57.4294C162.946 57.494 162.719 57.6057 162.521 57.7583C162.322 57.9108 162.155 58.1011 162.031 58.3182Z" fill="#263238"/>
</svg>
