<svg width="282" height="308" viewBox="0 0 282 308" fill="none" xmlns="http://www.w3.org/2000/svg">
<path d="M253.271 286.925H234.625V287.133H253.271V286.925Z" fill="#EBEBEB"/>
<path d="M186.461 289.198H181.569V289.406H186.461V289.198Z" fill="#EBEBEB"/>
<path d="M234.065 279.176H223.261V279.384H234.065V279.176Z" fill="#EBEBEB"/>
<path d="M53.8448 280.578H29.5308V280.786H53.8448V280.578Z" fill="#EBEBEB"/>
<path d="M62.4258 280.578H58.8623V280.786H62.4258V280.578Z" fill="#EBEBEB"/>
<path d="M126.747 284.101H74.0098V284.309H126.747V284.101Z" fill="#EBEBEB"/>
<path d="M133.42 236.23H24.7242C23.8717 236.23 23.0541 235.727 22.4513 234.833C21.8484 233.938 21.5098 232.725 21.5098 231.46V4.72794C21.5172 3.47019 21.8591 2.2677 22.4612 1.38222C23.0632 0.496736 23.8766 -4.82199e-05 24.7242 3.51049e-09H133.42C134.272 3.5105e-09 135.09 0.502521 135.693 1.39701C136.295 2.29151 136.634 3.5047 136.634 4.7697V231.46C136.634 232.725 136.295 233.938 135.693 234.833C135.09 235.727 134.272 236.23 133.42 236.23ZM24.7242 0.167066C23.9095 0.169274 23.1285 0.650501 22.5524 1.50535C21.9763 2.3602 21.652 3.519 21.6505 4.72794V231.46C21.652 232.669 21.9763 233.828 22.5524 234.683C23.1285 235.538 23.9095 236.019 24.7242 236.021H133.42C134.234 236.019 135.015 235.538 135.591 234.683C136.168 233.828 136.492 232.669 136.493 231.46V4.72794C136.492 3.519 136.168 2.3602 135.591 1.50535C135.015 0.650501 134.234 0.169274 133.42 0.167066H24.7242Z" fill="#EBEBEB"/>
<path d="M255.192 236.23H146.486C145.634 236.228 144.817 235.724 144.214 234.83C143.612 233.936 143.273 232.725 143.271 231.46V4.72794C143.28 3.47087 143.623 2.26964 144.224 1.38463C144.826 0.499615 145.638 0.00212865 146.486 0H255.192C256.038 0.00434745 256.849 0.503074 257.448 1.38808C258.048 2.27309 258.388 3.47307 258.396 4.72794V231.46C258.396 232.722 258.058 233.933 257.458 234.827C256.858 235.721 256.043 236.225 255.192 236.23ZM146.486 0.167066C145.671 0.169274 144.89 0.650501 144.314 1.50535C143.738 2.3602 143.413 3.519 143.412 4.72794V231.46C143.413 232.669 143.738 233.828 144.314 234.683C144.89 235.538 145.671 236.019 146.486 236.021H255.192C256.007 236.019 256.788 235.538 257.364 234.683C257.94 233.828 258.265 232.669 258.266 231.46V4.72794C258.265 3.519 257.94 2.3602 257.364 1.50535C256.788 0.650501 256.007 0.169274 255.192 0.167066H146.486Z" fill="#EBEBEB"/>
<path d="M281.477 273.487H0V273.695H281.477V273.487Z" fill="#EBEBEB"/>
<path d="M245.395 96.8368C234.18 105.19 196.603 102.258 198.36 85.8355C200.116 69.413 208.549 85.8355 208.549 85.8355C208.549 85.8355 209.292 68.82 217.145 68.2269C224.999 67.6338 226.361 83.7806 226.361 83.7806C226.361 83.7806 228.174 70.4823 233.004 73.8236C237.834 77.1649 237.389 87.8988 237.389 87.8988C237.389 87.8988 241.257 83.7973 243.762 85.8355C246.267 87.8737 247.095 95.5754 245.395 96.8368Z" fill="#F5F5F5"/>
<path d="M244.243 261.89C247.012 254.915 246.821 246.896 243.505 242.844C242.119 241.214 240.386 240.376 238.619 240.48C238.816 233.706 237.324 227.541 234.115 223.59C229.611 218.102 222.974 218.302 216.934 223.181C209.981 208.32 198.542 201.905 190.413 208.83C187.647 211.265 185.49 214.968 184.265 219.38C172.607 213.232 160.621 218.077 156.833 230.974C155.852 234.332 155.473 238.01 155.735 241.65C152.318 240.572 149.041 241.717 147.11 245.2C144.701 249.527 145.084 256.184 147.673 261.856L244.243 261.89Z" fill="#F0F0F0"/>
<path d="M209.937 231.619C209.937 231.619 207.634 239.421 214.891 240.808C214.891 240.791 217.773 233.741 209.937 231.619Z" fill="#E0E0E0"/>
<path d="M209.936 231.619C209.936 231.619 214.085 234.802 214.89 240.808C214.89 240.791 217.772 233.741 209.936 231.619Z" fill="#FAFAFA"/>
<path d="M220.447 238.681C220.447 238.681 218.347 245.781 224.95 247.034C224.962 247.026 227.585 240.577 220.447 238.681Z" fill="#E0E0E0"/>
<path d="M220.447 238.681C220.447 238.681 224.23 241.58 224.951 247.034C224.962 247.026 227.585 240.577 220.447 238.681Z" fill="#FAFAFA"/>
<path d="M220.723 230.701C220.723 230.701 217.075 232.815 220.132 238.679C220.115 238.679 223.813 237.334 220.723 230.701Z" fill="#E0E0E0"/>
<path d="M220.723 230.701C220.723 230.701 221.685 235.212 220.131 238.679C220.115 238.679 223.813 237.334 220.723 230.701Z" fill="#FAFAFA"/>
<path d="M226.988 233.608C226.988 233.608 223.402 231.278 222.777 238.62C222.777 238.629 226.014 241.544 226.988 233.608Z" fill="#E0E0E0"/>
<path d="M226.988 233.607C226.988 233.607 225.53 237.784 222.777 238.619C222.777 238.628 226.014 241.543 226.988 233.607Z" fill="#FAFAFA"/>
<path d="M169.585 240.915C169.585 240.915 171.893 248.717 164.631 250.104C164.631 250.087 161.749 243.079 169.585 240.915Z" fill="#E0E0E0"/>
<path d="M169.585 240.915C169.585 240.915 165.436 244.098 164.631 250.104C164.631 250.087 161.749 243.079 169.585 240.915Z" fill="#FAFAFA"/>
<path d="M179.756 237.115C179.756 237.115 174.504 233.699 173.564 244.466C173.581 244.466 178.326 248.743 179.756 237.115Z" fill="#E0E0E0"/>
<path d="M179.756 237.118C179.756 237.118 177.611 243.275 173.564 244.469C173.581 244.469 178.326 248.746 179.756 237.118Z" fill="#FAFAFA"/>
<path d="M175.668 232.288C175.668 232.288 174.052 239.672 168.552 234.075C168.552 234.075 169.447 226.691 175.668 232.288Z" fill="#E0E0E0"/>
<path d="M175.668 232.288C175.668 232.288 171.547 230.726 168.552 234.075C168.552 234.075 169.447 226.691 175.668 232.288Z" fill="#FAFAFA"/>
<path d="M181.422 235.376C181.422 235.376 185.008 233.045 185.638 240.388C185.638 240.396 182.396 243.311 181.422 235.376Z" fill="#E0E0E0"/>
<path d="M181.422 235.383C181.422 235.383 182.886 239.56 185.638 240.395C185.638 240.404 182.396 243.319 181.422 235.383Z" fill="#FAFAFA"/>
<path d="M176.119 226.373C176.119 226.373 179.705 224.034 180.335 231.385C180.335 231.385 177.093 234.284 176.119 226.373Z" fill="#E0E0E0"/>
<path d="M176.119 226.37C176.119 226.37 177.583 230.547 180.335 231.382C180.335 231.382 177.093 234.281 176.119 226.37Z" fill="#FAFAFA"/>
<path d="M194.053 210.012C194.053 210.012 191.745 217.814 199.007 219.2C199.007 219.184 201.89 212.175 194.053 210.012Z" fill="#E0E0E0"/>
<path d="M194.054 210.012C194.054 210.012 198.198 213.194 199.008 219.2C199.008 219.184 201.891 212.175 194.054 210.012Z" fill="#FAFAFA"/>
<path d="M199.848 221.061C199.848 221.061 197.748 228.17 204.351 229.414C204.351 229.414 206.98 223.032 199.848 221.061Z" fill="#E0E0E0"/>
<path d="M199.85 221.061C199.85 221.061 203.627 223.96 204.353 229.414C204.353 229.414 206.982 223.032 199.85 221.061Z" fill="#FAFAFA"/>
<path d="M200.542 218.769C200.542 218.769 203.672 224.984 207.663 217.098C207.663 217.057 205.192 210.499 200.542 218.769Z" fill="#E0E0E0"/>
<path d="M200.542 218.769C200.542 218.769 204.105 215.319 207.663 217.098C207.663 217.057 205.192 210.499 200.542 218.769Z" fill="#FAFAFA"/>
<path d="M197.921 220.109C197.921 220.109 194.335 217.778 193.705 225.121C193.705 225.129 196.947 228.044 197.921 220.109Z" fill="#E0E0E0"/>
<path d="M197.921 220.11C197.921 220.11 196.457 224.287 193.705 225.122C193.705 225.131 196.947 228.046 197.921 220.11Z" fill="#FAFAFA"/>
<path d="M113.154 259.218C116.594 249.645 115.659 238.452 110.581 232.822C109.858 232.025 109.072 231.362 108.239 230.85C108.453 226.398 107.553 222.388 105.425 220.058C104.111 218.644 102.507 217.95 100.887 218.095C102.576 205.289 99.5305 193.403 93.293 190.253C86.2448 186.687 77.8173 195.616 74.4734 210.201C73.102 209.307 71.5683 209.121 70.1172 209.672C68.6661 210.223 67.3813 211.48 66.4682 213.242C61.4297 207.628 55.423 206.484 51.6399 211.095C48.3072 215.163 47.5979 222.622 49.3543 230.107C47.6422 230.656 46.0426 231.801 44.6874 233.448C39.9305 239.245 39.2437 250.021 42.6326 259.184L113.154 259.218Z" fill="#F0F0F0"/>
<path d="M52.5834 231.646C52.5834 231.646 54.52 238.178 48.4345 239.331C48.412 239.331 46.0194 233.425 52.5834 231.646Z" fill="#E0E0E0"/>
<path d="M52.5834 231.646C52.5834 231.646 49.11 234.311 48.4345 239.331C48.412 239.331 46.0194 233.425 52.5834 231.646Z" fill="#FAFAFA"/>
<path d="M83.0454 197.75C83.0454 197.75 81.1145 204.291 87.2 205.435C87.2 205.435 89.6151 199.529 83.0454 197.75Z" fill="#E0E0E0"/>
<path d="M83.0459 197.75C83.0459 197.75 86.525 200.415 87.2005 205.435C87.2005 205.435 89.6156 199.529 83.0459 197.75Z" fill="#FAFAFA"/>
<path d="M91.8554 203.666C91.8554 203.666 90.0934 209.621 95.6385 210.666C95.6385 210.666 97.8396 205.286 91.8554 203.666Z" fill="#E0E0E0"/>
<path d="M91.8589 203.666C91.8589 203.666 95.0283 206.096 95.6419 210.666C95.6419 210.666 97.8431 205.286 91.8589 203.666Z" fill="#FAFAFA"/>
<path d="M92.0843 196.977C92.0843 196.977 89.0275 198.747 91.5946 203.659C91.5946 203.659 94.6796 202.54 92.0843 196.977Z" fill="#E0E0E0"/>
<path d="M92.0813 196.977C92.0813 196.977 92.892 200.752 91.5916 203.659C91.5916 203.659 94.6766 202.54 92.0813 196.977Z" fill="#FAFAFA"/>
<path d="M97.3381 199.416C97.3381 199.416 94.3319 197.461 93.8027 203.593C93.8027 203.618 96.5218 206.065 97.3381 199.416Z" fill="#E0E0E0"/>
<path d="M97.3381 199.423C97.3381 199.423 96.1108 202.94 93.8027 203.599C93.8027 203.625 96.5218 206.072 97.3381 199.423Z" fill="#FAFAFA"/>
<path d="M103.273 235.486C103.273 235.486 101.342 242.019 107.427 243.171C107.427 243.171 109.842 237.232 103.273 235.486Z" fill="#E0E0E0"/>
<path d="M103.271 235.486C103.271 235.486 106.75 238.151 107.426 243.171C107.426 243.171 109.841 237.232 103.271 235.486Z" fill="#FAFAFA"/>
<path d="M94.7515 232.297C94.7515 232.297 99.1594 229.431 99.9306 238.461C99.9306 238.461 95.9506 242.045 94.7515 232.297Z" fill="#E0E0E0"/>
<path d="M94.7515 232.296C94.7515 232.296 96.5473 237.458 99.9306 238.461C99.9306 238.461 95.9506 242.044 94.7515 232.296Z" fill="#FAFAFA"/>
<path d="M98.179 228.256C98.179 228.256 99.5301 234.446 104.141 229.751C104.146 229.718 103.369 223.561 98.179 228.256Z" fill="#E0E0E0"/>
<path d="M98.179 228.256C98.179 228.256 101.63 226.944 104.141 229.751C104.146 229.718 103.369 223.561 98.179 228.256Z" fill="#FAFAFA"/>
<path d="M93.3522 230.839C93.3522 230.839 90.3517 228.884 89.8225 235.015C89.8225 235.04 92.536 237.488 93.3522 230.839Z" fill="#E0E0E0"/>
<path d="M93.3522 230.844C93.3522 230.844 92.1306 234.36 89.8225 235.02C89.8225 235.045 92.536 237.493 93.3522 230.844Z" fill="#FAFAFA"/>
<path d="M97.8044 223.275C97.8044 223.275 94.7982 221.321 94.269 227.452C94.269 227.485 96.9881 229.933 97.8044 223.275Z" fill="#E0E0E0"/>
<path d="M97.8044 223.274C97.8044 223.274 96.5772 226.799 94.269 227.451C94.269 227.484 96.9881 229.931 97.8044 223.274Z" fill="#FAFAFA"/>
<path d="M53.989 222.383C53.989 222.383 52.0581 228.915 58.1436 230.059C58.1436 230.059 60.5531 224.154 53.989 222.383Z" fill="#E0E0E0"/>
<path d="M53.9875 222.383C53.9875 222.383 57.461 225.048 58.1422 230.059C58.1422 230.059 60.5516 224.154 53.9875 222.383Z" fill="#FAFAFA"/>
<path d="M58.8391 231.638C58.8391 231.638 57.077 237.594 62.6221 238.638C62.6221 238.638 64.8233 233.258 58.8391 231.638Z" fill="#E0E0E0"/>
<path d="M58.8403 231.638C58.8403 231.638 62.0041 234.068 62.6234 238.638C62.6234 238.638 64.8245 233.258 58.8403 231.638Z" fill="#FAFAFA"/>
<path d="M59.4211 229.717C59.4211 229.717 62.0445 234.929 65.3941 228.288C65.3941 228.288 63.3224 222.792 59.4211 229.717Z" fill="#E0E0E0"/>
<path d="M59.4211 229.717C59.4211 229.717 62.4104 226.826 65.3941 228.288C65.3941 228.288 63.3224 222.792 59.4211 229.717Z" fill="#FAFAFA"/>
<path d="M57.2295 230.839C57.2295 230.839 54.2233 228.884 53.6941 235.015C53.6941 235.04 56.4132 237.488 57.2295 230.839Z" fill="#E0E0E0"/>
<path d="M57.2295 230.844C57.2295 230.844 56.0022 234.36 53.6941 235.02C53.6941 235.045 56.4132 237.493 57.2295 230.844Z" fill="#FAFAFA"/>
<path d="M198.513 273.345H222.495L222.889 266.445C222.97 265.065 222.848 263.677 222.534 262.373C222.22 261.07 221.719 259.882 221.067 258.892C220.415 257.901 219.627 257.131 218.756 256.634C217.885 256.137 216.952 255.925 216.021 256.012L204.008 257.123C203.111 257.205 202.236 257.564 201.437 258.174C200.638 258.785 199.934 259.635 199.368 260.671C198.803 261.707 198.388 262.905 198.151 264.191C197.913 265.477 197.859 266.822 197.99 268.141L198.513 273.345Z" fill="#F5F5F5"/>
<path d="M58.44 273.34H28.8061L28.1474 265.103C28.0696 264.079 28.1345 263.042 28.3381 262.057C28.5417 261.072 28.8798 260.159 29.3312 259.375C29.7825 258.592 30.3377 257.955 30.962 257.503C31.5864 257.052 32.2667 256.795 32.9607 256.75L54.2347 255.514C54.978 255.477 55.7176 255.683 56.401 256.118C57.0845 256.553 57.6951 257.206 58.1894 258.03C58.6837 258.855 59.0497 259.83 59.2613 260.888C59.473 261.946 59.525 263.06 59.4139 264.151L58.44 273.34Z" fill="#E6E6E6"/>
<path d="M108.509 273.344H76.9382L76.4428 266.661C76.3434 265.343 76.4347 264.008 76.7105 262.746C76.9864 261.483 77.4405 260.323 78.0425 259.342C78.6446 258.361 79.3807 257.582 80.2018 257.056C81.0229 256.531 81.9101 256.271 82.8042 256.295L103.29 256.846C104.229 256.872 105.152 257.209 105.992 257.832C106.831 258.456 107.566 259.35 108.143 260.45C108.719 261.549 109.122 262.826 109.323 264.187C109.524 265.548 109.517 266.959 109.302 268.315L108.509 273.344Z" fill="#E6E6E6"/>
<path d="M79.9376 273.342H55.9389L55.4322 266.476C55.3652 265.556 55.4307 264.625 55.6241 263.745C55.8176 262.865 56.1348 262.056 56.5546 261.371C56.9744 260.687 57.4874 260.142 58.0596 259.774C58.6318 259.405 59.2502 259.221 59.8739 259.234L76.3347 259.576C76.9702 259.589 77.5962 259.807 78.1699 260.213C78.7435 260.619 79.2512 261.204 79.6581 261.928C80.065 262.653 80.3616 263.499 80.5274 264.409C80.6932 265.32 80.7244 266.273 80.6188 267.203L79.9376 273.342Z" fill="#F5F5F5"/>
<path d="M126.877 273.345H102.901L102.501 266.445C102.421 265.065 102.542 263.677 102.856 262.373C103.171 261.07 103.671 259.882 104.323 258.892C104.975 257.901 105.763 257.131 106.634 256.634C107.505 256.137 108.438 255.925 109.369 256.012L121.383 257.123C122.279 257.205 123.155 257.564 123.953 258.174C124.752 258.785 125.456 259.635 126.022 260.671C126.588 261.707 127.002 262.905 127.24 264.191C127.477 265.477 127.532 266.822 127.401 268.141L126.877 273.345Z" fill="#F5F5F5"/>
<path d="M246.888 273.34H217.254L216.601 265.104C216.523 264.08 216.588 263.043 216.792 262.057C216.996 261.072 217.334 260.159 217.785 259.376C218.236 258.592 218.792 257.955 219.416 257.503C220.04 257.052 220.721 256.796 221.415 256.751L242.683 255.514C243.427 255.476 244.167 255.681 244.851 256.116C245.535 256.55 246.147 257.203 246.641 258.027C247.136 258.852 247.503 259.828 247.715 260.887C247.927 261.945 247.979 263.06 247.868 264.152L246.888 273.34Z" fill="#E6E6E6"/>
<path d="M174.673 273.34H204.307L204.96 265.104C205.038 264.08 204.973 263.043 204.769 262.057C204.565 261.072 204.227 260.159 203.776 259.376C203.325 258.592 202.769 257.955 202.145 257.503C201.521 257.052 200.84 256.796 200.146 256.751L178.878 255.514C178.134 255.476 177.394 255.681 176.71 256.116C176.026 256.55 175.414 257.203 174.919 258.027C174.424 258.852 174.058 259.828 173.846 260.887C173.634 261.945 173.582 263.06 173.693 264.152L174.673 273.34Z" fill="#E6E6E6"/>
<path d="M124.601 273.344H156.172L156.667 266.661C156.765 265.344 156.672 264.011 156.395 262.751C156.119 261.491 155.664 260.332 155.063 259.353C154.461 258.374 153.725 257.596 152.905 257.072C152.085 256.547 151.199 256.288 150.306 256.312L129.82 256.863C128.881 256.888 127.958 257.225 127.118 257.849C126.279 258.472 125.544 259.367 124.967 260.466C124.391 261.566 123.987 262.843 123.787 264.204C123.586 265.565 123.593 266.975 123.807 268.332L124.601 273.344Z" fill="#E6E6E6"/>
<path d="M153.193 273.342H177.169L177.676 266.476C177.743 265.556 177.677 264.625 177.484 263.745C177.29 262.865 176.973 262.056 176.553 261.371C176.134 260.687 175.621 260.142 175.048 259.774C174.476 259.405 173.858 259.221 173.234 259.234L156.773 259.576C156.138 259.589 155.512 259.807 154.938 260.213C154.365 260.619 153.857 261.204 153.45 261.928C153.043 262.653 152.746 263.499 152.581 264.409C152.415 265.32 152.384 266.273 152.489 267.203L153.193 273.342Z" fill="#F5F5F5"/>
<path d="M98.1606 77.1644C86.9409 85.5176 49.3637 82.5856 51.1201 66.1715C52.8765 49.7573 61.3096 66.1715 61.3096 66.1715C61.3096 66.1715 62.0527 49.1559 69.9059 48.5545C77.7592 47.953 79.1215 64.1082 79.1215 64.1082C79.1215 64.1082 80.9342 50.8182 85.77 54.1512C90.6058 57.4841 90.1498 68.2264 90.1498 68.2264C90.1498 68.2264 94.0173 64.1249 96.5224 66.1715C99.0276 68.218 99.8551 75.9114 98.1606 77.1644Z" fill="#F5F5F5"/>
<path d="M198.867 62.6511C185.868 61.8742 149.136 61.2227 149.378 38.8276C149.62 16.4326 166.39 37.5496 166.39 37.5496C166.39 37.5496 173.005 10.8192 182.654 14.244C192.303 17.6688 194.6 40.5985 194.6 40.5985C194.6 40.5985 199.284 15.4302 210.644 25.4791C219.139 32.997 216.06 51.8169 216.06 51.8169C216.06 51.8169 228.383 45.2763 229.227 55.367C230.072 65.4578 206.546 63.0938 198.867 62.6511Z" fill="#F5F5F5"/>
<path d="M52.5061 116.666C46.8765 116.332 30.8999 116.048 31.0012 106.316C31.1025 96.5846 38.3984 105.765 38.3984 105.765C38.3984 105.765 41.2695 94.137 45.4635 95.6323C49.6575 97.1275 50.654 107.11 50.654 107.11C50.654 107.11 52.6806 96.1836 57.6233 100.552C61.3163 103.81 59.9765 111.996 59.9765 111.996C59.9765 111.996 65.3358 109.148 65.7017 113.533C66.0677 117.919 55.8444 116.866 52.5061 116.666Z" fill="#F5F5F5"/>
<path d="M145.214 308.001C208.637 308.001 260.051 303.767 260.051 298.545C260.051 293.322 208.637 289.089 145.214 289.089C81.7914 289.089 30.3772 293.322 30.3772 298.545C30.3772 303.767 81.7914 308.001 145.214 308.001Z" fill="#F5F5F5"/>
<path d="M62.3055 202.66C68.2425 202.66 73.0554 196.919 73.0554 189.838C73.0554 182.756 68.2425 177.016 62.3055 177.016C56.3685 177.016 51.5557 182.756 51.5557 189.838C51.5557 196.919 56.3685 202.66 62.3055 202.66Z" fill="#18191F"/>
<path d="M61.4779 177.869C61.4779 177.869 63.1303 168.972 64.6821 169.849C66.2338 170.727 63.1303 172.907 63.0829 177.869C63.0829 177.869 66.5418 173.491 68.8162 176.114C68.8162 176.114 65.5113 175.972 64.1668 179.03C64.1668 179.03 67.1637 181.653 69.8467 181.068C69.8467 181.068 68.1943 183.423 63.2369 181.16C63.2369 181.16 64.4748 187.634 61.4601 186.606C61.6989 186.318 61.8906 185.961 62.0221 185.559C62.1535 185.156 62.2216 184.718 62.2216 184.275C62.2216 183.832 62.1535 183.395 62.0221 182.992C61.8906 182.59 61.6989 182.233 61.4601 181.945C61.4601 181.945 55.1582 186.606 54.7437 181.068C55.6672 181.61 56.6802 181.774 57.6668 181.542C58.6534 181.31 59.5738 180.691 60.3229 179.756C60.3229 179.756 58.3625 174.953 55.7742 175.237C55.792 175.237 58.3802 172.18 61.4779 177.869Z" fill="#263238"/>
<path opacity="0.2" d="M72.6561 185.988C73.0884 191.217 71.2761 199.203 62.9072 199.203C54.9943 199.203 52.7674 196.07 52.5364 195.711C54.2303 200.272 57.9616 202.661 62.309 202.661C68.2318 202.661 73.0529 198.209 73.0529 189.839C73.0571 188.534 72.9234 187.236 72.6561 185.988Z" fill="black"/>
<path opacity="0.2" d="M57.6373 195.705C57.6373 195.705 52.135 192.59 53.6098 187.544C55.0845 182.499 55.0372 192.339 57.6373 195.705Z" fill="#FFF8FB"/>
<path d="M62.8409 105.518L61.8755 103.012L58.6712 113.295L55.7098 100.473L54.4838 105.485H49.1533C49.3725 105.844 49.6094 106.195 49.8581 106.545L58.8193 119.125L67.7745 106.545C68.0292 106.195 68.2661 105.844 68.4794 105.485L62.8409 105.518Z" fill="#18191F"/>
<path d="M53.5073 103.623L55.7283 94.5342L58.8556 108.008L61.7518 98.7609L63.6412 103.656H69.4751C70.2879 101.896 70.7332 99.8498 70.7604 97.7502C70.7604 92.9304 68.4801 89.7144 65.0271 89.7144C61.8051 89.7144 60.7035 91.8194 58.82 94.86C56.9307 91.8194 55.8586 89.7144 52.613 89.7144C49.154 89.7144 46.8738 92.9304 46.8738 97.7502C46.9001 99.8512 47.3478 101.899 48.1649 103.656L53.5073 103.623Z" fill="#18191F"/>
<g opacity="0.3">
<path d="M62.8409 105.518L61.8755 103.012L58.6712 113.295L55.7098 100.473L54.4838 105.485H49.1533C49.3725 105.844 49.6094 106.195 49.8581 106.545L58.8193 119.125L67.7745 106.545C68.0292 106.195 68.2661 105.844 68.4794 105.485L62.8409 105.518Z" fill="#FFF8FB"/>
<path d="M53.5073 103.623L55.7283 94.5342L58.8556 108.008L61.7518 98.7609L63.6412 103.656H69.4751C70.2879 101.896 70.7332 99.8498 70.7604 97.7502C70.7604 92.9304 68.4801 89.7144 65.0271 89.7144C61.8051 89.7144 60.7035 91.8194 58.82 94.86C56.9307 91.8194 55.8586 89.7144 52.613 89.7144C49.154 89.7144 46.8738 92.9304 46.8738 97.7502C46.9001 99.8512 47.3478 101.899 48.1649 103.656L53.5073 103.623Z" fill="#FFF8FB"/>
</g>
<path d="M90.6182 39.6009L91.9508 40.2692C91.9508 40.2692 102.843 44.9303 109.038 36.577C115.233 28.2238 117.052 18.3753 119.314 18.6593C121.577 18.9433 122.66 33.194 112.355 45.0556C102.049 56.9172 92.8096 50.3432 90.476 42.5496L89.5698 41.1463L90.6182 39.6009Z" fill="#18191F"/>
<path opacity="0.6" d="M119.31 18.658C117.048 18.4074 115.241 28.2225 109.052 36.5757C103.129 44.5531 92.9244 40.6605 92.036 40.3013L90.4724 42.5066C92.7764 50.3419 102.046 56.9076 112.351 45.0125C122.657 33.1175 121.567 18.917 119.31 18.658Z" fill="#FFF8FB"/>
<path d="M112.359 43.0256C112.359 43.0256 116.374 45.5316 114.521 48.497C112.667 51.4624 110.002 53.7261 110.499 54.9374C110.997 56.1486 120.621 48.9397 113.715 42.5996L112.359 43.0256Z" fill="#18191F"/>
<path opacity="0.3" d="M112.359 43.0256C112.359 43.0256 116.374 45.5316 114.521 48.497C112.667 51.4624 110.002 53.7261 110.499 54.9374C110.997 56.1486 120.621 48.9397 113.715 42.5996L112.359 43.0256Z" fill="#FFF8FB"/>
<path d="M107.926 33.9607C103.501 26.9774 96.0386 32.2399 96.1689 31.0287C96.2992 29.8175 104.763 26.8521 108.826 33.3258C112.889 39.7996 108.015 43.901 102.186 45.2459C96.3585 46.5908 91.2886 41.3533 91.2886 41.3533L91.9697 40.2674C91.9697 40.2674 101.446 44.327 107.754 38.0788C108.136 37.7058 108.403 37.1396 108.497 36.4975C108.592 35.8553 108.508 35.1863 108.263 34.6289C108.162 34.3956 108.049 34.1723 107.926 33.9607Z" fill="#18191F"/>
<path opacity="0.3" d="M107.926 33.9607C103.501 26.9774 96.0386 32.2399 96.1689 31.0287C96.2992 29.8175 104.763 26.8521 108.826 33.3258C112.889 39.7996 108.015 43.901 102.186 45.2459C96.3585 46.5908 91.2886 41.3533 91.2886 41.3533L91.9697 40.2674C91.9697 40.2674 101.446 44.327 107.754 38.0788C108.136 37.7058 108.403 37.1396 108.497 36.4975C108.592 35.8553 108.508 35.1863 108.263 34.6289C108.162 34.3956 108.049 34.1723 107.926 33.9607Z" fill="#FFF8FB"/>
<path d="M104.906 50.7593C97.8463 53.5493 92.2019 48.387 90.4724 42.5063L91.2838 41.3535C91.2838 41.3535 96.3478 46.5827 102.182 45.2462C105.327 44.5194 108.193 42.9991 109.532 40.7271C110.776 40.8607 113.115 41.6208 113.707 45.3046C114.377 49.4813 107.447 53.9001 104.539 53.7247C104.024 53.7247 101.963 53.0063 104.758 50.8178L104.906 50.7593Z" fill="#18191F"/>
<path opacity="0.3" d="M104.912 50.7593L104.651 50.9013C102.027 53.023 104.059 53.6913 104.544 53.7247C107.452 53.9001 114.382 49.5481 113.713 45.3046C113.121 41.6208 110.751 40.8607 109.537 40.7271C113.18 41.8714 104.912 50.7593 104.912 50.7593Z" fill="#FFF8FB"/>
<path d="M204.71 48.6332C206.924 48.6332 209.046 47.3932 210.611 45.1859C212.176 42.9787 213.055 39.985 213.055 36.8635C213.055 33.742 212.176 30.7483 210.611 28.541C209.046 26.3338 206.924 25.0938 204.71 25.0938H202.199C199.986 25.0938 197.863 26.3338 196.298 28.541C194.733 30.7483 193.854 33.742 193.854 36.8635C193.854 39.985 194.733 42.9787 196.298 45.1859C197.863 47.3932 199.986 48.6332 202.199 48.6332H204.71Z" fill="#18191F"/>
<path opacity="0.5" d="M204.71 48.6332C206.924 48.6332 209.046 47.3932 210.611 45.1859C212.176 42.9787 213.055 39.985 213.055 36.8635C213.055 33.742 212.176 30.7483 210.611 28.541C209.046 26.3338 206.924 25.0938 204.71 25.0938H202.199C199.986 25.0938 197.863 26.3338 196.298 28.541C194.733 30.7483 193.854 33.742 193.854 36.8635C193.854 39.985 194.733 42.9787 196.298 45.1859C197.863 47.3932 199.986 48.6332 202.199 48.6332H204.71Z" fill="#FFF8FB"/>
<path d="M210.442 38.7516C211.18 32.3353 208.091 26.2896 203.541 25.2481C198.992 24.2066 194.705 28.5637 193.967 34.98C193.228 41.3962 196.318 47.442 200.867 48.4835C205.416 49.525 209.703 45.1679 210.442 38.7516Z" fill="#18191F"/>
<path d="M201.378 39.8381C201.938 39.8381 202.474 39.5248 202.869 38.9671C203.265 38.4095 203.487 37.6531 203.487 36.8644C203.487 36.0757 203.265 35.3193 202.869 34.7616C202.474 34.2039 201.938 33.8906 201.378 33.8906H190.587C190.028 33.8906 189.492 34.2039 189.096 34.7616C188.701 35.3193 188.479 36.0757 188.479 36.8644C188.479 37.6531 188.701 38.4095 189.096 38.9671C189.492 39.5248 190.028 39.8381 190.587 39.8381H201.378Z" fill="#263238"/>
<path d="M183.319 48.6332C185.532 48.6332 187.655 47.3932 189.22 45.1859C190.785 42.9787 191.664 39.985 191.664 36.8635C191.664 33.742 190.785 30.7483 189.22 28.541C187.655 26.3338 185.532 25.0938 183.319 25.0938H180.802C178.588 25.0938 176.466 26.3338 174.901 28.541C173.336 30.7483 172.457 33.742 172.457 36.8635C172.457 39.985 173.336 42.9787 174.901 45.1859C176.466 47.3932 178.588 48.6332 180.802 48.6332H183.319Z" fill="#18191F"/>
<path opacity="0.5" d="M183.319 48.6332C185.532 48.6332 187.655 47.3932 189.22 45.1859C190.785 42.9787 191.664 39.985 191.664 36.8635C191.664 33.742 190.785 30.7483 189.22 28.541C187.655 26.3338 185.532 25.0938 183.319 25.0938H180.802C178.588 25.0938 176.466 26.3338 174.901 28.541C173.336 30.7483 172.457 33.742 172.457 36.8635C172.457 39.985 173.336 42.9787 174.901 45.1859C176.466 47.3932 178.588 48.6332 180.802 48.6332H183.319Z" fill="#FFF8FB"/>
<path d="M186.702 45.1872C189.961 40.5908 189.961 33.1387 186.702 28.5423C183.443 23.9459 178.159 23.9459 174.9 28.5423C171.641 33.1387 171.641 40.5908 174.9 45.1872C178.159 49.7836 183.443 49.7836 186.702 45.1872Z" fill="#18191F"/>
<path opacity="0.3" d="M185.94 37.8651C186.004 37.1998 186.004 36.5255 185.94 35.8603L185.052 35.4927C184.995 35.1326 184.916 34.7804 184.815 34.4402L185.383 33.4128C185.156 32.822 184.873 32.2769 184.542 31.7922L183.672 32.2266C183.466 31.9845 183.246 31.7666 183.014 31.5751L183.044 30.2719C182.615 29.9765 182.158 29.7684 181.688 29.6538L181.166 30.723C181.036 30.723 180.906 30.723 180.776 30.723C180.645 30.723 180.515 30.723 180.385 30.723L179.863 29.6538C179.393 29.7672 178.936 29.9754 178.507 30.2719V31.5751C178.285 31.7675 178.073 31.9825 177.873 32.2183L177.003 31.7839C176.688 32.2752 176.422 32.8229 176.209 33.4128L176.772 34.4486C176.666 34.7871 176.585 35.1397 176.529 35.5011L175.646 35.8686C175.575 36.5331 175.575 37.2089 175.646 37.8734L176.529 38.2493C176.586 38.61 176.668 38.9624 176.772 39.3018L176.209 40.3293C176.433 40.9209 176.714 41.4662 177.044 41.9498L177.915 41.5154C178.112 41.7566 178.324 41.9719 178.549 42.1586V43.4701C178.977 43.7667 179.434 43.9748 179.905 44.0882L180.426 43.0107C180.55 43.0107 180.681 43.0107 180.817 43.0107C180.953 43.0107 181.078 43.0107 181.208 43.0107L181.729 44.0882C182.2 43.9736 182.656 43.7655 183.085 43.4701L183.056 42.1586C183.281 41.9739 183.494 41.7585 183.69 41.5154L184.56 41.9498C184.892 41.4664 185.175 40.9212 185.401 40.3293L184.791 39.26C184.891 38.919 184.97 38.567 185.028 38.2075L185.94 37.8651Z" fill="#FFF8FB"/>
<path d="M180.571 39.8381C181.13 39.8381 181.667 39.5248 182.062 38.9671C182.457 38.4095 182.68 37.6531 182.68 36.8644C182.68 36.0757 182.457 35.3193 182.062 34.7616C181.667 34.2039 181.13 33.8906 180.571 33.8906H178.871C178.312 33.8906 177.776 34.2039 177.38 34.7616C176.985 35.3193 176.763 36.0757 176.763 36.8644C176.763 37.6531 176.985 38.4095 177.38 38.9671C177.776 39.5248 178.312 39.8381 178.871 39.8381H180.571Z" fill="#263238"/>
<path opacity="0.4" d="M180.966 36.862C180.966 37.4508 180.842 38.0265 180.609 38.5158C180.377 39.0052 180.047 39.3864 179.661 39.6109C179.275 39.8355 178.851 39.8934 178.441 39.7773C178.032 39.6612 177.656 39.3763 177.362 38.9588C177.068 38.5412 176.868 38.0098 176.788 37.4318C176.708 36.8539 176.751 36.2554 176.912 35.7124C177.074 35.1693 177.346 34.706 177.694 34.3813C178.043 34.0565 178.451 33.8849 178.869 33.8882C179.426 33.8926 179.959 34.2079 180.352 34.7651C180.745 35.3223 180.966 36.0762 180.966 36.862Z" fill="#FFF8FB"/>
<path d="M237.935 91.7634C240.955 92.9078 246.037 93.2168 246.706 87.5366C247.808 78.181 236.88 82.7168 233.617 82.3493C233.453 82.3293 233.29 82.4022 233.164 82.5518C233.038 82.7014 232.959 82.9155 232.945 83.147C232.931 83.3785 232.982 83.6085 233.088 83.7863C233.194 83.9641 233.346 84.0752 233.51 84.0951C236.235 84.3958 245.504 80.8206 245.528 86.6512C245.528 91.613 240.653 90.9949 238.367 90.1261C237.603 89.8338 237.182 91.471 237.935 91.7968V91.7634Z" fill="#263238"/>
<path d="M239.278 91.7984L239.426 89.4177L226.041 87.7471L225.898 90.1278C225.564 90.2855 225.27 90.5775 225.053 90.9678C224.835 91.3582 224.703 91.8298 224.672 92.3247L222.303 130.75C222.282 131.085 222.308 131.424 222.38 131.745C222.451 132.067 222.567 132.365 222.721 132.624C222.874 132.882 223.062 133.095 223.274 133.251C223.486 133.407 223.718 133.502 223.956 133.531L235.872 135.001C236.352 135.057 236.827 134.843 237.196 134.407C237.564 133.97 237.795 133.347 237.839 132.671L240.208 94.2459C240.241 93.7541 240.171 93.2594 240.005 92.8239C239.84 92.3884 239.587 92.0317 239.278 91.7984Z" fill="#18191F"/>
<path opacity="0.2" d="M239.278 91.7984L239.426 89.4177L226.041 87.7471L225.898 90.1278C225.564 90.2855 225.27 90.5775 225.053 90.9678C224.835 91.3582 224.703 91.8298 224.672 92.3247L222.303 130.75C222.282 131.085 222.308 131.424 222.38 131.745C222.451 132.067 222.567 132.365 222.721 132.624C222.874 132.882 223.062 133.095 223.274 133.251C223.486 133.407 223.718 133.502 223.956 133.531L235.872 135.001C236.352 135.057 236.827 134.843 237.196 134.407C237.564 133.97 237.795 133.347 237.839 132.671L240.208 94.2459C240.241 93.7541 240.171 93.2594 240.005 92.8239C239.84 92.3884 239.587 92.0317 239.278 91.7984Z" fill="#FFF8FB"/>
<path d="M239.595 84.6954L226.503 83.0799C225.828 82.9967 225.234 83.7004 225.175 84.6517L225.052 86.6322C224.993 87.5836 225.492 88.4223 226.166 88.5055L239.259 90.121C239.933 90.2042 240.528 89.5005 240.587 88.5492L240.71 86.5686C240.769 85.6173 240.27 84.7786 239.595 84.6954Z" fill="#18191F"/>
<path opacity="0.3" d="M239.595 84.6954L226.503 83.0799C225.828 82.9967 225.234 83.7004 225.175 84.6517L225.052 86.6322C224.993 87.5836 225.492 88.4223 226.166 88.5055L239.259 90.121C239.933 90.2042 240.528 89.5005 240.587 88.5492L240.71 86.5686C240.769 85.6173 240.27 84.7786 239.595 84.6954Z" fill="black"/>
<path opacity="0.9" d="M234.04 99.3063C231.381 98.2528 228.564 98.2905 225.92 99.4149L223.966 130.974C223.963 131.004 223.965 131.034 223.971 131.064C223.977 131.093 223.988 131.12 224.002 131.143C224.015 131.167 224.033 131.186 224.052 131.2C224.071 131.214 224.092 131.222 224.114 131.224L236.03 132.694C236.073 132.699 236.116 132.68 236.149 132.641C236.182 132.602 236.204 132.546 236.208 132.485L238.234 99.9078C236.821 100.095 235.397 99.8908 234.04 99.3063Z" fill="#FFF8FB"/>
<path d="M233.949 107.278C233.884 108.323 233.601 109.318 233.135 110.136C232.669 110.954 232.042 111.559 231.333 111.874C230.623 112.189 229.863 112.201 229.149 111.907C228.435 111.613 227.799 111.027 227.321 110.224C226.843 109.42 226.544 108.434 226.464 107.391C226.383 106.348 226.523 105.295 226.867 104.364C227.211 103.434 227.742 102.668 228.395 102.164C229.047 101.659 229.791 101.439 230.532 101.531C231.524 101.656 232.442 102.332 233.082 103.409C233.723 104.486 234.034 105.877 233.949 107.278Z" fill="#18191F"/>
<path opacity="0.4" d="M233.949 107.278C233.884 108.323 233.601 109.318 233.135 110.136C232.669 110.954 232.042 111.559 231.333 111.874C230.623 112.189 229.863 112.201 229.149 111.907C228.435 111.613 227.799 111.027 227.321 110.224C226.843 109.42 226.544 108.434 226.464 107.391C226.383 106.348 226.523 105.295 226.867 104.364C227.211 103.434 227.742 102.668 228.395 102.164C229.047 101.659 229.791 101.439 230.532 101.531C231.524 101.656 232.442 102.332 233.082 103.409C233.723 104.486 234.034 105.877 233.949 107.278Z" fill="#FFF8FB"/>
<g opacity="0.9">
<path d="M229.805 102.794C229.484 102.852 229.173 102.991 228.887 103.203C228.842 103.237 228.803 103.285 228.773 103.343C228.743 103.4 228.723 103.467 228.713 103.537C228.704 103.607 228.705 103.68 228.718 103.749C228.73 103.818 228.754 103.883 228.786 103.938L230.024 106.01L230.19 103.312C230.194 103.24 230.186 103.168 230.168 103.101C230.15 103.034 230.121 102.974 230.084 102.924C230.048 102.874 230.003 102.837 229.955 102.814C229.907 102.792 229.855 102.785 229.805 102.794Z" fill="#FFF8FB"/>
<path d="M229.655 106.424L228.424 104.352C228.392 104.297 228.352 104.252 228.306 104.221C228.261 104.19 228.211 104.174 228.16 104.174C228.109 104.174 228.059 104.19 228.014 104.221C227.968 104.252 227.928 104.297 227.896 104.352C227.7 104.717 227.55 105.127 227.452 105.564C227.437 105.632 227.433 105.704 227.44 105.775C227.447 105.846 227.466 105.914 227.494 105.974C227.523 106.033 227.56 106.083 227.604 106.119C227.648 106.155 227.698 106.176 227.748 106.182L229.655 106.424Z" fill="#FFF8FB"/>
<path d="M229.619 107.083L227.706 106.84C227.655 106.835 227.604 106.845 227.557 106.871C227.509 106.897 227.466 106.937 227.431 106.989C227.396 107.041 227.369 107.103 227.354 107.171C227.338 107.24 227.333 107.312 227.339 107.383C227.38 107.836 227.479 108.274 227.629 108.678C227.653 108.741 227.686 108.795 227.726 108.838C227.767 108.88 227.813 108.909 227.863 108.922C227.912 108.936 227.963 108.934 228.012 108.916C228.06 108.899 228.106 108.866 228.144 108.82L229.619 107.083Z" fill="#FFF8FB"/>
<path d="M230.644 103.364L230.478 106.062L231.947 104.317C231.986 104.272 232.018 104.215 232.04 104.151C232.062 104.087 232.073 104.016 232.073 103.945C232.073 103.873 232.062 103.803 232.04 103.739C232.018 103.674 231.986 103.618 231.947 103.573C231.688 103.296 231.398 103.084 231.088 102.947C231.039 102.924 230.987 102.916 230.936 102.926C230.885 102.936 230.836 102.962 230.793 103.002C230.75 103.042 230.715 103.096 230.689 103.159C230.663 103.221 230.648 103.292 230.644 103.364Z" fill="#FFF8FB"/>
<path d="M230.737 107.214L231.969 109.286C232.001 109.342 232.041 109.387 232.087 109.418C232.132 109.449 232.182 109.465 232.233 109.465C232.283 109.465 232.333 109.449 232.379 109.418C232.425 109.387 232.465 109.342 232.496 109.286C232.692 108.923 232.842 108.517 232.941 108.083C232.956 108.014 232.96 107.941 232.953 107.87C232.945 107.799 232.927 107.73 232.898 107.67C232.87 107.61 232.833 107.56 232.789 107.523C232.745 107.486 232.695 107.463 232.644 107.457L230.737 107.214Z" fill="#FFF8FB"/>
<path d="M230.776 106.565L232.689 106.799C232.739 106.806 232.79 106.797 232.838 106.772C232.885 106.747 232.928 106.708 232.964 106.656C232.999 106.605 233.025 106.543 233.041 106.475C233.057 106.407 233.062 106.335 233.056 106.264C233.014 105.809 232.916 105.368 232.766 104.961C232.742 104.899 232.709 104.844 232.669 104.802C232.628 104.759 232.581 104.73 232.532 104.717C232.483 104.703 232.432 104.705 232.383 104.723C232.334 104.741 232.289 104.774 232.25 104.819L230.776 106.565Z" fill="#FFF8FB"/>
<path d="M229.917 107.582L228.448 109.319C228.408 109.364 228.376 109.42 228.354 109.485C228.332 109.549 228.321 109.619 228.321 109.691C228.321 109.762 228.332 109.833 228.354 109.897C228.376 109.961 228.408 110.018 228.448 110.062C228.706 110.339 228.997 110.551 229.306 110.689C229.355 110.711 229.406 110.716 229.457 110.706C229.507 110.696 229.555 110.67 229.597 110.629C229.639 110.589 229.674 110.536 229.7 110.474C229.726 110.412 229.741 110.343 229.745 110.271L229.917 107.582Z" fill="#FFF8FB"/>
<path d="M230.396 107.641L230.23 110.331C230.225 110.403 230.232 110.475 230.25 110.543C230.268 110.611 230.296 110.672 230.333 110.722C230.37 110.772 230.415 110.809 230.464 110.831C230.513 110.853 230.565 110.859 230.615 110.849C230.936 110.79 231.247 110.652 231.533 110.439C231.578 110.406 231.617 110.359 231.647 110.302C231.677 110.245 231.697 110.18 231.707 110.11C231.716 110.04 231.715 109.968 231.702 109.9C231.69 109.831 231.666 109.767 231.634 109.713L230.396 107.641Z" fill="#FFF8FB"/>
</g>
<path d="M236.002 124.763C236.518 121.925 235.304 119.035 233.292 118.308C231.28 117.581 229.231 119.292 228.716 122.13C228.2 124.968 229.413 127.857 231.426 128.585C233.438 129.312 235.487 127.6 236.002 124.763Z" fill="#18191F"/>
<path opacity="0.4" d="M236.002 124.763C236.518 121.925 235.304 119.035 233.292 118.308C231.28 117.581 229.231 119.292 228.716 122.13C228.2 124.968 229.413 127.857 231.426 128.585C233.438 129.312 235.487 127.6 236.002 124.763Z" fill="#FFF8FB"/>
<g opacity="0.9">
<path d="M231.977 119.453C231.657 119.519 231.347 119.657 231.059 119.862C231.013 119.895 230.974 119.942 230.943 120C230.913 120.058 230.892 120.124 230.882 120.195C230.872 120.266 230.874 120.339 230.887 120.408C230.9 120.478 230.925 120.543 230.958 120.597L232.19 122.669L232.356 119.979C232.362 119.907 232.356 119.834 232.339 119.766C232.322 119.698 232.294 119.636 232.257 119.586C232.221 119.535 232.177 119.497 232.128 119.473C232.079 119.45 232.028 119.443 231.977 119.453Z" fill="#FFF8FB"/>
<path d="M231.834 123.067L230.602 120.995C230.57 120.939 230.529 120.894 230.483 120.863C230.437 120.832 230.387 120.816 230.336 120.816C230.284 120.816 230.234 120.832 230.188 120.863C230.142 120.894 230.101 120.939 230.069 120.995C229.875 121.359 229.725 121.765 229.625 122.198C229.611 122.267 229.607 122.339 229.615 122.41C229.623 122.481 229.642 122.549 229.67 122.608C229.698 122.668 229.735 122.718 229.778 122.756C229.822 122.793 229.87 122.816 229.921 122.825L231.834 123.067Z" fill="#FFF8FB"/>
<path d="M231.794 123.721L229.88 123.488C229.83 123.481 229.779 123.49 229.732 123.515C229.684 123.539 229.641 123.579 229.606 123.63C229.57 123.682 229.544 123.743 229.528 123.811C229.512 123.879 229.507 123.951 229.513 124.022C229.561 124.467 229.659 124.899 229.803 125.3C229.827 125.364 229.86 125.42 229.901 125.463C229.942 125.507 229.989 125.536 230.04 125.55C230.09 125.563 230.142 125.561 230.191 125.542C230.24 125.524 230.286 125.489 230.325 125.442L231.794 123.721Z" fill="#FFF8FB"/>
<path d="M232.822 120.001L232.651 122.699L234.125 120.962C234.165 120.917 234.197 120.861 234.219 120.796C234.241 120.732 234.252 120.662 234.252 120.59C234.252 120.519 234.241 120.448 234.219 120.384C234.197 120.32 234.165 120.263 234.125 120.219C233.869 119.939 233.581 119.724 233.273 119.584C233.223 119.559 233.171 119.551 233.119 119.56C233.067 119.568 233.017 119.594 232.974 119.635C232.93 119.675 232.894 119.729 232.867 119.793C232.841 119.857 232.826 119.928 232.822 120.001Z" fill="#FFF8FB"/>
<path d="M232.912 123.863L234.144 125.934C234.176 125.99 234.217 126.035 234.263 126.066C234.309 126.097 234.36 126.113 234.411 126.113C234.462 126.113 234.512 126.097 234.558 126.066C234.604 126.035 234.645 125.99 234.677 125.934C234.872 125.572 235.023 125.165 235.121 124.732C235.137 124.663 235.141 124.591 235.133 124.52C235.126 124.449 235.108 124.381 235.079 124.322C235.051 124.262 235.013 124.213 234.969 124.176C234.925 124.14 234.876 124.119 234.825 124.113L232.912 123.863Z" fill="#FFF8FB"/>
<path d="M232.956 123.203L234.869 123.446C234.92 123.451 234.971 123.441 235.019 123.415C235.066 123.389 235.109 123.349 235.144 123.297C235.179 123.245 235.206 123.183 235.222 123.115C235.238 123.046 235.243 122.974 235.237 122.903C235.19 122.452 235.092 122.015 234.946 121.608C234.922 121.545 234.888 121.49 234.847 121.448C234.806 121.406 234.759 121.377 234.71 121.363C234.66 121.35 234.608 121.352 234.559 121.37C234.51 121.387 234.464 121.42 234.425 121.466L232.956 123.203Z" fill="#FFF8FB"/>
<path d="M232.095 124.224L230.62 125.969C230.581 126.014 230.549 126.071 230.527 126.135C230.505 126.199 230.494 126.27 230.494 126.341C230.494 126.413 230.505 126.483 230.527 126.547C230.549 126.612 230.581 126.668 230.62 126.713C230.878 126.987 231.166 127.198 231.473 127.339C231.522 127.361 231.573 127.367 231.623 127.357C231.674 127.346 231.722 127.32 231.764 127.28C231.806 127.24 231.841 127.187 231.867 127.125C231.892 127.063 231.908 126.993 231.911 126.922L232.095 124.224Z" fill="#FFF8FB"/>
<path d="M232.557 124.283L232.391 126.981C232.386 127.052 232.393 127.124 232.41 127.191C232.428 127.258 232.456 127.319 232.492 127.369C232.529 127.419 232.572 127.456 232.621 127.479C232.669 127.501 232.72 127.508 232.77 127.499C233.09 127.437 233.401 127.298 233.688 127.09C233.734 127.057 233.773 127.01 233.804 126.952C233.834 126.894 233.855 126.828 233.865 126.757C233.875 126.686 233.873 126.613 233.86 126.543C233.846 126.474 233.822 126.409 233.789 126.355L232.557 124.283Z" fill="#FFF8FB"/>
</g>
<path d="M238.552 177.575L238.759 174.276C238.777 173.988 238.754 173.698 238.692 173.422C238.63 173.146 238.531 172.89 238.399 172.669C238.267 172.448 238.105 172.266 237.923 172.133C237.741 172 237.542 171.919 237.337 171.895L229.804 170.96C229.599 170.934 229.393 170.966 229.197 171.053C229.001 171.14 228.82 171.281 228.662 171.467C228.505 171.653 228.375 171.881 228.28 172.138C228.186 172.395 228.128 172.676 228.11 172.964L227.908 176.256C227.853 177.319 227.629 178.352 227.252 179.277C226.876 180.202 226.358 180.997 225.735 181.602C224.962 182.318 224.314 183.271 223.84 184.391C223.366 185.511 223.078 186.768 222.998 188.067L222.057 202.986C221.976 204.284 222.104 205.591 222.433 206.809C222.761 208.027 223.28 209.125 223.952 210.019C224.493 210.766 224.907 211.675 225.165 212.679C225.422 213.682 225.516 214.755 225.439 215.817L225.231 219.116C225.213 219.404 225.236 219.694 225.298 219.97C225.36 220.246 225.459 220.501 225.591 220.723C225.724 220.944 225.885 221.126 226.067 221.259C226.249 221.392 226.448 221.473 226.653 221.497L234.204 222.432C234.409 222.458 234.615 222.426 234.811 222.339C235.007 222.251 235.188 222.111 235.346 221.925C235.503 221.739 235.633 221.51 235.727 221.254C235.822 220.997 235.88 220.716 235.898 220.428L236.1 217.136C236.155 216.073 236.379 215.04 236.755 214.115C237.132 213.189 237.65 212.395 238.273 211.79C239.047 211.075 239.695 210.122 240.169 209.002C240.643 207.882 240.93 206.624 241.01 205.325L241.933 190.431C242.014 189.133 241.886 187.826 241.557 186.608C241.229 185.39 240.71 184.292 240.038 183.398C239.495 182.648 239.079 181.735 238.821 180.727C238.564 179.719 238.472 178.641 238.552 177.575Z" fill="#18191F"/>
<path opacity="0.4" d="M238.552 177.575L238.759 174.276C238.777 173.988 238.754 173.698 238.692 173.422C238.63 173.146 238.531 172.89 238.399 172.669C238.267 172.448 238.105 172.266 237.923 172.133C237.741 172 237.542 171.919 237.337 171.895L229.804 170.96C229.599 170.934 229.393 170.966 229.197 171.053C229.001 171.14 228.82 171.281 228.662 171.467C228.505 171.653 228.375 171.881 228.28 172.138C228.186 172.395 228.128 172.676 228.11 172.964L227.908 176.256C227.853 177.319 227.629 178.352 227.252 179.277C226.876 180.202 226.358 180.997 225.735 181.602C224.962 182.318 224.314 183.271 223.84 184.391C223.366 185.511 223.078 186.768 222.998 188.067L222.057 202.986C221.976 204.284 222.104 205.591 222.433 206.809C222.761 208.027 223.28 209.125 223.952 210.019C224.493 210.766 224.907 211.675 225.165 212.679C225.422 213.682 225.516 214.755 225.439 215.817L225.231 219.116C225.213 219.404 225.236 219.694 225.298 219.97C225.36 220.246 225.459 220.501 225.591 220.723C225.724 220.944 225.885 221.126 226.067 221.259C226.249 221.392 226.448 221.473 226.653 221.497L234.204 222.432C234.409 222.458 234.615 222.426 234.811 222.339C235.007 222.251 235.188 222.111 235.346 221.925C235.503 221.739 235.633 221.51 235.727 221.254C235.822 220.997 235.88 220.716 235.898 220.428L236.1 217.136C236.155 216.073 236.379 215.04 236.755 214.115C237.132 213.189 237.65 212.395 238.273 211.79C239.047 211.075 239.695 210.122 240.169 209.002C240.643 207.882 240.93 206.624 241.01 205.325L241.933 190.431C242.014 189.133 241.886 187.826 241.557 186.608C241.229 185.39 240.71 184.292 240.038 183.398C239.495 182.648 239.079 181.735 238.821 180.727C238.564 179.719 238.472 178.641 238.552 177.575Z" fill="#FFF8FB"/>
<path d="M235.853 184.854L229.658 184.09C227.644 183.842 225.869 185.943 225.692 188.783L224.815 202.921C224.639 205.761 226.129 208.265 228.143 208.514L234.338 209.278C236.352 209.526 238.127 207.425 238.303 204.585L239.18 190.447C239.357 187.607 237.867 185.103 235.853 184.854Z" fill="#263238"/>
<path d="M243.695 192.712L242.801 192.598C242.556 192.567 242.339 192.822 242.317 193.168L242.07 197.044C242.048 197.39 242.229 197.696 242.474 197.727L243.368 197.841C243.614 197.872 243.83 197.617 243.852 197.271L244.1 193.395C244.122 193.049 243.941 192.743 243.695 192.712Z" fill="#18191F"/>
<path d="M227.493 192.961C227.493 192.961 226.646 189.829 227.7 189.537C228.755 189.244 228.666 192.519 228.666 192.519L227.493 192.961Z" fill="#FFF8FB"/>
<path d="M227.716 193.405L228.753 193.196C228.753 193.196 228.989 194.307 228.362 194.415C227.734 194.524 227.716 193.405 227.716 193.405Z" fill="#FFF8FB"/>
<path d="M230.822 192.493C230.822 192.493 232.042 189.611 231.035 189.068C230.028 188.525 229.72 191.766 229.72 191.766L230.822 192.493Z" fill="#FFF8FB"/>
<path d="M230.612 192.902L229.617 192.435C229.617 192.435 229.173 193.462 229.783 193.721C230.393 193.98 230.612 192.902 230.612 192.902Z" fill="#FFF8FB"/>
<path d="M228.258 203.485C227.529 203.393 226.007 203.101 226.937 199.885C226.937 199.885 227.115 201.129 227.529 201.196C227.529 201.196 226.777 198.481 228.897 196.694C228.897 196.694 228.507 198.598 229.247 199.542C229.644 200.044 229.348 201.029 229.348 201.029C229.63 200.396 229.762 199.653 229.727 198.907C229.727 198.907 231.278 203.861 228.258 203.485Z" fill="#FFF8FB"/>
<path d="M236.726 193.797L232.467 193.271C232.382 193.265 232.298 193.234 232.222 193.181C232.145 193.128 232.077 193.054 232.022 192.962C231.966 192.871 231.925 192.764 231.9 192.649C231.874 192.534 231.866 192.413 231.875 192.294C231.881 192.174 231.904 192.058 231.942 191.951C231.98 191.844 232.033 191.749 232.097 191.671C232.162 191.594 232.237 191.535 232.317 191.498C232.398 191.462 232.483 191.448 232.568 191.458L236.826 191.985C236.911 191.991 236.995 192.021 237.071 192.075C237.148 192.128 237.216 192.202 237.271 192.294C237.327 192.385 237.368 192.492 237.394 192.606C237.419 192.721 237.427 192.842 237.419 192.962C237.413 193.081 237.39 193.198 237.352 193.305C237.313 193.411 237.261 193.507 237.196 193.584C237.132 193.662 237.057 193.721 236.976 193.757C236.895 193.794 236.81 193.808 236.726 193.797Z" fill="#FFF8FB"/>
<path d="M234.542 202.637L231.924 202.311C231.839 202.305 231.756 202.274 231.679 202.221C231.603 202.168 231.535 202.094 231.479 202.002C231.424 201.911 231.382 201.804 231.357 201.689C231.332 201.574 231.323 201.453 231.332 201.334C231.338 201.214 231.361 201.098 231.399 200.991C231.437 200.884 231.49 200.789 231.555 200.711C231.619 200.634 231.694 200.575 231.775 200.538C231.855 200.502 231.941 200.488 232.025 200.498L234.643 200.824C234.728 200.833 234.81 200.865 234.886 200.919C234.962 200.972 235.029 201.047 235.084 201.138C235.139 201.229 235.181 201.334 235.207 201.448C235.233 201.562 235.242 201.682 235.235 201.802C235.222 202.042 235.141 202.265 235.011 202.421C234.881 202.578 234.713 202.655 234.542 202.637Z" fill="#FFF8FB"/>
<path d="M187.753 143.049C187.753 143.049 192.723 154.126 196.732 156.373C200.742 158.62 210.1 149.197 210.1 149.197L213.808 147.744C214.042 147.618 214.251 147.412 214.414 147.143C214.578 146.875 214.691 146.553 214.744 146.207L215.277 142.774C215.315 142.524 215.316 142.265 215.279 142.015C215.242 141.765 215.169 141.528 215.063 141.32L214.637 140.485C214.527 140.265 214.384 140.083 214.218 139.95C214.052 139.818 213.868 139.738 213.678 139.717C213.488 139.697 213.297 139.735 213.119 139.83C212.941 139.925 212.78 140.075 212.647 140.268L209.241 145.213C209.241 145.213 200.476 151.06 198.711 148.504C196.946 145.948 196.963 145.956 193.256 138.923L187.753 143.049Z" fill="#FFF8FB"/>
<path d="M184.633 125.975C182.957 127.386 180.801 134.203 187.908 145.663L194.103 138.981C194.103 138.981 189.868 121.539 184.633 125.975Z" fill="#18191F"/>
<path opacity="0.1" d="M192.289 140.951C190.921 133.299 188.996 130.384 188.996 130.384L187.753 132.815L185.508 137.275L186.1 142.421C186.627 143.457 187.231 144.534 187.924 145.654L192.289 140.951Z" fill="black"/>
<path d="M166.316 218.438C166.028 221.982 165.5 225.478 164.74 228.88C157.686 232.965 140.492 267.998 140.492 267.998L143.282 271.732C143.282 271.732 166.606 246.28 172.73 235.563C174.507 232.43 175.756 225.697 177.054 221.437C173.346 221.865 169.628 220.826 166.316 218.438Z" fill="#FFF8FB"/>
<path d="M143.923 270.688L140.712 266.512C140.646 266.422 140.559 266.368 140.467 266.359C140.375 266.35 140.284 266.386 140.209 266.462L136.768 269.803C136.694 269.873 136.631 269.962 136.582 270.067C136.534 270.171 136.5 270.288 136.483 270.411C136.467 270.533 136.468 270.659 136.486 270.782C136.504 270.904 136.54 271.02 136.59 271.123C136.617 271.179 136.649 271.229 136.685 271.273C138.035 272.944 139.291 274.414 140.949 276.577C142.91 279.125 142.193 278.808 144.467 281.848C145.842 283.678 147.547 281.782 147.032 280.904C144.663 276.928 144.663 274.756 144.479 272.05C144.413 271.518 144.216 271.035 143.923 270.688Z" fill="#263238"/>
<path opacity="0.1" d="M166.314 218.438C166.229 219.819 166.087 221.191 165.888 222.548C169.098 224.483 172.583 225.341 176.069 225.054C176.401 223.751 176.72 222.548 177.052 221.437C173.345 221.865 169.626 220.826 166.314 218.438Z" fill="black"/>
<path d="M166.891 192.192C166.986 200.47 165.937 211.831 165.541 218.856C167.542 220.243 172.446 223.175 177.51 222.59C180.003 214.499 182.079 206.166 183.723 197.655C185.921 186.429 185.5 170.415 185.5 170.415L165.481 168.653C164.682 185.877 166.891 192.192 166.891 192.192Z" fill="#263238"/>
<path opacity="0.5" d="M185.483 170.405L165.464 168.642C164.683 185.866 166.892 192.182 166.892 192.182C166.921 195.013 166.821 198.204 166.655 201.454C167.875 205.981 170.333 214.986 172.613 222.178C174.227 222.608 175.873 222.743 177.511 222.579C180.004 214.489 182.08 206.156 183.724 197.645C185.922 186.426 185.483 170.405 185.483 170.405Z" fill="black"/>
<path d="M188.374 230.767C188.03 227.326 185.578 214.829 185.578 214.829C180.674 218.521 177.286 219.707 175.427 220.042C176.315 222.982 178.062 228.971 178.879 231.552C178.879 231.552 178.115 243.823 188.54 291.871L192.727 290.936C192.727 290.936 189.866 245.711 188.374 230.767Z" fill="#FFF8FB"/>
<path d="M192.336 289.709L188.083 291.021C187.993 291.046 187.912 291.115 187.853 291.215C187.795 291.316 187.763 291.442 187.764 291.572V297.486C187.762 297.611 187.778 297.734 187.81 297.85C187.843 297.966 187.892 298.072 187.953 298.161C188.015 298.251 188.089 298.322 188.17 298.371C188.251 298.42 188.339 298.445 188.427 298.447H188.569C190.346 297.862 191.892 297.244 194.101 296.584C196.707 295.79 196.115 296.433 199.183 295.565C201.036 295.038 200.918 291.973 200.118 292.065C196.44 292.516 195.167 291.288 193.515 289.901C193.152 289.632 192.732 289.563 192.336 289.709Z" fill="#263238"/>
<path opacity="0.1" d="M185.578 214.829C180.674 218.521 177.286 219.707 175.427 220.042C175.669 220.877 175.983 221.896 176.321 223.04C179.814 222.152 183.138 220.249 186.082 217.452C185.785 215.873 185.578 214.829 185.578 214.829Z" fill="black"/>
<path d="M186.188 215.739C186.188 215.739 182.137 193.903 182.238 186.502C182.297 182.134 184.672 169.353 184.672 169.353L166.021 166.229C166.021 166.229 160.483 180.739 166.021 192.408C166.021 192.408 170.617 207.803 174.905 221.252C178.868 220.37 182.688 218.503 186.188 215.739Z" fill="#263238"/>
<path d="M176.034 105.951C176.1 108.9 175.638 112.634 173.831 114.405C172.966 115.24 171.912 115.7 171.201 116.844C170.491 117.988 170.183 119.458 169.762 120.753C169.62 121.188 170.082 121.589 170.23 121.137C170.822 119.342 171.213 117.537 172.422 116.401C173.494 115.399 174.56 114.939 175.312 113.361C176.251 111.126 176.69 108.544 176.573 105.951C176.573 105.467 176.023 105.467 176.034 105.951Z" fill="#1A2E35"/>
<path d="M176.314 102.168C176.314 102.168 176.788 96.0367 170.51 99.4031C164.498 102.627 166.784 107.339 161.122 111.657C155.46 115.976 164.35 119.234 162.306 123.034C160.263 126.835 167.128 127.211 169.011 120.378C170.894 113.545 173.512 115.617 175.271 112.217C176.308 110.204 176.758 105.952 176.758 105.952L176.314 102.168Z" fill="#1A2E35"/>
<path d="M179.809 111.656C179.809 111.656 179.359 114.245 177.623 113.326C175.888 112.408 178.98 113.059 179.809 111.656Z" fill="#1A2E35"/>
<path d="M178.15 106.694C177.82 106.588 177.48 106.557 177.143 106.602C177.036 106.684 176.94 106.791 176.859 106.92C176.809 106.994 176.746 107.049 176.677 107.08C176.607 107.111 176.533 107.116 176.462 107.095C176.391 107.074 176.325 107.028 176.27 106.961C176.215 106.893 176.173 106.807 176.148 106.711C175.915 105.832 175.817 104.894 175.861 103.957C175.905 103.021 176.09 102.109 176.403 101.281C176.403 101.281 176.729 102.117 176.93 102.175C177.232 102.275 178.049 101.465 178.049 101.465L178.15 106.694Z" fill="#18191F"/>
<path d="M164.442 167.133C164.442 167.133 179.35 170.474 186.854 170.725C186.699 165.745 187.054 160.76 187.908 155.923C189.3 148.948 193.239 143.059 188.447 128.641C185.841 120.756 170.762 119.67 168.47 127.029C166.095 134.647 172.45 138.949 164.442 167.133Z" fill="#18191F"/>
<path d="M184.93 119.878L180.897 113.32C180.951 115.013 180.709 116.698 180.192 118.227C179.676 119.757 178.901 121.084 177.935 122.091C177.935 122.091 178.344 126.209 184.581 133.669C188.46 129.684 185.706 124.831 185.706 124.831C185.706 124.831 183.438 122.793 184.93 119.878Z" fill="#FFF8FB"/>
<path opacity="0.1" d="M184.612 123.035C184.45 122.519 184.394 121.95 184.45 121.392C184.507 120.833 184.674 120.309 184.932 119.878L180.898 113.32C180.924 114.123 180.884 114.928 180.78 115.718C181.037 117.238 181.509 118.67 182.167 119.927C182.826 121.184 183.657 122.241 184.612 123.035Z" fill="black"/>
<path d="M179.673 103.868C179.376 110.308 179.157 113.056 181.153 116.707C184.15 122.253 189.824 121.351 191.483 115.17C192.969 109.606 193.206 99.975 188.989 96.6754C188.063 95.9368 187.019 95.5435 185.956 95.5329C184.892 95.5224 183.845 95.8948 182.912 96.615C181.979 97.3352 181.192 98.3793 180.625 99.6485C180.058 100.918 179.73 102.37 179.673 103.868Z" fill="#FFF8FB"/>
<path d="M186.745 106.824C186.703 107.35 186.863 107.81 187.1 107.852C187.337 107.893 187.574 107.501 187.627 107.016C187.681 106.532 187.509 106.039 187.272 105.997C187.035 105.955 186.81 106.34 186.745 106.824Z" fill="#263238"/>
<path d="M190.912 107.581C190.864 108.108 191.024 108.559 191.261 108.609C191.498 108.659 191.735 108.258 191.788 107.773C191.842 107.289 191.67 106.796 191.433 106.754C191.196 106.713 190.959 107.063 190.912 107.581Z" fill="#263238"/>
<path d="M191.302 106.729L192.22 106.528C192.22 106.528 191.698 107.422 191.302 106.729Z" fill="#263238"/>
<path d="M189.528 108.292C189.753 109.539 190.097 110.736 190.553 111.85C190.346 112.003 190.119 112.092 189.887 112.112C189.654 112.132 189.421 112.083 189.203 111.967L189.528 108.292Z" fill="#ED893E"/>
<path d="M187.02 113.603C187.197 113.677 187.377 113.73 187.559 113.762C187.587 113.765 187.615 113.754 187.638 113.731C187.661 113.708 187.677 113.675 187.684 113.637C187.685 113.596 187.676 113.556 187.657 113.525C187.638 113.493 187.612 113.474 187.583 113.47C187.124 113.399 186.683 113.178 186.295 112.824C185.908 112.47 185.584 111.993 185.35 111.431C185.335 111.4 185.313 111.377 185.287 111.367C185.261 111.356 185.233 111.36 185.209 111.376C185.184 111.392 185.165 111.42 185.154 111.455C185.143 111.489 185.141 111.529 185.149 111.565C185.349 112.063 185.617 112.5 185.939 112.85C186.26 113.2 186.628 113.456 187.02 113.603Z" fill="#263238"/>
<path d="M185.174 105.346C185.218 105.366 185.265 105.366 185.309 105.345C185.353 105.324 185.391 105.283 185.417 105.229C185.653 104.852 185.941 104.548 186.264 104.335C186.587 104.122 186.938 104.006 187.294 103.993C187.326 104 187.358 103.998 187.388 103.986C187.419 103.974 187.448 103.953 187.472 103.924C187.496 103.895 187.516 103.859 187.529 103.818C187.542 103.777 187.549 103.733 187.549 103.688C187.549 103.643 187.542 103.599 187.529 103.558C187.516 103.517 187.496 103.481 187.472 103.452C187.448 103.423 187.419 103.402 187.388 103.39C187.358 103.378 187.326 103.376 187.294 103.383C186.867 103.392 186.447 103.531 186.061 103.79C185.676 104.05 185.335 104.424 185.061 104.887C185.046 104.92 185.035 104.956 185.029 104.995C185.024 105.034 185.024 105.074 185.03 105.113C185.035 105.152 185.046 105.189 185.062 105.221C185.077 105.254 185.097 105.282 185.121 105.304C185.134 105.327 185.153 105.342 185.174 105.346Z" fill="#263238"/>
<path d="M192.407 105.093C192.454 105.114 192.504 105.113 192.55 105.089C192.596 105.066 192.636 105.021 192.662 104.962C192.687 104.904 192.699 104.834 192.693 104.766C192.688 104.697 192.667 104.633 192.632 104.583C192.399 104.212 192.105 103.927 191.776 103.753C191.446 103.58 191.092 103.523 190.743 103.589C190.689 103.601 190.64 103.643 190.606 103.705C190.573 103.768 190.559 103.846 190.565 103.923C190.57 103.963 190.58 104.001 190.594 104.035C190.609 104.07 190.629 104.099 190.652 104.123C190.675 104.146 190.702 104.162 190.729 104.171C190.757 104.18 190.786 104.181 190.814 104.174C191.089 104.142 191.365 104.201 191.621 104.346C191.877 104.491 192.106 104.718 192.289 105.009C192.322 105.052 192.363 105.081 192.407 105.093Z" fill="#263238"/>
<path d="M187.158 106.017L188.07 105.817C188.07 105.817 187.537 106.677 187.158 106.017Z" fill="#263238"/>
<path d="M180.782 108.588C181.719 107.16 182.258 105.303 182.299 103.359C182.358 100.118 185.965 96.6259 190.591 98.4804C190.591 98.4804 191.917 92.6331 188.636 95.0806C188.636 95.0806 183.4 90.0686 178.905 97.4947C175.778 102.682 177.472 108.295 178.792 111.236C178.881 111.436 179.01 111.595 179.162 111.693C179.314 111.791 179.483 111.825 179.649 111.789C179.814 111.754 179.969 111.651 180.094 111.493C180.218 111.336 180.307 111.13 180.35 110.902L180.782 108.588Z" fill="#263238"/>
<path d="M178.002 108.595C178.09 109.187 178.261 109.749 178.504 110.248C178.747 110.747 179.057 111.173 179.417 111.502C180.388 112.337 181.194 111.26 181.224 109.714C181.224 108.319 180.726 106.189 179.618 105.922C179.372 105.87 179.12 105.908 178.887 106.031C178.654 106.154 178.446 106.359 178.285 106.626C178.123 106.894 178.012 107.215 177.963 107.559C177.913 107.903 177.927 108.26 178.002 108.595Z" fill="#FFF8FB"/>
<path d="M190.176 98.3472C190.176 98.3472 191.917 97.2947 192.426 99.8173C192.936 102.34 191.473 98.4474 190.176 98.3472Z" fill="#1A2E35"/>
<path d="M187.946 97.8926C187.946 97.8926 186.063 98.1682 186.489 100.716C186.916 103.264 186.845 98.8616 187.946 97.8926Z" fill="#1A2E35"/>
<path d="M179.401 108.481C179.523 108.514 179.64 108.581 179.744 108.678C179.848 108.775 179.937 108.901 180.007 109.047C180.076 109.193 180.124 109.357 180.148 109.529C180.173 109.702 180.172 109.88 180.147 110.052C180.1 110.482 180.135 110.923 180.249 111.328C180.362 111.733 180.55 112.088 180.793 112.357C180.74 112.477 180.668 112.578 180.583 112.652C180.497 112.726 180.401 112.771 180.301 112.783C180.301 112.783 177.719 109.183 179.401 108.481Z" fill="#18191F"/>
<path opacity="0.5" d="M179.401 108.481C179.523 108.514 179.64 108.581 179.744 108.678C179.848 108.775 179.937 108.901 180.007 109.047C180.076 109.193 180.124 109.357 180.148 109.529C180.173 109.702 180.172 109.88 180.147 110.052C180.1 110.482 180.135 110.923 180.249 111.328C180.362 111.733 180.55 112.088 180.793 112.357C180.74 112.477 180.668 112.578 180.583 112.652C180.497 112.726 180.401 112.771 180.301 112.783C180.301 112.783 177.719 109.183 179.401 108.481Z" fill="#FFF8FB"/>
<path opacity="0.1" d="M175 132.89L173.158 131.512L167.987 134.143L167.822 134.753C167.94 139.105 168.331 144.677 167.596 152.362C174.479 140.283 175 132.89 175 132.89Z" fill="black"/>
<path d="M170.976 139.05C170.976 139.05 167.369 151.12 163.68 154.278C159.99 157.435 149.66 150.36 149.66 150.36L145.834 149.792C145.588 149.724 145.357 149.569 145.164 149.343C144.97 149.117 144.82 148.826 144.727 148.497L143.803 145.223C143.735 144.986 143.703 144.733 143.709 144.478C143.715 144.223 143.759 143.973 143.838 143.744L144.164 142.817C144.247 142.575 144.367 142.362 144.515 142.193C144.662 142.023 144.835 141.902 145.02 141.838C145.205 141.773 145.397 141.767 145.584 141.819C145.771 141.871 145.947 141.981 146.101 142.14L150.039 146.217C150.039 146.217 159.374 149.967 160.813 147.01C162.252 144.053 162.234 144.095 165.066 136.293L170.976 139.05Z" fill="#FFF8FB"/>
<path d="M173.716 123.919C175.392 125.339 177.542 132.155 170.435 143.607L164.239 136.925C164.239 136.925 168.48 119.45 173.716 123.919Z" fill="#18191F"/>
<path d="M146.387 145.516L145.67 145.433C148.484 97.2762 143.662 95.5554 137.562 93.3752C134.429 92.2559 130.881 90.9945 127.991 83.3513C125.302 76.2677 127.327 68.5744 133.398 62.7772C140.47 56.0362 151.581 53.0374 162.42 54.967C175.639 57.2753 187.724 66.6559 196.18 81.1711C204.329 94.8537 206.876 106.523 208.926 115.896L209.482 118.402C213.036 134.398 212.675 143.06 212.657 143.42L211.94 143.353C211.94 143.269 212.319 134.498 208.795 118.702L208.238 116.196C206.207 106.907 203.684 95.3132 195.629 81.8227C176.759 50.1304 147.098 50.9156 133.807 63.6209C127.985 69.1758 126.107 76.1926 128.63 82.8752C131.373 90.1091 134.612 91.2702 137.746 92.3895C140.879 93.5089 143.816 94.5614 145.564 101.578C147.429 109.213 147.696 123.155 146.387 145.516Z" fill="#18191F"/>
<g opacity="0.3">
<path d="M146.386 145.515L145.669 145.432C148.483 97.2752 143.661 95.5544 137.561 93.3742C134.428 92.2549 130.88 90.9935 127.99 83.3503C125.301 76.2668 127.326 68.5734 133.397 62.7763C140.469 56.0352 151.58 53.0364 162.419 54.966C175.638 57.2743 187.723 66.6549 196.179 81.1701C204.328 94.8527 206.875 106.522 208.925 115.895L209.481 118.401C213.035 134.397 212.674 143.059 212.656 143.419L211.939 143.352C211.939 143.268 212.318 134.497 208.794 118.701L208.238 116.195C206.206 106.906 203.683 95.3122 195.628 81.8217C176.758 50.1294 147.097 50.9147 133.806 63.62C127.984 69.1749 126.106 76.1916 128.629 82.8742C131.372 90.1081 134.611 91.2692 137.745 92.3885C140.878 93.5079 143.815 94.5604 145.563 101.577C147.428 109.212 147.695 123.154 146.386 145.515Z" fill="#FFF8FB"/>
</g>
<path d="M147.227 139.548H144.834V151.384H147.227V139.548Z" fill="#18191F"/>
<path opacity="0.1" d="M147.227 139.548H144.834V141.569H147.227V139.548Z" fill="black"/>
<path opacity="0.1" d="M147.227 150.036H144.834V151.389H147.227V150.036Z" fill="black"/>
<path d="M147.235 140.482H144.824C144.648 140.482 144.48 140.384 144.355 140.208C144.231 140.033 144.161 139.795 144.161 139.547C144.162 139.3 144.233 139.064 144.357 138.891C144.481 138.717 144.649 138.62 144.824 138.62H147.235C147.41 138.62 147.578 138.717 147.702 138.891C147.826 139.064 147.897 139.3 147.898 139.547C147.898 139.795 147.828 140.033 147.704 140.208C147.579 140.384 147.411 140.482 147.235 140.482Z" fill="#18191F"/>
<path d="M147.235 152.707H144.824C144.649 152.707 144.481 152.61 144.357 152.436C144.233 152.262 144.162 152.026 144.161 151.78C144.161 151.532 144.231 151.294 144.355 151.118C144.48 150.943 144.648 150.844 144.824 150.844H147.235C147.411 150.844 147.579 150.943 147.704 151.118C147.828 151.294 147.898 151.532 147.898 151.78C147.897 152.026 147.826 152.262 147.702 152.436C147.578 152.61 147.41 152.707 147.235 152.707Z" fill="#18191F"/>
<path d="M213.485 137.504H211.093V149.34H213.485V137.504Z" fill="#18191F"/>
<path opacity="0.1" d="M213.485 137.504H211.093V139.525H213.485V137.504Z" fill="black"/>
<path opacity="0.1" d="M213.485 147.978H211.093V149.331H213.485V147.978Z" fill="black"/>
<path d="M213.497 138.439H211.086C210.911 138.439 210.742 138.34 210.617 138.164C210.493 137.989 210.423 137.751 210.423 137.503C210.423 137.255 210.493 137.017 210.617 136.841C210.742 136.666 210.911 136.567 211.086 136.567H213.497C213.673 136.567 213.842 136.666 213.966 136.841C214.09 137.017 214.16 137.255 214.16 137.503C214.16 137.751 214.09 137.989 213.966 138.164C213.842 138.34 213.673 138.439 213.497 138.439Z" fill="#18191F"/>
<path d="M213.497 150.659H211.086C210.911 150.659 210.742 150.561 210.617 150.385C210.493 150.21 210.423 149.972 210.423 149.724C210.423 149.476 210.493 149.238 210.617 149.062C210.742 148.887 210.911 148.788 211.086 148.788H213.497C213.673 148.788 213.842 148.887 213.966 149.062C214.09 149.238 214.16 149.476 214.16 149.724C214.16 149.972 214.09 150.21 213.966 150.385C213.842 150.561 213.673 150.659 213.497 150.659Z" fill="#18191F"/>
<path d="M105.316 131.15C105.316 131.15 97.3144 136.204 93.3995 134.124C89.4845 132.044 85.3682 115.237 85.3682 115.237L82.8273 110.501C82.6558 110.183 82.563 109.794 82.563 109.394C82.563 108.995 82.6558 108.606 82.8273 108.288L84.9299 104.428C85.0798 104.159 85.269 103.939 85.4846 103.781C85.7002 103.624 85.9372 103.534 86.1796 103.518H86.3158C86.5418 103.504 86.7673 103.556 86.9785 103.67C87.1897 103.784 87.382 103.958 87.5436 104.181C87.7051 104.404 87.8325 104.672 87.9178 104.967C88.0031 105.263 88.0444 105.58 88.0394 105.898L87.9505 111.746C87.9505 111.746 94.2583 126.005 96.7222 125.779C99.186 125.554 103.202 123.181 103.202 123.181L105.316 131.15Z" fill="#FFF8FB"/>
<path d="M113.158 122.416C113.442 124.922 112.565 131.455 102.218 133.802L100.625 123.895C100.625 123.895 112.145 113.47 113.158 122.416Z" fill="#263238"/>
<path d="M88.3786 104.891C89.421 106.762 91.0497 107.397 92.0092 106.344C92.9687 105.291 92.8976 102.894 91.8493 101.023C90.801 99.1518 89.1841 98.517 88.2246 99.5695C87.2651 100.622 87.3302 103.019 88.3786 104.891Z" fill="#18191F"/>
<path opacity="0.2" d="M88.3775 104.891C87.9949 104.288 87.7373 103.549 87.6328 102.753C87.5284 101.958 87.5811 101.137 87.7852 100.381C88.6026 99.7708 89.9589 100.589 90.9362 102.335C91.7594 103.805 92.0556 105.493 91.7654 106.57C90.7763 107.289 89.337 106.604 88.3775 104.891Z" fill="black"/>
<path d="M81.6342 112.394C82.0843 113.229 84.2461 111.851 86.4612 109.378C88.6764 106.906 90.1156 104.258 89.6655 103.456C89.2153 102.654 87.0535 104.007 84.8384 106.471C82.6233 108.935 81.184 111.592 81.6342 112.394Z" fill="#18191F"/>
<path opacity="0.2" d="M84.3852 111.384C83.023 112.495 81.9332 112.937 81.6311 112.394C81.3291 111.851 81.9095 110.406 83.0289 108.761C83.2997 109.049 83.5426 109.386 83.7515 109.763C84.021 110.254 84.2348 110.8 84.3852 111.384Z" fill="black"/>
<path d="M79.3616 114.906C80.404 116.777 82.0269 117.412 82.9864 116.36C83.9458 115.307 83.8807 112.918 82.8324 111.047C81.784 109.176 80.1612 108.541 79.2017 109.593C78.2422 110.646 78.3192 113.043 79.3616 114.906Z" fill="#18191F"/>
<path opacity="0.6" d="M111.132 128.901C109.673 130.596 107.975 131.835 106.151 132.535C106.246 122.511 109.705 122.402 109.705 122.402L110.362 122.929L111.132 128.901Z" fill="black"/>
<path d="M120.851 206.541L116.829 224.233C117.383 229.2 117.383 234.259 116.829 239.227C115.917 247.639 110.752 291.919 110.752 291.919L106.873 292.571C106.873 292.571 107.465 235.819 108.259 223.539C109.053 211.26 110.036 202.489 110.036 202.489L120.851 206.541Z" fill="#FFF8FB"/>
<path opacity="0.1" d="M110.031 202.489L120.852 206.541L118.264 217.943L108.835 215.637C109.469 207.668 110.031 202.489 110.031 202.489Z" fill="black"/>
<path d="M128.612 207.218C128.612 207.218 133.048 233.723 149.342 291.21L153.055 289.899C153.055 289.899 145.77 230.173 141.316 223.557L139.066 203.434L128.612 207.218Z" fill="#FFF8FB"/>
<path opacity="0.1" d="M139.046 203.434L140.367 214.995L130.636 217.501C129.173 210.551 128.634 207.243 128.634 207.243L139.046 203.434Z" fill="black"/>
<path d="M127.932 187.669C127.932 187.669 124.792 191.753 123.981 195.061C123.17 198.369 119.243 216.203 119.243 216.203L108.582 213.505C108.582 213.505 109.683 196.799 110.886 184.87C112.088 172.942 113.018 165.942 112.87 164.923L133.007 162.525C133.007 162.525 137.041 183.317 127.932 187.669Z" fill="#18191F"/>
<path opacity="0.1" d="M124.542 175.913L127.876 187.716C127.521 188.192 124.725 191.968 123.967 195.058C123.754 195.894 123.345 197.706 122.848 199.912C121.343 187.95 122.167 174.802 122.167 174.802L124.542 175.913Z" fill="black"/>
<path d="M121.919 165.013C121.919 165.013 119.97 174.535 125.366 194.792C126.852 200.38 129.245 215.324 129.245 215.324L140.771 212.083L138.277 192.269C138.277 192.269 138.787 172.622 134.86 163.167L121.919 165.013Z" fill="#18191F"/>
<path d="M106.925 291.311L110.958 291.211C111.043 291.208 111.127 291.247 111.194 291.322C111.261 291.397 111.307 291.502 111.325 291.62L112.782 297.066C112.818 297.293 112.789 297.531 112.701 297.728C112.614 297.925 112.475 298.065 112.314 298.119H112.184C110.502 298.077 109.015 297.952 106.925 297.952C104.461 297.952 105.089 298.369 102.186 298.428C100.439 298.428 100.119 295.663 100.86 295.529C104.248 294.928 104.597 293.483 105.906 291.77C106.195 291.449 106.557 291.286 106.925 291.311Z" fill="#263238"/>
<path d="M149.054 290L152.987 288.714C153.069 288.686 153.156 288.701 153.232 288.754C153.308 288.807 153.368 288.897 153.401 289.006L155.634 293.901C155.703 294.112 155.71 294.352 155.653 294.57C155.597 294.787 155.481 294.964 155.332 295.062C155.293 295.092 155.251 295.114 155.208 295.129C153.561 295.58 152.081 295.889 150.043 296.516C147.633 297.243 148.308 297.46 145.483 298.37C143.783 298.922 143.054 296.274 143.759 295.923C146.981 294.336 147.111 292.824 148.136 290.769C148.364 290.362 148.691 290.088 149.054 290Z" fill="#263238"/>
<path d="M110.818 90.0303C110.818 90.0303 108.082 89.7129 109.545 95.3931L111.322 93.0291L112.506 89.8716L110.818 90.0303Z" fill="#263238"/>
<path opacity="0.6" d="M110.818 90.0303C110.818 90.0303 108.082 89.7129 109.545 95.3931L111.322 93.0291L112.506 89.8716L110.818 90.0303Z" fill="black"/>
<path d="M135.577 164.225C135.577 164.225 130.999 164.801 112.431 166.33C112.431 166.33 111.394 159.581 110.062 148.02C108.563 134.847 106.852 122.718 109.061 119.443C111.572 115.726 123.518 116.244 129.009 116.269C129.861 116.27 130.682 116.717 131.312 117.525C131.943 118.332 132.338 119.442 132.42 120.638L135.577 164.225Z" fill="#263238"/>
<path d="M124.87 116.229C124.841 118.009 123.727 121.751 117.514 128.567C117.514 128.567 112.776 122.11 113.244 117.173C116.567 116.338 121.109 116.221 124.87 116.229Z" fill="#18191F"/>
<path d="M117.489 126.374C117.489 126.374 113.858 119.558 114.848 116.835C117.566 116.427 120.299 116.226 123.033 116.234C123.027 117.52 122.435 120.895 117.489 126.374Z" fill="#FFF8FB"/>
<path d="M117.38 124.417L115.01 118.569C116.787 116.748 116.379 115.094 115.425 112.605L119.613 104.252C119.784 108.387 120.294 114.368 122.734 116.297C122.777 116.969 122.689 117.645 122.479 118.252L117.38 124.417Z" fill="#FFF8FB"/>
<path opacity="0.2" d="M116.084 114.665C115.9 113.964 115.676 113.285 115.415 112.635L118.044 107.364C118.589 107.623 119.501 107.322 119.821 107.757C119.821 108.024 119.874 108.291 119.91 108.592C119.685 110.597 117.861 113.604 116.084 114.665Z" fill="black"/>
<path d="M121.481 97.26C121.653 103.575 121.819 106.24 119.799 109.79C116.761 115.111 111.223 114.017 109.73 107.91C108.38 102.397 108.327 92.9664 112.514 89.8924C113.223 89.3548 114.001 89.0201 114.802 88.9076C115.604 88.7951 116.413 88.9071 117.183 89.2369C117.954 89.5668 118.671 90.1082 119.292 90.8299C119.914 91.5517 120.428 92.4395 120.806 93.4425C121.239 94.6232 121.471 95.9306 121.481 97.26Z" fill="#FFF8FB"/>
<path d="M114.505 99.8935C114.541 100.403 114.375 100.846 114.144 100.879C113.913 100.913 113.682 100.52 113.646 100.044C113.611 99.5678 113.777 99.0916 114.008 99.0582C114.239 99.0248 114.452 99.4007 114.505 99.8935Z" fill="#1A2E35"/>
<path d="M110.41 100.483C110.446 101 110.28 101.435 110.049 101.468C109.818 101.502 109.587 101.109 109.551 100.633C109.516 100.157 109.682 99.6806 109.913 99.6556C110.144 99.6305 110.375 99.973 110.41 100.483Z" fill="#1A2E35"/>
<path d="M111.744 101.226C111.501 102.44 111.14 103.601 110.672 104.676C110.872 104.833 111.093 104.928 111.321 104.956C111.548 104.983 111.778 104.942 111.993 104.835L111.744 101.226Z" fill="#FF8935"/>
<path d="M114.108 106.555C113.933 106.621 113.755 106.666 113.575 106.688C113.547 106.691 113.519 106.679 113.497 106.654C113.475 106.629 113.461 106.594 113.457 106.555C113.456 106.514 113.466 106.475 113.485 106.445C113.503 106.414 113.529 106.394 113.557 106.388C114.009 106.339 114.446 106.141 114.833 105.808C115.221 105.476 115.546 105.019 115.784 104.475C115.799 104.44 115.823 104.415 115.85 104.404C115.878 104.393 115.907 104.398 115.932 104.416C115.957 104.434 115.976 104.465 115.985 104.503C115.994 104.54 115.992 104.581 115.98 104.617C115.775 105.099 115.503 105.518 115.182 105.851C114.861 106.184 114.496 106.423 114.108 106.555Z" fill="#1A2E35"/>
<path d="M116.084 98.5053C116.04 98.5215 115.994 98.5181 115.951 98.4957C115.909 98.4733 115.872 98.4328 115.847 98.38C115.628 98.0067 115.358 97.7007 115.052 97.4808C114.747 97.261 114.412 97.132 114.07 97.1019C114.041 97.1019 114.013 97.0939 113.987 97.0783C113.961 97.0626 113.937 97.0397 113.917 97.0109C113.897 96.9821 113.882 96.9479 113.871 96.9105C113.861 96.873 113.856 96.833 113.857 96.7928C113.86 96.7138 113.884 96.6394 113.925 96.585C113.966 96.5306 114.02 96.5004 114.076 96.5005C114.495 96.5251 114.905 96.6775 115.278 96.9472C115.651 97.2168 115.979 97.5974 116.238 98.0625C116.265 98.1298 116.274 98.2093 116.262 98.2852C116.25 98.361 116.218 98.4277 116.173 98.4719C116.147 98.4986 116.115 98.5105 116.084 98.5053Z" fill="#1A2E35"/>
<path d="M108.976 97.994C108.94 98.0065 108.901 98.0054 108.865 97.9907C108.829 97.9761 108.796 97.9485 108.769 97.9105C108.749 97.8826 108.733 97.8494 108.723 97.8128C108.712 97.7763 108.706 97.7371 108.706 97.6975C108.706 97.6579 108.712 97.6187 108.723 97.5822C108.733 97.5456 108.749 97.5124 108.769 97.4845C109.003 97.1283 109.296 96.859 109.621 96.7002C109.947 96.5414 110.295 96.498 110.635 96.574C110.688 96.5882 110.735 96.6311 110.766 96.6935C110.797 96.7559 110.809 96.8329 110.801 96.9081C110.789 96.9853 110.757 97.0531 110.71 97.0969C110.664 97.1406 110.607 97.1568 110.552 97.142C110.285 97.0963 110.014 97.1397 109.76 97.2689C109.507 97.398 109.279 97.6092 109.095 97.8855C109.063 97.936 109.022 97.9735 108.976 97.994Z" fill="#1A2E35"/>
<path d="M120.161 102.815L118.71 102.431C118.71 102.431 119.664 97.7449 118.983 96.5421C118.301 95.3392 116.738 94.3786 116.229 92.1399C115.719 89.9012 107.937 94.3034 109.198 85.0814C109.198 85.0814 109.79 87.5874 110.673 88.4979C110.673 88.4979 109.376 82.1745 114.315 82.8761C119.255 83.5778 122.365 90.8618 122.365 90.8618C122.365 90.8618 128.749 96.7676 122.139 105.413C122.025 105.566 121.886 105.677 121.735 105.737C121.583 105.798 121.424 105.806 121.27 105.761C121.116 105.716 120.972 105.619 120.85 105.478C120.728 105.338 120.632 105.158 120.57 104.954L120.161 102.815Z" fill="#263238"/>
<path d="M123.033 101.912C122.935 102.487 122.758 103.03 122.511 103.509C122.264 103.988 121.952 104.393 121.594 104.702C120.623 105.537 119.817 104.401 119.859 102.881C119.859 101.519 120.41 99.4476 121.499 99.2304C121.881 99.1692 122.264 99.3239 122.565 99.6606C122.866 99.9972 123.06 100.488 123.104 101.026C123.128 101.325 123.103 101.628 123.033 101.912Z" fill="#FFF8FB"/>
<path d="M122.131 91.3337C122.131 91.3337 123.878 87.65 125.418 90.6154C126.958 93.5808 123.351 90.2729 122.131 91.3337Z" fill="#263238"/>
<path d="M121.317 101.476C121.172 101.514 121.033 101.592 120.91 101.706C120.786 101.82 120.68 101.968 120.597 102.14C120.515 102.313 120.457 102.507 120.428 102.711C120.399 102.916 120.399 103.126 120.428 103.33C120.428 103.33 120.707 104.608 119.664 106.07C119.729 106.213 119.816 106.332 119.918 106.419C120.021 106.506 120.137 106.558 120.257 106.571C120.257 106.571 123.313 102.303 121.317 101.476Z" fill="#18191F"/>
<path opacity="0.8" d="M121.317 101.476C121.172 101.514 121.033 101.592 120.91 101.706C120.786 101.82 120.68 101.968 120.597 102.14C120.515 102.313 120.457 102.507 120.428 102.711C120.399 102.916 120.399 103.126 120.428 103.33C120.428 103.33 120.707 104.608 119.664 106.07C119.729 106.213 119.816 106.332 119.918 106.419C120.021 106.506 120.137 106.558 120.257 106.571C120.257 106.571 123.313 102.303 121.317 101.476Z" fill="#FFF8FB"/>
<path opacity="0.6" d="M132.733 125.115L133.426 135.581C131.011 132.967 129.332 129.228 128.688 125.031L130.412 124.413L132.733 125.115Z" fill="black"/>
<path d="M133.977 127.618C133.977 127.618 143.217 128.955 146.948 125.898C150.68 122.84 152.427 105.583 152.427 105.583L154.287 99.0086C154.441 98.4614 154.453 97.8551 154.322 97.2961C154.191 96.737 153.925 96.2609 153.57 95.9513L151.87 94.4811C151.516 94.1751 151.097 94.0539 150.685 94.1386L150.052 94.2723C149.606 94.3675 149.202 94.6985 148.923 95.198C148.643 95.6974 148.509 96.3281 148.547 96.962L149.003 104.48C149.003 104.48 146.32 118.463 143.791 118.822C141.262 119.182 141.292 119.182 135.079 118.948L133.977 127.618Z" fill="#FFF8FB"/>
<path d="M126.745 121.571C126.674 124.411 128.148 129.556 138.928 128.755L139.046 117.77C139.046 117.77 126.952 112.015 126.745 121.571Z" fill="#263238"/>
<path d="M148.802 96.0606C148.073 98.2074 146.593 99.3518 145.491 98.6084C144.389 97.8649 144.087 95.5177 144.816 93.3709C145.544 91.2241 147.025 90.088 148.127 90.8649C149.228 91.6417 149.53 93.9138 148.802 96.0606Z" fill="#18191F"/>
<path opacity="0.2" d="M148.801 96.0618C149.082 95.3564 149.221 94.5554 149.201 93.7466C149.181 92.9377 149.004 92.1521 148.688 91.4758C147.794 91.1334 146.598 92.3529 145.917 94.3577C145.324 96.0284 145.324 97.7909 145.769 98.7515C146.835 99.1525 148.132 98.0331 148.801 96.0618Z" fill="black"/>
<path d="M156.548 101.299C156.24 102.217 153.918 101.574 151.372 99.8535C148.825 98.1327 147.006 95.9859 147.32 95.0671C147.634 94.1482 149.956 94.7914 152.503 96.5122C155.05 98.233 156.862 100.371 156.548 101.299Z" fill="#18191F"/>
<path opacity="0.2" d="M153.706 101.166C155.21 101.826 156.342 101.926 156.549 101.299C156.756 100.673 155.957 99.4449 154.624 98.1836C154.404 98.549 154.219 98.9534 154.073 99.3865C153.885 99.9482 153.761 100.549 153.706 101.166Z" fill="black"/>
<path d="M159.156 103.056C158.428 105.203 156.941 106.339 155.84 105.562C154.738 104.785 154.436 102.48 155.164 100.333C155.893 98.1864 157.38 97.042 158.481 97.7854C159.583 98.5289 159.914 100.91 159.156 103.056Z" fill="#18191F"/>
</svg>
