<svg width="184" height="134" viewBox="0 0 184 134" fill="none" xmlns="http://www.w3.org/2000/svg">
<g filter="url(#filter0_d_507_41308)">
<path d="M128.05 122.275C128.05 124.157 112.272 125.689 92.811 125.689C73.3504 125.689 57.5723 124.163 57.5723 122.275C57.5723 120.392 73.3504 118.86 92.811 118.86C112.272 118.86 128.05 120.392 128.05 122.275Z" fill="#EEEEEE"/>
<path d="M135.235 40.6729C135.217 40.226 135.193 39.7911 135.157 39.3561C135.038 37.7532 134.824 36.1683 134.526 34.6012C134.448 34.1841 134.359 33.7729 134.269 33.3558C133.823 31.3538 133.233 29.3875 132.512 27.4807C132.345 27.0398 132.172 26.5989 131.987 26.1699C125.767 11.2676 111.246 0 92.81 0C75.2323 0 61.2059 10.2487 54.5562 24.1201C54.3715 24.4836 54.2047 24.853 54.0438 25.2284C52.8223 27.9634 51.8868 30.8235 51.2731 33.767C51.1777 34.1781 51.0943 34.5952 51.0288 35.0183C50.6891 36.8475 50.4806 38.7006 50.4031 40.5835C50.3793 40.9828 50.3674 41.3701 50.3614 41.7752C50.3555 42.0076 50.3555 42.234 50.3555 42.4724C50.3555 49.5332 52.149 56.7788 56.0935 63.6133L89.5745 121.608C91.0165 124.104 94.6154 124.104 96.0574 121.608L129.538 63.6133C133.817 56.1949 135.568 48.2939 135.235 40.6729ZM94.2817 66.6283C81.6139 65.8239 71.5678 55.2892 71.5678 42.4068C71.5678 41.5786 71.6095 40.7683 71.693 39.9639C71.7347 39.5587 71.7823 39.1654 71.8419 38.7662C72.1756 36.5556 72.8072 34.4582 73.6831 32.4859C73.8619 32.0867 74.0466 31.6934 74.2492 31.3121C74.7676 30.2932 75.3634 29.316 76.0248 28.3983C76.281 28.0289 76.5492 27.6714 76.8292 27.3199C80.9883 22.0942 87.2507 18.6264 94.3175 18.1914C101.057 18.6025 107.051 21.7665 111.186 26.5691C111.472 26.8968 111.74 27.2245 112.002 27.5642C112.914 28.732 113.718 29.9893 114.398 31.318C114.6 31.7053 114.791 32.0926 114.964 32.4978C115.321 33.3022 115.637 34.1245 115.911 34.9706C116.042 35.3698 116.155 35.775 116.263 36.1802C116.793 38.1703 117.073 40.2558 117.073 42.4068C117.079 55.313 106.997 65.8656 94.2817 66.6283Z" fill="#5B3765"/>
<path d="M129.539 63.6073L96.0525 121.596C94.6105 124.092 91.0116 124.092 89.5696 121.596L86.501 116.269L120.661 72.4378C138.358 49.1161 135.558 20.6701 112.856 6.39946C106.772 2.58004 99.5621 0.238342 91.5836 0.0178767C91.9888 0.0119181 92.4059 0 92.8111 0C125.452 0 145.854 35.34 129.539 63.6073Z" fill="#5B3765"/>
<path d="M94.277 66.6282C94.2055 66.6342 94.128 66.6401 94.0565 66.6401C93.848 66.6461 93.6454 66.658 93.4368 66.6639C93.2283 66.6699 93.0197 66.6699 92.8052 66.6699C86.1019 66.6699 80.0361 63.9528 75.6447 59.5614C71.2532 55.1699 68.5361 49.1042 68.5361 42.4008C68.5361 29.0001 79.3985 18.1377 92.7993 18.1377C93.0495 18.1377 93.3057 18.1437 93.556 18.1496C93.8062 18.1556 94.0625 18.1675 94.3068 18.1854C81.6211 18.96 71.5511 29.5066 71.5511 42.4008C71.569 55.2891 81.6091 65.8238 94.277 66.6282Z" fill="#5B3765"/>
<path d="M42.1898 95.8903C42.1898 96.8198 34.4318 97.5706 24.8683 97.5706C15.3049 97.5706 7.54688 96.8198 7.54688 95.8903C7.54688 94.9607 15.3049 94.21 24.8683 94.21C34.4318 94.21 42.1898 94.9667 42.1898 95.8903Z" fill="#EEEEEE"/>
<path d="M25.5811 68.5411C25.5454 68.5411 25.5096 68.5471 25.4739 68.5471C25.3726 68.5471 25.2713 68.5531 25.17 68.559C25.0687 68.559 24.9674 68.565 24.8601 68.565C21.5651 68.565 17.9304 67.8798 15.7734 65.7228C13.6164 63.5658 10.9648 59.9311 10.9648 56.636C10.9648 50.0459 18.276 44.707 24.8601 44.707C24.9853 44.707 25.1104 44.707 25.2355 44.713C25.3606 44.713 25.4858 44.7189 25.6049 44.7309C19.3664 45.1122 14.4208 50.2961 14.4208 56.636C14.4208 62.964 19.3545 68.1419 25.5811 68.5411Z" fill="#5B3765"/>
<path d="M45.7216 55.7781C45.7157 55.5576 45.6978 55.3431 45.6859 55.1286C45.6263 54.3421 45.525 53.5615 45.376 52.7928C45.3343 52.5903 45.2926 52.3817 45.2509 52.1791C45.0304 51.196 44.7444 50.2307 44.3869 49.2892C44.3035 49.0747 44.2201 48.8543 44.1307 48.6457C41.074 41.3227 33.9356 35.7812 24.8727 35.7812C16.2329 35.7812 9.33884 40.8222 6.06761 47.6387C5.97823 47.8175 5.89481 48.0022 5.81735 48.1869C5.21554 49.5335 4.75673 50.9397 4.45285 52.3817C4.40518 52.5843 4.36347 52.7928 4.33368 52.9954C4.16684 53.8952 4.06554 54.8068 4.02383 55.7304C4.01192 55.927 4.00596 56.1177 4 56.3143C4 56.4275 4 56.5408 4 56.654C4 60.1218 4.88186 63.685 6.82434 67.0456L23.2818 95.5572C23.9909 96.7847 25.7605 96.7847 26.4696 95.5572L42.9271 67.0456C45.0245 63.4109 45.8825 59.526 45.7216 55.7781ZM25.5877 68.5353C19.3611 68.142 14.4155 62.9641 14.4155 56.6301C14.4155 56.225 14.4393 55.8257 14.4751 55.4265C14.4989 55.2239 14.5228 55.0333 14.5466 54.8366C14.7075 53.7522 15.0233 52.7154 15.4523 51.7501C15.5417 51.5535 15.631 51.3628 15.7323 51.1721C15.9886 50.6716 16.2805 50.189 16.6023 49.7361C16.7274 49.5514 16.8585 49.3786 16.9956 49.2058C19.0393 46.6377 22.1199 44.9335 25.5937 44.719C28.9067 44.9216 31.8502 46.4768 33.888 48.8364C34.025 48.9973 34.1621 49.1581 34.2872 49.325C34.7341 49.897 35.1333 50.5167 35.467 51.1721C35.5683 51.3628 35.6577 51.5535 35.747 51.7501C35.9258 52.1434 36.0807 52.5485 36.2118 52.9656C36.2773 53.1623 36.331 53.3589 36.3846 53.5615C36.6468 54.5387 36.7838 55.5636 36.7838 56.6242C36.7898 62.976 31.8382 68.1658 25.5877 68.5353Z" fill="#E6E6E6"/>
<path d="M42.9195 67.0515L26.4561 95.5571C25.747 96.7846 23.9773 96.7846 23.2683 95.5571L21.7607 92.9354L38.5519 71.3893C47.2513 59.9251 45.8749 45.9404 34.7146 38.9273C31.7234 37.0503 28.1781 35.9003 24.2574 35.7931C24.46 35.7871 24.6625 35.7871 24.8592 35.7871C40.9055 35.7871 50.9397 53.1562 42.9195 67.0515Z" fill="#D9D9D9"/>
<path d="M25.5826 68.5412C25.5468 68.5412 25.5111 68.5472 25.4753 68.5472C25.374 68.5472 25.2727 68.5532 25.1714 68.5591C25.0701 68.5591 24.9688 68.5591 24.8616 68.5591C21.5665 68.5591 18.5873 67.2244 16.4243 65.0674C14.2673 62.9104 12.9326 59.9252 12.9326 56.6301C12.9326 50.04 18.2715 44.7012 24.8616 44.7012C24.9867 44.7012 25.1118 44.7012 25.237 44.7071C25.3621 44.7071 25.4872 44.7131 25.6064 44.725C19.3678 45.1064 14.4222 50.2903 14.4222 56.6301C14.4222 62.9641 19.3559 68.142 25.5826 68.5412Z" fill="#D9D9D9"/>
<path d="M176.215 100.879C176.215 101.808 168.457 102.559 158.894 102.559C149.324 102.559 141.572 101.808 141.572 100.879C141.572 99.949 149.33 99.1982 158.894 99.1982C168.457 99.2042 176.215 99.955 176.215 100.879Z" fill="#EEEEEE"/>
<path d="M159.607 73.5226C159.572 73.5226 159.536 73.5286 159.5 73.5286C159.399 73.5286 159.298 73.5345 159.196 73.5405C159.095 73.5405 158.994 73.5464 158.887 73.5464C155.591 73.5464 151.957 72.8612 149.8 70.7042C147.643 68.5472 144.991 64.9125 144.991 61.6175C144.991 55.0273 152.302 49.6885 158.887 49.6885C159.012 49.6885 159.137 49.6885 159.262 49.6944C159.387 49.6944 159.512 49.7004 159.631 49.7123C153.393 50.0937 148.447 55.2776 148.447 61.6175C148.441 67.9514 153.381 73.1293 159.607 73.5226Z" fill="#5B3765"/>
<path d="M179.747 60.7654C179.741 60.5449 179.723 60.3304 179.711 60.1159C179.652 59.3294 179.55 58.5488 179.401 57.7802C179.36 57.5776 179.318 57.369 179.276 57.1664C179.056 56.1833 178.77 55.218 178.412 54.2765C178.329 54.062 178.245 53.8416 178.156 53.633C175.099 46.31 167.961 40.7686 158.898 40.7686C150.258 40.7686 143.364 45.8095 140.093 52.626C140.004 52.8048 139.92 52.9895 139.843 53.1742C139.241 54.5208 138.782 55.927 138.478 57.369C138.431 57.5716 138.389 57.7802 138.359 57.9827C138.192 58.8825 138.091 59.7941 138.049 60.7177C138.037 60.9143 138.031 61.105 138.025 61.3016C138.025 61.4149 138.025 61.5281 138.025 61.6413C138.025 65.1091 138.907 68.6723 140.85 72.033L157.307 100.545C158.016 101.772 159.786 101.772 160.495 100.545L176.952 72.033C179.044 68.3982 179.908 64.5133 179.747 60.7654ZM159.607 73.5226C153.381 73.1293 148.441 67.9514 148.441 61.6174C148.441 61.2123 148.465 60.813 148.5 60.4138C148.524 60.2112 148.548 60.0206 148.572 59.8239C148.733 58.7395 149.049 57.7027 149.478 56.7374C149.567 56.5408 149.656 56.3501 149.758 56.1594C150.014 55.6589 150.306 55.1763 150.628 54.7234C150.753 54.5387 150.884 54.3659 151.021 54.1931C153.065 51.625 156.145 49.9209 159.619 49.7063C162.932 49.9089 165.876 51.4641 167.913 53.8237C168.05 53.9846 168.187 54.1455 168.313 54.3123C168.759 54.8843 169.159 55.504 169.492 56.1594C169.594 56.3501 169.683 56.5408 169.772 56.7374C169.951 57.1307 170.106 57.5359 170.237 57.953C170.303 58.1496 170.356 58.3462 170.41 58.5488C170.672 59.526 170.809 60.5509 170.809 61.6115C170.815 67.9633 165.864 73.1472 159.607 73.5226Z" fill="#E6E6E6"/>
<path d="M176.941 72.0388L160.478 100.544C159.768 101.772 157.999 101.772 157.29 100.544L155.782 97.9227L172.573 76.3766C181.273 64.9124 179.896 50.9278 168.736 43.9146C165.745 42.0376 162.2 40.8876 158.279 40.7804C158.481 40.7744 158.684 40.7744 158.881 40.7744C174.933 40.7685 184.961 58.1435 176.941 72.0388Z" fill="#D9D9D9"/>
<path d="M159.608 73.5227C159.572 73.5227 159.536 73.5287 159.501 73.5287C159.399 73.5287 159.298 73.5346 159.197 73.5406C159.096 73.5406 158.994 73.5406 158.887 73.5406C155.592 73.5406 152.613 72.2059 150.45 70.0489C148.293 67.8919 146.958 64.9067 146.958 61.6116C146.958 55.0215 152.297 49.6826 158.887 49.6826C159.012 49.6826 159.137 49.6826 159.262 49.6886C159.387 49.6886 159.513 49.6945 159.632 49.7065C153.393 50.0878 148.448 55.2717 148.448 61.6116C148.442 67.9515 153.381 73.1294 159.608 73.5227Z" fill="#D9D9D9"/>
<path d="M137.935 109.452C137.935 109.911 134.115 110.28 129.396 110.28C124.677 110.28 120.857 109.911 120.857 109.452C120.857 108.993 124.677 108.624 129.396 108.624C134.115 108.624 137.935 108.993 137.935 109.452Z" fill="#EEEEEE"/>
<path d="M129.754 95.9738C129.736 95.9738 129.718 95.9738 129.7 95.9738C129.652 95.9738 129.599 95.9797 129.551 95.9797C129.503 95.9797 129.45 95.9797 129.396 95.9797C127.769 95.9797 125.982 95.646 124.921 94.5795C123.855 93.5129 122.55 91.7253 122.55 90.1046C122.55 86.8572 126.149 84.2295 129.396 84.2295C129.456 84.2295 129.521 84.2295 129.581 84.2295C129.64 84.2295 129.706 84.2354 129.766 84.2354C126.691 84.4261 124.254 86.9764 124.254 90.1046C124.254 93.2269 126.685 95.7771 129.754 95.9738Z" fill="#5B3765"/>
<path d="M139.674 89.6874C139.668 89.5802 139.662 89.4729 139.656 89.3657C139.626 88.9784 139.573 88.5911 139.501 88.2157C139.483 88.1144 139.46 88.0131 139.442 87.9118C139.334 87.4292 139.191 86.9525 139.019 86.4877C138.977 86.3805 138.935 86.2732 138.894 86.1719C137.386 82.561 133.871 79.832 129.402 79.832C125.141 79.832 121.745 82.3167 120.136 85.6773C120.094 85.7667 120.053 85.8561 120.011 85.9455C119.713 86.6069 119.487 87.304 119.338 88.0131C119.314 88.1144 119.296 88.2157 119.278 88.317C119.195 88.7579 119.147 89.2108 119.129 89.6636C119.123 89.7589 119.117 89.8543 119.117 89.9496C119.117 90.0032 119.117 90.0628 119.117 90.1165C119.117 91.8265 119.552 93.5843 120.506 95.2348L128.615 109.285C128.967 109.887 129.837 109.887 130.182 109.285L138.292 95.2348C139.334 93.4473 139.758 91.5346 139.674 89.6874ZM129.753 95.9737C126.685 95.7771 124.247 93.2268 124.247 90.1045C124.247 89.9019 124.259 89.7053 124.277 89.5146C124.289 89.4133 124.301 89.324 124.313 89.2227C124.396 88.6864 124.545 88.1799 124.76 87.7032C124.802 87.6079 124.849 87.5126 124.897 87.4172C125.022 87.1729 125.165 86.9346 125.326 86.7082C125.386 86.6188 125.451 86.5294 125.523 86.446C126.53 85.1828 128.049 84.3426 129.759 84.2354C131.392 84.3367 132.846 85.0994 133.847 86.2672C133.918 86.3447 133.978 86.4281 134.043 86.5115C134.264 86.7975 134.46 87.0955 134.621 87.4232C134.669 87.5185 134.717 87.6139 134.758 87.7092C134.848 87.9058 134.919 88.1025 134.991 88.3051C135.021 88.4004 135.05 88.5017 135.074 88.597C135.205 89.0797 135.271 89.5861 135.271 90.1045C135.277 93.2328 132.834 95.789 129.753 95.9737Z" fill="#E6E6E6"/>
<path d="M138.298 95.2408L130.188 109.291C129.836 109.893 128.966 109.893 128.615 109.291L127.87 107.998L136.147 97.3799C140.431 91.7312 139.751 84.8372 134.258 81.3812C132.786 80.4577 131.034 79.8916 129.104 79.838C129.205 79.838 129.3 79.832 129.401 79.832C137.308 79.832 142.248 88.3944 138.298 95.2408Z" fill="#D9D9D9"/>
<path d="M129.752 95.9738C129.734 95.9738 129.717 95.9738 129.699 95.9738C129.651 95.9738 129.597 95.9798 129.55 95.9798C129.496 95.9798 129.448 95.9798 129.395 95.9798C127.774 95.9798 126.302 95.3244 125.236 94.2578C124.169 93.1912 123.514 91.7254 123.514 90.0987C123.514 86.8513 126.147 84.2236 129.389 84.2236C129.448 84.2236 129.514 84.2236 129.573 84.2236C129.633 84.2236 129.699 84.2296 129.758 84.2296C126.684 84.4203 124.247 86.9705 124.247 90.0987C124.253 93.227 126.684 95.7772 129.752 95.9738Z" fill="#D9D9D9"/>
<path d="M63.0381 108.612C63.0381 109.071 59.2187 109.441 54.4995 109.441C49.7804 109.441 45.9609 109.071 45.9609 108.612C45.9609 108.154 49.7804 107.784 54.4995 107.784C59.2187 107.784 63.0381 108.154 63.0381 108.612Z" fill="#EEEEEE"/>
<path d="M54.8572 95.1339C54.8393 95.1339 54.8214 95.1339 54.8036 95.1339C54.7559 95.1339 54.7023 95.1399 54.6546 95.1399C54.6069 95.1399 54.5533 95.1399 54.4997 95.1399C52.873 95.1399 51.0854 94.8062 50.0248 93.7396C48.9582 92.673 47.6533 90.8855 47.6533 89.2648C47.6533 86.0174 51.2523 83.3896 54.4997 83.3896C54.5593 83.3896 54.6248 83.3896 54.6844 83.3896C54.744 83.3896 54.8095 83.3956 54.8691 83.3956C51.7945 83.5863 49.3575 86.1365 49.3575 89.2648C49.3515 92.387 51.7885 94.9373 54.8572 95.1339Z" fill="#5B3765"/>
<path d="M64.7776 88.8417C64.7717 88.7345 64.7657 88.6272 64.7598 88.52C64.73 88.1327 64.6763 87.7454 64.6048 87.37C64.587 87.2687 64.5631 87.1674 64.5452 87.0661C64.438 86.5835 64.295 86.1068 64.1222 85.642C64.0805 85.5347 64.0388 85.4275 63.9971 85.3262C62.4896 81.7153 58.974 78.9863 54.5051 78.9863C50.2448 78.9863 46.8484 81.471 45.2396 84.8316C45.1979 84.921 45.1562 85.0104 45.1145 85.0998C44.8166 85.7612 44.5901 86.4524 44.4412 87.1674C44.4173 87.2687 44.3995 87.37 44.3816 87.4713C44.2982 87.9122 44.2505 88.3651 44.2326 88.8179C44.2267 88.9132 44.2207 89.0086 44.2207 89.1039C44.2207 89.1575 44.2207 89.2171 44.2207 89.2707C44.2207 90.9808 44.6557 92.7386 45.609 94.3891L53.7186 108.439C54.0701 109.041 54.9401 109.041 55.2857 108.439L63.3952 94.3891C64.432 92.6075 64.8551 90.6889 64.7776 88.8417ZM54.8567 95.1339C51.788 94.9373 49.351 92.3871 49.351 89.2648C49.351 89.0622 49.3629 88.8656 49.3808 88.6749C49.3927 88.5736 49.4046 88.4842 49.4165 88.3829C49.5 87.8467 49.6489 87.3402 49.8634 86.8635C49.9051 86.7682 49.9528 86.6728 50.0005 86.5775C50.1256 86.3332 50.2686 86.0949 50.4295 85.8684C50.4891 85.7791 50.5546 85.6897 50.6261 85.6063C51.6331 84.343 53.1525 83.5029 54.8626 83.3956C56.4953 83.4969 57.9492 84.2596 58.9502 85.4275C59.0217 85.505 59.0813 85.5884 59.1468 85.6718C59.3673 85.9578 59.5639 86.2557 59.7248 86.5835C59.7725 86.6788 59.8201 86.7741 59.8618 86.8695C59.9512 87.0661 60.0227 87.2627 60.0942 87.4653C60.124 87.5606 60.1538 87.6619 60.1776 87.7573C60.3087 88.2399 60.3743 88.7464 60.3743 89.2648C60.3743 92.393 57.9372 94.9492 54.8567 95.1339Z" fill="#E6E6E6"/>
<path d="M63.3962 94.401L55.2866 108.445C54.9351 109.047 54.0651 109.047 53.7136 108.445L52.9688 107.152L61.2451 96.5342C65.5293 90.8855 64.8501 83.9915 59.3563 80.5355C57.8845 79.612 56.1327 79.0459 54.2022 78.9923C54.3035 78.9923 54.3988 78.9863 54.5001 78.9863C62.4071 78.9923 67.3467 87.5547 63.3962 94.401Z" fill="#D9D9D9"/>
<path d="M54.8558 95.134C54.8379 95.134 54.82 95.134 54.8021 95.134C54.7545 95.134 54.7008 95.14 54.6532 95.14C54.5995 95.14 54.5519 95.14 54.4983 95.14C52.8775 95.14 51.4058 94.4845 50.3392 93.418C49.2726 92.3514 48.6172 90.8856 48.6172 89.2589C48.6172 86.0115 51.2509 83.3838 54.4923 83.3838C54.5519 83.3838 54.6174 83.3838 54.677 83.3838C54.7366 83.3838 54.8021 83.3898 54.8617 83.3898C51.7871 83.5804 49.3501 86.1307 49.3501 89.2589C49.3501 92.3871 51.7871 94.9374 54.8558 95.134Z" fill="#D9D9D9"/>
</g>
<defs>
<filter id="filter0_d_507_41308" x="0" y="0" width="183.766" height="133.688" filterUnits="userSpaceOnUse" color-interpolation-filters="sRGB">
<feFlood flood-opacity="0" result="BackgroundImageFix"/>
<feColorMatrix in="SourceAlpha" type="matrix" values="0 0 0 0 0 0 0 0 0 0 0 0 0 0 0 0 0 0 127 0" result="hardAlpha"/>
<feOffset dy="4"/>
<feGaussianBlur stdDeviation="2"/>
<feComposite in2="hardAlpha" operator="out"/>
<feColorMatrix type="matrix" values="0 0 0 0 0 0 0 0 0 0 0 0 0 0 0 0 0 0 0.25 0"/>
<feBlend mode="normal" in2="BackgroundImageFix" result="effect1_dropShadow_507_41308"/>
<feBlend mode="normal" in="SourceGraphic" in2="effect1_dropShadow_507_41308" result="shape"/>
</filter>
</defs>
</svg>
