<svg width="150" height="280" viewBox="0 0 150 280" fill="none" xmlns="http://www.w3.org/2000/svg">
<path fill-rule="evenodd" clip-rule="evenodd" d="M103.211 139.204C105.599 139.254 104.575 118.349 102.98 114.497C102.757 113.716 102.572 112.65 102.609 111.692C104.582 111.877 104.37 110.61 104.268 109.083C104.301 107.87 104.391 105.368 102.413 106.342C96.4808 95.2026 102.894 66.4063 87.2763 63.6941C85.3943 63.2654 83.4492 62.8217 81.8647 61.5977C80.1881 58.6905 79.3341 58.3192 76.5559 58.1311C76.0415 55.5124 75.0799 52.7149 72.2143 51.6959C69.5906 50.7315 66.5372 50.6546 63.8015 51.1692C61.5371 51.862 61.33 55.81 60.827 57.7566C57.7773 56.998 54.0189 55.4025 52.377 59.0193C51.5818 58.7964 50.845 58.9411 50.0368 59.1893C43.2641 60.2129 36.693 63.087 34.181 69.0838C32.6293 72.6824 33.7305 76.5997 34.3125 80.3267C34.8552 84.3851 33.4241 88.1449 32.7607 92.0484C31.7729 97.4238 31.5942 101.735 32.2388 105.731C30.535 106.094 30.4094 107.548 31.0987 109.069C31.3011 109.584 31.505 110.127 31.9526 110.418C32.8632 110.955 34.04 110.336 35.0295 110.241C35.2353 112.387 35.6339 114.494 36.2933 116.887C36.1023 117.604 35.8833 118.404 35.6866 119.124L35.6203 119.056C33.3611 127.932 26.6421 136.555 28.7304 145.989C28.8532 146.303 29.0862 146.237 29.2651 146.232C30.3017 146.602 31.2539 146.367 32.2993 146.405C34.7789 146.406 37.1745 146.704 39.3968 146.964C39.803 149.453 41.1237 153.528 43.479 154.477C43.5186 154.49 44.2168 154.353 44.2751 154.349C38.0051 178.198 26.7235 200.25 22.2422 224.579C22.2157 224.876 22.7307 224.719 22.8996 224.755C22.8765 225.43 23.3415 225.592 23.9927 225.832C23.1536 227.478 22.3977 229.121 21.5624 230.771C21.1751 231.588 20.5439 232.394 20.4288 233.267C19.5041 233.821 18.8813 234.905 18.8978 235.917C16.4041 236.905 17.0819 241.788 16.513 244.207C15.9377 247.81 13.2014 250.327 11.3252 253.281C10.9429 253.874 10.5357 254.651 10.5177 255.396C9.35459 255.907 8.9209 257.025 8.99787 258.905C8.99372 261.106 9.65537 261.943 11.4395 261.997C16.2854 262.451 21.9402 262.266 26.8142 261.749C30.4604 261.314 33.6914 261.675 32.8762 257.566C32.7084 256.571 33.0306 255.231 32.4029 254.426C32.0159 252.029 32.2411 249.613 33.0756 247.245C33.583 245.251 34.4402 241.133 34.085 238.457C33.9207 237.219 31.2275 236.539 30.7534 236.478C30.9042 235.547 30.8379 233.919 30.3035 233.271C31.2847 233.143 31.5314 232.9 31.7357 231.877C32.2241 230.222 32.2891 228.424 33.4984 227.029C35.6735 227.056 37.8414 226.538 40.0153 226.475L40.1235 226.241C41.4093 226.225 42.6878 226.012 43.9083 225.594C44.1789 225.714 44.5251 225.817 44.6772 225.433L45.4032 223.304C53.8543 198.076 63.2219 172.787 72.3557 147.745C72.8888 146.527 73.53 145.233 74.3638 144.148C74.6463 159.471 78.0682 174.777 78.362 190.092C78.7591 200.628 78.6569 211.054 79.7134 221.627C79.9854 223.865 80.2744 223.79 80.6305 223.653C80.7732 223.674 81.109 223.741 81.2547 223.77C81.0165 225.993 80.7425 229.603 79.7259 231.877C77.4788 232.203 77.8812 233.82 78.3796 235.161C77.8435 235.59 77.9198 236.591 78.0789 237.146C75.9646 237.148 75.5036 238.761 75.6491 239.779C75.8502 241.481 75.7377 244.131 76.9487 245.584C77.6618 247.438 78.8227 249.188 79.2761 251.186C79.5612 252.655 79.4511 254.796 79.7259 256.254C79.0345 256.554 79.3274 257.023 79.2108 257.932C78.6123 262.092 80.7191 261.385 84.4441 261.671C86.6769 262.134 103.675 263.054 102.94 260.286C103.065 259.159 102.507 258.665 102.267 257.555C102.16 257.26 100.042 253.852 98.779 252.562C94.5426 248.828 94.7276 243.815 94.8618 238.041C94.6127 236.476 93.3293 234.978 91.6917 235.146C92.1619 233.475 91.2903 232.021 89.4691 231.538C89.651 229.646 89.8426 227.074 90.5086 225.437L89.8813 224.838L90.7209 224.932L90.9997 224.274L91.3037 224.995C92.7452 224.995 94.3715 224.696 95.7523 224.555C95.9729 224.566 95.8745 224.285 95.9107 224.177C97.2146 223.923 97.3574 223.273 97.127 221.725C97.4307 196.58 97.2989 171.672 96.8837 146.48C98.9216 146.566 100.909 145.868 102.911 145.404C103.623 145.823 103.824 144.331 103.741 144.009C103.628 142.342 103.408 140.717 103.211 139.204Z" fill="white"/>
<path fill-rule="evenodd" clip-rule="evenodd" d="M61.3606 54.25C61.6635 54.4743 61.6318 55.0961 61.6616 55.4442L61.6637 55.467C61.7591 56.5184 61.6301 57.5747 61.3567 58.5956L61.3336 58.6806C61.196 59.1815 61.0742 59.8076 60.6456 60.1586C60.1816 60.5387 59.4443 60.2926 59.4275 59.6797C59.4191 59.3949 59.5205 59.1206 59.6488 58.8534C58.7496 59.1788 57.8505 59.5007 56.9476 59.8146C56.3709 64.2882 63.0336 69.7653 66.8911 71.6828C72.5086 74.5994 77.2352 70.132 77.9542 64.8801C78.0751 64.1826 78.156 63.4656 78.1718 62.7584C78.1848 62.1675 78.0566 61.3429 78.4787 60.8376C78.1797 60.831 77.9141 60.8704 77.6213 60.9135L77.6354 60.9363C77.8013 61.2144 78.0358 61.9067 77.5107 61.9594C76.3768 61.8475 75.8494 59.983 75.5729 59.0888C75.3932 58.48 75.1454 55.9533 75.6939 55.6557C75.8591 56.2558 75.7941 56.9075 75.9952 57.5094C76.4526 57.6823 77.3238 57.729 77.5256 57.7608C79.8818 57.7864 81.2178 59.3729 82.1728 61.2301C84.9725 63.3854 88.9968 63.015 92.02 64.79C101.271 71.0799 98.2498 95.5664 102.858 105.984C103.78 105.626 104.721 106.342 104.844 107.217C104.971 107.89 104.933 108.611 104.943 109.292L104.948 109.378C105.023 110.772 105.28 112.339 103.272 112.369C103.276 113.148 103.432 113.901 103.632 114.652C104.744 119.2 105.229 123.885 105.339 128.547L105.344 128.89C105.38 131.34 105.412 138.922 103.91 139.819L103.98 140.353C104.154 141.688 104.318 143.027 104.409 144.369C104.554 145.066 104.063 146.735 103.062 146.293C101.227 146.719 99.4166 147.347 97.5093 147.351C97.9715 161.771 97.7418 176.206 97.81 190.631C97.6628 201.265 98.2757 211.987 97.7399 222.58L97.7593 222.73C97.9107 223.919 97.9562 224.953 96.4903 225.361C96.4692 225.652 96.2305 225.807 95.9472 225.841C95.1439 225.943 94.3405 226.039 93.5362 226.131C92.7869 226.184 91.9853 226.358 91.2386 226.275C91.3108 226.344 91.1147 226.354 91.0935 226.304C90.4127 227.907 90.2151 229.653 90.0466 231.363C91.6991 231.953 92.601 233.282 92.3311 234.948C93.9985 235.012 95.2162 236.749 95.4498 238.214C95.5995 239.225 95.4795 240.228 95.4313 241.241C95.2005 244.7 95.7427 248.428 98.1239 251.187L98.2232 251.298C99.7547 252.987 101.696 254.534 102.356 256.742C102.54 256.822 102.69 256.978 102.756 257.22L103.184 258.795L103.397 259.583C103.553 260.157 103.691 260.744 103.608 261.339L103.599 261.396C103.182 265.161 86.727 263.346 83.5155 263.076C82.2244 262.886 80.8079 262.99 79.6456 262.348C78.2198 261.466 78.0414 259.675 78.2862 258.209L78.3065 258.071C78.4056 257.416 78.5508 256.728 79.2141 256.361C78.9908 255.002 79.0773 253.612 78.8116 252.259C78.4104 250.344 77.1967 248.682 76.5771 246.843C75.6734 245.901 75.6429 244.431 75.4539 243.226C75.3107 242.056 75.1936 240.879 75.1453 239.703C75.0141 238.148 75.7337 236.865 77.4772 236.662C77.3963 236.367 77.6177 236.113 77.838 235.924C77.3182 234.192 77.1747 231.815 79.4298 231.224C80.2839 229.238 80.5322 227.085 80.7595 224.966C80.7325 224.961 80.7056 224.957 80.6786 224.952C79.5554 225.391 79.3217 223.312 79.2467 222.499C78.1833 211.955 78.2812 201.349 77.8819 190.773L77.8428 190.008C77.4927 183.039 77.2844 176.009 75.9995 169.134C74.7064 161.471 74.3683 153.682 73.9263 145.939C73.4057 146.697 73.1257 147.569 72.7044 148.377C67.2374 163.442 61.6281 178.462 56.2233 193.548C52.306 204.47 48.5634 215.45 44.8097 226.423C44.6182 226.985 44.0147 227.101 43.5731 226.922C42.4488 227.287 41.2689 227.495 40.0816 227.531C40.01 227.685 39.8631 227.798 39.6483 227.776C39.0132 227.711 38.2824 227.897 37.6473 227.967C36.1942 228.101 34.7835 228.31 33.3171 228.33C32.4087 229.407 32.3515 230.868 31.9327 232.15C31.6916 232.804 31.7294 234.27 30.8968 234.454C31.1953 234.885 31.2343 235.403 31.186 235.936C31.4449 235.991 31.7076 236.096 31.9512 236.202C32.1885 236.315 32.5019 236.305 32.6654 236.532C37.3161 237.323 33.9174 245.606 33.109 248.346C32.3156 250.586 32.0672 252.925 32.4292 255.263C32.9827 255.98 32.7973 257.047 32.882 257.897C32.9266 258.655 33.0084 259.425 33.0011 260.184C32.9108 263.338 28.7591 262.825 26.4169 263.235C24.9543 263.394 23.4852 263.505 22.0161 263.592C18.2901 263.809 14.5432 263.826 10.8248 263.488C8.42399 263.416 7.90775 261.947 7.91156 259.938L7.9079 259.855C7.8538 258.491 8.08823 256.845 9.46902 256.136C9.53782 255.415 9.92751 254.687 10.3254 254.058C12.1755 251.14 14.9534 248.583 15.4998 245.082C16.0357 242.79 15.4284 237.744 17.9127 236.549C17.9703 235.517 18.6463 234.465 19.4832 233.907C19.6447 233.047 20.2533 232.257 20.6297 231.467C21.3975 229.958 22.1078 228.426 22.8716 226.916C22.4717 226.758 22.0467 226.466 21.9909 226.051C21.6069 226.056 21.2276 225.823 21.2741 225.384C21.4097 224.112 21.7065 222.861 21.9868 221.61L22.0217 221.454C27.0087 198.842 37.307 177.698 43.3322 155.377C42.5215 155.514 41.7636 154.645 41.3155 154.079C39.8677 152.25 39.0127 150.038 38.6366 147.793L37.9561 147.714C35.6867 147.453 33.4061 147.224 31.1177 147.286L30.5662 147.303C29.9534 147.32 29.3397 147.316 28.7573 147.109C28.3509 147.144 27.9279 146.94 27.8275 146.512C26.1326 138.589 30.2987 131.07 33.2827 123.91C33.9857 122.15 34.4859 120.364 34.963 118.541C34.9787 118.482 35.0773 118.495 35.0745 118.556C34.9815 120.582 34.4459 122.625 33.9019 124.579C32.1156 131.202 28.3942 137.697 29.304 144.709C32.1322 142.62 35.4913 141.169 39.0197 140.555C39.2234 139.725 39.4484 138.901 39.6176 138.066C39.4512 136.782 39.3377 135.492 39.1927 134.202C38.7594 130.343 38.0974 126.493 37.215 122.702C35.8461 118.887 34.651 115.021 34.2237 110.999L34.1459 111.013C33.1968 111.194 32.1512 111.586 31.2707 111.019C30.7118 110.656 30.47 110.053 30.2441 109.475C29.5992 108.072 29.4799 106.229 31.305 105.642C30.6246 101.183 31.0668 96.5275 31.8889 92.1099C32.5475 88.2376 33.992 84.4226 33.4512 80.4585C32.8508 76.6492 31.7316 72.6595 33.3497 68.9307C36.0089 62.7076 42.7431 59.7551 49.3659 58.8049L49.4732 58.7753C50.2925 58.5478 51.0385 58.308 51.8922 58.4804C53.9057 54.9757 57.1713 56.4011 60.3601 57.1822C60.5754 56.5879 60.7548 55.98 60.9236 55.3725C61.0286 55.0631 60.994 54.3491 61.3606 54.25ZM79.8173 258.062L79.8091 258.215C79.7247 259.855 79.8197 261.261 81.9886 261.251C83.481 261.4 84.9736 261.546 86.4685 261.672L87.0292 261.719C91.4657 262.09 95.9556 262.271 100.384 261.714L100.568 261.691C100.938 261.641 101.624 261.651 101.917 261.394C102.27 260.948 101.861 260.099 101.775 259.581C94.8658 259.506 87.9474 259.267 81.0336 259.349C80.3064 259.353 79.9782 258.77 80.0452 258.239C79.9633 258.187 79.8862 258.127 79.8173 258.062ZM9.6671 257.239C9.32744 258.359 9.41112 259.419 9.60303 260.541C9.69899 261.716 10.2949 261.791 11.3733 261.818C15.5832 262.183 19.8236 262.106 24.0347 261.801C26.2917 261.573 28.6111 261.581 30.8262 261.113C31.8829 260.674 31.2728 259.292 31.3087 258.445C26.3343 261.452 18.811 261.071 13.3864 259.331L13.2995 259.296C12.0163 258.79 10.3759 258.472 9.6671 257.239ZM17.9075 237.006C17.3125 237.635 17.3237 239.476 17.2967 239.987C17.2325 241.219 17.2427 242.453 17.1858 243.685C17.2278 248.873 14.0339 251.461 11.662 255.632C11.0133 256.644 11.9571 256.788 12.7247 257.116C17.6956 259.286 23.5756 259.618 28.7687 257.957C31.3791 257.245 30.8091 255.597 30.5876 253.582C30.3693 249.463 32.6797 245.752 33.3632 241.768L33.3879 241.628C33.5923 240.434 33.917 237.504 31.9507 238.138C31.5183 238.388 31.112 238.075 31.0608 237.692C31.0094 237.7 30.9565 237.704 30.9056 237.705C30.6759 239.037 30.4378 240.367 30.2091 241.698C30.4016 241.813 30.582 241.943 30.7419 242.091C30.9362 242.272 30.8005 242.651 30.5076 242.628C30.357 242.615 30.2082 242.594 30.0603 242.568C29.9431 243.725 27.9833 243.076 28.5494 242.148C25.7315 241.235 22.627 241.308 19.7653 242.008L19.7535 242.013C19.532 242.095 17.9391 242.395 18.4515 242.628C18.6651 242.652 18.1788 242.914 18.0935 242.509C18.066 242 19.3041 241.75 19.6835 241.539C18.7267 240.254 18.073 238.589 17.9075 237.006ZM90.0986 232.939C87.4441 231.59 84.1819 232.091 81.3025 232.329L81.1816 232.342C80.4488 232.416 79.4276 232.462 79.0913 233.17C78.6043 234.304 79.4115 236.841 79.6651 238.103L79.78 238.544C79.9796 239.314 80.1644 240.08 80.2332 240.877C80.235 240.904 80.2081 240.922 80.183 240.922C79.1744 239.911 78.7211 238.552 78.25 237.255C78.049 237.363 77.8528 237.479 77.6678 237.607C76.945 239.937 76.7031 242.418 77.2753 244.795L77.2959 244.879C78.0029 247.817 80.2043 250.219 80.4136 253.289C80.5534 254.53 80.5222 255.802 80.9026 257.007C81.1191 257.052 81.3079 257.201 81.3927 257.39L82.6336 257.391C88.6318 257.401 94.6317 257.452 100.626 257.683C100.433 256.102 98.9449 254.699 97.8971 253.615C94.6817 250.526 93.2909 246.089 93.8207 241.812C94.0993 239.673 95.3722 236.311 92.2586 235.521C92.0313 237.264 91.7238 239.002 91.5538 240.753C92.1414 241.019 92.1051 241.72 91.3873 241.706C91.0651 242.723 89.9848 242.312 90.1015 241.353C86.1499 239.983 83.8828 239.525 80.0333 241.587C79.9255 241.572 80.329 241.167 80.3801 241.095C81.5966 239.865 83.4651 239.286 85.218 239.265C86.9556 239.265 88.5897 239.879 90.2288 240.354C90.4752 238.702 90.6412 237.04 90.8364 235.383L90.8787 235.028C90.9811 234.157 90.9438 233.439 90.0986 232.939ZM26.5952 254.27C27.1735 254.15 27.7054 253.966 28.293 254.091C30.3609 255.548 21.9114 255.959 21.192 255.855C19.3605 255.805 17.5282 255.587 15.7656 255.101L15.63 255.063C15.3976 255.003 13.7191 254.558 14.0454 254.358C16.4294 254.556 18.7633 254.966 21.192 254.859C22.4035 254.836 23.6197 254.755 24.8183 254.584C25.4143 254.499 26.0075 254.395 26.5952 254.27ZM82.4589 252.465C82.0803 251.933 83.926 252.64 84.166 252.646C85.6945 252.999 87.2499 253.267 88.8198 253.379C89.8724 253.454 90.9361 253.47 91.9905 253.421C92.7714 253.396 93.5438 253.287 94.3197 253.213L94.3476 253.212C94.8086 253.197 95.7324 253.465 95.1631 253.979C94.2778 254.623 92.9678 254.427 91.9068 254.522C88.6845 254.512 85.2724 254.025 82.4589 252.465ZM21.8808 248.596C22.8098 248.438 27.9228 248.387 27.4131 249.859C27.2895 250.139 27.0068 250.231 26.7093 250.187C23.5447 249.465 20.1311 249.087 16.9768 250.083C16.9257 250.1 16.8903 250.021 16.9405 250C18.4915 249.271 20.1509 248.761 21.8808 248.596ZM88.2495 247.157C89.0843 247.098 89.9241 247.119 90.7593 247.178L91.031 247.197C91.4055 247.225 91.7911 247.257 92.1501 247.359L92.2171 247.379C92.6758 247.518 93.7093 248.257 92.9247 248.613C92.0823 248.869 91.37 248.565 90.5574 248.369C88.292 247.865 85.9109 248.036 83.6664 248.55L83.9826 248.646C84.0021 248.632 84.0272 248.663 84.0086 248.678C83.7817 248.864 83.4702 248.798 83.3094 248.567C83.2815 248.528 83.2992 248.464 83.3438 248.442C84.865 247.693 86.5424 247.279 88.2495 247.157ZM17.6951 246.969C20.2534 245.907 23.2175 245.79 25.9611 246.098L26.1566 246.12C27.0125 246.214 28.1288 246.257 28.6186 247.005C28.7878 247.265 28.613 247.562 28.3397 247.655C27.5344 247.931 26.5879 247.378 25.8143 247.173C23.5269 246.585 21.0838 246.524 18.7578 246.93C18.7741 247.01 18.3889 246.975 18.305 247.004C18.1999 246.998 17.5021 247.215 17.6951 246.969ZM82.2094 245.31C84.4413 244.292 87.0217 244.049 89.4314 244.575L89.5316 244.602C90.5992 244.883 92.3182 245.215 92.7007 246.275C92.7834 246.514 92.604 246.837 92.3352 246.885C91.4249 247.049 90.5983 246.425 89.7745 246.125C87.3507 245.271 84.6071 245.066 82.1006 245.695C82.0839 245.788 82.0672 245.879 82.0495 245.972C82.0923 245.945 82.1369 246.005 82.1025 246.037C81.7025 246.3 81.2864 245.637 82.2094 245.31ZM23.446 243.52C25.2518 243.408 27.0729 243.623 28.8163 244.07L29.1441 244.155C29.6206 244.28 30.2378 244.477 30.3071 244.96C30.3341 245.153 30.283 245.285 30.1165 245.404C29.5096 245.83 28.1896 244.937 27.435 244.833C24.6954 244.06 21.7548 244.071 18.9797 244.662L18.8852 244.683L18.9521 245.13C19.018 245.343 18.4079 244.84 18.6397 244.61C20.1046 243.91 21.814 243.646 23.446 243.52ZM83.9123 242.721C85.3617 242.476 86.8568 242.429 88.3222 242.553L88.4953 242.568C89.3704 242.64 92.2056 242.746 91.535 244.134C91.4225 244.366 91.0961 244.396 90.885 244.295C90.1765 243.958 89.4019 243.837 88.62 243.726C85.8589 243.365 83.0381 243.513 80.3427 244.211C80.4013 244.297 80.2804 244.399 80.166 244.42C79.8815 244.469 79.8815 244.151 80.0033 243.981C80.1484 243.781 80.4375 243.708 80.6607 243.62C81.6987 243.195 82.7995 242.909 83.9123 242.721ZM29.0185 234.999L28.8535 234.962C26.0877 234.351 19.9555 233.256 19.3205 236.831C19.0951 238.406 19.8386 239.942 19.7836 241.501C22.6517 240.406 25.8232 240.418 28.8029 241.141C29.0669 239.523 29.3189 237.903 29.5885 236.285L29.6321 236.092C29.7521 235.546 29.7929 235.12 29.0185 234.999ZM22.8587 235.649C23.4614 235.164 24.4665 235.171 25.0577 235.701C25.5983 235.807 25.9798 236.346 25.9885 236.807C26.8105 238.163 25.8192 240.036 24.2497 240.375C20.7059 241.075 19.1216 236.508 22.8587 235.649ZM84.2585 233.486C87.2237 232.989 88.3008 236.519 85.8672 237.95C82.4292 239.569 80.1385 234.481 84.2585 233.486ZM24.3258 225.646C24.3694 225.916 24.228 226.108 24.0589 226.29C23.451 228.629 22.536 230.805 21.6339 233.046C24.5687 232.59 27.3415 232.988 29.9383 233.736C29.9693 233.052 30.3015 232.343 30.5323 231.698C30.9818 230.473 31.525 229.28 32.1514 228.128L32.2302 227.984C32.4552 227.574 32.6719 227.146 32.9378 226.753C30.0655 226.385 27.1931 226.054 24.3258 225.646ZM82.1734 225.148L82.0969 225.474C81.7673 226.885 81.4544 228.31 80.9637 229.681L80.957 229.709C80.8819 230.055 80.713 231.658 80.6066 230.527C80.5248 230.697 80.4374 230.865 80.3444 231.031L80.8518 230.974C83.5663 230.672 86.4091 230.41 89.0773 231.051C88.8074 229.089 89.2047 227.214 89.7849 225.358C87.242 225.303 84.7218 225.321 82.1734 225.148ZM34.0189 227.587C33.9259 227.669 33.8348 227.753 33.7483 227.841C33.8655 227.812 33.9828 227.785 34.0914 227.761C34.087 227.697 34.0385 227.648 34.0189 227.587ZM91.322 225.787L91.2665 225.91C91.2573 225.93 91.2483 225.95 91.2393 225.97C91.282 225.946 91.3296 225.923 91.3806 225.903C91.3574 225.868 91.3378 225.83 91.322 225.787ZM44.8718 109.652C44.6115 109.77 44.34 109.8 43.9811 109.814C41.065 109.928 38.1582 110.245 35.2947 110.785C35.4527 112.959 36.1575 115.065 36.8282 117.138L36.9673 117.592C39.2335 125.017 41.2116 132.777 40.8132 140.543C40.8355 140.551 40.8569 140.562 40.8773 140.572C40.8411 140.667 40.8152 140.764 40.7788 140.859L40.7555 140.915L40.6194 141.232C40.5442 141.408 40.4712 141.585 40.4078 141.766C40.2965 141.803 40.1597 141.831 40.0293 141.849C39.3678 145.961 39.9968 150.571 42.9778 153.787C41.7407 151.358 41.2656 148.338 41.7756 145.687C42.0524 145.968 42.0721 146.617 42.1782 147.038C42.4692 148.477 42.6735 149.937 43.1107 151.346L43.1581 151.487C43.6483 152.93 44.4685 154.791 45.8901 155.536C46.1583 155.612 46.573 155.518 46.6999 155.826C46.7732 156.102 46.6366 156.442 46.3353 156.528L46.314 156.534C45.4483 156.764 44.7138 156.152 44.1587 155.506L44.131 155.843C44.0776 156.482 44.0033 157.094 43.6082 157.619C43.5617 157.802 43.5162 157.985 43.4689 158.168C42.3996 164.359 40.7912 170.758 37.8628 176.346L37.5223 177.309C31.9551 193.045 26.1894 208.771 22.8341 225.098C26.3596 224.75 29.9147 224.918 33.4332 225.246C36.751 225.569 40.2604 226.43 43.439 225.056C52.0506 200.37 60.934 175.758 70.6698 151.449C71.8432 147.59 74.0472 143.869 75.1375 139.914L75.2058 139.705C75.462 138.912 75.5823 138.397 75.3942 137.512L75.3862 137.403C75.3474 136.849 75.3338 136.008 76.0079 135.855C76.1223 135.828 76.272 135.848 76.3511 135.941C76.7679 136.443 76.3777 137.081 76.4978 137.664C76.8478 139.893 75.9105 141.994 74.8149 143.916C74.8865 143.997 74.9358 144.097 74.9442 144.206C75.04 145.39 75.0279 146.587 75.0828 147.774C75.2388 151.187 75.4656 154.597 75.7531 158.002C76.6536 164.239 77.93 170.411 78.6236 176.675C80.2026 191.265 79.9186 205.967 81.0653 220.586C81.0745 221.87 81.504 223.205 81.0689 224.451C81.3432 224.282 81.7329 224.32 81.9736 224.525C86.6481 224.221 91.3295 224.37 96.0028 224.109C96.0075 223.912 96.0233 223.727 96.0316 223.585C95.9008 223.294 96.1179 222.969 96.1116 222.659C95.5413 219.626 96.0108 216.365 95.8932 213.263C95.8987 210.327 95.9145 207.392 95.9359 204.457C96.1126 186.111 95.875 167.762 96.2325 149.419C96.2604 148.517 96.3042 147.617 96.3664 146.718C96.1091 146.449 96.2806 146.068 96.2809 145.745L96.296 145.458C96.3742 144.008 96.4631 142.676 95.8605 141.247C95.8745 141.077 95.9164 140.917 96.0112 140.787C93.1924 139.547 90.2495 138.607 87.3397 137.586C86.8487 137.699 86.2341 137.413 86.1309 136.917C85.0346 131.638 84.1708 126.326 83.4242 120.995C78.5381 124.006 72.5807 124.482 67.0323 125.701L65.9822 125.957C63.3926 126.59 60.6763 127.327 58.7067 129.054C58.5076 131.778 59.9869 139.631 55.5416 139.425C54.0853 139.843 52.5884 140.177 51.0979 140.357C52.8332 143.448 55.9985 147.566 53.496 150.989C53.133 151.35 52.645 150.984 52.3132 150.76C52.3543 152.761 52.4113 154.752 52.4136 156.752C52.4136 157.018 52.1207 157.259 51.8381 157.168C50.2352 156.649 50.037 154.848 49.7887 153.489C49.5665 152.276 49.3434 151.063 49.1239 149.848C48.9841 152.027 49.5428 154.27 49.0878 156.424C48.6509 157.656 47.2935 157.289 46.8866 156.257L46.8746 156.225C46.0699 154.131 45.678 151.895 45.5153 149.677L45.5066 149.547C45.4598 148.874 45.3835 148.162 45.5609 147.51C45.9208 148.145 45.8312 149.181 45.9988 149.95C46.2796 151.591 46.6593 153.222 47.1928 154.807L47.2066 154.863C47.4477 155.793 48.392 157.604 48.3811 155.328C48.4172 154.172 48.3113 153.019 48.2443 151.865L48.235 151.7C48.1476 150.124 48.1569 148.533 48.6609 147.014C48.7892 146.625 49.4866 146.552 49.5712 147.014C49.9097 148.862 50.2332 150.712 50.5568 152.563C50.7927 153.693 50.7829 154.967 51.4996 155.942C51.508 153.814 51.3823 151.692 51.2737 149.567L51.2519 149.501C51.1637 149.23 51.0682 148.868 51.2709 148.634C51.3499 148.149 52.1049 148.204 52.1691 148.712C52.183 148.818 52.1933 148.926 52.2044 149.032C52.4546 149.327 52.687 149.628 52.9827 149.881C54.957 146.097 48.4974 139.563 47.6056 135.291C44.9791 126.971 46.4892 118.247 47.2531 109.775C46.4631 109.687 45.6667 109.664 44.8718 109.652ZM22.7547 225.387C22.7248 225.492 22.7018 225.607 22.6478 225.702C22.6906 225.709 22.7343 225.717 22.778 225.726C22.831 225.625 22.8868 225.527 22.9472 225.431C22.883 225.417 22.8189 225.403 22.7547 225.387ZM55.5437 186.421C55.6264 186.407 55.6599 186.515 55.579 186.54C52.8574 187.389 50.5636 188.969 48.2697 190.537C47.9442 190.759 47.6402 190.296 47.868 190.044C48.8274 188.99 50.0023 188.262 51.3103 187.65L51.3874 187.614C52.6958 186.995 54.0995 186.601 55.5437 186.421ZM81.6052 184.841C81.5736 184.784 81.6572 184.74 81.6954 184.791C82.3016 185.592 83.1041 186.338 83.9009 186.968C84.708 187.607 85.5886 188.111 86.4524 188.671C86.9182 188.973 86.5184 189.616 86.0126 189.385C85.0288 188.936 84.1455 188.194 83.423 187.422C82.6782 186.626 82.1268 185.774 81.6052 184.841ZM64.7076 157.052C61.7039 161.789 57.2689 166.559 53.9589 171.416C51.7237 174.53 49.7017 177.777 47.2521 180.751C46.762 181.377 45.8173 180.854 46.153 180.142C47.0847 178.168 48.1234 176.272 49.3738 174.463L49.7772 173.901C54.1321 167.845 58.7477 161.777 64.7076 157.052ZM77.2218 149.823C77.1958 149.744 77.319 149.71 77.3522 149.78L77.3557 149.788C79.6106 155.591 83.0869 160.867 86.1286 166.308C86.3638 166.754 85.7371 167.291 85.3624 166.869C83.2154 164.453 81.71 161.611 80.3749 158.734C78.9671 155.882 78.1033 152.845 77.2218 149.823ZM82.4615 61.7671C83.8423 64.3686 84.8558 67.1218 85.5578 69.9553C85.7741 70.8301 84.5241 71.367 84.0191 70.6006L84.0041 70.577C83.383 69.6044 82.4576 68.7479 81.2862 68.4129C80.488 71.5539 80.877 74.8732 81.2917 78.0448C82.027 82.4635 82.6122 86.9009 82.6997 91.3786L82.7039 91.6185C82.9602 106.91 85.3542 122.133 87.9763 137.104C92.1681 137.736 96.0056 139.519 99.8696 141.087C100.541 141.333 101.227 141.547 101.93 141.695C99.9888 124.721 92.6056 108.803 90.3242 91.8911C89.7211 87.4927 89.6929 83.0262 90.5258 78.6533C90.5399 78.5695 90.6662 78.5977 90.6718 78.6718C90.7633 80.4681 91.0906 82.2409 91.2846 84.0274C91.4166 83.0071 91.7216 81.9735 91.9679 80.9955C92.2692 80.0388 92.3806 78.5027 93.2633 77.879L93.319 77.6982C93.3423 77.6206 93.465 77.6532 93.4456 77.7308C93.4362 77.7679 93.4269 77.804 93.4185 77.8411C93.9855 77.9826 93.4559 78.6139 93.3153 78.9161C92.4053 81.2083 92.1345 83.6896 91.5133 86.0522C92.4122 93.4279 94.0311 100.71 96.0248 107.879C97.8567 107.425 99.6947 106.988 101.531 106.544C97.4348 94.0069 99.8301 80.015 93.6927 68.0435C91.3933 64.0259 85.7305 64.5717 82.4615 61.7671ZM51.3385 59.4751C50.4794 59.4319 49.5821 59.8702 48.7573 60.021C47.6639 60.2203 46.576 60.3781 45.5068 60.6842C40.0333 62.0946 34.7527 65.9464 33.7612 71.496C33.0796 75.3066 34.7672 79.0193 34.7079 82.8193C34.5298 86.584 33.2092 90.2023 32.6946 93.9292C32.0756 97.7401 31.8625 101.729 32.3934 105.558C37.3034 104.249 42.4311 104.167 47.4659 104.843C47.046 99.039 47.597 93.2061 47.9019 87.4059C48.1213 83.6809 48.497 79.9391 48.364 76.2069C48.3612 76.1241 48.5044 76.1038 48.5182 76.1867C50.0282 83.8092 49.1425 91.5471 48.99 99.2345C48.8931 101.177 49.149 103.138 49.0456 105.069C51.3346 105.532 51.2519 108.041 50.5519 109.695C50.4279 110.093 50.0067 110.024 49.6658 109.976C49.2965 110.341 48.4153 109.865 47.9131 109.865C47.5199 119.407 45.1317 129.599 50.0256 138.517C52.0717 138.528 54.0413 137.864 56.0298 137.488L56.1383 137.467L56.1411 137.467C56.4333 137.109 56.5763 136.534 56.6154 136.113C56.8933 128.764 56.0235 121.399 56.5324 114.05C57.1556 105.893 59.0913 97.7853 58.196 89.5727C57.577 82.2327 55.8776 75.0257 55.0585 67.7077L55.0169 67.3291C54.9659 66.8779 54.9466 66.3794 54.7091 66.0354C53.3273 67.219 52.1678 68.6265 51.3377 70.2101C50.878 70.975 49.6467 70.6346 49.6278 69.771C49.4507 68.229 49.4245 66.6811 49.6039 65.1388L49.6202 65.0027C49.8425 63.072 50.4631 61.2292 51.3385 59.4751ZM102.71 112.433C100.93 112.521 99.1482 112.707 97.3652 112.685L97.5447 113.318C99.703 120.915 102.001 128.498 103.356 136.272L103.405 135.543C103.454 134.814 103.501 134.084 103.532 133.353C103.916 126.368 103.329 119.391 102.71 112.433ZM97.5025 112.44L97.2914 112.43L97.3045 112.474C97.3478 112.466 97.3921 112.458 97.4363 112.451L97.5025 112.44ZM103.303 107.309C103.269 107.299 103.213 107.299 103.149 107.302C103.058 107.499 102.874 107.663 102.66 107.716L100.876 108.17C99.3893 108.547 97.9015 108.923 96.4119 109.289C96.662 110.195 96.9159 111.102 97.1725 112.008C99.2041 111.391 101.454 111.531 103.525 111.134C103.5 110.087 103.439 109.035 103.42 107.987C103.415 107.816 103.453 107.541 103.36 107.387C103.301 107.29 103.36 107.326 103.303 107.309ZM35.0556 110.831L34.9997 110.843C35.0183 110.89 35.035 110.938 35.0508 110.986C35.0519 110.934 35.0527 110.883 35.0556 110.831ZM48.2823 105.796C44.4545 105.271 40.5618 104.96 36.7013 105.318C34.9551 105.541 33.1824 105.778 31.471 106.082C30.8759 106.944 31.5343 109.04 32.2753 109.703C32.4975 109.783 32.8797 109.628 33.0926 109.583C34.6902 109.243 36.3036 108.969 37.9249 108.755C37.9733 108.813 38.0439 108.85 38.1313 108.842L38.5038 108.809C40.7401 108.617 42.9961 108.476 45.2371 108.597L45.2538 108.609C46.7658 108.713 48.2725 108.938 49.7783 109.1C50.3727 107.635 50.2703 105.953 48.2823 105.796ZM76.1337 57.9954C76.2816 58.4677 76.4594 58.9267 76.6804 59.3729C76.9112 59.3126 77.2295 59.361 77.3992 59.4981L77.4713 59.4858C77.6698 59.4502 77.9081 59.3959 77.9701 59.3896C80.7051 59.0326 80.4967 62.4836 80.5066 64.2179C80.5234 65.0874 80.542 65.9579 80.5699 66.8274C81.3525 66.576 82.3991 67.0279 83.0832 67.4279C82.5476 65.7462 81.9181 64.0918 81.2161 62.4665L81.0564 62.0863C80.5102 60.7958 79.8987 59.4961 78.7428 58.5977C77.8494 58.3773 76.9839 58.3373 76.1337 57.9954ZM56.3044 57.1296C53.7623 56.2744 52.7554 58.2178 52.0503 60.156C51.2191 62.3025 50.9922 64.6659 51.1307 66.9756L51.2163 66.8687C52.1516 65.6928 53.5001 63.7516 55.2052 64.0636C55.1886 63.1713 55.2228 62.1911 55.4042 61.2645C55.2982 60.6666 55.2712 60.0625 55.3448 59.4584C55.3836 58.701 56.2583 58.8159 56.8343 58.7088C57.3326 58.3958 57.9361 58.2697 58.5423 58.4901C58.9998 58.4328 59.4573 58.3781 59.9148 58.3235C59.985 58.178 60.0417 58.0317 60.1007 57.8825C58.8346 57.6357 57.5688 57.3813 56.3044 57.1296Z" fill="black"/>
<path fill-rule="evenodd" clip-rule="evenodd" d="M73.7793 58.5358C71.7663 58.5469 70.0555 58.0122 68.7501 57.1276C67.1211 56.5839 65.1562 55.7451 63.9627 54.8646C63.4971 54.9759 62.9401 54.5129 62.5839 54.2686C60.3687 52.7201 58.63 50.4535 58.1148 48.1831C57.3194 49.1229 56.1876 49.162 55.1034 48.6949C52.8306 47.4883 52.9156 44.9477 53.7338 43.0495C52.0137 39.4364 50.8215 29.8982 53.4473 26.0488C53.9844 25.4728 54.7726 25.1283 55.3401 24.5377C55.845 24.0218 56.3253 23.4942 56.9128 23.086C58.7054 21.8087 61.793 21.1287 63.7261 20.8089C71.7961 19.1756 77.9965 22.1112 85.3064 24.5875C84.8857 25.5723 84.3037 26.4705 83.6368 27.3079C85.4515 27.9421 84.618 29.3678 83.2101 30.0905L82.3719 29.7092C83.6785 34.0854 86.6855 44.968 85.3881 48.4628C84.3534 53.915 79.8129 58.5754 73.7793 58.5358Z" fill="white"/>
<path fill-rule="evenodd" clip-rule="evenodd" d="M74.9442 59.0058C72.3305 59.257 69.2253 58.6785 67.4829 56.6909C67.4308 56.6314 67.408 56.5641 67.4066 56.499C67.4051 56.4267 67.431 56.3568 67.4758 56.3024C67.5229 56.2453 67.59 56.2055 67.6669 56.1925C67.7316 56.1816 67.8054 56.1886 67.8814 56.2286L68.0416 56.3121C69.2316 56.9274 70.4675 57.4521 71.8161 57.6767C73.2047 57.9079 74.6186 57.882 75.9948 57.5884C78.5016 57.0537 80.5303 55.6898 82.0236 53.8913C83.69 51.8843 84.6906 49.3366 84.9457 46.7888C85.2548 43.7011 84.5378 40.6322 83.796 37.6426C83.0166 34.5012 82.1646 31.3758 81.1749 28.2867C81.1451 28.1938 81.1371 28.1067 81.1457 28.0266C80.8538 27.9195 80.5431 27.9492 80.2339 28.0469C79.6689 28.2255 79.1061 28.6282 78.6367 28.9606C78.4667 29.081 78.3085 29.1929 78.1664 29.2839C77.5843 29.6568 76.948 29.925 76.2366 29.9672C75.4966 30.011 74.7712 29.7957 74.0991 29.5263C73.7577 29.3894 73.4218 29.2474 73.0872 29.106C72.1345 28.7033 71.193 28.3046 70.1642 28.0455C68.7856 27.6982 67.3623 27.5271 65.9346 27.5393C63.3866 27.5612 60.8307 28.1751 59.269 30.1925C58.6365 31.0097 58.224 31.949 58.5457 32.9576C58.7207 33.5062 59.0509 34.0043 59.4113 34.4624L59.5349 34.6184C59.7326 34.8698 59.9044 35.1203 59.9561 35.3869C59.9995 35.6103 59.9657 35.8466 59.7953 36.1056C59.6881 36.2687 59.5516 36.4149 59.4143 36.5606C59.3154 36.6657 59.2161 36.7706 59.1307 36.8836C58.9585 37.1114 58.8061 37.3567 58.6866 37.6125C58.4525 38.1133 58.3533 38.6521 58.3325 39.1954C58.3073 39.8509 58.4058 40.4922 58.5035 41.1343C58.5727 41.5897 58.6418 42.0455 58.6697 42.5068C58.6746 42.5873 58.6483 42.6472 58.6114 42.6916C58.5664 42.746 58.5006 42.7802 58.4258 42.7897C58.4031 42.7925 58.3795 42.793 58.3559 42.791C58.3675 42.8354 58.3778 42.88 58.3867 42.9247C58.3394 42.8678 58.289 42.8126 58.2359 42.7592C58.2325 42.7576 58.2292 42.7559 58.2258 42.7542C58.1711 42.726 58.1247 42.6831 58.0954 42.6279C58.0202 42.5624 57.9406 42.5004 57.857 42.442C57.4222 42.1383 56.9145 41.9583 56.4053 41.9524C55.9143 41.9466 55.4221 42.1031 55.0437 42.4336C54.2916 43.0905 54.0712 44.1628 54.0634 45.0836C54.0554 46.0234 54.2878 47.1514 55.1631 47.7349C55.5143 47.9689 55.9431 48.1096 56.3751 48.1137C56.7333 48.117 57.0759 47.9984 57.4134 47.8854C57.5174 47.8506 57.621 47.8159 57.7243 47.7844C57.8416 47.7487 57.9486 47.7509 58.0418 47.7771C58.1469 47.8065 58.2361 47.8674 58.3027 47.9485C58.3691 48.0294 58.4126 48.1306 58.4261 48.2366C58.4391 48.3392 58.4241 48.4457 58.3777 48.5418C58.3661 48.566 58.3538 48.5895 58.341 48.6124L58.5335 48.9088C59.2707 50.0406 60.0208 51.1518 61.0044 52.1246C61.569 52.683 62.1675 53.2099 62.8239 53.6712L62.9186 53.737C62.9752 53.7759 63.0381 53.8239 63.1051 53.8752C63.2965 54.0218 63.526 54.2185 63.7403 54.2262C63.8038 54.2285 63.8593 54.2211 63.9098 54.2149C64.0318 54.1999 64.1342 54.1955 64.2347 54.2339C64.3156 54.2648 64.3996 54.3225 64.4858 54.4416C64.5441 54.5223 64.574 54.6234 64.574 54.726C64.574 54.8291 64.5437 54.9322 64.4898 55.0137C64.3783 55.1825 64.2434 55.287 64.097 55.3463C63.9338 55.4125 63.7534 55.4226 63.566 55.3898C63.1041 55.3092 62.5929 54.9511 62.2675 54.7174L62.2046 54.6723C61.4837 54.1575 60.8005 53.5879 60.1999 52.9509C59.1771 51.8662 58.2585 50.588 57.7866 49.1913C57.4541 49.3958 57.0432 49.4929 56.6136 49.5082C55.9877 49.5305 55.3253 49.3797 54.8372 49.163C53.7614 48.6855 53.108 47.7822 52.8018 46.7435C52.4462 45.5372 52.5617 44.1504 53.0119 43.0668C53.025 43.0353 53.0386 43.0039 53.0526 42.972C51.6667 39.6849 51.2405 36.0349 51.3592 32.5269C51.4148 30.885 51.5342 29.1622 51.948 27.5608C52.1335 26.8431 52.4557 26.1595 52.9703 25.5944C53.2636 25.2722 53.6236 25.0214 53.9851 24.7712C54.2983 24.5545 54.6127 24.3383 54.8772 24.0678L55.0023 23.9393C55.0294 23.9114 55.0565 23.8835 55.0835 23.8556C55.5403 23.3843 55.985 22.9269 56.5394 22.5404C57.1823 22.0922 57.8917 21.7414 58.6289 21.45C60.217 20.8226 61.9263 20.4464 63.6172 20.1554C67.2753 19.5258 71.0305 19.4947 74.6438 20.3797C76.3237 20.7911 77.9541 21.3542 79.5817 21.9166C79.7328 21.9688 79.8839 22.021 80.0351 22.0731C81.2999 22.5091 82.5654 22.9432 83.831 23.3773C84.4191 23.5791 85.0073 23.7808 85.5954 23.9828C85.723 24.0266 85.8479 24.121 85.919 24.2383C85.9884 24.3528 86.0091 24.4862 85.9531 24.6192C85.5922 25.475 85.1369 26.278 84.5827 27.0279C84.7753 27.1505 84.9392 27.3136 85.0632 27.5045C85.22 27.7459 85.3129 28.0317 85.3192 28.335C85.3403 29.3505 84.3531 30.0388 83.5341 30.5367C83.4578 30.5832 83.3822 30.6106 83.3092 30.6232C84.1028 33.4637 84.8624 36.3138 85.5079 39.1865L85.5523 39.3857C86.2173 42.3921 86.6463 45.4603 86.0174 48.5067C85.4759 51.13 84.218 53.6617 82.2523 55.616C80.3259 57.5313 77.741 58.737 74.9442 59.0058ZM57.7337 41.7108C57.3914 40.6941 57.2101 39.5879 57.341 38.5572C57.4234 37.9094 57.6315 37.2857 57.9703 36.7147C58.1643 36.3876 58.4008 36.0849 58.6589 35.7997L58.7479 35.704C58.793 35.6551 58.8378 35.6101 58.8517 35.5537C58.8598 35.521 58.8516 35.4852 58.8303 35.4424C58.7832 35.3476 58.6957 35.2562 58.6137 35.1671C58.5616 35.1104 58.5107 35.0548 58.468 35.0007C57.7179 34.0502 57.1585 32.9186 57.3403 31.7132C57.5177 30.5372 58.341 29.441 59.2175 28.6149C61.1475 26.7958 64.1396 26.3778 66.7609 26.4781C68.2867 26.5365 69.8101 26.7882 71.2632 27.228C71.9798 27.4449 72.6804 27.709 73.3612 28.0118L73.512 28.0795C73.5933 28.1164 73.6746 28.1537 73.7559 28.1911C74.2881 28.4354 74.8223 28.6821 75.4 28.8149C76.5282 29.0743 77.2935 28.528 78.0979 27.9772C78.3736 27.7884 78.6535 27.597 78.951 27.429L79.0122 27.3951C79.5489 27.1039 80.1909 26.9079 80.8075 26.9167C81.3432 26.9243 81.86 27.0844 82.2807 27.4628C82.3671 27.5405 82.4168 27.6253 82.4401 27.7098C82.4867 27.7709 82.5243 27.8437 82.5487 27.9298C82.6995 28.4592 82.8495 28.989 82.9991 29.5189L83.1213 29.4452C83.4836 29.2249 83.8774 28.9732 84.0552 28.6048C84.1237 28.463 84.114 28.2267 84.0277 28.053C83.9976 27.9923 83.9577 27.9383 83.9026 27.9046C83.8625 27.8801 83.8142 27.8686 83.7581 27.8729C83.6215 27.8893 83.4962 27.8706 83.3899 27.8286C83.2673 27.7801 83.1696 27.7003 83.1062 27.6041C83.0412 27.5057 83.0116 27.3899 83.0275 27.2698C83.0412 27.1666 83.0886 27.0588 83.1825 26.9575C83.8004 26.2908 84.3208 25.5552 84.7163 24.7569L82.1002 23.8508C81.1674 23.5279 80.2344 23.2054 79.301 22.8841L78.79 22.7083C77.0928 22.1256 75.3858 21.5561 73.6207 21.1809C70.113 20.4353 66.4552 20.6105 62.9571 21.3123L62.7458 21.3551C61.2779 21.6547 59.7903 22.0172 58.443 22.6474C57.7817 22.9567 57.1531 23.3328 56.6132 23.808C56.3748 24.0178 56.1593 24.2476 55.9436 24.477C55.6415 24.7986 55.3389 25.1192 54.9797 25.3901L54.6462 25.6401C54.1501 26.0143 53.7026 26.3789 53.4227 26.9593C53.1299 27.5661 52.9902 28.2364 52.8762 28.8895C52.5888 30.5347 52.4753 32.2063 52.4861 33.8727C52.5044 36.6709 52.9585 39.412 53.5322 42.1435C53.9925 41.5269 54.6391 41.0488 55.4689 40.9469C56.01 40.8804 56.5464 40.9749 57.0115 41.1988C57.2803 41.3282 57.5253 41.5009 57.7337 41.7108ZM56.8645 45.0334C56.2585 44.8136 55.6222 44.7417 54.9811 44.8468C54.9139 44.8577 54.8499 44.8446 54.796 44.8153C54.7414 44.7856 54.6984 44.7387 54.6751 44.6868C54.6481 44.6269 54.6467 44.562 54.6705 44.5044C54.6912 44.4544 54.7306 44.4058 54.803 44.3734C55.4973 44.0633 56.2689 43.9264 57.0348 44.0238L57.1105 44.0338C57.502 44.0882 58.0526 44.2026 58.4656 44.4278C58.79 44.6047 59.0274 44.8486 59.0865 45.1673C59.1173 45.3333 59.0732 45.5066 58.971 45.6323C58.8722 45.7538 58.7211 45.8347 58.5255 45.8295C58.1805 45.8204 57.9763 45.6839 57.7305 45.5071C57.7007 45.4857 57.6701 45.4637 57.6383 45.4414C57.4009 45.2751 57.1414 45.1338 56.8645 45.0334Z" fill="black"/>
<path fill-rule="evenodd" clip-rule="evenodd" d="M75.4281 51.5282C74.8184 51.2954 74.2745 50.907 73.8768 50.4109C73.7385 50.2384 73.7027 50.0563 73.7317 49.8897C73.7643 49.7024 73.8827 49.5326 74.0441 49.4188C74.206 49.3046 74.4086 49.2482 74.6044 49.2769C74.7746 49.3019 74.944 49.3891 75.078 49.57L75.106 49.6062C75.3425 49.9056 75.6506 50.1513 76.0016 50.3097C76.34 50.4623 76.7184 50.5335 77.11 50.4921C77.8558 50.4132 78.3699 50.0356 78.9163 49.5229C78.984 49.4581 79.0518 49.3914 79.1199 49.3235C79.1629 49.262 79.2226 49.2225 79.2888 49.2018C79.3624 49.1787 79.4457 49.18 79.5219 49.2049C79.5954 49.229 79.6611 49.2745 79.7052 49.3351C79.7471 49.3926 79.7708 49.4638 79.7631 49.5456C79.7131 50.077 79.4163 50.5512 78.9948 50.9236C78.5266 51.3372 77.906 51.6233 77.3217 51.7237C76.678 51.8342 76.022 51.755 75.4281 51.5282ZM77.6254 43.3302C78.3102 43.7199 79.3537 44.6286 78.617 45.5947C77.7498 46.4465 76.5012 45.4698 75.8859 45.0281C75.3154 44.6858 74.6744 45.5662 75.2037 45.966C79.6498 49.0474 81.4541 43.4321 77.9718 42.872C77.5884 42.8103 77.446 43.2096 77.6254 43.3302ZM69.6576 39.7457C69.7333 38.8664 71.1637 38.6668 71.306 39.5368C71.4334 40.3162 71.2834 41.0322 70.9084 41.7339C70.5501 42.4042 69.6495 42.0915 69.5814 41.4811C69.4901 40.6628 69.6105 40.2926 69.6576 39.7457ZM80.5464 39.3564C80.7459 39.1119 81.0338 38.945 81.3788 39.0393C82.4567 39.3341 82.139 40.7666 81.7605 41.4639C81.5548 41.8426 80.8899 41.9386 80.5894 41.6052C80.0997 41.0615 79.8652 39.9757 80.4878 39.4402C80.5046 39.4125 80.5234 39.3846 80.5464 39.3564ZM70.8935 35.8984L71.0638 35.8705C71.5905 35.7852 72.2454 35.7033 72.618 36.0997C72.8156 36.3099 72.8836 36.7006 72.618 36.9018C72.1507 37.2559 71.6342 37.1187 71.0742 37.1486C70.6128 37.1734 70.1693 37.2449 69.7248 37.3639C68.7497 37.6248 67.9552 38.101 67.1223 38.624C67.0131 38.6926 66.9015 38.5618 66.9537 38.4661C67.4344 37.5846 68.3661 36.8605 69.2993 36.4191C69.7974 36.1835 70.3424 35.9881 70.8935 35.8984ZM79.5638 35.5035L79.6941 35.5285C81.1123 35.806 82.9548 36.3603 83.6264 37.6643C83.652 37.8487 83.625 37.8882 83.603 37.914L83.5957 37.9226C83.5775 37.9447 83.5631 37.9751 83.4777 38.0002C83.454 37.9949 83.4301 37.9893 83.4059 37.9834C83.0981 37.9078 82.8545 37.8038 82.6187 37.6958L82.3631 37.5779C82.0664 37.4418 81.7672 37.3106 81.4501 37.2137C80.7733 37.0071 80.0772 36.8615 79.3704 36.7838C79.2172 36.767 79.0696 36.7186 78.9532 36.6356C78.8427 36.5569 78.7583 36.4478 78.7199 36.3029C78.67 36.1154 78.6843 35.9734 78.7918 35.8042C78.8726 35.6771 78.9883 35.589 79.1211 35.5385C79.2565 35.4869 79.4106 35.4748 79.5638 35.5035Z" fill="black"/>
<path fill-rule="evenodd" clip-rule="evenodd" d="M88.155 36.8661C88.0803 36.8545 88.0056 36.8435 87.9309 36.8333C87.8725 36.8023 87.8041 36.7784 87.7244 36.7641C87.5426 36.7209 87.362 36.6917 87.1817 36.676C84.5941 36.1309 78.6078 36.9049 78.3608 38.9721C77.5368 39.2296 76.8237 38.999 75.8687 39.0219C75.1417 36.1773 62.5733 36.5788 61.9689 38.2938C61.9666 38.2932 61.9643 38.2927 61.962 38.292C61.3812 38.1237 60.525 38.1643 59.8602 38.1377C58.4408 38.1098 57.0197 38.2282 55.631 38.5085C53.0304 38.8954 49.4812 39.3483 51.2898 42.3884C51.2902 42.3889 51.2905 42.3895 51.2909 42.39L51.2912 42.3898C51.6029 42.6889 52.1319 42.448 52.1516 42.0431C51.5435 40.6029 52.9169 40.43 53.9737 40.0161C56.6031 39.1318 59.2801 39.0092 61.9996 39.2827C62.2042 39.5082 62.5147 39.7048 62.8428 39.8077C64.6611 40.0903 63.7028 41.3529 64.8522 41.5365C64.641 45.9379 70.3493 48.3404 73.6567 45.4471C74.9773 44.2385 75.292 42.448 75.5982 40.8342C75.7601 40.8001 75.863 40.7173 75.9232 40.6076C76.3125 40.2437 76.5571 39.9076 77.327 39.8077C78.0969 39.7079 78.6895 39.9083 78.7697 39.9697C78.7899 40.0078 78.8116 40.046 78.8368 40.0842C78.872 40.1412 78.9199 40.1866 78.9743 40.2224C78.214 44.6052 81.8487 47.377 85.518 45.1039C87.1124 43.6999 87.4493 41.5504 87.5159 39.6318C87.732 39.5097 87.8688 39.2731 87.794 38.9756C87.6909 38.5656 87.9327 38.2105 88.3177 38.0322C88.8181 37.8007 88.7296 36.9552 88.155 36.8661ZM72.3886 38.9456C71.9332 38.8518 71.7387 39.5091 72.1956 39.6032C72.5191 39.6698 72.7933 39.8225 72.9786 40.0813L72.9981 40.1094C73.2467 40.4797 73.8753 40.1379 73.625 39.7652C73.3434 39.3457 72.9057 39.0519 72.3886 38.9456ZM85.728 38.538C85.5674 38.4321 85.3245 38.5107 85.2313 38.6603C85.1287 38.825 85.1959 39.0085 85.3463 39.1163L85.3616 39.1268C85.4995 39.2178 85.6339 39.3809 85.6507 39.5481L85.6522 39.569C85.6703 40.0064 86.3965 40.0086 86.3783 39.569C86.3606 39.1389 86.0946 38.7796 85.728 38.538Z" fill="black"/>
</svg>
