<svg width="353" height="326" viewBox="0 0 353 326" fill="none" xmlns="http://www.w3.org/2000/svg">
<path d="M239.564 312.258C239.564 312.258 230.779 320.191 229.513 321.287C228.247 322.384 222.814 328.788 223.11 330.836C223.406 332.883 223.918 334.165 225.57 335.029C227.223 335.894 227.643 339.405 230.347 340.913C232.049 341.864 233.832 342.669 235.674 343.319C236.021 343.789 236.474 344.178 236.997 344.458C237.52 344.738 238.099 344.9 238.69 344.932C240.6 344.967 242.328 344.629 245.057 340.32C246.542 338.231 247.552 335.855 248.024 333.344L250.68 323.692L239.564 312.258Z" fill="white"/>
<path d="M237.321 345.604C236.451 345.301 235.679 344.773 235.092 344.079C233.292 343.425 231.549 342.627 229.881 341.693C228.373 340.712 227.192 339.326 226.491 337.715C226.184 336.983 225.702 336.328 225.086 335.803C224.209 335.286 223.476 334.566 222.958 333.71C222.439 332.855 222.152 331.893 222.123 330.915C221.684 328.255 227.849 321.374 228.832 320.573C230.129 319.506 238.769 311.642 238.859 311.555C239.047 311.393 239.295 311.309 239.551 311.319C239.804 311.308 240.054 311.392 240.25 311.553L251.353 322.963C251.465 323.084 251.545 323.229 251.586 323.386C251.626 323.542 251.626 323.704 251.585 323.858L248.934 333.493C248.44 336.09 247.389 338.544 245.848 340.702C243.144 345 241.221 345.798 238.659 345.759C238.209 345.775 237.758 345.723 237.321 345.604ZM239.551 313.579C237.442 315.484 231.279 321.08 230.151 322.008C228.606 323.264 223.853 329.409 224.059 330.686C224.392 332.746 224.88 333.61 226.01 334.203C226.996 334.873 227.758 335.807 228.2 336.883C228.734 338.171 229.646 339.29 230.823 340.099C232.467 341.008 234.183 341.784 235.954 342.419C236.167 342.49 236.351 342.628 236.478 342.809C236.731 343.147 237.059 343.429 237.436 343.633C237.814 343.837 238.232 343.957 238.659 343.986C240.062 344.008 241.526 344.03 244.152 339.784C245.558 337.801 246.525 335.553 246.996 333.176L249.548 323.898L239.551 313.579Z" fill="#232D32"/>
<path d="M135.402 300.912C135.402 300.912 132.429 313.712 136.263 319.358C140.097 325.005 154.389 333.605 176.781 336.808C199.172 340.012 228.078 330.587 232.129 325.318C236.181 320.049 230.861 301.124 230.861 301.124C230.861 301.124 213.183 313.525 177.408 307.559C141.633 301.593 135.402 300.912 135.402 300.912Z" fill="white"/>
<path d="M158.045 333.367C145.601 329.205 137.992 323.601 135.446 319.846C131.438 313.926 134.333 301.237 134.454 300.693C134.505 300.478 134.634 300.289 134.819 300.162C135.005 300.034 135.233 299.976 135.463 299.998C135.702 300.078 142.17 300.663 177.578 306.565C212.423 312.376 230.12 300.409 230.301 300.295C230.426 300.21 230.57 300.156 230.722 300.136C230.875 300.115 231.031 300.13 231.178 300.179C231.328 300.232 231.463 300.32 231.57 300.434C231.678 300.549 231.756 300.686 231.797 300.834C232.361 302.815 237.101 320.416 232.923 325.818C228.505 331.51 199.061 340.774 176.682 337.653C170.359 336.8 164.118 335.365 158.045 333.367ZM136.179 301.952C135.626 304.767 134.055 314.412 137.061 318.866C140.485 323.908 153.942 332.618 176.908 335.819C199.482 338.967 227.786 329.321 231.383 324.68C234.23 320.995 231.815 308.478 230.283 302.549C225.763 305.187 208.359 313.588 177.236 308.379C148.541 303.613 138.836 302.198 136.179 301.952Z" fill="#232D32"/>
<path d="M311.306 226.037C304.664 217.97 255.509 147.52 250.066 143.322C244.623 139.124 231.684 137.173 231.684 137.173C231.684 137.173 192.304 128.91 183.343 129.303C182.495 129.331 162.289 132.976 161.573 133.282C153.809 136.024 122.929 138.826 110.693 151.333C96.8256 165.477 135.01 291.331 135.525 300.973C136.04 310.614 152.965 318.613 169.893 321.899C186.821 325.184 202.092 326.824 218.123 317.944C221.106 316.105 223.826 313.906 226.219 311.398C229.01 308.634 230.7 305.004 231.008 301.115C232.385 283.066 237.741 231.493 241.298 197.398C250.641 208.57 270.19 231.455 282.682 241.401C299.345 254.768 315.514 254.761 317.478 248.89C319.441 243.02 317.906 234.168 311.306 226.037Z" fill="#18191F"/>
<path d="M285.14 228.8C274.285 223.997 264.523 217.103 256.472 208.554C256.472 208.554 273.151 207.021 274.775 203.999C276.399 200.977 254.823 196.741 257.975 196.606C261.126 196.472 265.932 195.118 259.223 192.874C253.986 190.749 249.076 187.912 244.647 184.452L241.186 197.303C246.264 203.386 254.365 212.895 262.673 221.909C270.646 229.913 279.082 237.478 287.94 244.564C287.94 244.564 303.983 237.48 285.14 228.8Z" fill="white"/>
<path d="M169.77 321.839L171.941 322.254C177.118 321.686 185.143 322.929 193.119 323.649C205.186 324.724 192.888 320.61 177.463 305.377C162.038 290.145 159.214 274.392 148.868 249.597C138.522 224.802 135.024 212.955 139.097 211.96C143.171 210.965 133.103 207.578 129.903 204.131C126.703 200.683 136.127 203.855 146.528 199.034C156.929 194.214 130.885 195.575 128.836 194.305C126.788 193.035 133.557 187.584 133.557 187.584L111.999 198.142L129.74 275.191L131.449 277.536L132.85 281.901L135.162 299.43C135.28 300.054 135.336 300.56 135.365 300.901C135.893 310.566 152.836 318.571 169.77 321.839Z" fill="white"/>
<path d="M145.5 148.033C158.457 150.419 186.67 180.703 186.67 180.703C171.821 162.098 159.085 145.057 149.479 136.076L123.89 143.103L122.028 143.903C124.607 144.259 134.394 145.916 145.5 148.033Z" fill="white"/>
<path opacity="0.5" d="M285.14 228.8C274.285 223.997 264.523 217.103 256.472 208.554C256.472 208.554 273.151 207.021 274.775 203.999C276.399 200.977 254.823 196.741 257.975 196.606C261.126 196.472 265.932 195.118 259.223 192.874C253.986 190.749 249.076 187.912 244.647 184.452L241.186 197.303C246.264 203.386 254.365 212.895 262.673 221.909C270.646 229.913 279.082 237.478 287.94 244.564C287.94 244.564 303.983 237.48 285.14 228.8Z" fill="white"/>
<path opacity="0.5" d="M169.77 321.839L171.941 322.254C177.118 321.686 185.143 322.929 193.119 323.649C205.186 324.724 192.888 320.61 177.463 305.377C162.038 290.145 159.214 274.392 148.868 249.597C138.522 224.802 135.024 212.955 139.097 211.96C143.171 210.965 133.103 207.578 129.903 204.131C126.703 200.683 136.127 203.855 146.528 199.034C156.929 194.214 130.885 195.575 128.836 194.305C126.788 193.035 133.557 187.584 133.557 187.584L111.999 198.142L129.74 275.191L131.449 277.536L132.85 281.901L135.162 299.43C135.28 300.054 135.336 300.56 135.365 300.901C135.893 310.566 152.836 318.571 169.77 321.839Z" fill="#18191F"/>
<path opacity="0.5" d="M145.5 148.033C158.457 150.419 186.67 180.703 186.67 180.703C171.821 162.098 159.085 145.057 149.479 136.076L123.89 143.103L122.028 143.903C124.607 144.259 134.394 145.916 145.5 148.033Z" fill="white"/>
<path d="M157.45 319.569C145.06 315.425 134.846 308.871 134.433 300.94C134.316 298.601 131.7 288.335 128.359 275.411C114.223 220.337 99.9758 160.706 109.866 150.629C119.179 141.119 138.62 137.198 151.485 134.604C154.732 134.035 157.938 133.286 161.085 132.36C161.917 132.074 182.172 128.406 183.209 128.363C192.212 127.965 230.185 135.913 231.806 136.261C232.295 136.327 245.082 138.305 250.666 142.569C254.272 145.354 275.484 174.875 292.525 198.597C301.763 211.429 309.716 222.545 312.06 225.433C319.442 234.527 320.127 243.601 318.298 249.068C317.891 250.061 317.231 250.933 316.378 251.606C315.525 252.28 314.505 252.734 313.41 252.928C306.815 254.618 294.519 251.967 281.977 241.985C273.215 235.001 259.384 220.38 241.932 199.598C238.119 235.439 233.17 283.778 231.85 301.105C231.53 305.211 229.749 309.045 226.807 311.966C224.348 314.543 221.535 316.786 218.444 318.637C201.692 327.9 185.763 325.844 169.569 322.688C165.468 321.915 161.418 320.873 157.45 319.569ZM242.608 140.751C238.975 139.593 235.264 138.697 231.508 138.07C231.067 137.922 192.103 129.818 183.349 130.202C182.192 130.302 162.807 133.813 161.786 134.115C158.556 135.073 155.263 135.838 151.924 136.407C139.296 138.964 120.221 142.831 111.258 152.03C101.199 162.303 120.073 235.659 130.197 275.11C133.81 289.177 136.176 298.542 136.337 300.992C136.824 310.351 154.073 317.933 169.906 321.008C185.739 324.083 201.29 326.109 217.466 317.16C220.382 315.369 223.038 313.219 225.369 310.764C228 308.151 229.594 304.723 229.885 301.052C231.23 283.343 236.425 233.352 240.175 197.335C240.196 197.152 240.273 196.98 240.396 196.841C240.518 196.702 240.682 196.602 240.866 196.553C241.047 196.509 241.24 196.517 241.42 196.577C241.599 196.638 241.758 196.747 241.877 196.891C259.944 218.521 274.209 233.678 283.125 240.752C295.032 250.248 306.859 252.899 312.778 251.333C313.567 251.197 314.305 250.883 314.934 250.416C315.562 249.949 316.063 249.343 316.395 248.646C318.072 243.635 317.403 235.247 310.498 226.742C308.11 223.8 300.134 212.696 290.889 199.823C274.806 177.453 252.804 146.811 249.426 144.2C247.353 142.705 245.05 141.54 242.608 140.751Z" fill="#232D32"/>
<path d="M123.205 143.381C123.205 143.381 114.151 148.146 110.456 150.515C90.7109 162.984 27.7476 203.042 25.7684 207.31C23.7892 211.577 24.9066 215.263 34.4707 222.904C44.0347 230.546 140.255 185.285 140.255 185.285" fill="#18191F"/>
<g opacity="0.8" style="mix-blend-mode:multiply">
<path d="M123.244 143.628L122.113 143.893C120.273 144.874 116.282 147.027 113.141 148.841L65.1207 179.85C65.1207 179.85 63.6979 180.621 61.4222 181.925C43.322 193.814 27.3853 204.674 25.8376 207.04C25.8083 207.128 25.779 207.215 25.7556 207.286C23.9135 211.326 24.979 215.228 34.4938 222.834C36.1894 224.18 40.5404 223.882 46.5844 222.494C44.1982 221.153 42.0727 219.412 40.3115 217.357C35.402 211.564 41.6871 209.517 41.6871 209.517C41.6871 209.517 48.6634 215.241 55.8634 219.928C57.8921 219.302 60.0236 218.612 62.2153 217.864C60.8864 216.253 59.6866 214.549 58.6267 212.767C53.8751 204.67 50.2506 196.931 50.2506 196.931L124.306 145.892L123.244 143.628Z" fill="white"/>
</g>
<path opacity="0.5" d="M123.244 143.628L122.113 143.893C120.273 144.874 116.282 147.027 113.141 148.841L65.1207 179.85C65.1207 179.85 63.6979 180.621 61.4222 181.925C43.322 193.814 27.3853 204.674 25.8376 207.04C25.8083 207.128 25.779 207.215 25.7556 207.286C23.9135 211.326 24.979 215.228 34.4938 222.834C36.1894 224.18 40.5404 223.882 46.5844 222.494C44.1982 221.153 42.0727 219.412 40.3115 217.357C35.402 211.564 41.6871 209.517 41.6871 209.517C41.6871 209.517 48.6634 215.241 55.8634 219.928C57.8921 219.302 60.0236 218.612 62.2153 217.864C60.8864 216.253 59.6866 214.549 58.6267 212.767C53.8751 204.67 50.2506 196.931 50.2506 196.931L124.306 145.892L123.244 143.628Z" fill="white"/>
<path d="M34.9753 224.203C34.5606 224.07 34.1717 223.867 33.8266 223.605C24.9283 216.478 22.4583 212.009 24.8233 206.955C26.7791 202.758 78.9389 169.334 109.841 149.783C113.518 147.467 122.287 142.821 122.657 142.633C122.766 142.566 122.89 142.522 123.019 142.503C123.149 142.484 123.281 142.491 123.409 142.524C123.537 142.556 123.658 142.613 123.764 142.691C123.869 142.769 123.958 142.867 124.024 142.978C124.09 143.089 124.132 143.212 124.148 143.338C124.163 143.464 124.152 143.591 124.115 143.711C124.077 143.831 124.014 143.942 123.93 144.037C123.846 144.132 123.742 144.208 123.624 144.262C123.624 144.262 114.552 149.021 110.93 151.355C61.0022 182.934 27.8841 205.076 26.6522 207.781C24.9809 211.372 25.8278 214.889 35.0836 222.291C41.7433 227.617 101.367 202.613 139.816 184.515C140.044 184.408 140.31 184.393 140.555 184.475C140.8 184.557 141.003 184.728 141.121 184.951C141.239 185.174 141.262 185.43 141.184 185.664C141.106 185.897 140.933 186.088 140.705 186.195C131.11 190.623 49.0558 228.913 34.9753 224.203Z" fill="#232D32"/>
<path d="M271.822 189.547L241.186 197.302C245.026 198.041 264.422 197.983 264.422 197.983" fill="white"/>
<path d="M240.893 198.179C240.707 198.12 240.544 198.007 240.426 197.856C240.308 197.704 240.241 197.522 240.235 197.336C240.219 197.127 240.277 196.922 240.4 196.754C240.523 196.586 240.704 196.465 240.912 196.412L271.566 188.664C271.687 188.631 271.813 188.621 271.939 188.636C272.065 188.652 272.187 188.691 272.298 188.751C272.409 188.812 272.507 188.893 272.586 188.99C272.665 189.087 272.724 189.198 272.758 189.316C272.827 189.556 272.795 189.811 272.67 190.024C272.545 190.237 272.337 190.392 272.091 190.456L246.968 196.821C253.931 197.085 264.257 197.071 264.403 197.062C264.673 197.066 264.932 197.174 265.125 197.361C265.317 197.548 265.427 197.798 265.43 198.058C265.432 198.317 265.328 198.563 265.139 198.743C264.951 198.923 264.693 199.022 264.424 199.017C263.631 199.005 244.815 199.043 240.992 198.31L240.893 198.179Z" fill="#232D32"/>
<path d="M267.382 199.402C267.17 199.326 266.988 199.184 266.868 198.998C266.748 198.813 266.696 198.595 266.721 198.382C266.755 198.14 266.886 197.923 267.088 197.779C267.289 197.634 267.544 197.574 267.797 197.611L273.786 198.524C274.041 198.563 274.273 198.697 274.432 198.895C274.591 199.094 274.664 199.343 274.637 199.588C274.622 199.711 274.581 199.829 274.518 199.936C274.454 200.042 274.368 200.135 274.266 200.208C274.163 200.281 274.046 200.332 273.921 200.36C273.795 200.388 273.665 200.391 273.537 200.369L267.547 199.457L267.382 199.402Z" fill="#232D32"/>
<path d="M59.5281 199.684C55.6732 198.272 51.5687 197.677 47.5007 197.94L59.5281 199.684Z" fill="white"/>
<path d="M47.1905 198.87C46.932 198.832 46.6966 198.698 46.536 198.496C46.3754 198.295 46.3028 198.042 46.3342 197.794C46.3656 197.546 46.4984 197.323 46.7035 197.175C46.9085 197.026 47.1689 196.963 47.4274 197.001C51.647 196.722 55.9052 197.342 59.901 198.815C60.0189 198.865 60.1262 198.936 60.2166 199.024C60.3071 199.113 60.379 199.217 60.4281 199.331C60.4773 199.446 60.5028 199.567 60.5031 199.69C60.5035 199.812 60.4786 199.933 60.4301 200.045C60.3295 200.268 60.1416 200.442 59.906 200.53C59.6705 200.619 59.4058 200.615 59.1678 200.519C55.4612 199.164 51.5152 198.595 47.6051 198.852C47.4709 198.888 47.3292 198.894 47.1905 198.87Z" fill="#232D32"/>
<path d="M122.527 194.046C122.527 194.046 138.083 194.651 142.753 193.154L122.527 194.046Z" fill="white"/>
<path d="M122.234 194.921C121.979 194.872 121.752 194.729 121.603 194.522C121.454 194.315 121.394 194.061 121.438 193.817C121.481 193.574 121.624 193.359 121.835 193.222C122.046 193.084 122.308 193.034 122.562 193.083C122.691 193.126 137.978 193.68 142.441 192.251C142.681 192.174 142.946 192.193 143.177 192.303C143.409 192.413 143.588 192.606 143.675 192.839C143.757 193.072 143.743 193.325 143.635 193.543C143.528 193.761 143.336 193.929 143.1 194.01C138.296 195.54 123.18 194.965 122.539 194.926C122.438 194.945 122.335 194.943 122.234 194.921Z" fill="#232D32"/>
<path d="M146.684 192.95C146.684 192.95 149.645 191.797 150.509 192.086L146.684 192.95Z" fill="white"/>
<path d="M146.391 193.825C146.259 193.78 146.138 193.709 146.035 193.618C145.932 193.527 145.849 193.416 145.792 193.294C145.678 193.07 145.658 192.815 145.735 192.583C145.813 192.351 145.983 192.159 146.208 192.049C147.589 191.375 149.144 191.074 150.71 191.178C150.953 191.26 151.156 191.43 151.274 191.652C151.391 191.874 151.413 192.13 151.336 192.362C151.254 192.591 151.082 192.779 150.856 192.885C150.63 192.991 150.367 193.007 150.123 192.931C149.024 193.069 147.959 193.369 146.964 193.822C146.78 193.881 146.579 193.883 146.391 193.825Z" fill="#232D32"/>
<path d="M240.893 198.178C240.666 198.099 240.475 197.945 240.354 197.743C240.234 197.541 240.192 197.307 240.237 197.082L245.472 173.797C245.498 173.678 245.549 173.565 245.621 173.466C245.693 173.367 245.785 173.284 245.892 173.22C245.998 173.156 246.118 173.114 246.243 173.095C246.368 173.076 246.497 173.081 246.621 173.11C246.746 173.139 246.864 173.191 246.969 173.263C247.074 173.335 247.164 173.426 247.233 173.531C247.302 173.635 247.35 173.752 247.373 173.873C247.396 173.994 247.395 174.117 247.368 174.236L242.147 197.546C242.121 197.664 242.071 197.776 241.999 197.874C241.928 197.972 241.836 198.055 241.729 198.117C241.622 198.18 241.503 198.22 241.379 198.237C241.254 198.254 241.126 198.246 241.003 198.215L240.893 198.178Z" fill="#232D32"/>
<path d="M25.637 207.519C25.637 207.519 18.4152 218.293 37.6316 230.196C46.7598 235.841 107.246 272.966 107.246 272.966C107.246 272.966 117.119 262.942 113.774 261.823C110.428 260.703 62.7891 202.158 62.7891 202.158" fill="white"/>
<path d="M30.6367 224.953L100.474 268.888L104.032 264.974C104.032 264.974 77.2219 249.927 62.1967 235.393C47.1716 220.859 45.1351 223.159 40.2382 217.39C35.3413 211.622 41.6139 209.551 41.6139 209.551C41.6139 209.551 56.2571 221.56 65.0332 225.08C73.8093 228.601 63.3059 220.957 58.5601 212.842C56.5933 209.496 54.8346 206.199 53.4992 203.531L25.6053 207.488C25.6053 207.488 20.4112 215.317 30.6367 224.953Z" fill="white"/>
<path opacity="0.5" d="M30.6367 224.953L100.474 268.888L104.032 264.974C104.032 264.974 77.2219 249.927 62.1967 235.393C47.1716 220.859 45.1351 223.159 40.2382 217.39C35.3413 211.622 41.6139 209.551 41.6139 209.551C41.6139 209.551 56.2571 221.56 65.0332 225.08C73.8093 228.601 63.3059 220.957 58.5601 212.842C56.5933 209.496 54.8346 206.199 53.4992 203.531L25.6053 207.488C25.6053 207.488 20.4112 215.317 30.6367 224.953Z" fill="white"/>
<path d="M106.906 273.982L106.685 273.908C106.685 273.908 46.2225 236.713 37.0709 231.139C29.4496 226.427 24.951 221.239 23.6465 215.913C22.8449 212.935 23.2475 209.808 24.7721 207.171C24.9115 206.969 25.1283 206.83 25.3768 206.783C25.6253 206.735 25.8861 206.782 26.1044 206.915C26.3171 207.055 26.4664 207.268 26.5199 207.508C26.5734 207.749 26.5268 207.997 26.3902 208.199C25.1728 210.455 24.8742 213.088 25.5513 215.595C26.7215 220.468 30.9455 225.193 38.0981 229.534C46.5564 234.799 100.321 267.883 107.013 271.952C110.868 267.942 113.831 263.79 113.428 262.856C109.935 261.688 70.0194 212.681 62.0781 202.816C61.9194 202.617 61.8465 202.367 61.8751 202.122C61.9037 201.877 62.0315 201.655 62.231 201.503C62.3295 201.43 62.4428 201.377 62.5643 201.347C62.6858 201.317 62.8129 201.311 62.9382 201.33C63.0635 201.348 63.1845 201.39 63.294 201.454C63.4035 201.517 63.4992 201.601 63.5756 201.7C82.3217 224.785 111.249 259.653 114.062 261.081C114.36 261.186 114.63 261.358 114.846 261.584C115.063 261.809 115.221 262.08 115.306 262.374C116.064 265.18 109.828 271.784 107.885 273.744C107.763 273.868 107.607 273.956 107.435 273.998C107.262 274.04 107.078 274.035 106.906 273.982Z" fill="#232D32"/>
<path d="M113.756 261.875C113.756 261.875 132.07 278.677 132.851 281.9C133.633 285.123 132.844 300.251 131.414 304.527C129.984 308.803 129.439 308.601 126.645 307.666C123.85 306.731 119.959 294.168 119.001 291.471C118.044 288.774 114.202 287.489 110.135 282.66C108.999 281.323 108.154 279.784 107.65 278.137C107.146 276.491 106.995 274.773 107.205 273.088L113.756 261.875Z" fill="white"/>
<path d="M126.425 308.567C124.017 307.761 121.576 301.86 118.653 293.245C118.45 292.631 118.29 292.13 118.158 291.793C117.44 290.446 116.36 289.303 115.033 288.488C112.977 286.926 111.11 285.145 109.471 283.179C108.235 281.734 107.313 280.069 106.763 278.286C106.213 276.503 106.047 274.641 106.274 272.816C106.295 272.725 106.324 272.637 106.362 272.553L112.896 261.392C112.967 261.273 113.065 261.17 113.183 261.092C113.301 261.013 113.436 260.961 113.579 260.939C113.724 260.921 113.873 260.936 114.014 260.983C114.154 261.03 114.282 261.107 114.388 261.209C117.525 264.051 132.968 278.374 133.776 281.703C134.583 285.032 133.859 300.455 132.388 304.853C130.917 309.251 129.825 309.704 126.425 308.567ZM108.154 273.367C108.001 274.914 108.172 276.484 108.656 277.984C109.141 279.484 109.929 280.885 110.975 282.104C112.526 283.954 114.291 285.629 116.234 287.097C117.857 288.127 119.153 289.575 119.968 291.269C120.101 291.605 120.279 292.113 120.476 292.744C124.238 303.861 126.08 306.542 126.999 306.85C129.425 307.661 129.425 307.661 130.557 304.279C131.94 300.144 132.671 285.25 131.847 282.091C131.367 279.982 120.952 269.874 113.929 263.374L108.154 273.367Z" fill="#232D32"/>
<path d="M100.949 269.612C100.852 269.598 100.758 269.567 100.673 269.52C100.568 269.447 100.479 269.355 100.411 269.25C100.343 269.145 100.297 269.028 100.277 268.906C100.256 268.785 100.262 268.661 100.292 268.543C100.322 268.425 100.377 268.315 100.454 268.219L107.111 259.438C107.183 259.336 107.276 259.249 107.384 259.184C107.493 259.118 107.614 259.075 107.742 259.056C107.869 259.037 108 259.043 108.127 259.074C108.253 259.105 108.373 259.16 108.478 259.236C108.584 259.312 108.672 259.407 108.74 259.516C108.807 259.624 108.851 259.744 108.869 259.868C108.888 259.992 108.88 260.118 108.847 260.238C108.814 260.357 108.755 260.469 108.676 260.565L102.019 269.346C101.892 269.49 101.722 269.592 101.531 269.64C101.34 269.687 101.137 269.678 100.949 269.612Z" fill="#232D32"/>
<path d="M292.753 238.731C292.753 238.731 281.177 255.005 275.297 264.884C269.418 274.763 239.582 312.206 239.582 312.206L250.328 324.685C250.328 324.685 299.536 276.07 309.47 265.131C319.404 254.192 320.876 244.047 317.07 236.851" fill="white"/>
<path d="M250.016 325.613C249.848 325.552 249.698 325.449 249.585 325.313L238.839 312.834C238.696 312.67 238.614 312.465 238.607 312.253C238.599 312.042 238.667 311.836 238.799 311.671C239.087 311.3 268.745 274.207 274.431 264.477C280.118 254.748 291.833 238.423 291.897 238.23C292.043 238.021 292.272 237.878 292.532 237.834C292.792 237.789 293.063 237.846 293.285 237.993C293.507 238.14 293.662 238.363 293.715 238.615C293.769 238.867 293.717 239.126 293.571 239.336C293.513 239.511 281.875 255.667 276.158 265.425C270.716 274.73 244.791 307.323 240.826 312.271L250.382 323.358C256.526 317.211 299.637 274.545 308.723 264.491C317.49 254.779 320.186 244.946 316.202 237.242C316.086 237.022 316.064 236.77 316.141 236.54C316.218 236.31 316.388 236.121 316.613 236.016C316.838 235.91 317.1 235.896 317.341 235.977C317.582 236.057 317.783 236.226 317.899 236.446C322.312 244.761 319.493 255.449 310.148 265.728C300.396 276.552 251.519 324.908 251.008 325.399C250.916 325.492 250.804 325.563 250.679 325.609C250.554 325.655 250.42 325.674 250.285 325.664L250.016 325.613Z" fill="#232D32"/>
<path d="M244.158 306.956C245.169 307.294 255.668 318.249 255.668 318.249L244.158 306.956Z" fill="#232D32"/>
<path d="M188.196 181.214C185.272 179.691 172.23 163.872 163.696 151.743C155.163 139.615 149.479 136.077 149.479 136.077L140.118 138.401C140.149 134.424 141.817 130.666 144.758 127.951C149.651 123.587 162.265 121.806 174.386 121.496C186.508 121.186 199.98 121.971 207.719 124.56C215.458 127.149 216.513 130.775 215.2 134.7C213.887 138.625 209.784 150.891 204.093 159.352C198.401 167.814 188.196 181.214 188.196 181.214Z" fill="white"/>
<path d="M200.458 128.424C200.458 128.424 191.149 140.429 185.022 142.919C180.363 144.628 175.522 145.875 170.574 146.64C170.574 146.64 170.908 136.172 163.776 133.786C156.644 131.4 144.188 132.28 144.188 132.28C144.188 132.28 145.402 128.653 155.945 127.134L166.501 125.638L189.999 124.925L200.458 128.424Z" fill="white"/>
<path opacity="0.5" d="M200.458 128.424C200.458 128.424 191.149 140.429 185.022 142.919C180.363 144.628 175.522 145.875 170.574 146.64C170.574 146.64 170.908 136.172 163.776 133.786C156.644 131.4 144.188 132.28 144.188 132.28C144.188 132.28 145.402 128.653 155.945 127.134L166.501 125.638L189.999 124.925L200.458 128.424Z" fill="white"/>
<path d="M187.902 182.09L187.736 182.035C184.499 180.348 171.151 163.979 162.935 152.307C155.813 142.131 150.665 138.091 149.328 137.137L140.411 139.356C140.267 139.385 140.118 139.385 139.973 139.357C139.828 139.328 139.69 139.272 139.567 139.191C139.449 139.103 139.353 138.992 139.286 138.864C139.218 138.737 139.182 138.598 139.178 138.457C139.181 136.355 139.619 134.286 140.466 132.372C141.314 130.457 142.554 128.736 144.114 127.307C149.982 121.983 165.606 120.858 174.374 120.615C181.258 120.443 198.323 120.384 208.102 123.656C215.29 126.06 217.957 129.757 216.21 134.979C214.862 139.01 210.753 151.293 204.989 159.847C199.226 168.401 189.135 181.704 189.044 181.79C188.923 181.96 188.742 182.083 188.534 182.137C188.326 182.192 188.103 182.175 187.902 182.09ZM149.772 135.201L149.992 135.274C150.25 135.36 155.96 139.063 164.506 151.215C172.529 162.608 184.245 176.892 187.958 179.907C190.162 176.982 198.472 165.889 203.235 158.676C208.867 150.331 212.917 138.223 214.248 134.245C215.239 131.284 215.205 127.902 207.393 125.289C200.738 123.063 188.708 122 174.379 122.37C160.051 122.74 149.383 124.998 145.363 128.582C142.921 130.827 141.403 133.851 141.076 137.124L149.142 135.126C149.353 135.081 149.575 135.107 149.772 135.201Z" fill="black"/>
<path d="M163.201 103.609C167.111 111.966 168.767 121.083 168.014 130.099C166.723 145.079 182.301 168.409 187.337 170.094C192.374 171.779 199.973 147.901 200.615 140.42C201.258 132.939 200.791 112.033 200.791 112.033C200.791 112.033 178.13 90.8141 163.201 103.609Z" fill="white"/>
<path d="M187.117 170.995C181.713 169.187 165.809 145.241 167.121 130.015C167.838 121.171 166.217 112.231 162.407 104.026C162.311 103.842 162.279 103.635 162.316 103.437C162.353 103.238 162.457 103.058 162.612 102.925C177.949 89.702 201.284 111.166 201.513 111.398C201.608 111.485 201.684 111.589 201.737 111.704C201.79 111.819 201.818 111.942 201.821 112.066C201.845 112.912 202.29 133.089 201.653 140.553C201.077 147.102 195.093 167.253 189.68 170.605C189.319 170.858 188.9 171.025 188.455 171.093C188.01 171.16 187.552 171.127 187.117 170.995ZM164.455 103.892C168.222 112.23 169.796 121.281 169.033 130.226C167.778 145.101 183.42 167.81 187.703 169.242C187.703 169.242 188.052 169.359 188.597 169.015C192.97 166.328 199.139 147.213 199.723 140.336C200.306 133.459 199.902 115.36 199.899 112.436C197.263 110.113 177.592 93.4596 164.455 103.892Z" fill="#232D32"/>
<path d="M200.459 128.425C200.459 128.425 191.15 140.43 185.023 142.92C180.364 144.629 175.523 145.876 170.575 146.641C170.575 146.641 170.909 136.173 163.777 133.787C156.645 131.401 144.189 132.281 144.189 132.281C144.189 132.281 145.403 128.654 155.946 127.135L166.502 125.639L190 124.926L200.459 128.425Z" fill="white"/>
<path opacity="0.5" d="M200.459 128.425C200.459 128.425 191.15 140.43 185.023 142.92C180.364 144.629 175.523 145.876 170.575 146.641C170.575 146.641 170.909 136.173 163.777 133.787C156.645 131.401 144.189 132.281 144.189 132.281C144.189 132.281 145.403 128.654 155.946 127.135L166.502 125.639L190 124.926L200.459 128.425Z" fill="white"/>
<path d="M163.202 103.61C167.112 111.967 168.768 121.084 168.015 130.1C166.724 145.08 182.302 168.41 187.338 170.095C192.375 171.78 199.974 147.902 200.616 140.421C201.259 132.94 200.792 112.034 200.792 112.034C200.792 112.034 178.131 90.8151 163.202 103.61Z" fill="white"/>
<path d="M187.118 170.996C181.714 169.188 165.811 145.242 167.123 130.016C167.84 121.172 166.218 112.232 162.409 104.027C162.312 103.843 162.28 103.636 162.317 103.438C162.354 103.239 162.458 103.059 162.613 102.926C177.951 89.7029 201.286 111.167 201.515 111.399C201.609 111.486 201.685 111.59 201.738 111.705C201.791 111.82 201.82 111.943 201.823 112.067C201.846 112.913 202.291 133.09 201.655 140.554C201.079 147.103 195.095 167.254 189.681 170.606C189.32 170.859 188.901 171.026 188.456 171.094C188.011 171.161 187.553 171.128 187.118 170.996ZM164.456 103.893C168.224 112.231 169.797 121.282 169.035 130.227C167.779 145.102 183.422 167.811 187.705 169.243C187.705 169.243 188.054 169.36 188.598 169.016C192.972 166.329 199.141 147.214 199.724 140.337C200.308 133.46 199.903 115.361 199.9 112.437C197.264 110.114 177.593 93.4605 164.456 103.893Z" fill="#232D32"/>
<path d="M154.129 72.0116C154.653 83.5546 156.228 95.0602 158.835 106.396C162.879 122.537 176.755 135.556 187.015 135.13C197.274 134.704 207.214 125.579 210.591 107.42C211.335 103.422 208.365 100.694 208.374 96.937C208.452 83.3245 208.309 70.1254 208.4 65.1486C208.502 58.7337 195.878 48.0813 179.359 47.0564C162.84 46.0314 156.351 57.3044 154.129 72.0116Z" fill="white"/>
<path d="M208.066 78.246C208.066 78.246 201.244 80.309 189.611 73.9043C177.977 67.4996 169.278 65.1547 168.713 68.4337C168.147 71.7126 167.726 76.1502 167.726 76.1502C167.726 76.1502 156.958 58.9099 171.522 60.1577C182.031 61.0036 186.418 66.5237 188.619 67.825C190.821 69.1264 208.066 78.246 208.066 78.246Z" fill="white"/>
<path opacity="0.5" d="M208.066 78.246C208.066 78.246 201.244 80.309 189.611 73.9043C177.977 67.4996 169.278 65.1547 168.713 68.4337C168.147 71.7126 167.726 76.1502 167.726 76.1502C167.726 76.1502 156.958 58.9099 171.522 60.1577C182.031 61.0036 186.418 66.5237 188.619 67.825C190.821 69.1264 208.066 78.246 208.066 78.246Z" fill="white"/>
<path d="M181.343 135.22C171.472 131.918 161.197 119.928 157.875 106.639C155.236 95.2329 153.638 83.6541 153.099 72.0366C153.104 71.9869 153.12 71.9392 153.145 71.8964C155.886 53.6219 164.475 45.1751 179.37 46.1051C196.652 47.1709 209.473 58.3957 209.358 65.1568C209.31 67.4984 209.244 71.6067 209.315 76.8326C209.395 82.7043 209.344 89.7599 209.296 96.9916C209.396 98.4669 209.784 99.9188 210.44 101.271C211.429 103.256 211.801 105.459 211.508 107.61C207.717 127.987 196.397 135.677 187.07 136.064C185.133 136.135 183.189 135.849 181.343 135.22ZM155.106 72.0846C155.63 83.5357 157.187 94.9499 159.76 106.198C163.835 122.427 177.736 134.578 186.959 134.195C195.561 133.838 206.044 126.571 209.636 107.217C209.864 105.416 209.551 103.574 208.735 101.908C207.979 100.306 207.562 98.5827 207.507 96.8412C207.549 89.627 207.532 82.5293 207.52 76.6997C207.505 71.5511 207.504 67.4006 207.544 65.0178C207.63 59.6299 196.103 48.9355 179.449 47.8263C165.641 47.0655 157.704 54.9703 155.106 72.0846Z" fill="#232D32"/>
<path d="M158.684 94.7524C158.684 94.7524 150.314 87.452 148.353 91.2968C146.393 95.1417 149.685 99.5357 153.308 102.696C154.175 103.594 155.292 104.232 156.518 104.528C157.744 104.823 159.023 104.763 160.193 104.356" fill="white"/>
<path d="M155.861 105.265C154.687 104.856 153.605 104.222 152.682 103.403C147.492 98.9388 145.639 94.5196 147.463 90.9603C147.655 90.5479 147.95 90.1898 148.323 89.9171C148.695 89.6444 149.134 89.4655 149.601 89.3959C153.045 88.814 158.655 93.6129 159.285 94.1743C159.457 94.3475 159.556 94.5755 159.562 94.8118C159.567 95.0482 159.479 95.2751 159.315 95.4463C159.15 95.6175 158.923 95.7201 158.678 95.7332C158.434 95.7463 158.19 95.6689 157.998 95.5168C155.911 93.6888 151.872 90.9155 149.973 91.2155C149.801 91.2429 149.639 91.3122 149.504 91.4169C149.369 91.5216 149.265 91.6584 149.201 91.8143C147.306 95.5252 151.353 99.8014 153.957 102.036C154.685 102.801 155.623 103.35 156.657 103.616C157.69 103.882 158.773 103.854 159.772 103.533C159.996 103.45 160.248 103.452 160.476 103.54C160.704 103.627 160.891 103.793 161.001 104.005C161.111 104.216 161.135 104.458 161.069 104.681C161.002 104.904 160.85 105.092 160.642 105.208C159.131 105.808 157.423 105.828 155.861 105.265Z" fill="#232D32"/>
<path d="M206.025 85.1428C206.025 85.1428 196.018 79.068 196.049 94.3729C196.06 97.3964 201.304 102.677 201.304 102.677C201.304 102.677 199.312 106.921 196.575 106.55" fill="white"/>
<path d="M196.263 107.421C196.053 107.347 195.873 107.208 195.752 107.026C195.631 106.844 195.577 106.63 195.597 106.419C195.611 106.297 195.65 106.179 195.713 106.073C195.775 105.967 195.859 105.875 195.959 105.802C196.06 105.729 196.175 105.676 196.299 105.646C196.422 105.617 196.551 105.612 196.678 105.631C198.089 105.811 199.467 103.953 200.111 102.882C198.725 101.406 195.07 97.2996 195.074 94.4173C195.058 88.7226 196.424 85.1271 199.119 83.7296C202.432 82.0127 206.313 84.3433 206.485 84.4399C206.703 84.5729 206.859 84.7821 206.921 85.0217C206.983 85.2613 206.944 85.5119 206.813 85.7188C206.75 85.8227 206.665 85.9127 206.563 85.9833C206.462 86.0539 206.346 86.1038 206.223 86.1299C206.1 86.1559 205.972 86.1577 205.846 86.1351C205.721 86.1125 205.601 86.0659 205.493 85.9982C205.493 85.9982 202.388 84.1606 200.062 85.37C197.737 86.5793 196.984 89.5619 197.02 94.4643C197.022 96.4134 200.075 100.182 201.985 102.107C202.116 102.247 202.203 102.419 202.236 102.603C202.268 102.787 202.246 102.974 202.17 103.143C201.994 103.668 199.79 107.997 196.448 107.541L196.263 107.421Z" fill="#232D32"/>
<path d="M187.612 114.463C187.612 114.463 179.4 113.352 177.46 108.885L187.612 114.463Z" fill="white"/>
<path d="M183.489 114.506C182.034 114.139 180.665 113.486 179.469 112.59C178.274 111.694 177.278 110.573 176.545 109.3C176.495 109.186 176.47 109.065 176.469 108.943C176.468 108.821 176.492 108.701 176.54 108.589C176.588 108.478 176.658 108.377 176.747 108.293C176.836 108.208 176.942 108.142 177.059 108.098C177.176 108.054 177.301 108.033 177.428 108.036C177.554 108.038 177.68 108.065 177.797 108.114C177.915 108.163 178.021 108.234 178.112 108.322C178.202 108.41 178.273 108.514 178.323 108.628C180.017 112.546 187.607 113.682 187.681 113.707C187.807 113.721 187.929 113.759 188.04 113.82C188.152 113.88 188.25 113.962 188.328 114.059C188.406 114.157 188.464 114.268 188.497 114.386C188.529 114.504 188.537 114.627 188.519 114.747C188.505 114.868 188.467 114.984 188.406 115.089C188.345 115.195 188.263 115.287 188.165 115.361C188.066 115.434 187.952 115.488 187.831 115.519C187.709 115.55 187.582 115.557 187.456 115.541C186.108 115.306 184.781 114.96 183.489 114.506Z" fill="#232D32"/>
<path d="M184.002 87.6146C184.002 87.6146 178.997 83.7582 175.088 85.1784C173.068 85.7222 171.276 86.8301 169.935 88.3645" fill="white"/>
<path d="M169.721 89.2486L169.501 89.1748C169.393 89.107 169.3 89.0199 169.226 88.9183C169.153 88.8167 169.1 88.7027 169.072 88.5828C169.044 88.4629 169.04 88.3396 169.062 88.2197C169.083 88.0999 169.129 87.986 169.197 87.8846C170.619 86.1883 172.541 84.9474 174.723 84.3168C179.093 82.7392 184.375 86.7465 184.585 86.9141C184.687 86.9896 184.773 87.084 184.838 87.1913C184.902 87.2987 184.944 87.4169 184.961 87.5389C184.977 87.6608 184.968 87.784 184.934 87.9011C184.899 88.0181 184.84 88.1266 184.761 88.22C184.605 88.4106 184.375 88.5316 184.121 88.5564C183.868 88.5812 183.611 88.5077 183.409 88.3522C183.409 88.3522 178.793 84.8598 175.448 86.0596C173.654 86.5797 172.058 87.569 170.833 88.9191C170.713 89.0827 170.539 89.2031 170.339 89.2624C170.139 89.3217 169.922 89.3169 169.721 89.2486Z" fill="#232D32"/>
<path d="M181.048 95.9597C181.238 97.8353 180.552 99.3982 179.509 99.4587C178.467 99.5193 177.478 98.0777 177.288 96.2022C177.098 94.3266 177.796 92.7874 178.844 92.7093C179.892 92.6312 180.858 94.1428 181.048 95.9597Z" fill="#232D32"/>
<path d="M202.43 93.5652C202.626 95.4232 201.922 96.98 200.892 97.0642C199.862 97.1484 198.848 95.6596 198.67 93.8077C198.493 91.9558 199.166 90.3692 200.209 90.3087C201.251 90.2481 202.234 91.7071 202.43 93.5652Z" fill="#232D32"/>
<path d="M155.201 96.179C155.201 96.179 162.765 93.9746 162.892 89.8672C163.019 85.7598 160.795 85.0158 163.747 83.6456C166.699 82.2755 168.717 81.7425 169.232 78.3689C169.747 74.9953 162.583 66.6564 166.444 64.4019C170.305 62.1473 170.461 57.9522 191.578 71.0168C212.695 84.0813 230.107 80.3588 226.07 70.1241C222.034 59.8894 216.803 56.9513 216.803 56.9513C216.803 56.9513 231.429 55.9986 222.615 47.03C213.802 38.0615 189.706 30.1766 172.923 35.7461C156.139 41.3156 156.079 50.7839 156.079 50.7839C156.079 50.7839 148.46 49.424 144.321 59.9048C140.182 70.3855 155.201 96.179 155.201 96.179Z" fill="#232D32"/>
<path d="M203.721 72.7215C198.901 70.8915 194.431 68.2618 190.52 64.9546C187.465 62.3343 183.984 60.221 180.225 58.7052C171.347 55.7353 167.902 59.9217 167.758 60.1074C167.709 60.1739 167.645 60.2296 167.572 60.2711C167.498 60.3126 167.416 60.339 167.331 60.3487C167.245 60.3584 167.158 60.3511 167.074 60.3275C166.991 60.3038 166.913 60.2642 166.845 60.211C166.774 60.1608 166.714 60.0979 166.668 60.026C166.622 59.9541 166.591 59.8745 166.577 59.7918C166.563 59.7092 166.566 59.6252 166.586 59.5446C166.606 59.464 166.642 59.3884 166.693 59.3222C166.861 59.1252 170.795 54.2065 180.629 57.4961C184.538 59.0533 188.155 61.2454 191.318 63.9746C196.384 67.8319 201.648 71.8331 209.638 72.7524C213.969 73.2465 216.804 72.6554 218.007 71.0123C219.571 68.9049 218.008 65.6349 218.001 65.5937C217.922 65.443 217.907 65.2698 217.959 65.1122C218.012 64.9545 218.128 64.8252 218.282 64.7526C218.441 64.6851 218.622 64.6787 218.789 64.7346C218.956 64.7905 219.097 64.9045 219.183 65.0539C219.252 65.2134 221.079 69.0393 219.091 71.7449C217.569 73.7883 214.353 74.5438 209.509 73.995C207.544 73.768 205.604 73.3411 203.721 72.7215Z" fill="white"/>
<path d="M163.204 57.5317C163.041 57.4622 162.911 57.335 162.842 57.177C162.772 57.0191 162.769 56.8431 162.833 56.6866C162.874 56.564 167.827 45.3617 179.448 46.3653C186.299 46.9621 193.253 50.5545 198.849 53.4394C202.332 55.2474 205.452 56.8562 207.001 56.8092C207.162 56.8289 207.313 56.9039 207.425 57.0204C207.536 57.1369 207.602 57.2871 207.609 57.4434C207.617 57.5998 207.565 57.7518 207.464 57.8716C207.364 57.9914 207.22 58.071 207.061 58.0958C205.17 58.1259 202.118 56.5592 198.248 54.5633C192.762 51.7153 185.926 48.201 179.373 47.6263C168.681 46.7189 164.107 57.0933 164.054 57.1923C164.023 57.269 163.976 57.3387 163.917 57.3973C163.857 57.4559 163.786 57.5023 163.707 57.5338C163.628 57.5654 163.543 57.5814 163.457 57.581C163.371 57.5807 163.285 57.5639 163.204 57.5317Z" fill="white"/>
<path d="M150.04 73.2357C149.916 73.192 149.807 73.1149 149.726 73.0138C148.517 71.1424 147.803 69.0238 147.649 66.8495C147.495 64.6752 147.905 62.5138 148.843 60.5608C151.937 53.0229 158.179 55.0136 158.253 55.0382C158.394 55.1126 158.505 55.2321 158.566 55.3755C158.627 55.5189 158.634 55.677 158.586 55.8217C158.537 55.9664 158.437 56.0886 158.302 56.1664C158.167 56.2443 158.006 56.273 157.848 56.2473C157.628 56.1735 152.703 54.6431 150.107 61.0613C149.245 62.8117 148.855 64.7538 148.975 66.7122C149.094 68.6707 149.718 70.5837 150.79 72.2785C150.843 72.3449 150.882 72.4206 150.904 72.5011C150.926 72.5816 150.932 72.6651 150.92 72.7466C150.908 72.8282 150.879 72.9061 150.834 72.9756C150.79 73.0451 150.731 73.1049 150.661 73.1512C150.577 73.2179 150.474 73.261 150.365 73.2758C150.256 73.2907 150.144 73.2769 150.04 73.2357Z" fill="white"/>
<path d="M155.51 69.5313C155.39 69.4911 155.283 69.4186 155.203 69.3227C155.123 69.2267 155.072 69.1113 155.058 68.9902C154.872 68.0391 154.898 67.0664 155.134 66.1376C155.371 65.2087 155.813 64.345 156.43 63.6042C157.8 62.2053 159.685 61.3737 161.705 61.2771C161.791 61.2715 161.878 61.2829 161.96 61.3106C162.043 61.3382 162.119 61.3817 162.184 61.4382C162.25 61.4946 162.303 61.563 162.34 61.6391C162.378 61.7152 162.399 61.7973 162.402 61.8806C162.414 62.0473 162.356 62.2096 162.243 62.3321C162.129 62.4547 161.968 62.5276 161.795 62.5348C160.134 62.6362 158.585 63.3157 157.436 64.4472C156.941 65.0599 156.591 65.7702 156.407 66.5314C156.222 67.2925 156.209 68.0873 156.367 68.8632C156.387 69.0329 156.338 69.2015 156.229 69.3327C156.12 69.4639 155.961 69.5472 155.785 69.5648C155.693 69.5719 155.599 69.5605 155.51 69.5313Z" fill="white"/>
<path d="M153.749 79.5021C153.648 79.4661 153.557 79.408 153.483 79.3324C153.408 79.2567 153.353 79.1659 153.322 79.0671L152.006 75.1198C151.952 74.957 151.967 74.7822 152.047 74.6336C152.127 74.4851 152.267 74.3752 152.434 74.3279C152.602 74.2806 152.784 74.2999 152.941 74.3815C153.097 74.4631 153.216 74.6004 153.27 74.7632L154.58 78.728C154.631 78.8876 154.615 79.0581 154.536 79.203C154.457 79.3479 154.321 79.4554 154.157 79.5024C154.027 79.5485 153.882 79.5484 153.749 79.5021Z" fill="white"/>
</svg>
