<svg width="20" height="20" viewBox="0 0 20 20" fill="none" xmlns="http://www.w3.org/2000/svg">
<path fill-rule="evenodd" clip-rule="evenodd" d="M10.9059 17.8234L11.3576 17.0601C11.7076 16.4684 11.8826 16.1717 12.1642 16.0084C12.4459 15.8442 12.8001 15.8384 13.5084 15.8259C14.5551 15.8084 15.2109 15.7442 15.7609 15.5159C16.2664 15.3065 16.7258 14.9996 17.1127 14.6127C17.4996 14.2258 17.8065 13.7664 18.0159 13.2609C18.3334 12.4959 18.3334 11.5251 18.3334 9.58341V8.75008C18.3334 6.02258 18.3334 4.65841 17.7192 3.65675C17.3759 3.09608 16.9047 2.62462 16.3442 2.28091C15.3417 1.66675 13.9776 1.66675 11.2501 1.66675H8.75008C6.02258 1.66675 4.65841 1.66675 3.65675 2.28091C3.09608 2.62428 2.62462 3.09545 2.28091 3.65591C1.66675 4.65841 1.66675 6.02341 1.66675 8.75008V9.58341C1.66675 11.5251 1.66675 12.4959 1.98341 13.2609C2.19291 13.7665 2.49995 14.2259 2.88701 14.6128C3.27407 14.9997 3.73357 15.3066 4.23925 15.5159C4.78925 15.7442 5.44508 15.8076 6.49175 15.8259C7.20008 15.8384 7.55425 15.8442 7.83591 16.0084C8.11675 16.1717 8.29258 16.4676 8.64258 17.0601L9.09425 17.8234C9.49675 18.5034 10.5026 18.5034 10.9059 17.8234ZM6.25008 8.09591C6.25008 9.55591 8.05258 11.1084 9.15841 11.9234C9.53675 12.2026 9.72591 12.3417 10.0001 12.3417C10.2742 12.3417 10.4634 12.2026 10.8417 11.9234C11.9476 11.1084 13.7501 9.55675 13.7501 8.09591C13.7501 5.86508 11.6876 5.03175 10.0001 6.75508C8.31258 5.03175 6.25008 5.86508 6.25008 8.09591Z" fill="#5B2E68"/>
<circle cx="17" cy="3" r="3" fill="#5B2E68"/>
</svg>
